<svg xmlns="http://www.w3.org/2000/svg" width="24" height="24" viewBox="0 0 24 24"><title>agenda</title><path fill="#a35425" d="M21.273 24h-4.364V1.091h4.364c.6 0 1.091.491 1.091 1.091v20.727c0 .6-.491 1.091-1.091 1.091z"/><path fill="#7f4122" d="M16.909 24h3.273c.6 0 1.091-.491 1.091-1.091h-4.364V24z"/><path fill="#fff" d="M18 2.182h3.273v20.727H18V2.182z"/><path fill="#c87729" d="M16.909 24H2.727c-.6 0-1.091-.491-1.091-1.091V2.182c0-.6.491-1.091 1.091-1.091h14.182c.6 0 1.091.491 1.091 1.091v20.727c0 .6-.491 1.091-1.091 1.091z"/><path fill="#b06328" d="M16.909 2.182v20.182c0 .327-.218.545-.545.545H2.728c-.709 0-.764 1.091-.055 1.091h14.182c.6 0 1.091-.491 1.091-1.091V2.182c.055-.709-1.036-.655-1.036 0z"/><path fill="#e78825" d="M13.636 1.091c0-.6.491-1.091 1.091-1.091s1.091.491 1.091 1.091z"/><path fill="#b06328" d="M11.455 6.545l1.636-1.091 1.636 1.091V1.636c0-.327.218-.545.545-.545h-3.818v5.455z"/><path fill="#f6b545" d="M13.636 6.545L12 5.454l-1.636 1.091V1.09c0-.6.491-1.091 1.091-1.091h3.273c-.6 0-1.091.491-1.091 1.091v5.455zM14.727 12.764a4.92 4.92 0 0 0-4.8-4.582c-1.418 0-2.782.545-3.709 1.582-.982 1.036-1.418 2.455-1.255 3.873.218 2.182 1.964 3.982 4.091 4.309.273.055.545.055.764.055.873 0 1.691-.218 2.455-.655.273-.164.327-.491.218-.764-.164-.273-.491-.327-.764-.218-.764.436-1.636.6-2.509.436-1.636-.273-3-1.636-3.164-3.327-.109-1.145.218-2.182.982-3s1.8-1.255 2.891-1.255c1.909.055 3.6 1.636 3.709 3.6 0 .273 0 .6-.055.873s-.273.436-.545.436h-.491c-.327 0-.545-.218-.545-.545V11.4c0-.327-.218-.545-.545-.545-.218 0-.436.109-.491.327a2.53 2.53 0 0 0-1.145-.273c-1.2 0-2.182.982-2.182 2.182s.982 2.182 2.182 2.182c.6 0 1.091-.218 1.473-.6.327.382.764.6 1.255.6h.491c.818 0 1.473-.6 1.636-1.364.054-.382.054-.764.054-1.145zm-4.909 1.418c-.6 0-1.091-.491-1.091-1.091S9.218 12 9.818 12s1.091.491 1.091 1.091-.491 1.091-1.091 1.091z"/><path fill="#d5e3ef" d="M21.273 15.218c0 .273-.327.491-.545.327l-1.636-.818 2.182-.545v1.036zM20.727 8.673c0 .273-.327.491-.545.327l-1.636-.818 2.182-.545v1.036zM21.818 21.873c0 .218-.218.382-.436.273l-1.745-.873 2.182-.545v1.145z"/><path fill="#89c763" d="M20.727 14.727h-1.636V9.272h1.636c.327 0 .545.218.545.545v4.364c0 .327-.218.545-.545.545z"/><path fill="#7f4122" d="M21.273 22.091l.109.055c.218.109.436-.055.436-.273v-1.145l-.545.109v1.255z"/><path fill="#70b7e5" d="M21.273 21.273h-1.636v-5.455h1.636c.327 0 .545.218.545.545v4.364c0 .327-.218.545-.545.545z"/><path fill="#f79548" d="M20.182 8.182h-1.636V2.727h1.636c.327 0 .545.218.545.545v4.364c0 .327-.218.545-.545.545z"/><path fill="#f37321" d="M20.182 4.091v2.727c0 .164-.109.273-.273.273-.164 0-.273-.109-.273-.273V4.091c0-.164.109-.273.273-.273.164 0 .273.109.273.273z"/><path fill="#72af48" d="M20.727 10.636v2.727c0 .164-.109.273-.273.273-.164 0-.273-.109-.273-.273v-2.727c0-.164.109-.273.273-.273.164 0 .273.109.273.273z"/><path fill="#4c9cd6" d="M21.273 17.182v2.727c0 .164-.109.273-.273.273-.164 0-.273-.109-.273-.273v-2.727c0-.164.109-.273.273-.273.164 0 .273.109.273.273z"/></svg>