<svg xmlns="http://www.w3.org/2000/svg" width="24" height="24" viewBox="0 0 24 24"><title>barcode-scan</title><path d="M18.5 16a.5.5 0 0 0-.5.5v1a.5.5 0 0 0 1 0v-1a.5.5 0 0 0-.5-.5zM15.5 16a.5.5 0 0 0-.5.5v1a.5.5 0 0 0 1 0v-1a.5.5 0 0 0-.5-.5zM10.5 16a.5.5 0 0 0-.5.5v1a.5.5 0 0 0 1 0v-1a.5.5 0 0 0-.5-.5zM8.5 16a.5.5 0 0 0-.5.5v1a.5.5 0 0 0 1 0v-1a.5.5 0 0 0-.5-.5zM6.5 16a.5.5 0 0 0-.5.5v1a.5.5 0 0 0 1 0v-1a.5.5 0 0 0-.5-.5zM22 3h-1.5a.5.5 0 0 0 0 1H22c.552 0 1 .449 1 1v1.5a.5.5 0 0 0 1 0V5c0-1.103-.897-2-2-2zM.5 7a.5.5 0 0 0 .5-.5V5c0-.551.448-1 1-1h1.5a.5.5 0 0 0 0-1H2C.897 3 0 3.897 0 5v1.5a.5.5 0 0 0 .5.5zM23.5 17a.5.5 0 0 0-.5.5V19c0 .551-.448 1-1 1h-1.5a.5.5 0 0 0 0 1H22c1.103 0 2-.897 2-2v-1.5a.5.5 0 0 0-.5-.5zM3.5 20H2c-.552 0-1-.449-1-1v-1.5a.5.5 0 0 0-1 0V19c0 1.103.897 2 2 2h1.5a.5.5 0 0 0 0-1z"/><path d="M23.5 11H.5a.5.5 0 0 0 0 1H3v5.5a.5.5 0 0 0 1 0V12h2v2.5a.5.5 0 0 0 1 0V12h1v2.5a.5.5 0 0 0 1 0V12h1v2.5a.5.5 0 0 0 1 0V12h2v5.5a.5.5 0 0 0 1 0V12h1v2.5a.5.5 0 0 0 1 0V12h2v2.5a.5.5 0 0 0 1 0V12h1v5.5a.5.5 0 0 0 1 0V12h2.5a.5.5 0 0 0 0-1zM3.5 6a.5.5 0 0 0-.5.5v3a.5.5 0 0 0 1 0v-3a.5.5 0 0 0-.5-.5zM6.5 10a.5.5 0 0 0 .5-.5v-3a.5.5 0 0 0-1 0v3a.5.5 0 0 0 .5.5zM8.5 10a.5.5 0 0 0 .5-.5v-3a.5.5 0 0 0-1 0v3a.5.5 0 0 0 .5.5zM10.5 10a.5.5 0 0 0 .5-.5v-3a.5.5 0 0 0-1 0v3a.5.5 0 0 0 .5.5zM13.5 10a.5.5 0 0 0 .5-.5v-3a.5.5 0 0 0-1 0v3a.5.5 0 0 0 .5.5zM15.5 10a.5.5 0 0 0 .5-.5v-3a.5.5 0 0 0-1 0v3a.5.5 0 0 0 .5.5zM18.5 10a.5.5 0 0 0 .5-.5v-3a.5.5 0 0 0-1 0v3a.5.5 0 0 0 .5.5zM20.5 10a.5.5 0 0 0 .5-.5v-3a.5.5 0 0 0-1 0v3a.5.5 0 0 0 .5.5z"/></svg>