<svg xmlns="http://www.w3.org/2000/svg" width="300" height="300" viewBox="0 0 30 32"><title>BG-shape-1</title><path d="M29.089 18.153a.642.642 0 0 1-.884.243c-.312-.173-.416-.572-.243-.884s.572-.425.884-.243a.642.642 0 0 1 .243.884zm-1.811 5.225a.966.966 0 1 1-.364-1.317c.468.26.633.849.364 1.317zM26.35 6.854c-.433-.251-.589-.806-.338-1.239s.806-.589 1.239-.347a.912.912 0 0 1-.901 1.586zm-2.876 3.648a.92.92 0 0 1-1.239.347c-.433-.251-.589-.806-.338-1.239s.806-.589 1.239-.347a.908.908 0 0 1 .338 1.239zM14.02 31.134a.85.85 0 0 1-1.152.321.85.85 0 0 1-.321-1.152.85.85 0 0 1 1.152-.321.835.835 0 0 1 .321 1.152zm-1.135-6.976c-.745-.425-1.014-1.378-.589-2.132s1.378-1.014 2.123-.589c.745.425 1.014 1.378.589 2.132s-1.378 1.014-2.123.589zM5.606 26.48c-.208.373-.685.503-1.057.295s-.503-.685-.295-1.057c.208-.373.685-.503 1.057-.295s.511.685.295 1.057zm4.593-22.971c-.511.901-1.664 1.222-2.565.711s-1.222-1.664-.702-2.565C7.443.754 8.596.433 9.497.944s1.213 1.664.702 2.565zm19.054 13.526a8.16 8.16 0 0 1-1.525-9.999c.043-.078.087-.147.13-.217.026-.035.052-.078.078-.113a1.303 1.303 0 0 0-.485-1.776 1.302 1.302 0 0 0-1.707.381 8.162 8.162 0 0 1-10.658 2.34 8.131 8.131 0 0 1-3.96-5.468A2.603 2.603 0 0 0 9.852.337a2.57 2.57 0 0 0-3.509.971 2.582 2.582 0 0 0 .191 2.842c-.009 0-.009.009-.017.009A5.37 5.37 0 0 1 6.5 9.41a5.364 5.364 0 0 1-4.965 2.704 1.311 1.311 0 0 0-1.343.659 1.32 1.32 0 0 0 .494 1.802c.295.165.624.208.927.139v.009a5.365 5.365 0 0 1 3.605.607 5.357 5.357 0 0 1 2.01 7.296 5.316 5.316 0 0 1-2.66 2.322 1.246 1.246 0 0 0-.685.563 1.221 1.221 0 0 0 .459 1.672c.52.295 1.17.165 1.542-.269a3.662 3.662 0 0 1 4.419-.607 3.684 3.684 0 0 1 1.733 4.159 1.277 1.277 0 0 0 .624 1.386c.615.347 1.404.13 1.75-.485.121-.208.173-.442.165-.667 0-.017 0-.035-.009-.052 0-.035-.009-.069-.009-.104a6.987 6.987 0 0 1 .884-4.194c1.915-3.379 6.204-4.558 9.584-2.643.165.095.329.191.477.303.069.061.147.113.225.165.693.39 1.568.147 1.967-.546.208-.364.234-.771.121-1.144a3.662 3.662 0 0 1 .381-2.66 3.79 3.79 0 0 1 1.005-1.144 1.02 1.02 0 0 0 .26-.312 1.087 1.087 0 0 0-.208-1.334z"/></svg>