<svg xmlns="http://www.w3.org/2000/svg" width="24" height="24" viewBox="0 0 24 24"><title>business</title><path fill="#f7b081" d="M17.451 11.165c-.125-.76-.526-1.665-1.73-1.665a.352.352 0 0 0-.347.293l-.231 1.36a10.54 10.54 0 0 1-.372 1.521c-.431 1.307-.975 1.977-1.94 2.39-.464.198-.84.368-.991.436h-1.805a.352.352 0 0 0-.352.352v6.378c0 .195.158.352.352.352h1.757l.757.613a3.593 3.593 0 0 0 2.253.798h2.145a.352.352 0 0 0 .173-.658v-7.032h-.438l.737-3.715c.097-.487.108-.965.033-1.422z"/><path fill="#efe7e4" d="M10.035 14.867H7.299a.352.352 0 0 0-.352.352v7.529c0 .195.158.352.352.352h2.736a.352.352 0 0 0 .352-.352v-7.529a.352.352 0 0 0-.352-.352z"/><path fill="#d8d1d0" d="M6.947 21.697v1.051c0 .195.158.352.352.352h2.736a.352.352 0 0 0 .352-.352v-1.051h-3.44z"/><path fill="#dd9a76" d="M16.171 22.985c0-.56.454-1.014 1.014-1.014a1.014 1.014 0 0 1 0-2.029 1.014 1.014 0 0 1 0-2.028 1.014 1.014 0 0 1 0-2.029h-1.151a1.014 1.014 0 0 0 0 2.029 1.014 1.014 0 0 0 0 2.028 1.014 1.014 0 0 0 0 2.029 1.014 1.014 0 0 0 0 2.029h1.151c-.56 0-1.014-.454-1.014-1.015z"/><path fill="#f7cb4f" d="M8.092 5.081a.654.654 0 0 0-.532-.448L5.959 4.4l-.716-1.451c-.112-.226-.338-.367-.591-.367s-.479.141-.591.367L3.345 4.4l-1.601.233c-.25.036-.454.208-.532.448s-.014.499.167.675l1.159 1.129-.273 1.595a.654.654 0 0 0 .262.644.655.655 0 0 0 .694.05l1.432-.753 1.432.753c.224.118.489.098.694-.05s.305-.395.262-.644l-.274-1.595 1.159-1.129a.654.654 0 0 0 .167-.675z"/><path fill="#fbab00" d="M7.561 4.633l-.036-.005-1.81 1.787a.394.394 0 0 0-.113.349l.427 2.381.057.03c.224.118.489.098.694-.05s.305-.395.262-.644l-.274-1.595 1.159-1.129c.181-.176.245-.435.167-.675s-.282-.412-.532-.448z"/><path fill="#f7cb4f" d="M15.5 2.499a.654.654 0 0 0-.532-.448l-1.601-.233-.716-1.451C12.539.141 12.313 0 12.06 0s-.479.141-.591.367l-.716 1.451-1.601.233c-.25.036-.454.208-.532.448s-.014.499.167.675l1.159 1.129-.274 1.595c-.043.249.058.496.262.644s.47.168.694.05l1.432-.753 1.432.753a.658.658 0 0 0 .956-.694l-.274-1.595 1.159-1.129a.654.654 0 0 0 .167-.675z"/><path fill="#fbab00" d="M14.186 6.542a.654.654 0 0 0 .262-.644l-.274-1.595 1.159-1.129c.181-.176.245-.435.167-.675s-.282-.412-.532-.448l-.015-.002-1.831 1.784a.394.394 0 0 0-.113.349l.332 1.933.079.44.073.038a.658.658 0 0 0 .694-.05z"/><path fill="#f7cb4f" d="M22.894 5.081a.654.654 0 0 0-.532-.448L20.761 4.4l-.716-1.451c-.112-.226-.338-.367-.591-.367s-.479.141-.591.367L18.147 4.4l-1.601.233c-.25.036-.454.208-.532.448s-.014.499.167.675l1.159 1.129-.274 1.595c-.043.249.058.496.262.644s.47.168.694.05l1.432-.753 1.432.753a.658.658 0 0 0 .956-.694l-.274-1.595 1.159-1.129a.654.654 0 0 0 .167-.675z"/><path fill="#fbab00" d="M22.894 5.081a.654.654 0 0 0-.532-.448l-.028-.004-1.818 1.786a.394.394 0 0 0-.113.349l.385 2.359.099.052a.658.658 0 0 0 .956-.694l-.274-1.595 1.159-1.129a.654.654 0 0 0 .167-.675z"/><path fill="#546f7a" d="M7.299 14.134H1.38a.352.352 0 0 0-.352.352v8.993c0 .195.158.352.352.352h5.919a.352.352 0 0 0 .352-.352v-8.993a.352.352 0 0 0-.352-.352z"/><path fill="#465a65" d="M1.028 22.481v.998c0 .195.158.352.352.352h5.919a.352.352 0 0 0 .352-.352v-.998H1.027z"/><path fill="#353535" d="M5.991 21.67a.56.56 0 1 1-1.122 0 .56.56 0 0 1 1.122 0z"/><path fill="#ffc89f" d="M20.661 15.884h-3.668a1.18 1.18 0 0 0-1.18 1.18v.197c0 .651.529 1.18 1.18 1.18h3.668a1.18 1.18 0 0 0 1.18-1.18v-.197a1.18 1.18 0 0 0-1.18-1.18z"/><path fill="#f7b081" d="M20.661 17.304h-3.668c-.484 0-.9-.292-1.082-.71a1.17 1.17 0 0 0-.098.47v.197c0 .651.529 1.18 1.18 1.18h3.668a1.18 1.18 0 0 0 1.18-1.18v-.197a1.17 1.17 0 0 0-.098-.47c-.182.417-.598.71-1.082.71z"/><path fill="#ffc89f" d="M21.089 17.737h-4.096a1.18 1.18 0 0 0-1.18 1.18v.197c0 .651.529 1.18 1.18 1.18h4.096a1.18 1.18 0 0 0 1.18-1.18v-.197a1.18 1.18 0 0 0-1.18-1.18z"/><path fill="#f7b081" d="M21.089 19.167h-4.096a1.18 1.18 0 0 1-1.084-.715c-.061.143-.096.3-.096.465v.197c0 .651.529 1.18 1.18 1.18h4.096a1.18 1.18 0 0 0 1.18-1.18v-.197c0-.165-.034-.322-.096-.465-.181.42-.599.715-1.084.715z"/><path fill="#ffc89f" d="M20.562 19.59h-3.471c-.705 0-1.279.574-1.279 1.279s.574 1.279 1.279 1.279h3.471c.705 0 1.279-.574 1.279-1.279s-.574-1.279-1.279-1.279z"/><path fill="#f7b081" d="M20.562 20.998h-3.471c-.498 0-.931-.287-1.142-.704a1.28 1.28 0 0 0 1.142 1.854h3.471a1.28 1.28 0 0 0 1.142-1.854 1.28 1.28 0 0 1-1.142.704z"/><path fill="#ffc89f" d="M19.607 21.443h-2.515c-.705 0-1.279.574-1.279 1.279s.574 1.279 1.279 1.279h2.515c.705 0 1.279-.574 1.279-1.279s-.574-1.279-1.279-1.279z"/><path fill="#f7b081" d="M19.607 22.851h-2.515a1.28 1.28 0 0 1-1.142-.704A1.28 1.28 0 0 0 17.092 24h2.515a1.28 1.28 0 0 0 1.142-1.853 1.28 1.28 0 0 1-1.142.704z"/></svg>