<svg xmlns="http://www.w3.org/2000/svg" width="24" height="24" viewBox="0 0 24 24"><title>certificate</title><path fill="#d5e3ef" d="M18.545 4.909v16.909c0 .6-.491 1.091-1.091 1.091H2.181c-.6 0-1.091-.491-1.091-1.091V1.091C1.09.491 1.581 0 2.181 0h11.455v3.818c0 .6.491 1.091 1.091 1.091h3.818z"/><path fill="#99b4cd" d="M18.545 4.909h-3.818c-.6 0-1.091-.491-1.091-1.091V0l4.909 4.909z"/><path fill="#c9d5e3" d="M18.545 15.818l-4.909 3.818h2.455c.164 0 .327-.055.491-.109l1.964-.982v-2.727zM18.545 4.909h-3.273l3.273 2.182z"/><path fill="#3689c9" d="M22.527 11.073l-.327-.327c-.218-.218-.6-.382-.927-.382s-.709.164-.927.382l-6.164 6.164 2.182 2.182 6.164-6.164c.273-.273.382-.6.382-.927 0-.327-.164-.709-.382-.927z"/><path fill="#3d545f" d="M3.545 7.091h4.364c.164 0 .273.109.273.273 0 .164-.109.273-.273.273H3.545c-.164 0-.273-.109-.273-.273 0-.164.109-.273.273-.273zM6.818 10.364h4.364c.164 0 .273.109.273.273 0 .164-.109.273-.273.273H6.818c-.164 0-.273-.109-.273-.273 0-.164.109-.273.273-.273zM7.909 12h5.455c.164 0 .273.109.273.273 0 .164-.109.273-.273.273H7.909c-.164 0-.273-.109-.273-.273 0-.164.109-.273.273-.273zM3.545 8.727h3.273c.164 0 .273.109.273.273 0 .164-.109.273-.273.273H3.545c-.164 0-.273-.109-.273-.273 0-.164.109-.273.273-.273zM12.273 7.091h3.273c.164 0 .273.109.273.273 0 .164-.109.273-.273.273h-3.273c-.164 0-.273-.109-.273-.273 0-.164.109-.273.273-.273zM9 7.091h2.182c.164 0 .273.109.273.273 0 .164-.109.273-.273.273H9c-.164 0-.273-.109-.273-.273 0-.164.109-.273.273-.273zM13.909 8.727H15c.164 0 .273.109.273.273 0 .164-.109.273-.273.273h-1.091c-.164 0-.273-.109-.273-.273 0-.164.109-.273.273-.273zM14.455 12h1.091c.164 0 .273.109.273.273 0 .164-.109.273-.273.273h-1.091c-.164 0-.273-.109-.273-.273 0-.164.109-.273.273-.273zM6.818 13.636H9c.164 0 .273.109.273.273 0 .164-.109.273-.273.273H6.818c-.164 0-.273-.109-.273-.273 0-.164.109-.273.273-.273zM11.727 19.091h2.182c.164 0 .273.109.273.273 0 .164-.545.273-.545.273h-1.909c-.164 0-.273-.109-.273-.273 0-.164.109-.273.273-.273zM12.273 10.364h2.182c.164 0 .273.109.273.273 0 .164-.109.273-.273.273h-2.182c-.164 0-.273-.109-.273-.273 0-.164.109-.273.273-.273zM7.909 8.727h4.909c.164 0 .273.109.273.273 0 .164-.109.273-.273.273H7.909c-.164 0-.273-.109-.273-.273 0-.164.109-.273.273-.273zM7.364 4.909h4.909c.164 0 .273.109.273.273 0 .164-.109.273-.273.273H7.364c-.164 0-.273-.109-.273-.273 0-.164.109-.273.273-.273zM3.545 10.364h2.182c.164 0 .273.109.273.273 0 .164-.109.273-.273.273H3.545c-.164 0-.273-.109-.273-.273 0-.164.109-.273.273-.273zM3.545 12h3.273c.164 0 .273.109.273.273 0 .164-.109.273-.273.273H3.545c-.164 0-.273-.109-.273-.273 0-.164.109-.273.273-.273zM3.545 13.636h2.182c.164 0 .273.109.273.273 0 .164-.109.273-.273.273H3.545c-.164 0-.273-.109-.273-.273 0-.164.109-.273.273-.273z"/><path fill="#ee2c39" d="M8.182 24l-1.636-.545L4.91 24v-3.818h3.273z"/><path fill="#cc202c" d="M8.182 21.436v-.709H4.909V24l1.636-.545v-1.636c.6 0 1.145-.109 1.636-.382z"/><path fill="#f6b545" d="M9.273 18.545a2.727 2.727 0 1 1-5.454 0 2.727 2.727 0 0 1 5.454 0z"/><path fill="#e78825" d="M7.636 18.545a1.09 1.09 0 1 1-2.18.001 1.09 1.09 0 0 1 2.18-.001z"/><path fill="#ffcb5b" d="M4.364 19.091c-.327 0-.545-.218-.545-.545a2.7 2.7 0 0 1 2.727-2.727c.327 0 .545.218.545.545s-.218.545-.545.545c-.927 0-1.636.709-1.636 1.636 0 .327-.218.545-.545.545z"/><path fill="#f19920" d="M8.727 18c.327 0 .545.218.545.545a2.7 2.7 0 0 1-2.727 2.727c-.327 0-.545-.218-.545-.545s.218-.545.545-.545c.927 0 1.636-.709 1.636-1.636 0-.327.218-.545.545-.545z"/><path fill="#1470b8" d="M22.909 12c0-.491-.6-.709-.927-.382l-6.545 6.545.927.927 6.164-6.164c.109-.109.218-.218.273-.382s.109-.382.109-.545z"/><path fill="#4c9cd6" d="M15.109 16.964c-.055 0-.164 0-.218-.055a.264.264 0 0 1 0-.382l1.636-1.636c.109-.109.273-.109.382 0s.109.273 0 .382l-1.636 1.636c-.054.055-.109.055-.164.055zM17.455 14.618c-.055 0-.164 0-.218-.055a.264.264 0 0 1 0-.382l.545-.545c.109-.109.273-.109.382 0s.109.273 0 .382l-.545.545s-.109.055-.164.055z"/><path fill="#82a7c4" d="M16.364 19.091l-2.727.545.545-2.727z"/><path fill="#6c9abb" d="M13.636 19.636l2.727-.545-.927-.927z"/></svg>