<svg xmlns="http://www.w3.org/2000/svg" width="15" height="15" viewBox="0 0 30 32"><title>icon-d</title><path d="M6.664 22.033l-3.142.018L6.84 20.98l2.128-10.613-3.049-.987 3.242.021h3.314c1.522 0 2.741.48 3.658 1.439s1.376 2.219 1.376 3.783c0 1.417-.298 2.689-.891 3.815s-1.407 2.006-2.438 2.642a6.343 6.343 0 0 1-3.392.954H6.664zM11.484 32l1.135-5.582c1.46-.254 2.83-.709 4.109-1.368 2.084-1.073 3.721-2.574 4.908-4.503 1.188-1.927 1.782-4.111 1.782-6.55 0-1.833-.412-3.449-1.235-4.846-.824-1.396-2.001-2.48-3.533-3.251a10.14 10.14 0 0 0-1.728-.654L17.988.001h-5.132l-.964 4.742H4.345L-.001 26.661h7.438l-1.085 5.34h5.132z"/></svg>