<svg xmlns="http://www.w3.org/2000/svg" width="129" height="24" viewBox="0 0 129 24"><title>Dagcoin_logo</title><path d="M18.081 9.6a6.203 6.203 0 0 0-2.88-2.64c-1.2-.6-2.64-.96-4.32-.96h-7.08L.321 23.64h7.8c2.04 0 3.96-.48 5.52-1.32 1.68-.84 3-2.04 3.96-3.6s1.44-3.24 1.44-5.28c0-1.44-.36-2.64-.96-3.84zm-4.44 7.44c-.48.96-1.08 1.56-1.92 2.16-.84.48-1.68.72-2.76.72h-3.36l2.04-10.08h2.64c1.2 0 2.16.36 2.88 1.2.72.72 1.08 1.8 1.08 3 0 1.08-.12 2.16-.6 3zm18.6-10.92h-4.68l-10.44 17.52h4.68l1.68-3.12h7.56l.72 3.12h4.92l-4.44-17.52zm-6.72 10.92l3.48-6.36 1.32 6.36h-4.8zm25.32-2.4h3.96l-1.44 6.96c-1.08.72-2.16 1.2-3.48 1.68-1.32.36-2.52.6-3.72.6-1.68 0-3.12-.36-4.44-1.08s-2.28-1.68-3-3c-.72-1.2-1.08-2.64-1.08-4.2 0-1.8.48-3.48 1.44-4.92s2.28-2.64 3.84-3.6c1.56-.84 3.36-1.32 5.4-1.32 1.32 0 2.52.24 3.84.72 1.2.48 2.28 1.08 3.12 1.92l-2.88 3.24c-.6-.6-1.2-1.08-2.04-1.44s-1.56-.48-2.4-.48c-.96 0-1.92.24-2.76.72s-1.56 1.2-2.04 2.04c-.48.84-.72 1.8-.72 2.88 0 .84.24 1.68.6 2.4s.96 1.32 1.56 1.68c.72.36 1.44.6 2.28.6s1.92-.24 3-.84l.96-4.56zm20.4-8.04c1.2.48 2.16 1.32 3 2.16l-3 3.24c-.48-.72-1.08-1.32-1.8-1.68-.72-.48-1.44-.6-2.28-.6-.96 0-1.8.24-2.64.72s-1.44 1.2-1.92 2.04c-.48.84-.72 1.8-.72 2.76 0 .84.24 1.68.6 2.4s.84 1.2 1.56 1.68c.6.36 1.44.6 2.16.6s1.44-.24 2.28-.6c.84-.36 1.56-.84 2.28-1.44l2.4 2.88c-1.08.96-2.28 1.8-3.6 2.4s-2.64.84-3.96.84c-1.56 0-3-.36-4.32-1.08s-2.28-1.68-3-3c-.72-1.2-1.08-2.64-1.08-4.2 0-1.8.48-3.48 1.32-5.04.96-1.44 2.16-2.64 3.72-3.48s3.36-1.32 5.16-1.32c1.32 0 2.64.24 3.84.72zm21.48 3.24c-.72-1.2-1.8-2.28-3-2.88-1.32-.72-2.76-1.08-4.44-1.08-1.92 0-3.6.48-5.28 1.32-1.56.84-2.88 2.04-3.84 3.48s-1.44 3.12-1.44 5.04c0 1.56.36 3 1.08 4.2s1.68 2.28 3 3c1.32.72 2.76 1.08 4.44 1.08 1.92 0 3.6-.48 5.28-1.32 1.56-.84 2.88-2.04 3.84-3.6s1.44-3.12 1.44-5.04c0-1.56-.36-3-1.08-4.2zm-4.32 7.32c-.48.84-1.08 1.56-1.92 2.04s-1.68.72-2.64.72c-.84 0-1.56-.24-2.16-.6-.72-.36-1.2-.96-1.56-1.68s-.6-1.56-.6-2.4c0-.96.24-1.92.72-2.88.48-.84 1.2-1.56 2.04-2.04s1.68-.72 2.64-.72c.84 0 1.44.24 2.16.6.6.36 1.2.96 1.56 1.68s.6 1.56.6 2.4c-.12 1.08-.36 2.04-.84 2.88zm14.04-11.04l-3.48 17.52h-4.56l3.48-17.52h4.56zm15.36 0h4.2l-3.48 17.52h-3.96l-5.76-10.44-2.16 10.44h-4.32l3.48-17.52h3.96l5.88 10.56 2.16-10.56zm9-6.12c-1.08 0-2.04.96-2.04 2.04s.96 2.04 2.04 2.04 2.04-.96 2.04-2.04c.12-1.08-.84-2.04-2.04-2.04zm0 3.84c-.96 0-1.8-.84-1.8-1.8s.84-1.8 1.8-1.8c.96 0 1.8.84 1.8 1.8s-.84 1.8-1.8 1.8zm.36-1.56s-.12-.12 0 0c0-.12.12-.12.12-.24.12 0 .12-.12.12-.12s.12-.12.12-.24v-.24-.24s-.12-.12-.12-.24c-.12 0-.12-.12-.24-.12h-.96v2.28h.24v-.84h.36l.6.84.12.12h.24l-.6-.96zm-.36-.24h-.36V1.2h.36c.12 0 .36 0 .36.12.12.12.12.12.12.36v.12s0 .12-.12.12l-.12.12h-.24z"/></svg>