<svg xmlns="http://www.w3.org/2000/svg" width="24" height="24" viewBox="0 0 24 24"><title>download3</title><path d="M23.254 16.446c-.333 0-.604.292-.604.65v2.487c0 1.435-1.084 2.603-2.416 2.603H3.75c-1.332 0-2.416-1.168-2.416-2.603v-2.486c0-.36-.27-.65-.605-.65-.333 0-.604.29-.604.65v2.486c0 2.153 1.626 3.904 3.625 3.904h16.484c1.998 0 3.625-1.751 3.625-3.904v-2.486c0-.36-.27-.65-.605-.65z"/><path d="M20.171 20.433H3.904c-.357 0-.647-.25-.647-.56s.29-.559.647-.559h16.267c.358 0 .647.25.647.56 0 .308-.29.559-.647.559zM17.633 10.607a.56.56 0 0 0-.791-.045l-4.322 3.867V3.546a.561.561 0 1 0-1.121 0v10.883l-4.322-3.867a.56.56 0 1 0-.747.837l4.696 4.202a1.396 1.396 0 0 0 1.867 0L17.59 11.4a.562.562 0 0 0 .044-.792z"/></svg>