<svg xmlns="http://www.w3.org/2000/svg" width="64" height="64" viewBox="0 0 64 64"><title>favorite_star</title><path fill="#ffdc64" d="M62.49 23.532l-20.73-1.923-8.235-19.121c-.577-1.339-2.475-1.339-3.051 0L22.24 21.609 1.51 23.531c-1.452.135-2.038 1.94-.943 2.902l15.641 13.74-4.577 20.309c-.32 1.422 1.215 2.538 2.469 1.794l17.901-10.629 17.901 10.629c1.253.744 2.789-.371 2.469-1.794l-4.577-20.309 15.641-13.74c1.095-.962.508-2.767-.943-2.902z"/><path fill="#ffc850" d="M33.526 2.489c-.577-1.339-2.475-1.339-3.051 0L22.241 21.61l-20.73 1.922c-1.452.135-2.038 1.94-.943 2.902l15.641 13.74-4.577 20.309c-.32 1.422 1.215 2.538 2.469 1.794l3.995-2.372c.553-22.763 11.129-38.792 19.503-47.962l-4.072-9.454z"/></svg>