<svg xmlns="http://www.w3.org/2000/svg" width="24" height="24" viewBox="0 0 24 24"><title>paired_devices</title><path d="M6.039 7.819c-1.594-.015-2.894-1.34-2.879-2.934s1.341-2.94 2.934-2.925 2.893 1.386 2.878 2.98c-.002.234-.004.47-.053.656l7.039 4.191A3.02 3.02 0 0 1 21 12.037a3.02 3.02 0 0 1-5.084 2.156l-7.069 4.012c.045.234.09.47.088.703-.016 1.641-1.388 2.987-3.029 2.972s-2.987-1.387-2.971-3.028 1.387-2.987 3.028-2.972c.797.008 1.497.342 2.055.864l7.07-4.059c-.045-.234-.09-.47-.088-.704s.052-.468.1-.702L8.016 7.087a2.934 2.934 0 0 1-1.976.732z" class="selected"/></svg>