<svg xmlns="http://www.w3.org/2000/svg" width="24" height="24" viewBox="0 0 24 24"><title>safe</title><path fill="#3e7777" d="M20.4 23.24c0 .4-.32.76-.76.76h-.88a.76.76 0 0 1-.76-.76v-1.28c0-.4.32-.76.76-.76h.88c.4 0 .76.32.76.76v1.28zM5.6 23.24c0 .4-.32.76-.76.76h-.88a.76.76 0 0 1-.76-.76v-1.28c0-.4.32-.76.76-.76h.88c.4 0 .76.32.76.76v1.28z"/><path fill="#97b8bf" d="M23.2 20.16c0 1.24-.96 2.24-2.2 2.24H3c-1.24 0-2.2-1-2.2-2.24v-18C.8.92 1.76 0 3 0h18c1.24 0 2.2.92 2.2 2.12v18.04z"/><path fill="#719fa3" d="M23.2 6l-3.16-3.16-16.4 16.4 3.04 3.12H21c1.24 0 2.2-1 2.2-2.24V6z"/><path fill="#b9d7db" d="M20.8 18.08c0 .96-.92 1.92-1.84 1.92H5.04c-.96 0-1.84-.96-1.84-1.92V4.2c0-.96.92-1.8 1.84-1.8h13.92c.96 0 1.84.84 1.84 1.8v13.88z"/><path fill="#99bec1" d="M3.2 9.04L14.12 20h4.04L3.84 5.64l-.64.48zM3.2 17.08L6.08 20h4l-6.24-6.28-.64.44z"/><path fill="#cae8ea" d="M4.4 8.48c0 .4-.32.72-.72.72h-.2c-.4 0-.72-.32-.72-.72v-2.2c0-.4.32-.72.72-.72h.2c.4 0 .72.32.72.72v2.2zM4.4 16.48c0 .4-.32.72-.72.72h-.2c-.4 0-.72-.32-.72-.72v-2.2c0-.4.32-.72.72-.72h.2c.4 0 .72.32.72.72v2.2z"/><path fill="#bae1e2" d="M3.68 5.6c.4 0 .72.32.72.72v2.2c0 .4-.32.72-.72.72zM3.68 13.6c.4 0 .72.32.72.72v2.2c0 .4-.32.72-.72.72z"/><path fill="#05365b" d="M15.56 4.32c-2.12 0-3.88 1.72-3.88 3.88 0 2.12 1.72 3.88 3.88 3.88s3.88-1.72 3.88-3.88-1.76-3.88-3.88-3.88zm0 6.28c-1.32 0-2.4-1.08-2.4-2.4s1.08-2.4 2.4-2.4 2.4 1.08 2.4 2.4-1.08 2.4-2.4 2.4z"/><path fill="#24966a" d="M16.56 8.2a1 1 0 1 1-2 0 1 1 0 0 1 2 0z"/><path fill="#137f53" d="M16.24 7.48c.4.4.4 1 0 1.4s-1 .4-1.4 0z"/><path fill="#a6c7c9" d="M21.2.8c0 .24-.16.4-.4.4H3.2c-.24 0-.4-.16-.4-.4 0-.24.16-.4.4-.4h17.6c.24 0 .4.16.4.4z"/><path fill="#137f53" d="M14.44 13.28c0 .08-.08.16-.16.16h-.44c-.08 0-.16-.08-.16-.16v-.48c0-.08.08-.16.16-.16h.44c.08 0 .16.08.16.16v.48zM16 13.28c0 .08-.08.16-.16.16h-.44c-.08 0-.16-.08-.16-.16v-.48c0-.08.08-.16.16-.16h.44c.08 0 .16.08.16.16v.48zM17.52 13.28c0 .08-.08.16-.16.16h-.44c-.08 0-.16-.08-.16-.16v-.48c0-.08.08-.16.16-.16h.44c.08 0 .16.08.16.16v.48zM14.44 14.56c0 .08-.08.16-.16.16h-.44c-.08 0-.16-.08-.16-.16v-.44c0-.08.08-.16.16-.16h.44c.08 0 .16.08.16.16v.44zM16 14.56c0 .08-.08.16-.16.16h-.44c-.08 0-.16-.08-.16-.16v-.44c0-.08.08-.16.16-.16h.44c.08 0 .16.08.16.16v.44zM17.52 14.56c0 .08-.08.16-.16.16h-.44c-.08 0-.16-.08-.16-.16v-.44c0-.08.08-.16.16-.16h.44c.08 0 .16.08.16.16v.44zM14.44 15.88c0 .08-.08.16-.16.16h-.44c-.08 0-.16-.08-.16-.16v-.44c0-.08.08-.16.16-.16h.44c.08 0 .16.08.16.16v.44zM16 15.88c0 .08-.08.16-.16.16h-.44c-.08 0-.16-.08-.16-.16v-.44c0-.08.08-.16.16-.16h.44c.08 0 .16.08.16.16v.44zM17.52 15.88c0 .08-.08.16-.16.16h-.44c-.08 0-.16-.08-.16-.16v-.44c0-.08.08-.16.16-.16h.44c.08 0 .16.08.16.16v.44z"/></svg>