<svg xmlns="http://www.w3.org/2000/svg" width="24" height="24" viewBox="0 0 24 24"><title>transfer</title><path fill="#3a556a" d="M13.341.842H1.307C.586.842.001 1.427.001 2.148v20.547c0 .721.585 1.306 1.306 1.306h12.034c.721 0 1.306-.585 1.306-1.306V2.148c0-.721-.584-1.306-1.306-1.306z"/><path fill="#64798a" d="M13.341 0H1.307C.586 0 .001.585.001 1.306v20.547c0 .721.585 1.306 1.306 1.306h12.034c.721 0 1.306-.585 1.306-1.306V1.306C14.647.585 14.063 0 13.341 0z"/><path fill="#ebf0f3" d="M1.306 19.699c-.023 0-.042-.016-.042-.036V2.231c0-.02.019-.036.042-.036h12.035c.023 0 .042.016.042.036v17.432c0 .02-.019.036-.042.036H1.306z"/><path fill="#3a556a" d="M7.323 22.65a1.165 1.165 0 0 1 0-2.328 1.165 1.165 0 0 1 0 2.328zm0-1.907a.743.743 0 1 0 0 1.487.743.743 0 0 0 0-1.487zM9.282 1.39H5.365a.182.182 0 0 1-.182-.182V.936c0-.101.082-.182.182-.182h3.917c.101 0 .182.082.182.182v.272a.182.182 0 0 1-.182.182z"/><path fill="#3ea69b" d="M23.999 11.74L6.06 15.189l-1.755-9.13L22.244 2.61l1.755 9.13z"/><path fill="#44c4a1" d="M6.446 13.675L5.225 7.322a.75.75 0 0 0 .595-.878L20.982 3.53a.75.75 0 0 0 .878.595l1.221 6.353a.75.75 0 0 0-.595.878L7.324 14.27a.75.75 0 0 0-.878-.595z"/><path fill="#3ea69b" d="M13.554 5.785c1.359-.261 2.728.922 3.059 2.642s-.503 3.326-1.861 3.588c-1.359.261-2.728-.922-3.059-2.642s.503-3.326 1.861-3.588zM21.69 7.56a.567.567 0 1 1-1.134 0 .567.567 0 0 1 1.134 0zM7.751 10.239a.567.567 0 1 1-1.134 0 .567.567 0 0 1 1.134 0z"/><path fill="#44c4a1" d="M14.502 11.434l-.085-.442a2.68 2.68 0 0 1-1.616-.373l.341-.611c.395.229.778.338 1.148.325l-.226-1.174c-.477-.021-.838-.1-1.084-.237s-.402-.38-.469-.729c-.067-.349 0-.658.201-.927s.496-.451.884-.546l-.058-.303.387-.074.059.309c.45-.053.899.018 1.346.212l-.286.632a1.995 1.995 0 0 0-.933-.185l.219 1.138.018-.004c.485.02.854.102 1.107.245s.414.392.482.745-.002.665-.21.935-.515.455-.923.554l.084.436-.387.074zM13.324 7.61c-.086.11-.115.233-.089.368s.087.234.183.297c.095.063.264.109.504.139l-.201-1.047a.732.732 0 0 0-.396.243zm1.784 2.408c.095-.114.129-.242.102-.384s-.093-.245-.198-.31c-.105-.066-.285-.111-.541-.138l.209 1.089a.861.861 0 0 0 .428-.258z"/><path fill="#64798a" d="M2.023 9.216l-.114-.434 2.246-.501.114.434zM2.023 10.953l-.114-.434 2.568-.595.114.434zM2.023 12.69l-.114-.434 2.826-.718.114.434zM2.023 14.427l-.114-.434 3.118-.935.114.434z"/><path fill="#e56353" d="M4.201 16.288h6.245v1.72H4.201v-1.72z"/><path fill="#fff" d="M5.772 16.802c-.047 0-.085.01-.115.029s-.045.048-.045.087c0 .039.015.068.045.089s.094.043.192.066c.098.024.172.057.221.1s.074.106.074.189-.031.151-.094.203a.375.375 0 0 1-.247.078.587.587 0 0 1-.398-.154l.101-.122a.456.456 0 0 0 .301.126c.052 0 .093-.011.124-.033s.046-.052.046-.089-.014-.066-.043-.086-.078-.039-.148-.056c-.07-.017-.124-.032-.16-.046s-.069-.033-.097-.055c-.056-.043-.085-.108-.085-.197s.032-.157.096-.204a.388.388 0 0 1 .239-.072c.061 0 .122.01.182.03s.112.048.156.085l-.086.122a.427.427 0 0 0-.258-.088zM7.015 16.676v.152h-.51v.253h.458v.144h-.458v.256h.526v.152h-.688v-.956h.671zM7.954 16.676h.161v.956H7.94l-.541-.697v.697h-.161v-.956h.161l.555.714v-.714zM9.104 16.801c.092.083.138.199.138.348s-.045.266-.134.353c-.089.087-.226.13-.41.13h-.317v-.956h.328c.171 0 .303.042.395.125zm-.025.352c0-.219-.125-.328-.376-.328h-.161v.655h.179c.116 0 .204-.028.266-.083s.092-.136.092-.244z"/></svg>