<svg xmlns="http://www.w3.org/2000/svg" width="24" height="24" viewBox="0 0 24 24"><title>website</title><path fill="#b0c4d8" d="M22.909 20.182H1.091c-.6 0-1.091-.491-1.091-1.091v-18C0 .491.491 0 1.091 0h21.818C23.509 0 24 .491 24 1.091v18c0 .6-.491 1.091-1.091 1.091z"/><path fill="#99b4cd" d="M7.145 19.091l.327.655-.818.436h5.836c-.436 0-1.964-.436-2.673-1.091H7.144zM15.764 19.091c-.709.655-1.636 1.091-2.673 1.091h5.836l-.273-.436c.109-.218.273-.436.327-.655h-3.218z"/><path fill="#eceff9" d="M1.091 3.273h21.818v15.818H1.091V3.273z"/><path fill="#c4d7e5" d="M18.655 12.982l.982-1.636-1.527-1.527-1.636.982a7 7 0 0 0-1.855-.764l-.436-1.855h-2.182l-.436 1.855a6.98 6.98 0 0 0-1.855.764l-1.636-.982-1.527 1.527.982 1.636a7 7 0 0 0-.764 1.855l-1.855.436v2.182l1.855.436c.109.436.218.818.436 1.2h2.564l-.109-.109 3.491-2.018 3.491 2.018c0 .055-.055.055-.055.109h2.564c.164-.382.327-.764.436-1.2l1.691-.436v-2.182l-1.855-.436a4.323 4.323 0 0 0-.764-1.855zm-6.11 3.054l-3.491 2.018c-.218-.491-.327-1.091-.327-1.691 0-2.236 1.691-4.036 3.818-4.309v3.982zm.546.382zm4.036 1.637l-3.491-2.018v-4.036c2.127.273 3.818 2.127 3.818 4.309 0 .655-.109 1.2-.327 1.745z"/><path fill="#d5e3ef" d="M3 11.455h4.364c.164 0 .273.109.273.273 0 .164-.109.273-.273.273H3c-.164 0-.273-.109-.273-.273 0-.164.109-.273.273-.273zM3 12.545h3.273c.164 0 .273.109.273.273 0 .164-.109.273-.273.273H3c-.164 0-.273-.109-.273-.273 0-.164.109-.273.273-.273zM3 13.636h3.273c.164 0 .273.109.273.273 0 .164-.109.273-.273.273H3c-.164 0-.273-.109-.273-.273 0-.164.109-.273.273-.273zM3 14.727h3.273c.164 0 .273.109.273.273 0 .164-.109.273-.273.273H3c-.164 0-.273-.109-.273-.273 0-.164.109-.273.273-.273zM3 15.818h3.273c.164 0 .273.109.273.273 0 .164-.109.273-.273.273H3c-.164 0-.273-.109-.273-.273 0-.164.109-.273.273-.273zM3 16.909h3.273c.164 0 .273.109.273.273 0 .164-.109.273-.273.273H3c-.164 0-.273-.109-.273-.273 0-.164.109-.273.273-.273zM9.545 11.455h4.909c.164 0 .273.109.273.273 0 .164-.109.273-.273.273H9.545c-.164 0-.273-.109-.273-.273 0-.164.109-.273.273-.273zM9.545 12.545h4.909c.164 0 .273.109.273.273 0 .164-.109.273-.273.273H9.545c-.164 0-.273-.109-.273-.273 0-.164.109-.273.273-.273zM9.545 13.636h4.909c.164 0 .273.109.273.273 0 .164-.109.273-.273.273H9.545c-.164 0-.273-.109-.273-.273 0-.164.109-.273.273-.273zM9.545 14.727h4.909c.164 0 .273.109.273.273 0 .164-.109.273-.273.273H9.545c-.164 0-.273-.109-.273-.273 0-.164.109-.273.273-.273zM9.545 15.818h4.909c.164 0 .273.109.273.273 0 .164-.109.273-.273.273H9.545c-.164 0-.273-.109-.273-.273 0-.164.109-.273.273-.273zM9.545 16.909h4.909c.164 0 .273.109.273.273 0 .164-.109.273-.273.273H9.545c-.164 0-.273-.109-.273-.273 0-.164.109-.273.273-.273z"/><path fill="#b0c4d9" d="M14.727 17.182c0-.164-.109-.273-.273-.273h-3.436l-.927.545h2.182l.818-.491.818.491h.545c.164 0 .273-.109.273-.273zM14.182 16.364l-.545-.327v-.218h-1.091v.218l-.6.327h1.145zM12.545 14.727h1.091v.545h-1.091v-.545zM9.273 13.909c0 .055.055.164.109.218l.327-.491h-.164c-.164 0-.273.109-.273.273zM12.545 13.636h1.091v.545h-1.091v-.545zM12.545 12.545h1.091v.545h-1.091v-.545zM9.273 12.818c0 .164.109.273.273.273h.655c.218-.218.491-.382.764-.545H9.547c-.164 0-.273.109-.273.273z"/><path fill="#d5e3ef" d="M16.909 11.455H21c.164 0 .273.109.273.273 0 .164-.109.273-.273.273h-4.091c-.164 0-.273-.109-.273-.273 0-.164.109-.273.273-.273zM17.727 12.545H21c.164 0 .273.109.273.273 0 .164-.109.273-.273.273h-3.273c-.164 0-.273-.109-.273-.273 0-.164.109-.273.273-.273zM17.727 13.636H21c.164 0 .273.109.273.273 0 .164-.109.273-.273.273h-3.273c-.164 0-.273-.109-.273-.273 0-.164.109-.273.273-.273zM17.727 14.727H21c.164 0 .273.109.273.273 0 .164-.109.273-.273.273h-3.273c-.164 0-.273-.109-.273-.273 0-.164.109-.273.273-.273z"/><path fill="#b0c4d9" d="M17.727 15.818H21c.164 0 .273.109.273.273 0 .164-.109.273-.273.273h-3.273c-.164 0-.273-.109-.273-.273 0-.164.109-.273.273-.273zM17.727 16.909H21c.164 0 .273.109.273.273 0 .164-.109.273-.273.273h-3.273c-.164 0-.273-.109-.273-.273 0-.164.109-.273.273-.273zM21.109 15.218l-1.691-.436v-.109h-1.691c-.164 0-.273.109-.273.273s.109.273.273.273H21c.055.055.109.055.109 0zM19.036 13.636h-1.309c-.164 0-.273.109-.273.273s.109.273.273.273h1.527c-.055-.164-.164-.382-.218-.545zM18.655 12.982l.273-.436h-1.2c-.164 0-.273.109-.273.273s.109.273.273.273h1.036c-.055-.055-.055-.109-.109-.109zM16.909 12h2.345l.327-.545h-2.673c-.164 0-.273.109-.273.273s.109.273.273.273z"/><path fill="#d5e3ef" d="M2.727 6h18.545v4.364H2.727V6z"/><path fill="#f04d4e" d="M2.182 1.636a.545.545 0 1 1-1.09 0 .545.545 0 0 1 1.09 0z"/><path fill="#ffcb5b" d="M4.364 1.636a.545.545 0 1 1-1.09 0 .545.545 0 0 1 1.09 0z"/><path fill="#3bb54a" d="M6.545 1.636a.545.545 0 1 1-1.09 0 .545.545 0 0 1 1.09 0z"/><path fill="#e2e7f0" d="M22.364 2.182H8.182c-.327 0-.545-.218-.545-.545 0-.327.218-.545.545-.545h14.182c.327 0 .545.218.545.545 0 .327-.218.545-.545.545z"/><path fill="#b0c4d8" d="M4.091 4.364h3.273c.164 0 .273.109.273.273 0 .164-.109.273-.273.273H4.091c-.164 0-.273-.109-.273-.273 0-.164.109-.273.273-.273zM19.909 4.364H21c.164 0 .273.109.273.273 0 .164-.109.273-.273.273h-1.091c-.164 0-.273-.109-.273-.273 0-.164.109-.273.273-.273zM17.727 4.364h1.091c.164 0 .273.109.273.273 0 .164-.109.273-.273.273h-1.091c-.164 0-.273-.109-.273-.273 0-.164.109-.273.273-.273zM15.545 4.364h1.091c.164 0 .273.109.273.273 0 .164-.109.273-.273.273h-1.091c-.164 0-.273-.109-.273-.273 0-.164.109-.273.273-.273zM3 4.364c-.164 0-.273.109-.273.273 0 .164.109.273.273.273s.273-.109.273-.273c0-.164-.109-.273-.273-.273zm0 .163s0-.055 0 0c0-.055 0 0 0 0z"/><path fill="#b0c4d9" d="M14.182 8.182H12l-.436 1.855c-.382.109-.709.218-1.036.327h5.182a3.768 3.768 0 0 0-1.036-.327l-.491-1.855zM7.527 10.364H9l-.927-.545zM17.182 10.364h1.473l-.545-.545z"/><path fill="#1470b8" d="M20.182 16.909v-2.182l-1.855-.436a6.98 6.98 0 0 0-.764-1.855l.982-1.636-1.527-1.527-1.636.982a7 7 0 0 0-1.855-.764l-.436-1.855h-2.182l-.436 1.855a6.98 6.98 0 0 0-1.855.764l-1.636-.982L5.455 10.8l.982 1.636a7 7 0 0 0-.764 1.855l-1.855.436v2.182l1.855.436a6.98 6.98 0 0 0 .764 1.855l-.982 1.636 1.527 1.527 1.636-.982a7 7 0 0 0 1.855.764L10.909 24h2.182l.436-1.855a6.98 6.98 0 0 0 1.855-.764l1.636.982 1.527-1.527-.982-1.636a7 7 0 0 0 .764-1.855l1.855-.436zM12 15.873zm-.545-4.364v3.982l-3.491 2.018c-.218-.491-.327-1.091-.327-1.691 0-2.236 1.691-4.036 3.818-4.309zM12 20.182c-1.418 0-2.673-.709-3.491-1.745L12 16.419l3.491 2.018A4.314 4.314 0 0 1 12 20.182zm4.036-2.673l-3.491-2.018v-4.036c2.127.273 3.818 2.127 3.818 4.309 0 .655-.109 1.2-.327 1.745z"/><path fill="#3689c9" d="M12 20.182v.545a4.889 4.889 0 0 0 4.909-4.909h-.545c0 2.4-1.964 4.364-4.364 4.364z"/><path fill="#0261a5" d="M12 11.455v-.545a4.889 4.889 0 0 0-4.909 4.909h.545c0-2.4 1.964-4.364 4.364-4.364z"/><path fill="#1470b8" d="M13.091 15.818a1.09 1.09 0 1 1-2.18.001 1.09 1.09 0 0 1 2.18-.001z"/><path fill="#0261a5" d="M12.436 14.836c.055.164.109.273.109.436 0 .6-.491 1.091-1.091 1.091-.164 0-.327-.055-.436-.109.164.382.545.655.982.655.6 0 1.091-.491 1.091-1.091 0-.436-.273-.818-.655-.982zM8.782 18.709l.055.055c-.055-.055-.055-.109-.109-.109 0 .055 0 .055.055.055zM9.164 19.145s0-.055 0 0c-.164-.164-.273-.218-.382-.327.164.109.273.218.382.327zM8.291 17.291l-.327.164v.055c.109.218.218.436.327.6l.055.055c.055.055.109.164.164.218l.164-.055c-.164-.327-.327-.655-.382-1.036zM11.455 11.509v.655A3.518 3.518 0 0 1 12.546 12v-.491c-.164 0-.382-.055-.545-.055s-.382 0-.545.055zM8.509 18.436a.426.426 0 0 0 .218.218l-.218-.218z"/></svg>