<!-- Generated by IcoMoon.io -->
<svg version="1.1" xmlns="http://www.w3.org/2000/svg" width="24" height="24" viewBox="0 0 24 24">
<title>agenda</title>
<path fill="#a35425" d="M21.273 24h-4.364v-22.909h4.364c0.6 0 1.091 0.491 1.091 1.091v20.727c0 0.6-0.491 1.091-1.091 1.091z"></path>
<path fill="#7f4122" d="M16.909 24h3.273c0.6 0 1.091-0.491 1.091-1.091v0h-4.364v1.091z"></path>
<path fill="#fff" d="M18 2.182h3.273v20.727h-3.273v-20.727z"></path>
<path fill="#c87729" d="M16.909 24h-14.182c-0.6 0-1.091-0.491-1.091-1.091v-20.727c0-0.6 0.491-1.091 1.091-1.091h14.182c0.6 0 1.091 0.491 1.091 1.091v20.727c0 0.6-0.491 1.091-1.091 1.091z"></path>
<path fill="#b06328" d="M16.909 2.182v20.182c0 0.327-0.218 0.545-0.545 0.545h-13.636c-0.709 0-0.764 1.091-0.055 1.091v0h14.182c0.6 0 1.091-0.491 1.091-1.091v-20.727c0.055-0.709-1.036-0.655-1.036 0z"></path>
<path fill="#e78825" d="M13.636 1.091c0-0.6 0.491-1.091 1.091-1.091s1.091 0.491 1.091 1.091z"></path>
<path fill="#b06328" d="M11.455 6.545l1.636-1.091 1.636 1.091v-4.909c0-0.327 0.218-0.545 0.545-0.545h-3.818v5.455z"></path>
<path fill="#f6b545" d="M13.636 6.545l-1.636-1.091-1.636 1.091v-5.455c0-0.6 0.491-1.091 1.091-1.091h3.273c-0.6 0-1.091 0.491-1.091 1.091v5.455z"></path>
<path fill="#f6b545" d="M14.727 12.764c-0.164-2.509-2.236-4.527-4.8-4.582-1.418 0-2.782 0.545-3.709 1.582-0.982 1.036-1.418 2.455-1.255 3.873 0.218 2.182 1.964 3.982 4.091 4.309 0.273 0.055 0.545 0.055 0.764 0.055 0.873 0 1.691-0.218 2.455-0.655 0.273-0.164 0.327-0.491 0.218-0.764-0.164-0.273-0.491-0.327-0.764-0.218-0.764 0.436-1.636 0.6-2.509 0.436-1.636-0.273-3-1.636-3.164-3.327-0.109-1.145 0.218-2.182 0.982-3s1.8-1.255 2.891-1.255c1.909 0.055 3.6 1.636 3.709 3.6 0 0.273 0 0.6-0.055 0.873s-0.273 0.436-0.545 0.436h-0.491c-0.327 0-0.545-0.218-0.545-0.545v-2.182c0-0.327-0.218-0.545-0.545-0.545-0.218 0-0.436 0.109-0.491 0.327-0.327-0.164-0.709-0.273-1.145-0.273-1.2 0-2.182 0.982-2.182 2.182s0.982 2.182 2.182 2.182c0.6 0 1.091-0.218 1.473-0.6 0.327 0.382 0.764 0.6 1.255 0.6h0.491c0.818 0 1.473-0.6 1.636-1.364 0.054-0.382 0.054-0.764 0.054-1.145zM9.818 14.182c-0.6 0-1.091-0.491-1.091-1.091s0.491-1.091 1.091-1.091c0.6 0 1.091 0.491 1.091 1.091s-0.491 1.091-1.091 1.091z"></path>
<path fill="#d5e3ef" d="M21.273 15.218c0 0.273-0.327 0.491-0.545 0.327l-1.636-0.818 2.182-0.545v1.036z"></path>
<path fill="#d5e3ef" d="M20.727 8.673c0 0.273-0.327 0.491-0.545 0.327l-1.636-0.818 2.182-0.545v1.036z"></path>
<path fill="#d5e3ef" d="M21.818 21.873c0 0.218-0.218 0.382-0.436 0.273l-1.745-0.873 2.182-0.545v1.145z"></path>
<path fill="#89c763" d="M20.727 14.727h-1.636v-5.455h1.636c0.327 0 0.545 0.218 0.545 0.545v4.364c0 0.327-0.218 0.545-0.545 0.545z"></path>
<path fill="#7f4122" d="M21.273 22.091l0.109 0.055c0.218 0.109 0.436-0.055 0.436-0.273v-1.145l-0.545 0.109v1.255z"></path>
<path fill="#70b7e5" d="M21.273 21.273h-1.636v-5.455h1.636c0.327 0 0.545 0.218 0.545 0.545v4.364c0 0.327-0.218 0.545-0.545 0.545z"></path>
<path fill="#f79548" d="M20.182 8.182h-1.636v-5.455h1.636c0.327 0 0.545 0.218 0.545 0.545v4.364c0 0.327-0.218 0.545-0.545 0.545z"></path>
<path fill="#f37321" d="M20.182 4.091v2.727c0 0.164-0.109 0.273-0.273 0.273v0c-0.164 0-0.273-0.109-0.273-0.273v-2.727c0-0.164 0.109-0.273 0.273-0.273v0c0.164 0 0.273 0.109 0.273 0.273z"></path>
<path fill="#72af48" d="M20.727 10.636v2.727c0 0.164-0.109 0.273-0.273 0.273v0c-0.164 0-0.273-0.109-0.273-0.273v-2.727c0-0.164 0.109-0.273 0.273-0.273v0c0.164 0 0.273 0.109 0.273 0.273z"></path>
<path fill="#4c9cd6" d="M21.273 17.182v2.727c0 0.164-0.109 0.273-0.273 0.273v0c-0.164 0-0.273-0.109-0.273-0.273v-2.727c0-0.164 0.109-0.273 0.273-0.273v0c0.164 0 0.273 0.109 0.273 0.273z"></path>
</svg>
