<!-- Generated by IcoMoon.io -->
<svg version="1.1" xmlns="http://www.w3.org/2000/svg" width="24" height="24" viewBox="0 0 24 24">
<title>auction</title>
<path fill="#f6b545" d="M3.273 4.364h5.455v9.818h-5.455v-9.818z"></path>
<path fill="#ffcb5b" d="M9.818 2.727v0.545c0 0.6-0.491 1.091-1.091 1.091h-5.455c-0.6 0-1.091-0.491-1.091-1.091v-0.545c0-0.327 0.218-0.545 0.545-0.545h6.545c0.327-0 0.546 0.218 0.546 0.545z"></path>
<path fill="#ffcb5b" d="M9.818 15.273v0.545c0 0.327-0.218 0.545-0.545 0.545h-6.545c-0.327 0-0.545-0.218-0.545-0.545v-0.545c0-0.6 0.491-1.091 1.091-1.091h5.455c0.6 0 1.091 0.491 1.091 1.091z"></path>
<path fill="#b06328" d="M9.491 18.545h-6.982c-0.491 0-0.927 0.327-1.036 0.818l-0.382 1.364h9.818l-0.327-1.364c-0.109-0.491-0.545-0.818-1.091-0.818z"></path>
<path fill="#b06328" d="M24 8.182v2.182c0 0.6-0.491 1.091-1.091 1.091h-10.364c-0.327 0-0.545-0.218-0.545-0.545v-3.273c0-0.327 0.218-0.545 0.545-0.545h10.364c0.6 0 1.091 0.491 1.091 1.091z"></path>
<path fill="#f19920" d="M8.727 7.636h3.273v3.273h-3.273v-3.273z"></path>
<path fill="#b06328" d="M11.455 21.818h-10.909c-0.327 0-0.545-0.218-0.545-0.545v0c0-0.327 0.218-0.545 0.545-0.545h10.909c0.327 0 0.545 0.218 0.545 0.545v0c0 0.327-0.218 0.545-0.545 0.545z"></path>
<path fill="#e78825" d="M9.818 8.727v-1.091h-1.091v3.273h3.273v-1.636h-1.636c-0.327 0-0.545-0.218-0.545-0.545z"></path>
<path fill="#f19920" d="M3.273 4.364v0.545h2.182c0.6 0 1.091 0.491 1.091 1.091v8.182h2.182v-9.818h-5.455z"></path>
<path fill="#a35425" d="M22.909 7.091v1.636c0 0.327-0.218 0.545-0.545 0.545h-9.273c-0.327 0-0.545 0.218-0.545 0.545v1.636h10.364c0.6 0 1.091-0.491 1.091-1.091v-2.182c-0-0.6-0.491-1.091-1.091-1.091z"></path>
<path fill="#f6b545" d="M8.727 14.182h-1.091c-0.327 0-0.545 0.218-0.545 0.545v0.545c0 0.327-0.218 0.545-0.545 0.545h-4.364c0 0.327 0.218 0.545 0.545 0.545h6.545c0.327 0 0.545-0.218 0.545-0.545v-0.545c0-0.6-0.491-1.091-1.091-1.091z"></path>
<path fill="#f6b545" d="M9.273 2.182h-1.636c-0.327 0-0.545 0.218-0.545 0.545v0.545c0 0.327-0.218 0.545-0.545 0.545h-4.2c0.164 0.327 0.545 0.545 0.927 0.545h5.455c0.6 0 1.091-0.491 1.091-1.091v-0.545c-0-0.327-0.218-0.545-0.546-0.545z"></path>
<path fill="#a35425" d="M10.582 19.364c-0.109-0.491-0.545-0.818-1.036-0.818h-0.873c-0.327 0-0.6 0.273-0.545 0.6l0.055 0.436c0.055 0.327-0.218 0.6-0.545 0.6h-6.436l-0.109 0.545h9.818l-0.327-1.364z"></path>
<path fill="#a35425" d="M11.455 20.727h-2.727c0 0.327-0.218 0.545-0.545 0.545h-8.182c0 0.327 0.218 0.545 0.545 0.545h10.909c0.327 0 0.545-0.218 0.545-0.545s-0.218-0.545-0.545-0.545z"></path>
<path fill="#ffcb5b" d="M4.364 5.727v2.727c0 0.164-0.109 0.273-0.273 0.273v0c-0.164 0-0.273-0.109-0.273-0.273v-2.727c0-0.164 0.109-0.273 0.273-0.273v0c0.164 0 0.273 0.109 0.273 0.273z"></path>
<path fill="#ffcb5b" d="M4.364 9.545v1.091c0 0.164-0.109 0.273-0.273 0.273v0c-0.164 0-0.273-0.109-0.273-0.273v-1.091c0-0.164 0.109-0.273 0.273-0.273v0c0.164 0 0.273 0.109 0.273 0.273z"></path>
<path fill="#ffe27a" d="M4.091 3.273h-1.091c-0.164 0-0.273-0.109-0.273-0.273v0c0-0.164 0.109-0.273 0.273-0.273h1.091c0.164 0 0.273 0.109 0.273 0.273v0c0 0.164-0.109 0.273-0.273 0.273z"></path>
<path fill="#ffe27a" d="M4.091 15.273h-1.091c-0.164 0-0.273-0.109-0.273-0.273v0c0-0.164 0.109-0.273 0.273-0.273h1.091c0.164 0 0.273 0.109 0.273 0.273v0c0 0.164-0.109 0.273-0.273 0.273z"></path>
</svg>
