<!-- Generated by IcoMoon.io -->
<svg version="1.1" xmlns="http://www.w3.org/2000/svg" width="24" height="24" viewBox="0 0 24 24">
<title>binoculars</title>
<path fill="#35363e" d="M13.091 10.364h-2.182c-0.327 0-0.545 0.218-0.545 0.545v0.545h3.273v-0.545c-0-0.327-0.218-0.545-0.545-0.545z"></path>
<path fill="#595a66" d="M10.364 20.727h-9.818v-1.636l3.6-13.364c0.109-0.491 0.545-0.818 1.036-0.818h5.182v15.818z"></path>
<path fill="#595a66" d="M13.636 20.727h9.818v-1.364c0-0.218 0-0.382-0.055-0.545l-3.545-13.091c-0.109-0.491-0.545-0.818-1.036-0.818h-5.182v15.818z"></path>
<path fill="#494a52" d="M23.4 18.818l-3.545-13.091c-0.109-0.491-0.545-0.818-1.036-0.818h-1.636c0.491 0 0.927 0.327 1.036 0.818l2.455 13.2c0 0.109 0.055 0.273 0.055 0.382v1.418h2.727v-1.364c-0-0.164-0-0.382-0.055-0.545z"></path>
<path fill="#6f707e" d="M0.6 18.818l3.545-13.091c0.109-0.491 0.545-0.818 1.036-0.818h1.636c-0.491 0-0.927 0.327-1.036 0.818l-2.455 13.145c-0.055 0.164-0.055 0.273-0.055 0.436v1.418h-2.727v-1.364c0-0.164 0-0.382 0.055-0.545z"></path>
<path fill="#595a66" d="M18.545 2.182h-5.455c-0.327 0-0.545-0.218-0.545-0.545s0.218-0.545 0.545-0.545h5.455c0.327 0 0.545 0.218 0.545 0.545s-0.218 0.545-0.545 0.545z"></path>
<path fill="#595a66" d="M10.909 2.182h-5.455c-0.327 0-0.545-0.218-0.545-0.545s0.218-0.545 0.545-0.545h5.455c0.327 0 0.545 0.218 0.545 0.545s-0.218 0.545-0.545 0.545z"></path>
<path fill="#f04b4d" d="M13.636 2.182h4.364v2.727h-4.364v-2.727z"></path>
<path fill="#f04b4d" d="M6 2.182h4.364v2.727h-4.364v-2.727z"></path>
<path fill="#de333f" d="M13.636 2.182v0.545h2.182c0.327 0 0.545 0.218 0.545 0.545v1.636h1.636v-2.727h-4.364z"></path>
<path fill="#de333f" d="M6 2.182v0.545h2.182c0.327 0 0.545 0.218 0.545 0.545v1.636h1.636v-2.727h-4.364z"></path>
<path fill="#494a52" d="M18.545 1.091h-1.091v0.545h-4.909c0 0.327 0.218 0.545 0.545 0.545h5.455c0.327 0 0.545-0.218 0.545-0.545s-0.218-0.545-0.545-0.545z"></path>
<path fill="#494a52" d="M10.909 1.091h-1.091v0.545h-4.909c0 0.327 0.218 0.545 0.545 0.545h5.455c0.327 0 0.545-0.218 0.545-0.545s-0.218-0.545-0.545-0.545z"></path>
<path fill="#494a52" d="M14.727 15.273v-8.727c0-0.6-0.491-1.091-1.091-1.091v15.273h1.636v-3.818c0-0.327 0.218-0.545 0.545-0.545h0.545c0.327 0 0.545-0.218 0.545-0.545v-0.545h-2.182z"></path>
<path fill="#494a52" d="M9.273 6.545v8.727h-2.182v0.545c0 0.327 0.218 0.545 0.545 0.545h0.545c0.327 0 0.545 0.218 0.545 0.545v3.818h1.636v-15.273c-0.6 0-1.091 0.491-1.091 1.091z"></path>
<path fill="#f04b4d" d="M16.364 15.818h-8.727c-0.327 0-0.545-0.218-0.545-0.545v-3.273c0-0.327 0.218-0.545 0.545-0.545h8.727c0.327 0 0.545 0.218 0.545 0.545v3.273c0 0.327-0.218 0.545-0.545 0.545z"></path>
<path fill="#de333f" d="M16.364 11.455h-0.545c-0.327 0-0.545 0.218-0.545 0.545v2.182c0 0.327-0.218 0.545-0.545 0.545h-7.636v0.545c0 0.327 0.218 0.545 0.545 0.545h8.727c0.327 0 0.545-0.218 0.545-0.545v-3.273c0-0.327-0.218-0.545-0.545-0.545z"></path>
<path fill="#f26a56" d="M9 12.545h-1.091c-0.164 0-0.273-0.109-0.273-0.273v0c0-0.164 0.109-0.273 0.273-0.273h1.091c0.164 0 0.273 0.109 0.273 0.273v0c0 0.164-0.109 0.273-0.273 0.273z"></path>
<path fill="#6f707e" d="M6.818 1.636h-1.091c-0.164 0-0.273-0.109-0.273-0.273v0c0-0.164 0.109-0.273 0.273-0.273h1.091c0.164 0 0.273 0.109 0.273 0.273v0c0 0.164-0.109 0.273-0.273 0.273z"></path>
<path fill="#6f707e" d="M15 1.636h-1.091c-0.164 0-0.273-0.109-0.273-0.273v0c0-0.164 0.109-0.273 0.273-0.273h1.091c0.164 0 0.273 0.109 0.273 0.273v0c0 0.164-0.109 0.273-0.273 0.273z"></path>
<path fill="#f26a56" d="M6.545 4.091v-0.545c0-0.164 0.109-0.273 0.273-0.273v0c0.164 0 0.273 0.109 0.273 0.273v0.545c0 0.164-0.109 0.273-0.273 0.273v0c-0.164 0-0.273-0.109-0.273-0.273z"></path>
<path fill="#f26a56" d="M14.182 4.091v-0.545c0-0.164 0.109-0.273 0.273-0.273v0c0.164 0 0.273 0.109 0.273 0.273v0.545c0 0.164-0.109 0.273-0.273 0.273v0c-0.164 0-0.273-0.109-0.273-0.273z"></path>
<path fill="#f26a56" d="M11.727 12.545h-1.636c-0.164 0-0.273-0.109-0.273-0.273v0c0-0.164 0.109-0.273 0.273-0.273h1.636c0.164 0 0.273 0.109 0.273 0.273v0c0 0.164-0.109 0.273-0.273 0.273z"></path>
<path fill="#6f707e" d="M23.455 22.909h-9.818c-0.327 0-0.545-0.218-0.545-0.545v-1.091c0-0.327 0.218-0.545 0.545-0.545h9.818c0.327 0 0.545 0.218 0.545 0.545v1.091c0 0.327-0.218 0.545-0.545 0.545z"></path>
<path fill="#595a66" d="M23.455 20.727h-1.636c-0.327 0-0.545 0.218-0.545 0.545v0c0 0.327-0.218 0.545-0.545 0.545h-7.091c-0.327 0-0.545 0.218-0.545 0.545v0c0 0.327 0.218 0.545 0.545 0.545h9.818c0.327 0 0.545-0.218 0.545-0.545v-1.091c0-0.327-0.218-0.545-0.545-0.545z"></path>
<path fill="#6f707e" d="M10.364 22.909h-9.818c-0.327 0-0.545-0.218-0.545-0.545v-1.091c0-0.327 0.218-0.545 0.545-0.545h9.818c0.327 0 0.545 0.218 0.545 0.545v1.091c0 0.327-0.218 0.545-0.545 0.545z"></path>
<path fill="#595a66" d="M10.364 20.727h-1.636c-0.327 0-0.545 0.218-0.545 0.545v0c0 0.327-0.218 0.545-0.545 0.545h-7.091c-0.327 0-0.545 0.218-0.545 0.545v0c0 0.327 0.218 0.545 0.545 0.545h9.818c0.327 0 0.545-0.218 0.545-0.545v-1.091c0-0.327-0.218-0.545-0.545-0.545z"></path>
</svg>
