<!-- Generated by IcoMoon.io -->
<svg version="1.1" xmlns="http://www.w3.org/2000/svg" width="24" height="24" viewBox="0 0 24 24">
<title>briefcase</title>
<path fill="#9ba7af" d="M16.909 4.636h-0.709l-0.655-1.691c-0.273-0.6-0.873-1.036-1.527-1.036h-3.982c-0.655 0-1.255 0.382-1.527 1.036l-0.655 1.691h-0.764c-0.327 0-0.545 0.218-0.545 0.545v0.545h3.273v-0.545c0-0.327-0.218-0.545-0.545-0.545h-0.273l0.491-1.309c0.109-0.218 0.273-0.327 0.491-0.327h3.982c0.218 0 0.436 0.109 0.491 0.327l0.491 1.309h-0.218c-0.327 0-0.545 0.218-0.545 0.545v0.545h3.273v-0.545c0-0.327-0.218-0.545-0.545-0.545z"></path>
<path fill="#b06328" d="M22.364 22.091h-20.727c-0.6 0-1.091-0.491-1.091-1.091v-12h22.909v12c0 0.6-0.491 1.091-1.091 1.091z"></path>
<path fill="#a35425" d="M22.364 11.509l-8.182 1.745c-0.055-0.273-0.273-0.436-0.545-0.436h-2.182c-0.327 0-0.545 0.218-0.545 0.545h-0.545l-9.491-2.018c-0.109 0-0.218-0.055-0.327-0.109v0.545c0.109 0.055 0.218 0.109 0.327 0.109l9.491 2.018h0.545v1.636c0 0.327 0.218 0.545 0.545 0.545h1.636c0.6 0 1.091-0.491 1.091-1.091v-0.109c0-0.655 0.436-1.2 1.091-1.364l5.455-1.145c0.873-0.164 1.636 0.491 1.636 1.309v6.709c0 0.327-0.218 0.545-0.545 0.545h-20.182c-0.709 0-0.764 1.091-0.055 1.091v0h20.727c0.6 0 1.091-0.491 1.091-1.091v-9.709l-1.036 0.273z"></path>
<path fill="#f6b545" d="M0.545 21v-1.636h1.636c0.6 0 1.091 0.491 1.091 1.091v1.636h-1.636c-0.6 0-1.091-0.491-1.091-1.091z"></path>
<path fill="#f19920" d="M1.636 21c-0.709 0-0.764 1.036-0.055 1.091 0 0 0 0 0.055 0h1.636v-1.091h-1.636z"></path>
<path fill="#f6b545" d="M22.364 22.091h-1.636v-1.636c0-0.6 0.491-1.091 1.091-1.091h1.636v1.636c0 0.6-0.491 1.091-1.091 1.091z"></path>
<path fill="#f19920" d="M22.364 19.364v1.091c0 0.327-0.218 0.545-0.545 0.545h-1.091v1.091h1.636c0.6 0 1.091-0.491 1.091-1.091v-1.636h-1.091z"></path>
<path fill="#ffcb5b" d="M2.455 20.455h-1.091c-0.164 0-0.273-0.109-0.273-0.273v0c0-0.164 0.109-0.273 0.273-0.273h1.091c0.164 0 0.273 0.109 0.273 0.273v0c0 0.164-0.109 0.273-0.273 0.273z"></path>
<path fill="#c97629" d="M22.909 5.727h-21.818c-0.6 0-1.091 0.491-1.091 1.091v3.491c0 0.491 0.382 0.982 0.873 1.091l9.491 1.964h3.273l9.491-2.018c0.491-0.109 0.873-0.545 0.873-1.091v-3.491c0-0.545-0.491-1.036-1.091-1.036z"></path>
<path fill="#f6b545" d="M13.091 15.545h-2.182c-0.327 0-0.545-0.218-0.545-0.545v-2.182c0-0.327 0.218-0.545 0.545-0.545h2.182c0.327 0 0.545 0.218 0.545 0.545v2.182c0 0.327-0.218 0.545-0.545 0.545z"></path>
<path fill="#f19920" d="M13.091 12.273v2.727h-2.727c0 0.327 0.218 0.545 0.545 0.545h2.182c0.327 0 0.545-0.218 0.545-0.545v-2.182c0-0.327-0.218-0.545-0.545-0.545z"></path>
<path fill="#ffcb5b" d="M12.273 13.364h-1.091c-0.164 0-0.273-0.109-0.273-0.273v0c0-0.164 0.109-0.273 0.273-0.273h1.091c0.164 0 0.273 0.109 0.273 0.273v0c0 0.164-0.109 0.273-0.273 0.273z"></path>
<path fill="#da8c36" d="M1.364 6.273h2.727c0.164 0 0.273 0.109 0.273 0.273v0c0 0.164-0.109 0.273-0.273 0.273h-2.727c-0.164 0-0.273-0.109-0.273-0.273v0c0-0.164 0.109-0.273 0.273-0.273z"></path>
<path fill="#c97629" d="M1.636 13.636v2.727c0 0.164-0.109 0.273-0.273 0.273v0c-0.164 0-0.273-0.109-0.273-0.273v-2.727c0-0.164 0.109-0.273 0.273-0.273v0c0.164 0 0.273 0.109 0.273 0.273z"></path>
<path fill="#da8c36" d="M5.182 6.273h5.455c0.164 0 0.273 0.109 0.273 0.273v0c0 0.164-0.109 0.273-0.273 0.273h-5.455c-0.164 0-0.273-0.109-0.273-0.273v0c0-0.164 0.109-0.273 0.273-0.273z"></path>
<path fill="#72818b" d="M15 2.727l0.764 1.909h0.436l-0.655-1.691c-0.218-0.491-0.655-0.873-1.145-0.982 0.218 0.164 0.491 0.436 0.6 0.764z"></path>
<path fill="#72818b" d="M12.327 2.455h-2.291c-0.436 0-0.873 0.273-1.036 0.709l-0.6 1.473h0.545l0.491-1.309c0.109-0.218 0.273-0.327 0.491-0.327h3.709c-0.327-0.327-0.818-0.545-1.309-0.545z"></path>
<path fill="#72818b" d="M6.545 5.182h3.273v0.545h-3.273v-0.545z"></path>
<path fill="#72818b" d="M14.182 5.182h3.273v0.545h-3.273v-0.545z"></path>
</svg>
