<!-- Generated by IcoMoon.io -->
<svg version="1.1" xmlns="http://www.w3.org/2000/svg" width="24" height="24" viewBox="0 0 24 24">
<title>browser</title>
<path fill="#b0c4d8" d="M22.909 21h-21.818c-0.6 0-1.091-0.491-1.091-1.091v-18c0-0.6 0.491-1.091 1.091-1.091h21.818c0.6 0 1.091 0.491 1.091 1.091v18c-0 0.6-0.491 1.091-1.091 1.091z"></path>
<path fill="#eceff9" d="M1.091 4.091h21.818v15.818h-21.818v-15.818z"></path>
<path fill="#d5e3ef" d="M3 12.273h4.364c0.164 0 0.273 0.109 0.273 0.273v0c0 0.164-0.109 0.273-0.273 0.273h-4.364c-0.164 0-0.273-0.109-0.273-0.273v0c0-0.164 0.109-0.273 0.273-0.273z"></path>
<path fill="#d5e3ef" d="M3 13.364h3.273c0.164 0 0.273 0.109 0.273 0.273v0c0 0.164-0.109 0.273-0.273 0.273h-3.273c-0.164 0-0.273-0.109-0.273-0.273v0c0-0.164 0.109-0.273 0.273-0.273z"></path>
<path fill="#d5e3ef" d="M3 14.455h3.273c0.164 0 0.273 0.109 0.273 0.273v0c0 0.164-0.109 0.273-0.273 0.273h-3.273c-0.164 0-0.273-0.109-0.273-0.273v0c0-0.164 0.109-0.273 0.273-0.273z"></path>
<path fill="#d5e3ef" d="M3 15.545h3.273c0.164 0 0.273 0.109 0.273 0.273v0c0 0.164-0.109 0.273-0.273 0.273h-3.273c-0.164 0-0.273-0.109-0.273-0.273v0c0-0.164 0.109-0.273 0.273-0.273z"></path>
<path fill="#d5e3ef" d="M3 16.636h3.273c0.164 0 0.273 0.109 0.273 0.273v0c0 0.164-0.109 0.273-0.273 0.273h-3.273c-0.164 0-0.273-0.109-0.273-0.273v0c0-0.164 0.109-0.273 0.273-0.273z"></path>
<path fill="#d5e3ef" d="M3 17.727h3.273c0.164 0 0.273 0.109 0.273 0.273v0c0 0.164-0.109 0.273-0.273 0.273h-3.273c-0.164 0-0.273-0.109-0.273-0.273v0c0-0.164 0.109-0.273 0.273-0.273z"></path>
<path fill="#d5e3ef" d="M16.909 12.273h4.091c0.164 0 0.273 0.109 0.273 0.273v0c0 0.164-0.109 0.273-0.273 0.273h-4.091c-0.164 0-0.273-0.109-0.273-0.273v0c0-0.164 0.109-0.273 0.273-0.273z"></path>
<path fill="#d5e3ef" d="M17.727 13.364h3.273c0.164 0 0.273 0.109 0.273 0.273v0c0 0.164-0.109 0.273-0.273 0.273h-3.273c-0.164 0-0.273-0.109-0.273-0.273v0c0-0.164 0.109-0.273 0.273-0.273z"></path>
<path fill="#d5e3ef" d="M17.727 14.455h3.273c0.164 0 0.273 0.109 0.273 0.273v0c0 0.164-0.109 0.273-0.273 0.273h-3.273c-0.164 0-0.273-0.109-0.273-0.273v0c0-0.164 0.109-0.273 0.273-0.273z"></path>
<path fill="#d5e3ef" d="M17.727 15.545h3.273c0.164 0 0.273 0.109 0.273 0.273v0c0 0.164-0.109 0.273-0.273 0.273h-3.273c-0.164 0-0.273-0.109-0.273-0.273v0c0-0.164 0.109-0.273 0.273-0.273z"></path>
<path fill="#d5e3ef" d="M17.727 16.636h3.273c0.164 0 0.273 0.109 0.273 0.273v0c0 0.164-0.109 0.273-0.273 0.273h-3.273c-0.164 0-0.273-0.109-0.273-0.273v0c0-0.164 0.109-0.273 0.273-0.273z"></path>
<path fill="#d5e3ef" d="M17.727 17.727h3.273c0.164 0 0.273 0.109 0.273 0.273v0c0 0.164-0.109 0.273-0.273 0.273h-3.273c-0.164 0-0.273-0.109-0.273-0.273v0c0-0.164 0.109-0.273 0.273-0.273z"></path>
<path fill="#99b4cd" d="M18.655 12.982c0.109 0.109 0.273 0.164 0.436 0.164s0.273-0.055 0.436-0.164c0.218-0.218 0.218-0.6 0-0.818l-1.145-1.145c-0.218-0.218-0.6-0.218-0.818 0s-0.218 0.6 0 0.818l0.164 0.164-0.491 0.491c-1.091-0.927-2.455-1.527-3.927-1.636v-1.2h0.6c0.327 0 0.6-0.273 0.6-0.6s-0.273-0.6-0.6-0.6h-2.455c-0.327 0-0.6 0.273-0.6 0.6s0.273 0.6 0.6 0.6h0.6v1.2c-1.473 0.109-2.836 0.709-3.927 1.636l-0.491-0.491 0.164-0.164c0.218-0.218 0.218-0.6 0-0.818s-0.6-0.218-0.818 0l-1.145 1.145c-0.218 0.218-0.218 0.6 0 0.818 0.109 0.109 0.273 0.164 0.436 0.164s0.273-0.055 0.436-0.164l0.164-0.164 0.491 0.491c-1.036 1.2-1.636 2.782-1.636 4.527 0 1.145 0.273 2.236 0.764 3.218h12.491c0.491-0.982 0.764-2.018 0.764-3.218 0-1.745-0.655-3.327-1.636-4.527l0.491-0.491 0.055 0.164z"></path>
<path fill="#d5e3ef" d="M2.727 6.818h18.545v4.364h-18.545v-4.364z"></path>
<path fill="#c4d7e5" d="M18.655 12.982c0.109 0.109 0.273 0.164 0.436 0.164s0.273-0.055 0.436-0.164c0.218-0.218 0.218-0.6 0-0.818l-1.145-1.145c-0.218-0.218-0.6-0.218-0.818 0s-0.218 0.6 0 0.818l0.164 0.164-0.491 0.491c-1.091-0.927-2.455-1.527-3.927-1.636v-1.2h0.6c0.327 0 0.6-0.273 0.6-0.6s-0.273-0.6-0.6-0.6h-2.455c-0.327 0-0.6 0.273-0.6 0.6s0.273 0.6 0.6 0.6h0.6v1.2c-1.473 0.109-2.836 0.709-3.927 1.636l-0.491-0.491 0.164-0.164c0.218-0.218 0.218-0.6 0-0.818s-0.6-0.218-0.818 0l-1.145 1.145c-0.218 0.218-0.218 0.6 0 0.818 0.109 0.109 0.273 0.164 0.436 0.164s0.273-0.055 0.436-0.164l0.164-0.164 0.491 0.491c-1.036 1.2-1.636 2.782-1.636 4.527 0 0.709 0.109 1.418 0.327 2.127h13.364c0.218-0.655 0.327-1.364 0.327-2.127 0-1.745-0.655-3.327-1.636-4.527l0.491-0.491 0.055 0.164z"></path>
<path fill="#b0c4d9" d="M17.127 12.436c-0.055-0.055-0.164-0.109-0.218-0.164v0c-0.164 0-0.273 0.109-0.273 0.273s0.109 0.273 0.273 0.273h1.527l0.055-0.055 0.055 0.055h1.036c0.109-0.164 0.109-0.382 0-0.545h-2.236l-0.218 0.164z"></path>
<path fill="#b0c4d9" d="M6.764 12.764v0l0.6 0.055c0.164 0 0.273-0.109 0.273-0.273s-0.109-0.273-0.273-0.273h-1.691c-0.109 0.164-0.109 0.382 0 0.545l1.091-0.055z"></path>
<path fill="#f04d4e" d="M2.182 2.455c0 0.301-0.244 0.545-0.545 0.545s-0.545-0.244-0.545-0.545c0-0.301 0.244-0.545 0.545-0.545s0.545 0.244 0.545 0.545z"></path>
<path fill="#ffcb5b" d="M4.364 2.455c0 0.301-0.244 0.545-0.545 0.545s-0.545-0.244-0.545-0.545c0-0.301 0.244-0.545 0.545-0.545s0.545 0.244 0.545 0.545z"></path>
<path fill="#3bb54a" d="M6.545 2.455c0 0.301-0.244 0.545-0.545 0.545s-0.545-0.244-0.545-0.545c0-0.301 0.244-0.545 0.545-0.545s0.545 0.244 0.545 0.545z"></path>
<path fill="#e2e7f0" d="M22.364 3h-14.182c-0.327 0-0.545-0.218-0.545-0.545v0c0-0.327 0.218-0.545 0.545-0.545h14.182c0.327 0 0.545 0.218 0.545 0.545v0c0 0.327-0.218 0.545-0.545 0.545z"></path>
<path fill="#b0c4d8" d="M4.091 5.182h3.273c0.164 0 0.273 0.109 0.273 0.273v0c0 0.164-0.109 0.273-0.273 0.273h-3.273c-0.164 0-0.273-0.109-0.273-0.273v0c0-0.164 0.109-0.273 0.273-0.273z"></path>
<path fill="#b0c4d9" d="M18.055 13.364h-0.327c-0.164 0-0.273 0.109-0.273 0.273s0.109 0.273 0.273 0.273h0.709c-0.109-0.164-0.273-0.382-0.382-0.545z"></path>
<path fill="#b0c4d9" d="M18.764 14.455h-1.036c-0.164 0-0.273 0.109-0.273 0.273s0.109 0.273 0.273 0.273h1.309c-0.055-0.164-0.164-0.382-0.273-0.545z"></path>
<path fill="#b0c4d9" d="M19.255 15.545h-1.527c-0.164 0-0.273 0.109-0.273 0.273s0.109 0.273 0.273 0.273h1.691c-0.055-0.164-0.109-0.382-0.164-0.545z"></path>
<path fill="#b0c4d9" d="M19.527 16.636h-1.8c-0.164 0-0.273 0.109-0.273 0.273s0.109 0.273 0.273 0.273h1.855c-0-0.164-0-0.382-0.055-0.545z"></path>
<path fill="#b0c4d9" d="M17.455 18c0 0.164 0.109 0.273 0.273 0.273h1.909c0-0.164 0-0.327 0-0.491v-0.055h-1.909c-0.164 0-0.273 0.109-0.273 0.273z"></path>
<path fill="#b0c4d8" d="M19.909 5.182h1.091c0.164 0 0.273 0.109 0.273 0.273v0c0 0.164-0.109 0.273-0.273 0.273h-1.091c-0.164 0-0.273-0.109-0.273-0.273v0c0-0.164 0.109-0.273 0.273-0.273z"></path>
<path fill="#b0c4d8" d="M17.727 5.182h1.091c0.164 0 0.273 0.109 0.273 0.273v0c0 0.164-0.109 0.273-0.273 0.273h-1.091c-0.164 0-0.273-0.109-0.273-0.273v0c0-0.164 0.109-0.273 0.273-0.273z"></path>
<path fill="#b0c4d8" d="M15.545 5.182h1.091c0.164 0 0.273 0.109 0.273 0.273v0c0 0.164-0.109 0.273-0.273 0.273h-1.091c-0.164 0-0.273-0.109-0.273-0.273v0c0-0.164 0.109-0.273 0.273-0.273z"></path>
<path fill="#b0c4d8" d="M3 5.182c-0.164 0-0.273 0.109-0.273 0.273v0c0 0.164 0.109 0.273 0.273 0.273s0.273-0.109 0.273-0.273v0c0-0.164-0.109-0.273-0.273-0.273zM3 5.345c0 0 0-0.055 0 0v0c0-0.055 0 0 0 0z"></path>
<path fill="#b0c4d9" d="M6.927 10.964l-0.218 0.218h1.2c-0.055-0.055-0.055-0.164-0.109-0.218-0.273-0.218-0.6-0.218-0.873 0z"></path>
<path fill="#b0c4d9" d="M10.364 11.182h4.582c-0.545-0.164-1.091-0.327-1.691-0.382v-1.2h0.6c0.327 0 0.6-0.273 0.6-0.6s-0.273-0.6-0.6-0.6h-2.4c-0.327 0-0.6 0.273-0.6 0.6s0.273 0.6 0.6 0.6h0.6v1.2c-0.6 0.055-1.2 0.218-1.691 0.382z"></path>
<path fill="#b0c4d9" d="M17.455 10.964c-0.055 0.055-0.109 0.164-0.109 0.218h1.2l-0.218-0.218c-0.273-0.218-0.655-0.218-0.873 0z"></path>
<path fill="#fff" d="M17.455 16.636c0 3.012-2.442 5.455-5.455 5.455s-5.455-2.442-5.455-5.455c0-3.012 2.442-5.455 5.455-5.455s5.455 2.442 5.455 5.455z"></path>
<path fill="#595a66" d="M12.545 21c0 0.301-0.244 0.545-0.545 0.545s-0.545-0.244-0.545-0.545c0-0.301 0.244-0.545 0.545-0.545s0.545 0.244 0.545 0.545z"></path>
<path fill="#595a66" d="M17.455 11.945l0.164 0.164c0.109 0.109 0.273 0.164 0.382 0.164s0.273-0.055 0.382-0.164c0.218-0.218 0.218-0.545 0-0.764l-1.091-1.091c-0.218-0.218-0.545-0.218-0.764 0s-0.218 0.545 0 0.764l0.164 0.164-0.436 0.436c-1.036-0.873-2.291-1.418-3.655-1.527v-1.145h0.545c0.327 0 0.545-0.218 0.545-0.545s-0.218-0.545-0.545-0.545h-2.182c-0.327 0-0.545 0.218-0.545 0.545s0.218 0.545 0.545 0.545h0.545v1.145c-1.418 0.109-2.673 0.655-3.655 1.527l-0.436-0.436 0.164-0.164c0.218-0.218 0.218-0.545 0-0.764s-0.545-0.218-0.764 0l-1.091 1.091c-0.218 0.218-0.218 0.545 0 0.764 0.109 0.109 0.273 0.164 0.382 0.164s0.273-0.055 0.382-0.164l0.164-0.164 0.436 0.436c-0.982 1.145-1.527 2.618-1.527 4.2 0 3.6 2.945 6.545 6.545 6.545s6.545-2.945 6.545-6.545c0-1.582-0.6-3.055-1.527-4.2l0.327-0.436zM12 22.091c-3 0-5.455-2.455-5.455-5.455s2.455-5.455 5.455-5.455 5.455 2.455 5.455 5.455-2.455 5.455-5.455 5.455z"></path>
<path fill="#d5dfea" d="M16.364 16.636h-4.364l3.109-3.109c0.764 0.818 1.255 1.909 1.255 3.109z"></path>
<path fill="#c9d5e3" d="M16.364 16.636c0 1.2-0.491 2.291-1.255 3.109l-3.109-3.109h4.364z"></path>
<path fill="#e2e7f0" d="M15.109 13.527l-3.109 3.109v-4.364c1.2 0 2.291 0.491 3.109 1.255z"></path>
<path fill="#595a66" d="M16.909 16.636c0 0.301-0.244 0.545-0.545 0.545s-0.545-0.244-0.545-0.545c0-0.301 0.244-0.545 0.545-0.545s0.545 0.244 0.545 0.545z"></path>
<path fill="#f04d4f" d="M14.727 19.909c-0.164 0-0.273-0.055-0.382-0.164l-3.818-3.818c-0.218-0.218-0.218-0.545 0-0.764s0.545-0.218 0.764 0l3.818 3.818c0.218 0.218 0.218 0.545 0 0.764-0.109 0.109-0.218 0.164-0.382 0.164z"></path>
<path fill="#de333f" d="M15.109 19.2c-0.109 0.109-0.273 0.164-0.382 0.164s-0.273-0.055-0.382-0.164l-3.818-3.818c-0.055-0.055-0.055-0.055-0.055-0.109-0.109 0.218-0.109 0.491 0.055 0.655l3.818 3.818c0.109 0.109 0.273 0.164 0.382 0.164s0.273-0.055 0.382-0.164c0.164-0.164 0.218-0.436 0.055-0.655 0 0.055 0 0.055-0.055 0.109z"></path>
<path fill="#595a66" d="M13.091 16.636c0 0.603-0.488 1.091-1.091 1.091s-1.091-0.488-1.091-1.091c0-0.603 0.488-1.091 1.091-1.091s1.091 0.488 1.091 1.091z"></path>
<path fill="#494a52" d="M12.436 15.655c0.055 0.164 0.109 0.273 0.109 0.436 0 0.6-0.491 1.091-1.091 1.091-0.164 0-0.327-0.055-0.436-0.109 0.164 0.382 0.545 0.655 0.982 0.655 0.6 0 1.091-0.491 1.091-1.091 0-0.436-0.273-0.818-0.655-0.982z"></path>
<path fill="#d5dfea" d="M7.091 17.182c0-3 2.455-5.455 5.455-5.455 1.364 0 2.618 0.491 3.545 1.364-0.982-1.145-2.455-1.909-4.091-1.909-3 0-5.455 2.455-5.455 5.455 0 1.636 0.709 3.109 1.909 4.091-0.873-0.927-1.364-2.182-1.364-3.545z"></path>
<path fill="#595a66" d="M8.182 16.636c0 0.301-0.244 0.545-0.545 0.545s-0.545-0.244-0.545-0.545c0-0.301 0.244-0.545 0.545-0.545s0.545 0.244 0.545 0.545z"></path>
<path fill="#595a66" d="M12.545 12.273c0 0.301-0.244 0.545-0.545 0.545s-0.545-0.244-0.545-0.545c0-0.301 0.244-0.545 0.545-0.545s0.545 0.244 0.545 0.545z"></path>
<path fill="#6f707e" d="M12 10.091v0c-3.6 0-6.545 2.945-6.545 6.545v0c0.273 0 0.545-0.218 0.545-0.545 0.109-1.255 0.6-2.4 1.364-3.273 0.982-1.2 2.455-2.018 4.091-2.182 0.327-0 0.545-0.273 0.545-0.545z"></path>
<path fill="#494a52" d="M18 16.636c0 1.745-0.709 3.273-1.909 4.364-1.091 0.982-2.509 1.636-4.091 1.636-0.164 0-0.382 0-0.545-0.055-0.273-0.055-0.545 0.164-0.545 0.491v0c0.382 0.055 0.709 0.109 1.091 0.109 1.8 0 3.436-0.709 4.636-1.909s1.909-2.836 1.909-4.636c0-0.382-0.055-0.709-0.109-1.091v0c-0.273 0-0.491 0.273-0.491 0.545 0.055 0.164 0.055 0.382 0.055 0.545z"></path>
<path fill="#494a52" d="M12 9h-0.545v0.545h0.545v0.545c0.164 0 0.382 0 0.545 0.055v-1.145h-0.545z"></path>
<path fill="#6f707e" d="M11.182 7.909h1.091c0.164 0 0.273 0.109 0.273 0.273v0c0 0.164-0.109 0.273-0.273 0.273h-1.091c-0.164 0-0.273-0.109-0.273-0.273v0c0-0.164 0.109-0.273 0.273-0.273z"></path>
<path fill="#6f707e" d="M12 16.364c0 0.151-0.122 0.273-0.273 0.273s-0.273-0.122-0.273-0.273c0-0.151 0.122-0.273 0.273-0.273s0.273 0.122 0.273 0.273z"></path>
<path fill="#494a52" d="M7.364 12c0.109-0.109 0.273-0.273 0.382-0.382l-0.436-0.436-0.764 0.764 0.436 0.436c0.164-0.109 0.273-0.218 0.382-0.382z"></path>
<path fill="#494a52" d="M16.636 12c0.109 0.109 0.273 0.273 0.382 0.382l0.436-0.436-0.764-0.764-0.436 0.436c0.109 0.164 0.218 0.273 0.382 0.382z"></path>
</svg>
