<!-- Generated by IcoMoon.io -->
<svg version="1.1" xmlns="http://www.w3.org/2000/svg" width="24" height="24" viewBox="0 0 24 24">
<title>business-card</title>
<path d="M11.707 13.775h-0.584c-0.303 0-0.549-0.245-0.549-0.548 0-0.112 0.045-0.22 0.125-0.298 0.34-0.33 0.625-0.774 0.832-1.253 0.042 0.031 0.087 0.053 0.138 0.053 0.328 0 0.714-0.724 0.714-1.218s-0.046-0.894-0.374-0.894c-0.039 0-0.080 0.007-0.122 0.017-0.023-1.339-0.361-3.009-2.406-3.009-2.133 0-2.382 1.667-2.406 3.005-0.030-0.006-0.060-0.013-0.088-0.013-0.328 0-0.373 0.401-0.373 0.894s0.385 1.218 0.713 1.218c0.041 0 0.078-0.011 0.113-0.032 0.206 0.471 0.488 0.906 0.822 1.233 0.080 0.078 0.125 0.185 0.125 0.298 0 0.303-0.246 0.549-0.549 0.549h-0.585c-1.249 0-2.261 1.012-2.261 2.261v0.627c0 0.394 0.319 0.714 0.714 0.714h7.546c0.394 0 0.713-0.32 0.713-0.714v-0.627c0.001-1.25-1.011-2.263-2.26-2.263z"></path>
<path d="M18.477 7.572h-6.328c0.183 0.404 0.313 0.902 0.367 1.517 0.135 0.083 0.237 0.218 0.319 0.38h5.641c0.293 0 0.529-0.237 0.529-0.529v-0.839c0-0.292-0.236-0.529-0.529-0.529z"></path>
<path d="M18.477 11.029h-5.512c-0.15 0.565-0.518 1.156-1.028 1.314-0.015 0.028-0.032 0.052-0.048 0.080v0.503h6.587c0.292 0 0.529-0.237 0.529-0.53v-0.839c0.001-0.292-0.235-0.529-0.528-0.529z"></path>
<path d="M18.477 14.486h-4.303c0.284 0.449 0.451 0.979 0.451 1.549v0.348h3.852c0.293 0 0.529-0.237 0.529-0.529v-0.839c0-0.292-0.236-0.529-0.529-0.529z"></path>
<path d="M20.751 2.297h-17.501c-1.795 0-3.25 1.455-3.25 3.25v12.907c0 1.796 1.455 3.25 3.25 3.25h17.501c1.795 0 3.249-1.455 3.249-3.25v-12.907c0-1.795-1.454-3.25-3.249-3.25zM22.466 18.453c0 0.946-0.769 1.716-1.716 1.716h-17.501c-0.946 0-1.716-0.769-1.716-1.716v-12.907c0-0.946 0.769-1.716 1.716-1.716h17.501c0.946 0 1.716 0.769 1.716 1.716v12.907z"></path>
</svg>
