<!-- Generated by IcoMoon.io -->
<svg version="1.1" xmlns="http://www.w3.org/2000/svg" width="24" height="24" viewBox="0 0 24 24">
<title>business</title>
<path fill="#f7b081" d="M17.451 11.165c-0.125-0.76-0.526-1.665-1.73-1.665-0.172 0-0.318 0.124-0.347 0.293l-0.231 1.36c-0.091 0.537-0.217 1.049-0.372 1.521-0.431 1.307-0.975 1.977-1.94 2.39-0.464 0.198-0.84 0.368-0.991 0.436h-1.805c-0.195 0-0.352 0.158-0.352 0.352v6.378c0 0.195 0.158 0.352 0.352 0.352h1.757l0.757 0.613c0.635 0.514 1.435 0.798 2.253 0.798h2.145c0.195 0 0.352-0.158 0.352-0.352 0-0.132-0.072-0.246-0.179-0.306v-7.032h-0.438l0.737-3.715c0.097-0.487 0.108-0.965 0.033-1.422z"></path>
<path fill="#efe7e4" d="M10.035 14.867h-2.736c-0.195 0-0.352 0.158-0.352 0.352v7.529c0 0.195 0.158 0.352 0.352 0.352h2.736c0.195 0 0.352-0.158 0.352-0.352v-7.529c0-0.195-0.158-0.352-0.352-0.352z"></path>
<path fill="#d8d1d0" d="M6.947 21.697v1.051c0 0.195 0.158 0.352 0.352 0.352h2.736c0.195 0 0.352-0.158 0.352-0.352v-1.051h-3.44z"></path>
<path fill="#dd9a76" d="M16.171 22.985c0-0.56 0.454-1.014 1.014-1.014-0.56 0-1.014-0.454-1.014-1.015s0.454-1.014 1.014-1.014c-0.56 0-1.014-0.454-1.014-1.014s0.454-1.014 1.014-1.014c-0.56 0-1.014-0.454-1.014-1.014s0.454-1.015 1.014-1.015h-1.151c-0.56 0-1.014 0.454-1.014 1.015s0.454 1.014 1.014 1.014c-0.56 0-1.014 0.454-1.014 1.014s0.454 1.014 1.014 1.014c-0.56 0-1.014 0.454-1.014 1.014s0.454 1.015 1.014 1.015c-0.56 0-1.014 0.454-1.014 1.014s0.454 1.015 1.014 1.015h1.151c-0.56-0-1.014-0.454-1.014-1.015z"></path>
<path fill="#f7cb4f" d="M8.092 5.081c-0.078-0.24-0.282-0.412-0.532-0.448l-1.601-0.233-0.716-1.451c-0.112-0.226-0.338-0.367-0.591-0.367s-0.479 0.141-0.591 0.367l-0.716 1.451-1.601 0.233c-0.25 0.036-0.454 0.208-0.532 0.448s-0.014 0.499 0.167 0.675l1.159 1.129-0.273 1.595c-0.043 0.249 0.058 0.496 0.262 0.644 0.115 0.084 0.251 0.126 0.387 0.126 0.105 0 0.21-0.025 0.307-0.076l1.432-0.753 1.432 0.753c0.224 0.118 0.489 0.098 0.694-0.050s0.305-0.395 0.262-0.644l-0.274-1.595 1.159-1.129c0.181-0.176 0.245-0.435 0.167-0.675z"></path>
<path fill="#fbab00" d="M7.561 4.633l-0.036-0.005-1.81 1.787c-0.093 0.091-0.135 0.221-0.113 0.349l0.427 2.381 0.057 0.030c0.224 0.118 0.489 0.098 0.694-0.050s0.305-0.395 0.262-0.644l-0.274-1.595 1.159-1.129c0.181-0.176 0.245-0.435 0.167-0.675s-0.282-0.412-0.532-0.448z"></path>
<path fill="#f7cb4f" d="M15.5 2.499c-0.078-0.24-0.282-0.412-0.532-0.448l-1.601-0.233-0.716-1.451c-0.112-0.226-0.338-0.367-0.591-0.367s-0.479 0.141-0.591 0.367l-0.716 1.451-1.601 0.233c-0.25 0.036-0.454 0.208-0.532 0.448s-0.014 0.499 0.167 0.675l1.159 1.129-0.274 1.595c-0.043 0.249 0.058 0.496 0.262 0.644s0.47 0.168 0.694 0.050l1.432-0.753 1.432 0.753c0.097 0.051 0.202 0.076 0.307 0.076 0.136 0 0.271-0.043 0.387-0.126 0.204-0.148 0.305-0.395 0.262-0.644l-0.274-1.595 1.159-1.129c0.181-0.176 0.245-0.435 0.167-0.675z"></path>
<path fill="#fbab00" d="M14.186 6.542c0.204-0.148 0.305-0.395 0.262-0.644l-0.274-1.595 1.159-1.129c0.181-0.176 0.245-0.435 0.167-0.675s-0.282-0.412-0.532-0.448l-0.015-0.002-1.831 1.784c-0.093 0.091-0.135 0.221-0.113 0.349l0.332 1.933 0.079 0.44 0.073 0.038c0.097 0.051 0.202 0.076 0.307 0.076 0.136 0 0.271-0.042 0.387-0.126z"></path>
<path fill="#f7cb4f" d="M22.894 5.081c-0.078-0.24-0.282-0.412-0.532-0.448l-1.601-0.233-0.716-1.451c-0.112-0.226-0.338-0.367-0.591-0.367s-0.479 0.141-0.591 0.367l-0.716 1.451-1.601 0.233c-0.25 0.036-0.454 0.208-0.532 0.448s-0.014 0.499 0.167 0.675l1.159 1.129-0.274 1.595c-0.043 0.249 0.058 0.496 0.262 0.644s0.47 0.168 0.694 0.050l1.432-0.753 1.432 0.753c0.097 0.051 0.202 0.076 0.307 0.076 0.136 0 0.271-0.043 0.387-0.126 0.204-0.148 0.305-0.395 0.262-0.644l-0.274-1.595 1.159-1.129c0.181-0.176 0.245-0.435 0.167-0.675z"></path>
<path fill="#fbab00" d="M22.894 5.081c-0.078-0.24-0.282-0.412-0.532-0.448l-0.028-0.004-1.818 1.786c-0.093 0.091-0.135 0.221-0.113 0.349l0.385 2.359 0.099 0.052c0.097 0.051 0.202 0.076 0.307 0.076 0.136 0 0.271-0.043 0.387-0.126 0.204-0.148 0.305-0.395 0.262-0.644l-0.274-1.595 1.159-1.129c0.181-0.176 0.245-0.435 0.167-0.675z"></path>
<path fill="#546f7a" d="M7.299 14.134h-5.919c-0.195 0-0.352 0.158-0.352 0.352v8.993c0 0.195 0.158 0.352 0.352 0.352h5.919c0.195 0 0.352-0.158 0.352-0.352v-8.993c0-0.195-0.158-0.352-0.352-0.352z"></path>
<path fill="#465a65" d="M1.028 22.481v0.998c0 0.195 0.158 0.352 0.352 0.352h5.919c0.195 0 0.352-0.158 0.352-0.352v-0.998h-6.624z"></path>
<path fill="#353535" d="M5.991 21.67c0 0.31-0.251 0.561-0.561 0.561s-0.561-0.251-0.561-0.561c0-0.31 0.251-0.561 0.561-0.561s0.561 0.251 0.561 0.561z"></path>
<path fill="#ffc89f" d="M20.661 15.884h-3.668c-0.651 0-1.18 0.529-1.18 1.18v0.197c0 0.651 0.529 1.18 1.18 1.18h3.668c0.651 0 1.18-0.529 1.18-1.18v-0.197c0-0.651-0.529-1.18-1.18-1.18z"></path>
<path fill="#f7b081" d="M20.661 17.304h-3.668c-0.484 0-0.9-0.292-1.082-0.71-0.063 0.144-0.098 0.303-0.098 0.47v0.197c0 0.651 0.529 1.18 1.18 1.18h3.668c0.651 0 1.18-0.529 1.18-1.18v-0.197c0-0.167-0.035-0.326-0.098-0.47-0.182 0.417-0.598 0.71-1.082 0.71z"></path>
<path fill="#ffc89f" d="M21.089 17.737h-4.096c-0.651 0-1.18 0.529-1.18 1.18v0.197c0 0.651 0.529 1.18 1.18 1.18h4.096c0.651 0 1.18-0.529 1.18-1.18v-0.197c0-0.651-0.529-1.18-1.18-1.18z"></path>
<path fill="#f7b081" d="M21.089 19.167h-4.096c-0.486 0-0.904-0.295-1.084-0.715-0.061 0.143-0.096 0.3-0.096 0.465v0.197c0 0.651 0.529 1.18 1.18 1.18h4.096c0.651 0 1.18-0.529 1.18-1.18v-0.197c0-0.165-0.034-0.322-0.096-0.465-0.181 0.42-0.599 0.715-1.084 0.715z"></path>
<path fill="#ffc89f" d="M20.562 19.59h-3.471c-0.705 0-1.279 0.574-1.279 1.279s0.574 1.279 1.279 1.279h3.471c0.705 0 1.279-0.574 1.279-1.279s-0.574-1.279-1.279-1.279z"></path>
<path fill="#f7b081" d="M20.562 20.998h-3.471c-0.498 0-0.931-0.287-1.142-0.704-0.087 0.173-0.137 0.368-0.137 0.575 0 0.705 0.574 1.279 1.279 1.279h3.471c0.705 0 1.279-0.574 1.279-1.279 0-0.207-0.050-0.402-0.137-0.575-0.211 0.417-0.643 0.704-1.142 0.704z"></path>
<path fill="#ffc89f" d="M19.607 21.443h-2.515c-0.705 0-1.279 0.574-1.279 1.279s0.574 1.279 1.279 1.279h2.515c0.705 0 1.279-0.574 1.279-1.279s-0.574-1.279-1.279-1.279z"></path>
<path fill="#f7b081" d="M19.607 22.851h-2.515c-0.499 0-0.931-0.287-1.142-0.704-0.087 0.173-0.137 0.368-0.137 0.574 0 0.705 0.574 1.279 1.279 1.279h2.515c0.705 0 1.279-0.574 1.279-1.279 0-0.206-0.049-0.401-0.137-0.574-0.211 0.417-0.643 0.704-1.142 0.704z"></path>
</svg>
