<!-- Generated by IcoMoon.io -->
<svg version="1.1" xmlns="http://www.w3.org/2000/svg" width="24" height="24" viewBox="0 0 24 24">
<title>calculator</title>
<path fill="#6f707e" d="M19.091 24h-14.182c-0.6 0-1.091-0.491-1.091-1.091v-21.818c0-0.6 0.491-1.091 1.091-1.091h14.182c0.6 0 1.091 0.491 1.091 1.091v21.818c0 0.6-0.491 1.091-1.091 1.091z"></path>
<path fill="#595a66" d="M19.091 0v0 22.909h-15.273c0 0.6 0.491 1.091 1.091 1.091h14.182c0.6 0 1.091-0.491 1.091-1.091v-21.818c-0-0.6-0.491-1.091-1.091-1.091z"></path>
<path fill="#494a52" d="M20.182 9.818h-16.364v-8.727c0-0.6 0.491-1.091 1.091-1.091h14.182c0.6 0 1.091 0.491 1.091 1.091v8.727z"></path>
<path fill="#90c962" d="M5.455 1.636h13.091v6.545h-13.091v-6.545z"></path>
<path fill="#595a66" d="M17.455 22.364v0c-0.6 0-1.091-0.491-1.091-1.091v-3.818c0-0.6 0.491-1.091 1.091-1.091v0c0.6 0 1.091 0.491 1.091 1.091v3.818c-0 0.6-0.491 1.091-1.091 1.091z"></path>
<path fill="#f04b4d" d="M16.909 21.818v0c-0.6 0-1.091-0.491-1.091-1.091v-3.818c0-0.6 0.491-1.091 1.091-1.091v0c0.6 0 1.091 0.491 1.091 1.091v3.818c0 0.6-0.491 1.091-1.091 1.091z"></path>
<path fill="#de333f" d="M17.455 15.982v4.2c0 0.6-0.491 1.091-1.091 1.091-0.164 0-0.327-0.055-0.436-0.109 0.164 0.382 0.545 0.655 0.982 0.655 0.6 0 1.091-0.491 1.091-1.091v-3.818c0-0.382-0.218-0.764-0.545-0.927z"></path>
<path fill="#595a66" d="M7.636 14.727v0c-0.6 0-1.091-0.491-1.091-1.091v0c0-0.6 0.491-1.091 1.091-1.091v0c0.6 0 1.091 0.491 1.091 1.091v0c0 0.6-0.491 1.091-1.091 1.091z"></path>
<path fill="#595a66" d="M10.909 14.727v0c-0.6 0-1.091-0.491-1.091-1.091v0c0-0.6 0.491-1.091 1.091-1.091v0c0.6 0 1.091 0.491 1.091 1.091v0c0 0.6-0.491 1.091-1.091 1.091z"></path>
<path fill="#595a66" d="M14.182 14.727v0c-0.6 0-1.091-0.491-1.091-1.091v0c0-0.6 0.491-1.091 1.091-1.091v0c0.6 0 1.091 0.491 1.091 1.091v0c0 0.6-0.491 1.091-1.091 1.091z"></path>
<path fill="#595a66" d="M17.455 14.727v0c-0.6 0-1.091-0.491-1.091-1.091v0c0-0.6 0.491-1.091 1.091-1.091v0c0.6 0 1.091 0.491 1.091 1.091v0c-0 0.6-0.491 1.091-1.091 1.091z"></path>
<path fill="#595a66" d="M7.636 18.545v0c-0.6 0-1.091-0.491-1.091-1.091v0c0-0.6 0.491-1.091 1.091-1.091v0c0.6 0 1.091 0.491 1.091 1.091v0c0 0.6-0.491 1.091-1.091 1.091z"></path>
<path fill="#595a66" d="M10.909 18.545v0c-0.6 0-1.091-0.491-1.091-1.091v0c0-0.6 0.491-1.091 1.091-1.091v0c0.6 0 1.091 0.491 1.091 1.091v0c0 0.6-0.491 1.091-1.091 1.091z"></path>
<path fill="#595a66" d="M14.182 18.545v0c-0.6 0-1.091-0.491-1.091-1.091v0c0-0.6 0.491-1.091 1.091-1.091v0c0.6 0 1.091 0.491 1.091 1.091v0c0 0.6-0.491 1.091-1.091 1.091z"></path>
<path fill="#595a66" d="M7.636 22.364v0c-0.6 0-1.091-0.491-1.091-1.091v0c0-0.6 0.491-1.091 1.091-1.091v0c0.6 0 1.091 0.491 1.091 1.091v0c0 0.6-0.491 1.091-1.091 1.091z"></path>
<path fill="#595a66" d="M10.909 22.364v0c-0.6 0-1.091-0.491-1.091-1.091v0c0-0.6 0.491-1.091 1.091-1.091v0c0.6 0 1.091 0.491 1.091 1.091v0c0 0.6-0.491 1.091-1.091 1.091z"></path>
<path fill="#595a66" d="M14.182 22.364v0c-0.6 0-1.091-0.491-1.091-1.091v0c0-0.6 0.491-1.091 1.091-1.091v0c0.6 0 1.091 0.491 1.091 1.091v0c0 0.6-0.491 1.091-1.091 1.091z"></path>
<path fill="#eceff9" d="M7.091 14.182v0c-0.6 0-1.091-0.491-1.091-1.091v0c0-0.6 0.491-1.091 1.091-1.091v0c0.6 0 1.091 0.491 1.091 1.091v0c-0 0.6-0.491 1.091-1.091 1.091z"></path>
<path fill="#eceff9" d="M10.364 14.182v0c-0.6 0-1.091-0.491-1.091-1.091v0c0-0.6 0.491-1.091 1.091-1.091v0c0.6 0 1.091 0.491 1.091 1.091v0c0 0.6-0.491 1.091-1.091 1.091z"></path>
<path fill="#eceff9" d="M13.636 14.182v0c-0.6 0-1.091-0.491-1.091-1.091v0c0-0.6 0.491-1.091 1.091-1.091v0c0.6 0 1.091 0.491 1.091 1.091v0c0 0.6-0.491 1.091-1.091 1.091z"></path>
<path fill="#f6b545" d="M16.909 14.182v0c-0.6 0-1.091-0.491-1.091-1.091v0c0-0.6 0.491-1.091 1.091-1.091v0c0.6 0 1.091 0.491 1.091 1.091v0c0 0.6-0.491 1.091-1.091 1.091z"></path>
<path fill="#eceff9" d="M7.091 18v0c-0.6 0-1.091-0.491-1.091-1.091v0c0-0.6 0.491-1.091 1.091-1.091v0c0.6 0 1.091 0.491 1.091 1.091v0c-0 0.6-0.491 1.091-1.091 1.091z"></path>
<path fill="#eceff9" d="M10.364 18v0c-0.6 0-1.091-0.491-1.091-1.091v0c0-0.6 0.491-1.091 1.091-1.091v0c0.6 0 1.091 0.491 1.091 1.091v0c0 0.6-0.491 1.091-1.091 1.091z"></path>
<path fill="#eceff9" d="M13.636 18v0c-0.6 0-1.091-0.491-1.091-1.091v0c0-0.6 0.491-1.091 1.091-1.091v0c0.6 0 1.091 0.491 1.091 1.091v0c0 0.6-0.491 1.091-1.091 1.091z"></path>
<path fill="#eceff9" d="M7.091 21.818v0c-0.6 0-1.091-0.491-1.091-1.091v0c0-0.6 0.491-1.091 1.091-1.091v0c0.6 0 1.091 0.491 1.091 1.091v0c-0 0.6-0.491 1.091-1.091 1.091z"></path>
<path fill="#eceff9" d="M10.364 21.818v0c-0.6 0-1.091-0.491-1.091-1.091v0c0-0.6 0.491-1.091 1.091-1.091v0c0.6 0 1.091 0.491 1.091 1.091v0c0 0.6-0.491 1.091-1.091 1.091z"></path>
<path fill="#eceff9" d="M13.636 21.818v0c-0.6 0-1.091-0.491-1.091-1.091v0c0-0.6 0.491-1.091 1.091-1.091v0c0.6 0 1.091 0.491 1.091 1.091v0c0 0.6-0.491 1.091-1.091 1.091z"></path>
<path fill="#71b956" d="M18.545 1.636h-13.091v6.545h0.545v-6h12.545z"></path>
<path fill="#35363e" d="M19.091 1.091h-14.182v7.636l0.545-0.545v-6.545h13.091z"></path>
<path fill="#595a66" d="M4.909 8.727h14.182v-7.636l-0.545 0.545v6.545h-13.091z"></path>
<path fill="#598e42" d="M13.636 3.545v2.727c0 0.164-0.109 0.273-0.273 0.273v0c-0.164 0-0.273-0.109-0.273-0.273v-2.727c0-0.164 0.109-0.273 0.273-0.273v0c0.164 0 0.273 0.109 0.273 0.273z"></path>
<path fill="#598e42" d="M14.727 3.545v2.727c0 0.164-0.109 0.273-0.273 0.273v0c-0.164 0-0.273-0.109-0.273-0.273v-2.727c0-0.164 0.109-0.273 0.273-0.273v0c0.164 0 0.273 0.109 0.273 0.273z"></path>
<path fill="#598e42" d="M16.364 3.818c0.327 0 0.545 0.218 0.545 0.545v1.091c0 0.327-0.218 0.545-0.545 0.545s-0.545-0.218-0.545-0.545v-1.091c0-0.327 0.218-0.545 0.545-0.545zM16.364 3.273c-0.6 0-1.091 0.491-1.091 1.091v1.091c0 0.6 0.491 1.091 1.091 1.091s1.091-0.491 1.091-1.091v-1.091c0-0.6-0.491-1.091-1.091-1.091v0z"></path>
<path fill="#7c7d87" d="M3.818 9.818h16.364v0.545h-16.364v-0.545z"></path>
<path fill="#35363e" d="M3.818 9.273h16.364v0.545h-16.364v-0.545z"></path>
<path fill="#35363e" d="M19.091 1.091v8.182h1.091v-8.182c-0-0.709-1.091-0.655-1.091 0z"></path>
<path fill="#6f707e" d="M19.091 9.818h1.091v0.545h-1.091v-0.545z"></path>
<path fill="#c9d5e3" d="M14.073 12.109c0.055 0.164 0.109 0.273 0.109 0.436 0 0.6-0.491 1.091-1.091 1.091-0.164 0-0.327-0.055-0.436-0.109 0.164 0.382 0.545 0.655 0.982 0.655 0.6 0 1.091-0.491 1.091-1.091 0-0.436-0.273-0.818-0.655-0.982z"></path>
<path fill="#c9d5e3" d="M10.8 12.109c0.055 0.164 0.109 0.273 0.109 0.436 0 0.6-0.491 1.091-1.091 1.091-0.164 0-0.327-0.055-0.436-0.109 0.164 0.382 0.545 0.655 0.982 0.655 0.6 0 1.091-0.491 1.091-1.091 0-0.436-0.273-0.818-0.655-0.982z"></path>
<path fill="#c9d5e3" d="M14.073 15.927c0.055 0.164 0.109 0.273 0.109 0.436 0 0.6-0.491 1.091-1.091 1.091-0.164 0-0.327-0.055-0.436-0.109 0.164 0.382 0.545 0.655 0.982 0.655 0.6 0 1.091-0.491 1.091-1.091 0-0.436-0.273-0.818-0.655-0.982z"></path>
<path fill="#c9d5e3" d="M10.8 15.927c0.055 0.164 0.109 0.273 0.109 0.436 0 0.6-0.491 1.091-1.091 1.091-0.164 0-0.327-0.055-0.436-0.109 0.164 0.382 0.545 0.655 0.982 0.655 0.6 0 1.091-0.491 1.091-1.091 0-0.436-0.273-0.818-0.655-0.982z"></path>
<path fill="#c9d5e3" d="M14.073 19.745c0.055 0.164 0.109 0.273 0.109 0.436 0 0.6-0.491 1.091-1.091 1.091-0.164 0-0.327-0.055-0.436-0.109 0.164 0.382 0.545 0.655 0.982 0.655 0.6 0 1.091-0.491 1.091-1.091 0-0.436-0.273-0.818-0.655-0.982z"></path>
<path fill="#c9d5e3" d="M10.8 19.745c0.055 0.164 0.109 0.273 0.109 0.436 0 0.6-0.491 1.091-1.091 1.091-0.164 0-0.327-0.055-0.436-0.109 0.164 0.382 0.545 0.655 0.982 0.655 0.6 0 1.091-0.491 1.091-1.091 0-0.436-0.273-0.818-0.655-0.982z"></path>
<path fill="#c9d5e3" d="M7.527 12.109c0.055 0.164 0.109 0.273 0.109 0.436 0 0.6-0.491 1.091-1.091 1.091-0.164 0-0.327-0.055-0.436-0.109 0.164 0.382 0.545 0.655 0.982 0.655 0.6 0 1.091-0.491 1.091-1.091 0-0.436-0.273-0.818-0.655-0.982z"></path>
<path fill="#f19920" d="M17.345 12.109c0.055 0.164 0.109 0.273 0.109 0.436 0 0.6-0.491 1.091-1.091 1.091-0.164 0-0.327-0.055-0.436-0.109 0.164 0.382 0.545 0.655 0.982 0.655 0.6 0 1.091-0.491 1.091-1.091 0-0.436-0.273-0.818-0.655-0.982z"></path>
<path fill="#c9d5e3" d="M7.527 15.927c0.055 0.164 0.109 0.273 0.109 0.436 0 0.6-0.491 1.091-1.091 1.091-0.164 0-0.327-0.055-0.436-0.109 0.164 0.382 0.545 0.655 0.982 0.655 0.6 0 1.091-0.491 1.091-1.091 0-0.436-0.273-0.818-0.655-0.982z"></path>
<path fill="#c9d5e3" d="M7.527 19.745c0.055 0.164 0.109 0.273 0.109 0.436 0 0.6-0.491 1.091-1.091 1.091-0.164 0-0.327-0.055-0.436-0.109 0.164 0.382 0.545 0.655 0.982 0.655 0.6 0 1.091-0.491 1.091-1.091 0-0.436-0.273-0.818-0.655-0.982z"></path>
<path fill="#595a66" d="M4.091 6v0c-0.164 0-0.273-0.109-0.273-0.273v-4.364c0-0.164 0.109-0.273 0.273-0.273v0c0.164 0 0.273 0.109 0.273 0.273v4.364c0 0.164-0.109 0.273-0.273 0.273z"></path>
<path fill="#595a66" d="M4.091 8.182v0c-0.164 0-0.273-0.109-0.273-0.273v-1.091c0-0.164 0.109-0.273 0.273-0.273v0c0.164 0 0.273 0.109 0.273 0.273v1.091c0 0.164-0.109 0.273-0.273 0.273z"></path>
<path fill="#7c7d87" d="M4.091 15.818v0c-0.164 0-0.273-0.109-0.273-0.273v-4.364c0-0.164 0.109-0.273 0.273-0.273v0c0.164 0 0.273 0.109 0.273 0.273v4.364c0 0.164-0.109 0.273-0.273 0.273z"></path>
<path fill="#7c7d87" d="M4.091 18v0c-0.164 0-0.273-0.109-0.273-0.273v-1.091c0-0.164 0.109-0.273 0.273-0.273v0c0.164 0 0.273 0.109 0.273 0.273v1.091c0 0.164-0.109 0.273-0.273 0.273z"></path>
<path fill="#7c7d87" d="M4.091 19.091v0c-0.164 0-0.273-0.109-0.273-0.273v0c0-0.164 0.109-0.273 0.273-0.273v0c0.164 0 0.273 0.109 0.273 0.273v0c0 0.164-0.109 0.273-0.273 0.273z"></path>
<path fill="#add587" d="M8.182 8.182h-2.182l3.818-6.545h2.182z"></path>
<path fill="#90c962" d="M11.673 2.182l0.327-0.545h-2.182l-0.327 0.545z"></path>
<path fill="#add587" d="M9.818 8.182h-1.091l3.818-6.545h1.091z"></path>
<path fill="#90c962" d="M13.309 2.182l0.327-0.545h-1.091l-0.327 0.545z"></path>
</svg>
