<!-- Generated by IcoMoon.io -->
<svg version="1.1" xmlns="http://www.w3.org/2000/svg" width="24" height="24" viewBox="0 0 24 24">
<title>calendar</title>
<path fill="#b0c4d8" d="M22.909 22.909h-21.818c-0.6 0-1.091-0.491-1.091-1.091v-13.091h24v13.091c0 0.6-0.491 1.091-1.091 1.091z"></path>
<path fill="#eceff9" d="M18.164 21.818h-15.982c-0.6 0-1.091-0.491-1.091-1.091v-12h21.818v8.345c0 0.6-0.218 1.145-0.655 1.527l-2.564 2.564c-0.382 0.436-0.927 0.655-1.527 0.655z"></path>
<path fill="#4c9cd6" d="M24 8.727h-24v-4.364c0-0.6 0.491-1.091 1.091-1.091h21.818c0.6 0 1.091 0.491 1.091 1.091v4.364z"></path>
<path fill="#3689c9" d="M22.909 3.273v0 3.273c0 0.6-0.491 1.091-1.091 1.091h-20.727c-0.6 0-1.091 0.491-1.091 1.091v0h24v-4.364c0-0.6-0.491-1.091-1.091-1.091z"></path>
<path fill="#4c9cd6" d="M10.909 12.545c0 0.603-0.488 1.091-1.091 1.091s-1.091-0.488-1.091-1.091c0-0.603 0.488-1.091 1.091-1.091s1.091 0.488 1.091 1.091z"></path>
<path fill="#4c9cd6" d="M15.273 12.545c0 0.603-0.488 1.091-1.091 1.091s-1.091-0.488-1.091-1.091c0-0.603 0.488-1.091 1.091-1.091s1.091 0.488 1.091 1.091z"></path>
<path fill="#4c9cd6" d="M19.636 12.545c0 0.603-0.488 1.091-1.091 1.091s-1.091-0.488-1.091-1.091c0-0.603 0.488-1.091 1.091-1.091s1.091 0.488 1.091 1.091z"></path>
<path fill="#4c9cd6" d="M6.545 17.455c0 0.603-0.488 1.091-1.091 1.091s-1.091-0.488-1.091-1.091c0-0.603 0.488-1.091 1.091-1.091s1.091 0.488 1.091 1.091z"></path>
<path fill="#4c9cd6" d="M10.909 17.455c0 0.603-0.488 1.091-1.091 1.091s-1.091-0.488-1.091-1.091c0-0.603 0.488-1.091 1.091-1.091s1.091 0.488 1.091 1.091z"></path>
<path fill="#f26a56" d="M15.273 17.455c0 0.603-0.488 1.091-1.091 1.091s-1.091-0.488-1.091-1.091c0-0.603 0.488-1.091 1.091-1.091s1.091 0.488 1.091 1.091z"></path>
<path fill="#c4d7e5" d="M1.091 8.727h21.818v1.091h-21.818v-1.091z"></path>
<path fill="#3689c9" d="M19.636 5.455h-1.091v-2.182h1.636z"></path>
<path fill="#1470b8" d="M19.636 5.455c0 0.904-0.733 1.636-1.636 1.636s-1.636-0.733-1.636-1.636c0-0.904 0.733-1.636 1.636-1.636s1.636 0.733 1.636 1.636z"></path>
<path fill="#d5e3ef" d="M22.909 16.364v0.709c0 0.6-0.218 1.145-0.655 1.527l-2.564 2.564c-0.436 0.436-0.982 0.655-1.527 0.655h-0.709c0.927 0 1.636-0.709 1.636-1.636v-1.636c0-0.327 0.218-0.545 0.545-0.545h1.636c0.927-0 1.636-0.709 1.636-1.636z"></path>
<path fill="#99b4cd" d="M23.455 8.727h-0.545v9c-0.109 0.164-0.218 0.273-0.327 0.436l-2.782 2.782c-0.545 0.545-1.309 0.873-2.127 0.873h2.291c0.327 0 0.6-0.109 0.873-0.327l1.582-1.582c0.382-0.436 1.091-0.164 1.091 0.382v1.527c0 0.327-0.218 0.545-0.545 0.545h-22.418c-0.164 0-0.327-0.055-0.436-0.109 0.164 0.382 0.545 0.655 0.982 0.655h21.818c0.6 0 1.091-0.491 1.091-1.091v-13.091h-0.545z"></path>
<path fill="#82a7c4" d="M22.909 8.727h1.091v1.091h-1.091v-1.091z"></path>
<path fill="#99b4cd" d="M0 8.727h1.091v1.091h-1.091v-1.091z"></path>
<path fill="#70b7e5" d="M14.182 4.364h-4.364c-0.6 0-1.091-0.491-1.091-1.091v0h6.545c0 0.6-0.491 1.091-1.091 1.091z"></path>
<path fill="#70b7e5" d="M3.273 4.364h-0.545c-0.6 0-1.091-0.491-1.091-1.091v0h2.727c0 0.6-0.491 1.091-1.091 1.091z"></path>
<path fill="#f6b545" d="M18 6.545v0c-0.6 0-1.091-0.491-1.091-1.091v-3.273c0-0.6 0.491-1.091 1.091-1.091v0c0.6 0 1.091 0.491 1.091 1.091v3.273c0 0.6-0.491 1.091-1.091 1.091z"></path>
<path fill="#3689c9" d="M7.636 5.455h-1.091v-2.182h1.636z"></path>
<path fill="#1470b8" d="M7.636 5.455c0 0.904-0.733 1.636-1.636 1.636s-1.636-0.733-1.636-1.636c0-0.904 0.733-1.636 1.636-1.636s1.636 0.733 1.636 1.636z"></path>
<path fill="#f6b545" d="M6 6.545v0c-0.6 0-1.091-0.491-1.091-1.091v-3.273c0-0.6 0.491-1.091 1.091-1.091v0c0.6 0 1.091 0.491 1.091 1.091v3.273c0 0.6-0.491 1.091-1.091 1.091z"></path>
<path fill="#f19920" d="M6.545 2.182v2.945c0 0.218-0.055 0.382-0.218 0.545v0c-0.273 0.273-0.655 0.327-0.982 0.109-0.273-0.164-0.436-0.491-0.436-0.873v0.491c0 0.545 0.382 1.036 0.927 1.145 0.709 0.109 1.255-0.436 1.255-1.091v-3.273c0-0.382-0.545-0.545-0.545 0z"></path>
<path fill="#f19920" d="M18.545 2.182v2.945c0 0.218-0.055 0.382-0.218 0.545v0c-0.273 0.273-0.655 0.327-0.982 0.109-0.273-0.164-0.436-0.491-0.436-0.873v0.491c0 0.545 0.382 1.036 0.927 1.145 0.709 0.109 1.255-0.436 1.255-1.091v-3.273c0-0.382-0.545-0.545-0.545 0z"></path>
<path fill="#ffcb5b" d="M5.455 2.455v2.182c0 0.164-0.109 0.273-0.273 0.273v0c-0.164 0-0.273-0.109-0.273-0.273v-2.182c0-0.164 0.109-0.273 0.273-0.273v0c0.164-0 0.273 0.109 0.273 0.273z"></path>
<path fill="#ffcb5b" d="M17.455 2.455v2.182c0 0.164-0.109 0.273-0.273 0.273v0c-0.164 0-0.273-0.109-0.273-0.273v-2.182c0-0.164 0.109-0.273 0.273-0.273v0c0.164-0 0.273 0.109 0.273 0.273z"></path>
</svg>
