<!-- Generated by IcoMoon.io -->
<svg version="1.1" xmlns="http://www.w3.org/2000/svg" width="24" height="24" viewBox="0 0 24 24">
<title>certificate</title>
<path fill="#d5e3ef" d="M18.545 4.909v16.909c0 0.6-0.491 1.091-1.091 1.091h-15.273c-0.6 0-1.091-0.491-1.091-1.091v-20.727c0-0.6 0.491-1.091 1.091-1.091h11.455v3.818c0 0.6 0.491 1.091 1.091 1.091h3.818z"></path>
<path fill="#99b4cd" d="M18.545 4.909h-3.818c-0.6 0-1.091-0.491-1.091-1.091v-3.818l4.909 4.909z"></path>
<path fill="#c9d5e3" d="M18.545 15.818l-4.909 3.818h2.455c0.164 0 0.327-0.055 0.491-0.109l1.964-0.982v-2.727z"></path>
<path fill="#c9d5e3" d="M18.545 4.909h-3.273l3.273 2.182z"></path>
<path fill="#3689c9" d="M22.527 11.073l-0.327-0.327c-0.218-0.218-0.6-0.382-0.927-0.382s-0.709 0.164-0.927 0.382l-6.164 6.164 2.182 2.182 6.164-6.164c0.273-0.273 0.382-0.6 0.382-0.927v0c0-0.327-0.164-0.709-0.382-0.927z"></path>
<path fill="#3d545f" d="M3.545 7.091h4.364c0.164 0 0.273 0.109 0.273 0.273v0c0 0.164-0.109 0.273-0.273 0.273h-4.364c-0.164 0-0.273-0.109-0.273-0.273v0c0-0.164 0.109-0.273 0.273-0.273z"></path>
<path fill="#3d545f" d="M6.818 10.364h4.364c0.164 0 0.273 0.109 0.273 0.273v0c0 0.164-0.109 0.273-0.273 0.273h-4.364c-0.164 0-0.273-0.109-0.273-0.273v0c-0-0.164 0.109-0.273 0.273-0.273z"></path>
<path fill="#3d545f" d="M7.909 12h5.455c0.164 0 0.273 0.109 0.273 0.273v0c0 0.164-0.109 0.273-0.273 0.273h-5.455c-0.164 0-0.273-0.109-0.273-0.273v0c0-0.164 0.109-0.273 0.273-0.273z"></path>
<path fill="#3d545f" d="M3.545 8.727h3.273c0.164 0 0.273 0.109 0.273 0.273v0c0 0.164-0.109 0.273-0.273 0.273h-3.273c-0.164 0-0.273-0.109-0.273-0.273v0c0-0.164 0.109-0.273 0.273-0.273z"></path>
<path fill="#3d545f" d="M12.273 7.091h3.273c0.164 0 0.273 0.109 0.273 0.273v0c0 0.164-0.109 0.273-0.273 0.273h-3.273c-0.164 0-0.273-0.109-0.273-0.273v0c0-0.164 0.109-0.273 0.273-0.273z"></path>
<path fill="#3d545f" d="M9 7.091h2.182c0.164 0 0.273 0.109 0.273 0.273v0c0 0.164-0.109 0.273-0.273 0.273h-2.182c-0.164 0-0.273-0.109-0.273-0.273v0c0-0.164 0.109-0.273 0.273-0.273z"></path>
<path fill="#3d545f" d="M13.909 8.727h1.091c0.164 0 0.273 0.109 0.273 0.273v0c0 0.164-0.109 0.273-0.273 0.273h-1.091c-0.164 0-0.273-0.109-0.273-0.273v0c0-0.164 0.109-0.273 0.273-0.273z"></path>
<path fill="#3d545f" d="M14.455 12h1.091c0.164 0 0.273 0.109 0.273 0.273v0c0 0.164-0.109 0.273-0.273 0.273h-1.091c-0.164 0-0.273-0.109-0.273-0.273v0c-0-0.164 0.109-0.273 0.273-0.273z"></path>
<path fill="#3d545f" d="M6.818 13.636h2.182c0.164 0 0.273 0.109 0.273 0.273v0c0 0.164-0.109 0.273-0.273 0.273h-2.182c-0.164 0-0.273-0.109-0.273-0.273v0c-0-0.164 0.109-0.273 0.273-0.273z"></path>
<path fill="#3d545f" d="M11.727 19.091h2.182c0.164 0 0.273 0.109 0.273 0.273v0c0 0.164-0.545 0.273-0.545 0.273h-1.909c-0.164 0-0.273-0.109-0.273-0.273v0c0-0.164 0.109-0.273 0.273-0.273z"></path>
<path fill="#3d545f" d="M12.273 10.364h2.182c0.164 0 0.273 0.109 0.273 0.273v0c0 0.164-0.109 0.273-0.273 0.273h-2.182c-0.164 0-0.273-0.109-0.273-0.273v0c0-0.164 0.109-0.273 0.273-0.273z"></path>
<path fill="#3d545f" d="M7.909 8.727h4.909c0.164 0 0.273 0.109 0.273 0.273v0c0 0.164-0.109 0.273-0.273 0.273h-4.909c-0.164 0-0.273-0.109-0.273-0.273v0c0-0.164 0.109-0.273 0.273-0.273z"></path>
<path fill="#3d545f" d="M7.364 4.909h4.909c0.164 0 0.273 0.109 0.273 0.273v0c0 0.164-0.109 0.273-0.273 0.273h-4.909c-0.164 0-0.273-0.109-0.273-0.273v0c0-0.164 0.109-0.273 0.273-0.273z"></path>
<path fill="#3d545f" d="M3.545 10.364h2.182c0.164 0 0.273 0.109 0.273 0.273v0c0 0.164-0.109 0.273-0.273 0.273h-2.182c-0.164 0-0.273-0.109-0.273-0.273v0c0-0.164 0.109-0.273 0.273-0.273z"></path>
<path fill="#3d545f" d="M3.545 12h3.273c0.164 0 0.273 0.109 0.273 0.273v0c0 0.164-0.109 0.273-0.273 0.273h-3.273c-0.164 0-0.273-0.109-0.273-0.273v0c0-0.164 0.109-0.273 0.273-0.273z"></path>
<path fill="#3d545f" d="M3.545 13.636h2.182c0.164 0 0.273 0.109 0.273 0.273v0c0 0.164-0.109 0.273-0.273 0.273h-2.182c-0.164 0-0.273-0.109-0.273-0.273v0c0-0.164 0.109-0.273 0.273-0.273z"></path>
<path fill="#ee2c39" d="M8.182 24l-1.636-0.545-1.636 0.545v-3.818h3.273z"></path>
<path fill="#cc202c" d="M8.182 21.436v-0.709h-3.273v3.273l1.636-0.545v-1.636c0.6 0 1.145-0.109 1.636-0.382z"></path>
<path fill="#f6b545" d="M9.273 18.545c0 1.506-1.221 2.727-2.727 2.727s-2.727-1.221-2.727-2.727c0-1.506 1.221-2.727 2.727-2.727s2.727 1.221 2.727 2.727z"></path>
<path fill="#e78825" d="M7.636 18.545c0 0.603-0.488 1.091-1.091 1.091s-1.091-0.488-1.091-1.091c0-0.603 0.488-1.091 1.091-1.091s1.091 0.488 1.091 1.091z"></path>
<path fill="#ffcb5b" d="M4.364 19.091c-0.327 0-0.545-0.218-0.545-0.545 0-1.527 1.2-2.727 2.727-2.727 0.327 0 0.545 0.218 0.545 0.545s-0.218 0.545-0.545 0.545c-0.927 0-1.636 0.709-1.636 1.636-0 0.327-0.218 0.545-0.545 0.545z"></path>
<path fill="#f19920" d="M8.727 18c0.327 0 0.545 0.218 0.545 0.545 0 1.527-1.2 2.727-2.727 2.727-0.327 0-0.545-0.218-0.545-0.545s0.218-0.545 0.545-0.545c0.927 0 1.636-0.709 1.636-1.636 0-0.327 0.218-0.545 0.545-0.545z"></path>
<path fill="#1470b8" d="M22.909 12v0c0-0.491-0.6-0.709-0.927-0.382l-6.545 6.545 0.927 0.927 6.164-6.164c0.109-0.109 0.218-0.218 0.273-0.382s0.109-0.382 0.109-0.545v0 0z"></path>
<path fill="#4c9cd6" d="M15.109 16.964c-0.055 0-0.164 0-0.218-0.055-0.109-0.109-0.109-0.273 0-0.382l1.636-1.636c0.109-0.109 0.273-0.109 0.382 0s0.109 0.273 0 0.382l-1.636 1.636c-0.054 0.055-0.109 0.055-0.164 0.055z"></path>
<path fill="#4c9cd6" d="M17.455 14.618c-0.055 0-0.164 0-0.218-0.055-0.109-0.109-0.109-0.273 0-0.382l0.545-0.545c0.109-0.109 0.273-0.109 0.382 0s0.109 0.273 0 0.382l-0.545 0.545c0 0-0.109 0.055-0.164 0.055z"></path>
<path fill="#82a7c4" d="M16.364 19.091l-2.727 0.545 0.545-2.727z"></path>
<path fill="#6c9abb" d="M13.636 19.636l2.727-0.545-0.927-0.927z"></path>
</svg>
