<!-- Generated by IcoMoon.io -->
<svg version="1.1" xmlns="http://www.w3.org/2000/svg" width="24" height="24" viewBox="0 0 24 24">
<title>chat</title>
<path fill="#3689c9" d="M6.857 7.429c-0.629 0-1.143 0.514-1.143 1.143v14c0 0.457 0.4 0.857 0.857 0.857v0c0.171 0 0.343-0.057 0.514-0.171l3.714-2.8c0.4-0.286 0.857-0.457 1.371-0.457h10.686c0.629 0 1.143-0.514 1.143-1.143v-10.286c0-0.629-0.514-1.143-1.143-1.143h-16z"></path>
<path fill="#1470b8" d="M22.857 7.429v10.857c0 0.343-0.229 0.571-0.571 0.571h-11.257c-0.514 0-0.971 0.171-1.371 0.457l-3.714 2.8c-0.057 0.057-0.171 0.114-0.229 0.114v0.343c0 0.457 0.4 0.857 0.857 0.857 0.171 0 0.343-0.057 0.514-0.171l3.714-2.8c0.4-0.286 0.857-0.457 1.371-0.457h10.686c0.629 0 1.143-0.514 1.143-1.143v-10.286c-0-0.629-0.514-1.143-1.143-1.143z"></path>
<path fill="#eaeced" d="M16 13.714c0 0.631-0.512 1.143-1.143 1.143s-1.143-0.512-1.143-1.143c0-0.631 0.512-1.143 1.143-1.143s1.143 0.512 1.143 1.143z"></path>
<path fill="#eaeced" d="M20 13.714c0 0.631-0.512 1.143-1.143 1.143s-1.143-0.512-1.143-1.143c0-0.631 0.512-1.143 1.143-1.143s1.143 0.512 1.143 1.143z"></path>
<path fill="#eaeced" d="M12 13.714c0 0.631-0.512 1.143-1.143 1.143s-1.143-0.512-1.143-1.143c0-0.631 0.512-1.143 1.143-1.143s1.143 0.512 1.143 1.143z"></path>
<path fill="#c9d5e3" d="M19.314 12.686c0.057 0.171 0.114 0.286 0.114 0.457 0 0.629-0.514 1.143-1.143 1.143-0.171 0-0.343-0.057-0.457-0.114 0.171 0.4 0.571 0.686 1.029 0.686 0.629 0 1.143-0.514 1.143-1.143 0-0.457-0.286-0.857-0.686-1.029z"></path>
<path fill="#c9d5e3" d="M15.314 12.686c0.057 0.171 0.114 0.286 0.114 0.457 0 0.629-0.514 1.143-1.143 1.143-0.171 0-0.343-0.057-0.457-0.114 0.171 0.4 0.571 0.686 1.029 0.686 0.629 0 1.143-0.514 1.143-1.143 0-0.457-0.286-0.857-0.686-1.029z"></path>
<path fill="#c9d5e3" d="M11.314 12.686c0.057 0.171 0.114 0.286 0.114 0.457 0 0.629-0.514 1.143-1.143 1.143-0.171 0-0.343-0.057-0.457-0.114 0.171 0.4 0.571 0.686 1.029 0.686 0.629 0 1.143-0.514 1.143-1.143 0-0.457-0.286-0.857-0.686-1.029z"></path>
<path fill="#0261a5" d="M11.429 10.857h-0.857l0.286-3.429h1.143v2.857c0 0.343-0.229 0.571-0.571 0.571z"></path>
<path fill="#90c962" d="M0 1.714v5.714c0 0.629 0.514 1.143 1.143 1.143h5.029c0.457 0 0.914 0.114 1.257 0.4l2.629 1.771c0.171 0.114 0.286 0.171 0.514 0.171v0c0.457 0 0.857-0.4 0.857-0.857v-8.343c0-0.629-0.514-1.143-1.143-1.143h-9.143c-0.629 0-1.143 0.514-1.143 1.143z"></path>
<path fill="#71b956" d="M10.286 0.571v7.714c0 0.457-0.4 0.857-0.857 0.857-0.171 0-0.343-0.057-0.514-0.171l-1.6-1.2c-0.286-0.229-0.686-0.343-1.029-0.343h-6.286c0 0.629 0.514 1.143 1.143 1.143h5.029c0.457 0 0.914 0.114 1.257 0.4l2.629 1.771c0.171 0.114 0.286 0.171 0.514 0.171 0.457 0 0.857-0.4 0.857-0.857v-8.343c-0-0.629-0.514-1.143-1.143-1.143z"></path>
<path fill="#eaeced" d="M6.286 4.571c0 0.316-0.256 0.571-0.571 0.571s-0.571-0.256-0.571-0.571c0-0.316 0.256-0.571 0.571-0.571s0.571 0.256 0.571 0.571z"></path>
<path fill="#eaeced" d="M4 4.571c0 0.316-0.256 0.571-0.571 0.571s-0.571-0.256-0.571-0.571c0-0.316 0.256-0.571 0.571-0.571s0.571 0.256 0.571 0.571z"></path>
<path fill="#eaeced" d="M8.571 4.571c0 0.316-0.256 0.571-0.571 0.571s-0.571-0.256-0.571-0.571c0-0.316 0.256-0.571 0.571-0.571s0.571 0.256 0.571 0.571z"></path>
<path fill="#70b7e5" d="M7.429 11.714v3.429c0 0.171-0.114 0.286-0.286 0.286v0c-0.171 0-0.286-0.114-0.286-0.286v-3.429c0-0.171 0.114-0.286 0.286-0.286v0c0.171 0 0.286 0.114 0.286 0.286z"></path>
<path fill="#b2d890" d="M1.143 2.571v1.714c0 0.171-0.114 0.286-0.286 0.286v0c-0.171 0-0.286-0.114-0.286-0.286v-1.714c0-0.171 0.114-0.286 0.286-0.286v0c0.171-0 0.286 0.114 0.286 0.286z"></path>
<path fill="#70b7e5" d="M6.857 16.286v0c0-0.171 0.114-0.286 0.286-0.286v0c0.171 0 0.286 0.114 0.286 0.286v0c0 0.171-0.114 0.286-0.286 0.286v0c-0.171 0-0.286-0.114-0.286-0.286z"></path>
</svg>
