<!-- Generated by IcoMoon.io -->
<svg version="1.1" xmlns="http://www.w3.org/2000/svg" width="24" height="24" viewBox="0 0 24 24">
<title>clipboard</title>
<path fill="#c97629" d="M19.636 2.182h-15.273c-0.6 0-1.091 0.491-1.091 1.091v19.636c0 0.6 0.491 1.091 1.091 1.091h15.273c0.6 0 1.091-0.491 1.091-1.091v-19.636c0-0.6-0.491-1.091-1.091-1.091z"></path>
<path fill="#b06328" d="M19.091 18.273c-0.109 0.164-0.218 0.273-0.327 0.436l-2.782 2.782c-0.545 0.545-1.309 0.873-2.127 0.873h2.291c0.327 0 0.6-0.109 0.873-0.327l2.291-2.291c0.218-0.218 0.327-0.545 0.327-0.873v-13.964c0-0.327-0.218-0.545-0.545-0.545v13.909z"></path>
<path fill="#b06328" d="M20.073 2.291c0.055 0.109 0.109 0.273 0.109 0.436v20.182c0 0.273-0.273 0.545-0.545 0.545h-15.818c-0.164 0-0.327-0.055-0.436-0.109 0.164 0.382 0.545 0.655 0.982 0.655h15.273c0.6 0 1.091-0.491 1.091-1.091v-19.636c0-0.436-0.273-0.818-0.655-0.982z"></path>
<path fill="#b06328" d="M14.727 2.182h1.091v1.636h-1.091v-1.636z"></path>
<path fill="#da8c36" d="M3.818 4.091v2.727c0 0.164-0.109 0.273-0.273 0.273v0c-0.164 0-0.273-0.109-0.273-0.273v-2.727c0-0.164 0.109-0.273 0.273-0.273v0c0.164 0 0.273 0.109 0.273 0.273z"></path>
<path fill="#da8c36" d="M3.818 7.909v5.455c0 0.164-0.109 0.273-0.273 0.273v0c-0.164 0-0.273-0.109-0.273-0.273v-5.455c0-0.164 0.109-0.273 0.273-0.273v0c0.164 0 0.273 0.109 0.273 0.273z"></path>
<path fill="#f5f6f6" d="M19.091 4.364v12.545c0 0.927-0.709 1.636-1.636 1.636h-1.636c-0.327 0-0.545 0.218-0.545 0.545v1.636c0 0.927-0.709 1.636-1.636 1.636h-8.182c-0.327 0-0.545-0.218-0.545-0.545v-17.455c0-0.327 0.218-0.545 0.545-0.545h13.091c0.327 0 0.545 0.218 0.545 0.545z"></path>
<path fill="#4c9cd6" d="M12 7.636c-1.8 0-3.273 1.473-3.273 3.273s1.473 3.273 3.273 3.273 3.273-1.473 3.273-3.273h-3.273v-3.273z"></path>
<path fill="#f26a56" d="M12.545 7.091v3.273h3.273c0-1.8-1.473-3.273-3.273-3.273z"></path>
<path fill="#3d545f" d="M13.091 17.455h-3.273c-0.327 0-0.545-0.218-0.545-0.545s0.218-0.545 0.545-0.545h3.273c0.327 0 0.545 0.218 0.545 0.545s-0.218 0.545-0.545 0.545z"></path>
<path fill="#3d545f" d="M12 19.091h-2.182c-0.327 0-0.545-0.218-0.545-0.545s0.218-0.545 0.545-0.545h2.182c0.327 0 0.545 0.218 0.545 0.545s-0.218 0.545-0.545 0.545z"></path>
<path fill="#70b7e5" d="M8.727 16.909c0 0.301-0.244 0.545-0.545 0.545s-0.545-0.244-0.545-0.545c0-0.301 0.244-0.545 0.545-0.545s0.545 0.244 0.545 0.545z"></path>
<path fill="#f26a56" d="M8.727 18.545c0 0.301-0.244 0.545-0.545 0.545s-0.545-0.244-0.545-0.545c0-0.301 0.244-0.545 0.545-0.545s0.545 0.244 0.545 0.545z"></path>
<path fill="#d5e3ef" d="M19.091 16.909v0.709c0 0.6-0.218 1.145-0.655 1.527l-2.564 2.564c-0.436 0.436-0.982 0.655-1.527 0.655h-0.709c0.927 0 1.636-0.709 1.636-1.636v-1.636c0-0.327 0.218-0.545 0.545-0.545h1.636c0.927-0 1.636-0.709 1.636-1.636z"></path>
<path fill="#d5e3ef" d="M14.727 4.364h0.545c0.327 0 0.545-0.218 0.545-0.545h-1.091v0.545z"></path>
<path fill="#b0c4d9" d="M13.582 1.2c-0.218-0.709-0.818-1.2-1.582-1.2s-1.364 0.491-1.582 1.2l-1.309 0.327c-0.218 0.055-0.436 0.273-0.436 0.545v1.745c0 0.327 0.218 0.545 0.545 0.545h5.455c0.327 0 0.545-0.218 0.545-0.545v-1.745c0-0.273-0.164-0.491-0.436-0.545l-1.2-0.327zM12 2.182c-0.327 0-0.545-0.218-0.545-0.545s0.218-0.545 0.545-0.545c0.327 0 0.545 0.218 0.545 0.545s-0.218 0.545-0.545 0.545z"></path>
<path fill="#99b5cd" d="M14.836 1.527l-0.109-0.055v2.345h-6c0 0.327 0.218 0.545 0.545 0.545h5.455c0.327 0 0.545-0.218 0.545-0.545v-1.745c0-0.273-0.164-0.491-0.436-0.545z"></path>
<path fill="#d5e3ef" d="M13.091 1.636h-0.545c0 0.327-0.218 0.545-0.545 0.545v0.545c0.6 0 1.091-0.491 1.091-1.091z"></path>
<path fill="#99b5cd" d="M10.909 1.636h0.545c0-0.327 0.218-0.545 0.545-0.545v-0.545c-0.6 0-1.091 0.491-1.091 1.091z"></path>
</svg>
