<!-- Generated by IcoMoon.io -->
<svg version="1.1" xmlns="http://www.w3.org/2000/svg" width="24" height="24" viewBox="0 0 24 24">
<title>coffee</title>
<path fill="#f19920" d="M17.509 22.364h-11.018c-0.273 0-0.491-0.218-0.545-0.491l-1.855-18.055h15.818l-1.855 18.055c-0.055 0.273-0.273 0.491-0.545 0.491z"></path>
<path fill="#d5e3ef" d="M3.273 3.273v-0.818c0-0.436 0.382-0.818 0.818-0.818h0.545c0.436 0 0.818-0.382 0.818-0.818v0c0-0.436 0.382-0.818 0.818-0.818h11.455c0.436 0 0.818 0.382 0.818 0.818v0c0 0.436 0.382 0.818 0.818 0.818h0.545c0.436 0 0.818 0.382 0.818 0.818v0.818c0 0.327-0.218 0.545-0.545 0.545h-16.364c-0.327-0-0.545-0.218-0.545-0.546z"></path>
<path fill="#99b5cd" d="M16.909 24h-9.818c-0.327 0-0.545-0.218-0.545-0.545v-1.091h10.909v1.091c0 0.327-0.218 0.545-0.545 0.545z"></path>
<path fill="#bcd1e2" d="M7.091 24h7.091v-0.545c0-0.327-0.218-0.545-0.545-0.545h-7.091v0.545c0 0.327 0.218 0.545 0.545 0.545z"></path>
<path fill="#e78825" d="M15.273 3.818h-11.182c0.055 0.6 0.6 1.091 1.2 1.091h8.291c0.6 0 1.091 0.491 1.091 1.145l-0.491 16.309h3.327c0.273 0 0.491-0.218 0.545-0.491l1.855-18.055h-4.636z"></path>
<path fill="#bcd1e2" d="M19.909 1.636h-4.091c-0.327 0-0.545 0.218-0.545 0.545v0.545c0 0.327-0.218 0.545-0.545 0.545h-11.455c0 0.327 0.218 0.545 0.545 0.545h16.364c0.327 0 0.545-0.218 0.545-0.545v-0.818c0-0.436-0.382-0.818-0.818-0.818z"></path>
<path fill="#ecf0f9" d="M11.182 1.636c0.164 0 0.273-0.109 0.273-0.273s-0.109-0.273-0.273-0.273h-5.782c-0.109 0.327-0.382 0.545-0.764 0.545h6.545z"></path>
<path fill="#bcd1e2" d="M19.091 1.582c-0.327-0.109-0.545-0.436-0.545-0.764 0-0.109 0-0.164-0.055-0.273h-4.309c-0.327 0-0.545 0.218-0.545 0.545v0.545l5.455-0.055z"></path>
<path fill="#faa845" d="M6.055 6h-1.745l1.636 15.873c0.055 0.273 0.273 0.491 0.545 0.491h1.636l-0.982-15.327c0-0.6-0.491-1.036-1.091-1.036z"></path>
<path fill="#d5e3ef" d="M15.818 13.091c0 2.109-1.709 3.818-3.818 3.818s-3.818-1.709-3.818-3.818c0-2.109 1.709-3.818 3.818-3.818s3.818 1.709 3.818 3.818z"></path>
<path fill="#bcd1e2" d="M14.564 10.255l-0.164 5.836c0.873-0.709 1.418-1.8 1.418-3 0-1.145-0.491-2.127-1.255-2.836z"></path>
<path fill="#8b5428" d="M12.164 10.964c-0.109 0.109-0.436 0.436-0.436 0.927 0 0.436 0.164 0.655 0.382 0.982 0 0.055 0.055 0.055 0.055 0.109 0.273 0.382 0.491 0.818 0.545 1.309 0 0.382-0.164 0.709-0.327 0.927 0.709-0.218 1.255-1.091 1.255-2.127v0c0-0.6-0.164-1.091-0.436-1.527-0.273-0.382-0.655-0.6-1.036-0.6 0-0.055 0 0 0 0z"></path>
<path fill="#7c4b22" d="M11.836 15.218c0.109-0.109 0.436-0.436 0.436-0.927 0-0.382-0.218-0.764-0.436-1.091 0-0.055-0.055-0.055-0.055-0.109-0.218-0.327-0.436-0.655-0.436-1.2 0-0.382 0.164-0.709 0.327-0.927-0.764 0.218-1.309 1.091-1.309 2.127 0 0.6 0.164 1.091 0.436 1.527 0.164 0.218 0.382 0.382 0.545 0.491s0.327 0.164 0.491 0.109c0 0.055 0 0 0 0z"></path>
</svg>
