<!-- Generated by IcoMoon.io -->
<svg version="1.1" xmlns="http://www.w3.org/2000/svg" width="24" height="24" viewBox="0 0 24 24">
<title>coin</title>
<path fill="#f4bf1a" d="M18.173 18.291c-4.185 4.185-10.38 4.888-14.42 1.838 0.248 0.328 0.517 0.644 0.815 0.941 3.959 3.959 10.836 3.5 15.361-1.024s4.983-11.402 1.024-15.361c-0.297-0.298-0.613-0.567-0.941-0.815 3.050 4.040 2.346 10.236-1.838 14.42z"></path>
<path fill="#ffd949" d="M19.197 2.93c3.959 3.959 3.501 10.836-1.024 15.361s-11.402 4.983-15.361 1.024c-3.959-3.959-3.501-10.836 1.024-15.361s11.402-4.983 15.361-1.024z"></path>
<path fill="#f4bf1a" d="M9.555 20.354c-2.17 0-4.148-0.785-5.573-2.209-3.307-3.307-2.848-9.149 1.024-13.020 2.054-2.055 4.769-3.233 7.447-3.233 2.17 0 4.148 0.785 5.573 2.209 3.307 3.307 2.848 9.149-1.024 13.020-2.054 2.054-4.769 3.233-7.447 3.233z"></path>
<path fill="#dca815" d="M18.454 17.986l1.761 1.761c0.191-0.203 0.375-0.409 0.55-0.62l-1.758-1.758c-0.175 0.211-0.362 0.415-0.553 0.617z"></path>
<path fill="#dca815" d="M16.922 19.381l1.762 1.762c0.217-0.168 0.43-0.346 0.639-0.531l-1.759-1.759c-0.21 0.185-0.424 0.36-0.642 0.528z"></path>
<path fill="#dca815" d="M19.757 16.363l1.761 1.761c0.16-0.236 0.311-0.475 0.453-0.717l-1.757-1.757c-0.142 0.242-0.298 0.479-0.457 0.713z"></path>
<path fill="#dca815" d="M20.81 14.49l1.763 1.762c0.125-0.274 0.237-0.551 0.34-0.83l-1.76-1.76c-0.103 0.278-0.218 0.554-0.343 0.828z"></path>
<path fill="#dca815" d="M15.153 20.538l1.761 1.761c0.25-0.135 0.497-0.276 0.74-0.43l-1.762-1.762c-0.243 0.154-0.49 0.296-0.739 0.431z"></path>
<path fill="#dca815" d="M13.11 21.421l1.761 1.761c0.287-0.094 0.573-0.198 0.856-0.315l-1.76-1.76c-0.283 0.117-0.569 0.22-0.856 0.314z"></path>
<path fill="#dca815" d="M10.161 21.983l1.762 1.762c0.352-0.020 0.706-0.057 1.060-0.11l-1.763-1.763c-0.354 0.053-0.707 0.092-1.059 0.111z"></path>
<path fill="#dca815" d="M6.905 21.653l1.767 1.767c0.472 0.127 0.954 0.218 1.444 0.274l-1.766-1.766c-0.49-0.057-0.973-0.147-1.445-0.275z"></path>
<path fill="#dca815" d="M21.67 11.839l1.759 1.759c0.067-0.338 0.119-0.677 0.154-1.016l-1.762-1.762c-0.036 0.339-0.086 0.679-0.152 1.018z"></path>
<path fill="#dca815" d="M23.629 10.872c-0.024-0.446-0.073-0.889-0.153-1.323l-1.771-1.771c0.082 0.441 0.146 0.886 0.169 1.339l1.755 1.755z"></path>
<path fill="#d1d4d2" d="M2.365 23.586c-1.141 0-2.069-0.928-2.069-2.069 0-0.228 0.185-0.414 0.414-0.414s0.414 0.185 0.414 0.414c0 0.684 0.557 1.241 1.241 1.241 0.228 0 0.414 0.185 0.414 0.414s-0.185 0.414-0.414 0.414z"></path>
<path fill="#d1d4d2" d="M23.054 2.897c-0.228 0-0.414-0.185-0.414-0.414 0-0.913-0.557-1.655-1.241-1.655-0.228 0-0.414-0.185-0.414-0.414s0.185-0.414 0.414-0.414c1.141 0 2.069 1.114 2.069 2.483 0 0.228-0.185 0.414-0.414 0.414z"></path>
<path fill="#d1d4d2" d="M18.917 23.172c-0.228 0-0.414-0.185-0.414-0.414s0.185-0.414 0.414-0.414c2.053 0 3.724-1.671 3.724-3.724 0-0.228 0.185-0.414 0.414-0.414s0.414 0.185 0.414 0.414c0 2.51-2.042 4.552-4.552 4.552z"></path>
<path fill="#d1d4d2" d="M21.813 24c-0.228 0-0.414-0.185-0.414-0.414s0.185-0.414 0.414-0.414c0.673 0 1.241-0.379 1.241-0.828 0-0.228 0.185-0.414 0.414-0.414s0.414 0.185 0.414 0.414c0 0.913-0.928 1.655-2.069 1.655z"></path>
<path fill="#ffd949" d="M15.818 9.466c-0.099-2.409-1.873-3.339-4.592-3.342-0.12 0-0.239 0.004-0.355 0.012-0.847 0.056-1.636-0.079-2.206-0.464-0.23-0.156-0.414-0.319-0.53-0.49-0.053-0.078-0.199-0.024-0.206 0.075-0.013 0.171-0.022 0.372-0.019 0.593 0.012 0.837-0.072 0.713-0.581 1.502-0.282 0.437-0.507 0.927-0.674 1.454-0.371 0.151-0.672 0.476-0.759 0.876l-0.114 0.53c-0.103 0.479 0.125 0.93 0.534 1.131 0.062 1.193 0.503 2.259 1.562 3.006l-0.133 0.721c-0.034 0.186-0.169 0.332-0.346 0.375l-2.47 0.602c-0.642 0.189-1.133 0.754-1.296 1.486l-0.038 0.174c0.126 0.148 0.25 0.299 0.389 0.438 1.424 1.425 3.403 2.209 5.573 2.209 1.848 0 3.714-0.562 5.369-1.585l-2.818-2.174c-0.185-0.143-0.282-0.361-0.253-0.566l0.113-0.81c1.582-0.278 2.625-1.265 3.233-2.623 0.709-0.082 1.282-0.547 1.342-1.176l0.066-0.693c0.050-0.523-0.282-0.998-0.789-1.26z"></path>
</svg>
