<!-- Generated by IcoMoon.io -->
<svg version="1.1" xmlns="http://www.w3.org/2000/svg" width="24" height="24" viewBox="0 0 24 24">
<title>compass</title>
<path fill="#ecf0f9" d="M21.818 12c0 5.422-4.396 9.818-9.818 9.818s-9.818-4.396-9.818-9.818c0-5.422 4.396-9.818 9.818-9.818s9.818 4.396 9.818 9.818z"></path>
<path fill="#d5e3ef" d="M10.909 10.909l-4.909 8.182 8.182-4.909 4.909-8.182z"></path>
<path fill="#595a66" d="M12 0c-6.655 0-12 5.345-12 12s5.345 12 12 12 12-5.345 12-12-5.345-12-12-12zM12 21.818c-5.4 0-9.818-4.418-9.818-9.818s4.418-9.818 9.818-9.818 9.818 4.418 9.818 9.818-4.418 9.818-9.818 9.818z"></path>
<path fill="#d5e3ef" d="M3 12.818c0-5.4 4.418-9.818 9.818-9.818 2.509 0 4.8 0.927 6.491 2.509-1.8-2.073-4.364-3.327-7.309-3.327-5.4 0-9.818 4.418-9.818 9.818 0 2.945 1.255 5.509 3.327 7.309-1.582-1.691-2.509-3.982-2.509-6.491z"></path>
<path fill="#595a66" d="M2.727 12.545h-2.182c-0.327 0-0.545-0.218-0.545-0.545v0c0-0.327 0.218-0.545 0.545-0.545h2.182c0.327 0 0.545 0.218 0.545 0.545v0c0 0.327-0.218 0.545-0.545 0.545z"></path>
<path fill="#494a52" d="M2.236 11.455c-0.055 0.164-0.055 0.382-0.055 0.545s0 0.382 0.055 0.545h0.491c0.109 0 0.218-0.055 0.273-0.109 0-0.273 0.055-0.6 0.055-0.873-0.055-0.055-0.164-0.109-0.327-0.109h-0.491z"></path>
<path fill="#595a66" d="M23.455 12.545h-2.182c-0.327 0-0.545-0.218-0.545-0.545v0c0-0.327 0.218-0.545 0.545-0.545h2.182c0.327 0 0.545 0.218 0.545 0.545v0c0 0.327-0.218 0.545-0.545 0.545z"></path>
<path fill="#595a66" d="M11.455 2.727v-2.182c0-0.327 0.218-0.545 0.545-0.545v0c0.327 0 0.545 0.218 0.545 0.545v2.182c0 0.327-0.218 0.545-0.545 0.545v0c-0.327 0-0.545-0.218-0.545-0.545z"></path>
<path fill="#494a52" d="M12 2.182c-0.164 0-0.382 0-0.545 0.055v0.491c0 0.164 0.055 0.273 0.164 0.382 0.273-0.055 0.545-0.055 0.873-0.055 0-0.109 0.055-0.218 0.055-0.327v-0.491c-0.164-0.055-0.382-0.055-0.545-0.055z"></path>
<path fill="#595a66" d="M11.455 23.455v-2.182c0-0.327 0.218-0.545 0.545-0.545v0c0.327 0 0.545 0.218 0.545 0.545v2.182c0 0.327-0.218 0.545-0.545 0.545v0c-0.327 0-0.545-0.218-0.545-0.545z"></path>
<path fill="#b0c4d9" d="M12 18c-0.327 0-0.545-0.218-0.545-0.545v-10.909c0-0.327 0.218-0.545 0.545-0.545s0.545 0.218 0.545 0.545v10.909c0 0.327-0.218 0.545-0.545 0.545z"></path>
<path fill="#89abc6" d="M11.455 15.764l1.091-0.655v-5.127l-1.091 0.6z"></path>
<path fill="#b0c4d9" d="M14.673 14.673c-0.218 0.218-0.545 0.218-0.764 0l-4.636-4.636c-0.218-0.218-0.218-0.545 0-0.764s0.545-0.218 0.764 0l4.636 4.636c0.218 0.218 0.218 0.6 0 0.764z"></path>
<path fill="#89abc6" d="M13.691 14.455l0.491-0.273 0.273-0.491-3.055-3.055-0.491 0.273-0.273 0.491z"></path>
<path fill="#b0c4d9" d="M6 12c0-0.327 0.218-0.545 0.545-0.545h10.909c0.327 0 0.545 0.218 0.545 0.545s-0.218 0.545-0.545 0.545h-10.909c-0.327 0-0.545-0.218-0.545-0.545z"></path>
<path fill="#89abc6" d="M9.982 12.545h5.127l0.655-1.091h-5.182z"></path>
<path fill="#f04b4d" d="M13.636 13.636l-3.273-3.273 8.182-4.909z"></path>
<path fill="#4c9cd6" d="M10.364 10.364l3.273 3.273-8.182 4.909z"></path>
<path fill="#70b7e5" d="M10.364 10.364l-4.909 8.182 6.545-6.545z"></path>
<path fill="#f26a56" d="M12 12l6.545-6.545-8.182 4.909z"></path>
<path fill="#595a66" d="M13.091 12c0 0.603-0.488 1.091-1.091 1.091s-1.091-0.488-1.091-1.091c0-0.603 0.488-1.091 1.091-1.091s1.091 0.488 1.091 1.091z"></path>
<path fill="#494a52" d="M12.436 11.018c0.055 0.164 0.109 0.273 0.109 0.436 0 0.6-0.491 1.091-1.091 1.091-0.164 0-0.327-0.055-0.436-0.109 0.164 0.382 0.545 0.655 0.982 0.655 0.6 0 1.091-0.491 1.091-1.091 0-0.436-0.273-0.818-0.655-0.982z"></path>
<path fill="#6f707e" d="M12 0v0c-6.655 0-12 5.345-12 12v0c0.6 0 1.091-0.436 1.145-1.036 0.273-2.618 1.418-5.018 3.218-6.764 1.745-1.691 4.036-2.836 6.6-3.055 0.6-0.055 1.036-0.545 1.036-1.145z"></path>
<path fill="#494a52" d="M12 24v0c6.655 0 12-5.345 12-12v0c-0.6 0-1.091 0.436-1.145 1.036-0.218 2.564-1.364 4.855-3.055 6.6-1.745 1.8-4.091 2.945-6.764 3.218-0.6 0.055-1.036 0.545-1.036 1.145z"></path>
<path fill="#6f707e" d="M12 11.727c0 0.151-0.122 0.273-0.273 0.273s-0.273-0.122-0.273-0.273c0-0.151 0.122-0.273 0.273-0.273s0.273 0.122 0.273 0.273z"></path>
</svg>
