<!-- Generated by IcoMoon.io -->
<svg version="1.1" xmlns="http://www.w3.org/2000/svg" width="24" height="24" viewBox="0 0 24 24">
<title>cup</title>
<path fill="#576d7e" d="M18.545 19.091c0-0.6-0.491-1.091-1.091-1.091h-10.909c-0.6 0-1.091 0.491-1.091 1.091v2.727h13.091v-2.727z"></path>
<path fill="#35495c" d="M19.091 21.818c0.273 0 0.545 0.273 0.545 0.545v1.091c0 0.273-0.273 0.545-0.545 0.545h-14.182c-0.273 0-0.545-0.273-0.545-0.545v-1.091c0-0.273 0.273-0.545 0.545-0.545h14.182z"></path>
<path fill="#f6b545" d="M15.273 16.909c-0.327 0-0.545-0.218-0.545-0.545v-1.8c-0.327 0.109-0.709 0.164-1.091 0.164h-3.273c-0.382 0-0.764-0.055-1.091-0.164v1.8c0 0.327-0.218 0.545-0.545 0.545s-0.545 0.218-0.545 0.545v0.545h7.636v-0.545c0-0.327-0.218-0.545-0.545-0.545z"></path>
<path fill="#35495c" d="M18.545 21.818v-2.727c0-0.6-0.491-1.091-1.091-1.091h-2.727v3.818h3.818z"></path>
<path fill="#ffcb5b" d="M14.182 21.273h-4.364c-0.6 0-1.091-0.491-1.091-1.091v0c0-0.6 0.491-1.091 1.091-1.091h4.364c0.6 0 1.091 0.491 1.091 1.091v0c0 0.6-0.491 1.091-1.091 1.091z"></path>
<path fill="#f6b545" d="M12.545 21.273h-1.091l1.091-2.182h1.091z"></path>
<path fill="#f6b545" d="M15.273 20.182c0-0.6-0.491-1.091-1.091-1.091l-1.091 2.182h1.091c0.6 0 1.091-0.491 1.091-1.091z"></path>
<path fill="#123247" d="M19.091 21.818h-3.818v0.545c0 0.6-0.491 1.091-1.091 1.091h-8.727c-0.327 0-0.545-0.218-0.545-0.545v-1.091c-0.327 0-0.545 0.218-0.545 0.545v1.091c0 0.273 0.218 0.545 0.545 0.545h14.182c0.273 0 0.545-0.273 0.545-0.545v-1.091c0-0.273-0.273-0.545-0.545-0.545z"></path>
<path fill="#ffcb5b" d="M9 16.909h1.636c0.164 0 0.273 0.109 0.273 0.273v0c0 0.164-0.109 0.273-0.273 0.273h-1.636c-0.164 0-0.273-0.109-0.273-0.273v0c0-0.164 0.109-0.273 0.273-0.273z"></path>
<path fill="#f6b545" d="M7.091 12h-1.255c-0.709 0-1.418-0.273-1.909-0.818l-0.927-0.927c-0.545-0.491-0.818-1.145-0.818-1.909v-3.436c0-0.927 0.709-1.636 1.636-1.636h2.727c0.327 0 0.545 0.218 0.545 0.545s-0.218 0.545-0.545 0.545h-2.727c-0.327 0-0.545 0.218-0.545 0.545v3.436c0 0.436 0.164 0.873 0.491 1.145l0.927 0.927c0.327 0.327 0.709 0.491 1.145 0.491h1.255c0.327 0 0.545 0.218 0.545 0.545s-0.218 0.545-0.545 0.545z"></path>
<path fill="#ffca5d" d="M2.727 5.182v2.182c0 0.164-0.109 0.273-0.273 0.273v0c-0.164 0-0.273-0.109-0.273-0.273v-2.182c0-0.164 0.109-0.273 0.273-0.273v0c0.164 0 0.273 0.109 0.273 0.273z"></path>
<path fill="#ffca5d" d="M2.727 8.455c0 0.151-0.122 0.273-0.273 0.273s-0.273-0.122-0.273-0.273c0-0.151 0.122-0.273 0.273-0.273s0.273 0.122 0.273 0.273z"></path>
<path fill="#f6b545" d="M18.164 12h-1.255c-0.327 0-0.545-0.218-0.545-0.545s0.218-0.545 0.545-0.545h1.255c0.436 0 0.873-0.164 1.145-0.491l0.927-0.927c0.327-0.327 0.491-0.709 0.491-1.145v-3.436c0-0.327-0.218-0.545-0.545-0.545h-2.727c-0.327 0-0.545-0.218-0.545-0.545s0.218-0.545 0.545-0.545h2.727c0.927 0 1.636 0.709 1.636 1.636v3.436c0 0.709-0.273 1.418-0.818 1.909l-0.927 0.927c-0.491 0.545-1.145 0.818-1.909 0.818z"></path>
<path fill="#f19920" d="M18.545 10.855c-0.109 0-0.218 0.055-0.382 0.055h-1.255c-0.327 0-0.545 0.218-0.545 0.545s0.218 0.545 0.545 0.545h1.255c0.055 0 0.109 0 0.218 0 0.109-0.382 0.164-0.709 0.164-1.145v0z"></path>
<path fill="#f19920" d="M16.909 3.818c0 0.327 0.218 0.545 0.545 0.545h1.091v-1.091h-1.091c-0.327 0-0.545 0.218-0.545 0.545z"></path>
<path fill="#ffca5d" d="M13.636 14.727h-3.273c-2.127 0-3.818-1.691-3.818-3.818v-8.727h10.909v8.727c0 2.127-1.691 3.818-3.818 3.818z"></path>
<path fill="#f19920" d="M15.273 16.909c-0.273 0-0.545-0.273-0.545-0.545v-1.8c-0.327 0.109-0.709 0.164-1.091 0.164h-3.273c-0.382 0-0.764-0.055-1.091-0.164v0.545c0.327 0.109 0.709 0.164 1.091 0.164h1.636c0.6 0 1.091 0.491 1.091 1.091v0c0 0.273 0.218 0.545 0.545 0.545s0.545 0.218 0.545 0.545v0.545h1.636v-0.545c0-0.327-0.273-0.545-0.545-0.545z"></path>
<path fill="#f19920" d="M21.818 5.182v2.182c0 0.164-0.109 0.273-0.273 0.273v0c-0.164 0-0.273-0.109-0.273-0.273v-2.182c0-0.164 0.109-0.273 0.273-0.273v0c0.164 0 0.273 0.109 0.273 0.273z"></path>
<path fill="#f6b545" d="M6.545 2.182v0.545h7.636c0.6 0 1.091 0.491 1.091 1.091v7.091c0 2.127-1.145 3.818-3.273 3.818h1.636c2.127 0 3.818-1.691 3.818-3.818v-8.727h-10.909z"></path>
<path fill="#f6b545" d="M17.455 2.182h-10.909c-0.6 0-1.091-0.491-1.091-1.091v0c0-0.6 0.491-1.091 1.091-1.091h10.909c0.6 0 1.091 0.491 1.091 1.091v0c0 0.6-0.491 1.091-1.091 1.091z"></path>
<path fill="#ffca5d" d="M6.818 0h2.182c0.164 0 0.273 0.109 0.273 0.273v0c0 0.164-0.109 0.273-0.273 0.273h-2.182c-0.164 0-0.273-0.109-0.273-0.273v0c-0-0.164 0.109-0.273 0.273-0.273z"></path>
<path fill="#ffca5d" d="M11.182 0.545h-1.091c-0.164 0-0.273-0.109-0.273-0.273v0c0-0.164 0.109-0.273 0.273-0.273h1.091c0.164 0 0.273 0.109 0.273 0.273v0c0 0.164-0.109 0.273-0.273 0.273z"></path>
<path fill="#ffca5d" d="M5.182 3.818h-1.091c-0.164 0-0.273-0.109-0.273-0.273v0c0-0.164 0.109-0.273 0.273-0.273h1.091c0.164 0 0.273 0.109 0.273 0.273v0c0 0.164-0.109 0.273-0.273 0.273z"></path>
<path fill="#ffca5d" d="M20.455 3.818h-1.091c-0.164 0-0.273-0.109-0.273-0.273v0c0-0.164 0.109-0.273 0.273-0.273h1.091c0.164 0 0.273 0.109 0.273 0.273v0c0 0.164-0.109 0.273-0.273 0.273z"></path>
<path fill="#f19920" d="M17.455 0v0c0 0.6-0.491 1.091-1.091 1.091h-10.909c0 0.6 0.491 1.091 1.091 1.091h10.855c0.545 0 1.036-0.382 1.145-0.927 0.109-0.655-0.436-1.255-1.091-1.255z"></path>
<path fill="#ffca5d" d="M12.545 0.273c0 0.151-0.122 0.273-0.273 0.273s-0.273-0.122-0.273-0.273c0-0.151 0.122-0.273 0.273-0.273s0.273 0.122 0.273 0.273z"></path>
<path fill="#f19920" d="M13.255 9.818h-0.055l-1.2-0.655-1.2 0.655c-0.055 0-0.109 0-0.164 0-0.055-0.055-0.055-0.109-0.055-0.164l0.218-1.418-0.982-0.982c0-0.055 0-0.109 0-0.164s0.055-0.109 0.109-0.109l1.364-0.218 0.6-1.255c0-0.055 0.055-0.055 0.109-0.055v0c0.055 0 0.109 0.055 0.109 0.055l0.6 1.255 1.364 0.218c0.055 0 0.109 0.055 0.109 0.109s0 0.109-0.055 0.164l-0.982 0.982 0.218 1.418c0 0.055 0 0.109-0.055 0.164 0 0 0 0-0.055 0z"></path>
<path fill="#ffe27a" d="M8.182 8.182v0c-0.327 0-0.545-0.218-0.545-0.545v-3.273c0-0.327 0.218-0.545 0.545-0.545v0c0.327 0 0.545 0.218 0.545 0.545v3.273c0 0.327-0.218 0.545-0.545 0.545z"></path>
<path fill="#ffe27a" d="M8.727 9.273c0 0.301-0.244 0.545-0.545 0.545s-0.545-0.244-0.545-0.545c0-0.301 0.244-0.545 0.545-0.545s0.545 0.244 0.545 0.545z"></path>
<path fill="#35495c" d="M6.545 18c-0.6 0-1.091 0.491-1.091 1.091v2.727h1.091v-3.818z"></path>
</svg>
