<!-- Generated by IcoMoon.io -->
<svg version="1.1" xmlns="http://www.w3.org/2000/svg" width="24" height="24" viewBox="0 0 24 24">
<title>dag-symbol</title>
<path d="M8.217 16.524l-2.356 0.014 2.488-0.803 1.596-7.96-2.287-0.74 2.431 0.016h2.486c1.141 0 2.056 0.36 2.744 1.079s1.032 1.664 1.032 2.837c0 1.063-0.223 2.017-0.668 2.861s-1.055 1.505-1.829 1.981c-0.774 0.477-1.622 0.716-2.544 0.716h-3.093zM11.832 23.999l0.851-4.187c1.095-0.191 2.122-0.532 3.082-1.026 1.563-0.805 2.791-1.93 3.681-3.377 0.891-1.445 1.337-3.083 1.337-4.912 0-1.375-0.309-2.587-0.926-3.635s-1.501-1.86-2.65-2.438c-0.405-0.204-0.843-0.358-1.296-0.49l0.799-3.934h-3.849l-0.723 3.556h-5.66l-3.26 16.438h5.579l-0.814 4.005h3.849z"></path>
</svg>
