<!-- Generated by IcoMoon.io -->
<svg version="1.1" xmlns="http://www.w3.org/2000/svg" width="24" height="24" viewBox="0 0 24 24">
<title>Dagcoin_logo_color</title>
<path fill="#e51e25" d="M23.952 12.024c0 6.641-5.362 12.024-11.976 12.024s-11.976-5.383-11.976-12.024c0-6.641 5.362-12.024 11.976-12.024s11.976 5.383 11.976 12.024z"></path>
<path fill="#fff" d="M11.735 18.084l0.433-2.116c0.577-0.096 1.058-0.289 1.587-0.529 0.77-0.385 1.395-0.962 1.876-1.731 0.433-0.721 0.673-1.587 0.673-2.501 0-0.721-0.144-1.299-0.481-1.828s-0.77-0.962-1.347-1.251c-0.192-0.096-0.433-0.192-0.673-0.24l0.385-2.020h-1.972l-0.337 1.828h-2.886l-1.635 8.321h2.838l-0.433 2.020 1.972 0.048zM9.86 14.285v0h-1.202l1.251-0.385 0.818-4.040-1.106-0.385h2.501c0.577 0 1.058 0.192 1.395 0.529 0.337 0.385 0.529 0.866 0.529 1.443 0 0.529-0.096 1.010-0.337 1.443s-0.529 0.77-0.914 1.010-0.818 0.385-1.299 0.385h-1.635z"></path>
</svg>
