<!-- Generated by IcoMoon.io -->
<svg version="1.1" xmlns="http://www.w3.org/2000/svg" width="80" height="24" viewBox="0 0 80 24">
<title>Dagcoin_logo_color_text</title>
<path fill="#272422" d="M35.687 9.764c-0.24-0.433-0.625-0.818-1.154-1.058-0.481-0.24-1.058-0.385-1.731-0.385h-2.838l-1.395 7.070h3.126c0.818 0 1.587-0.192 2.212-0.529 0.673-0.337 1.202-0.818 1.587-1.443s0.577-1.299 0.577-2.116c0-0.577-0.144-1.058-0.385-1.539zM33.908 12.745c-0.192 0.385-0.433 0.625-0.77 0.866-0.337 0.192-0.673 0.289-1.106 0.289h-1.347l0.818-4.040h1.058c0.481 0 0.866 0.144 1.154 0.481 0.289 0.289 0.433 0.721 0.433 1.202 0.048 0.433-0.048 0.866-0.24 1.202zM41.411 8.369h-1.876l-4.184 7.022h1.876l0.673-1.251h3.030l0.289 1.251h1.972l-1.78-7.022zM38.669 12.745l1.395-2.549 0.529 2.549h-1.924zM48.818 11.784h1.587l-0.529 2.79c-0.433 0.289-0.866 0.481-1.395 0.673-0.529 0.144-1.010 0.24-1.491 0.24-0.673 0-1.251-0.144-1.78-0.433s-0.914-0.673-1.202-1.202c-0.289-0.481-0.433-1.058-0.433-1.683 0-0.721 0.192-1.395 0.577-1.972s0.914-1.058 1.539-1.443c0.625-0.337 1.347-0.529 2.164-0.529 0.529 0 1.010 0.096 1.539 0.289 0.481 0.192 0.914 0.433 1.251 0.77l-1.154 1.299c-0.24-0.24-0.481-0.433-0.818-0.577s-0.625-0.192-0.962-0.192c-0.385 0-0.77 0.096-1.106 0.289s-0.625 0.481-0.818 0.818c-0.192 0.337-0.289 0.721-0.289 1.154 0 0.337 0.096 0.673 0.24 0.962s0.385 0.529 0.625 0.673c0.289 0.144 0.577 0.24 0.914 0.24s0.77-0.096 1.202-0.337l0.337-1.828zM56.994 8.561c0.481 0.192 0.866 0.529 1.202 0.866l-1.202 1.299c-0.192-0.289-0.433-0.529-0.721-0.673-0.289-0.192-0.577-0.24-0.914-0.24-0.385 0-0.721 0.096-1.058 0.289s-0.577 0.481-0.77 0.818c-0.192 0.337-0.289 0.721-0.289 1.106 0 0.337 0.096 0.673 0.24 0.962s0.337 0.481 0.625 0.673c0.24 0.144 0.577 0.24 0.866 0.24s0.577-0.096 0.914-0.24c0.337-0.144 0.625-0.337 0.914-0.577l0.962 1.154c-0.433 0.385-0.914 0.721-1.443 0.962s-1.058 0.337-1.587 0.337c-0.625 0-1.202-0.144-1.731-0.433s-0.914-0.673-1.202-1.202c-0.289-0.481-0.433-1.058-0.433-1.683 0-0.721 0.192-1.395 0.529-2.020 0.385-0.577 0.866-1.058 1.491-1.395s1.347-0.529 2.068-0.529c0.577 0 1.058 0.096 1.539 0.289zM65.603 9.86c-0.289-0.481-0.721-0.914-1.202-1.154-0.529-0.289-1.106-0.433-1.78-0.433-0.77 0-1.443 0.192-2.116 0.529-0.625 0.337-1.154 0.818-1.539 1.395s-0.577 1.251-0.577 2.020c0 0.625 0.144 1.202 0.433 1.683s0.673 0.914 1.202 1.202c0.529 0.289 1.106 0.433 1.78 0.433 0.77 0 1.443-0.192 2.116-0.529 0.625-0.337 1.154-0.818 1.539-1.443s0.577-1.251 0.577-2.020c0.048-0.625-0.144-1.202-0.433-1.683zM63.872 12.794c-0.192 0.337-0.433 0.625-0.77 0.818s-0.673 0.289-1.058 0.289c-0.337 0-0.625-0.096-0.866-0.24-0.289-0.144-0.481-0.385-0.625-0.673s-0.24-0.625-0.24-0.962c0-0.385 0.096-0.77 0.289-1.154 0.192-0.337 0.481-0.625 0.818-0.818s0.673-0.289 1.058-0.289c0.337 0 0.577 0.096 0.866 0.24 0.24 0.144 0.481 0.385 0.625 0.673s0.24 0.625 0.24 0.962c-0.048 0.433-0.144 0.818-0.337 1.154zM69.499 8.369l-1.395 7.022h-1.828l1.395-7.022h1.828zM75.655 8.369h1.683l-1.395 7.022h-1.587l-2.309-4.184-0.866 4.184h-1.731l1.395-7.022h1.587l2.357 4.232 0.866-4.232zM79.311 5.916c-0.433 0-0.818 0.385-0.818 0.818s0.385 0.818 0.818 0.818c0.433 0 0.818-0.385 0.818-0.818s-0.385-0.818-0.818-0.818zM79.311 7.455c-0.385 0-0.721-0.337-0.721-0.721s0.337-0.721 0.721-0.721c0.385 0 0.721 0.337 0.721 0.721s-0.337 0.721-0.721 0.721zM79.407 6.83c0 0 0-0.048 0 0 0-0.048 0.048-0.048 0.048-0.096 0.048 0 0.048-0.048 0.048-0.048s0.048-0.048 0.048-0.096c0-0.048 0-0.048 0-0.096s0-0.096 0-0.096-0.048-0.048-0.048-0.096c-0.048 0-0.048-0.048-0.096-0.048s-0.096 0-0.144 0h-0.24v0.914h0.096v-0.385h0.096c0 0 0.048 0 0.048 0s0 0 0 0l0.24 0.337c0 0 0.048 0.048 0.048 0.048h0.096l-0.24-0.337zM79.263 6.733h-0.144v-0.337h0.144c0.048 0 0.144 0 0.144 0.048 0.048 0.048 0.048 0.048 0.048 0.144 0 0.048 0 0.048 0 0.048s0 0.048-0.048 0.048c0 0-0.048 0.048-0.048 0.048-0.048 0-0.048 0-0.096 0z"></path>
<path fill="#e51e25" d="M23.952 12.024c0 6.641-5.362 12.024-11.976 12.024s-11.976-5.383-11.976-12.024c0-6.641 5.362-12.024 11.976-12.024s11.976 5.383 11.976 12.024z"></path>
<path fill="#fff" d="M11.735 18.084l0.433-2.116c0.577-0.096 1.058-0.289 1.587-0.529 0.77-0.385 1.395-0.962 1.876-1.731 0.433-0.721 0.673-1.587 0.673-2.501 0-0.721-0.144-1.299-0.481-1.828s-0.77-0.962-1.347-1.251c-0.192-0.096-0.433-0.192-0.673-0.24l0.385-2.020h-1.972l-0.337 1.828h-2.886l-1.635 8.321h2.838l-0.433 2.020h1.972zM9.86 14.285v0h-1.202l1.251-0.385 0.818-4.040-1.106-0.385h2.501c0.577 0 1.058 0.192 1.395 0.529 0.337 0.385 0.529 0.866 0.529 1.443 0 0.529-0.096 1.010-0.337 1.443s-0.529 0.77-0.914 1.010c-0.385 0.24-0.818 0.385-1.299 0.385h-1.635z"></path>
</svg>
