<!-- Generated by IcoMoon.io -->
<svg version="1.1" xmlns="http://www.w3.org/2000/svg" width="129" height="24" viewBox="0 0 129 24">
<title>Dagcoin_logo</title>
<path d="M18.081 9.6c-0.6-1.080-1.56-2.040-2.88-2.64-1.2-0.6-2.64-0.96-4.32-0.96h-7.080l-3.48 17.64h7.8c2.040 0 3.96-0.48 5.52-1.32 1.68-0.84 3-2.040 3.96-3.6s1.44-3.24 1.44-5.28c0-1.44-0.36-2.64-0.96-3.84zM13.641 17.040c-0.48 0.96-1.080 1.56-1.92 2.16-0.84 0.48-1.68 0.72-2.76 0.72h-3.36l2.040-10.080h2.64c1.2 0 2.16 0.36 2.88 1.2 0.72 0.72 1.080 1.8 1.080 3 0 1.080-0.12 2.16-0.6 3zM32.241 6.12h-4.68l-10.44 17.52h4.68l1.68-3.12h7.56l0.72 3.12h4.92l-4.44-17.52zM25.521 17.040l3.48-6.36 1.32 6.36h-4.8zM50.841 14.64h3.96l-1.44 6.96c-1.080 0.72-2.16 1.2-3.48 1.68-1.32 0.36-2.52 0.6-3.72 0.6-1.68 0-3.12-0.36-4.44-1.080s-2.28-1.68-3-3c-0.72-1.2-1.080-2.64-1.080-4.2 0-1.8 0.48-3.48 1.44-4.92s2.28-2.64 3.84-3.6c1.56-0.84 3.36-1.32 5.4-1.32 1.32 0 2.52 0.24 3.84 0.72 1.2 0.48 2.28 1.080 3.12 1.92l-2.88 3.24c-0.6-0.6-1.2-1.080-2.040-1.44s-1.56-0.48-2.4-0.48c-0.96 0-1.92 0.24-2.76 0.72s-1.56 1.2-2.040 2.040c-0.48 0.84-0.72 1.8-0.72 2.88 0 0.84 0.24 1.68 0.6 2.4s0.96 1.32 1.56 1.68c0.72 0.36 1.44 0.6 2.28 0.6s1.92-0.24 3-0.84l0.96-4.56zM71.241 6.6c1.2 0.48 2.16 1.32 3 2.16l-3 3.24c-0.48-0.72-1.080-1.32-1.8-1.68-0.72-0.48-1.44-0.6-2.28-0.6-0.96 0-1.8 0.24-2.64 0.72s-1.44 1.2-1.92 2.040c-0.48 0.84-0.72 1.8-0.72 2.76 0 0.84 0.24 1.68 0.6 2.4s0.84 1.2 1.56 1.68c0.6 0.36 1.44 0.6 2.16 0.6s1.44-0.24 2.28-0.6c0.84-0.36 1.56-0.84 2.28-1.44l2.4 2.88c-1.080 0.96-2.28 1.8-3.6 2.4s-2.64 0.84-3.96 0.84c-1.56 0-3-0.36-4.32-1.080s-2.28-1.68-3-3c-0.72-1.2-1.080-2.64-1.080-4.2 0-1.8 0.48-3.48 1.32-5.040 0.96-1.44 2.16-2.64 3.72-3.48s3.36-1.32 5.16-1.32c1.32 0 2.64 0.24 3.84 0.72zM92.721 9.84c-0.72-1.2-1.8-2.28-3-2.88-1.32-0.72-2.76-1.080-4.44-1.080-1.92 0-3.6 0.48-5.28 1.32-1.56 0.84-2.88 2.040-3.84 3.48s-1.44 3.12-1.44 5.040c0 1.56 0.36 3 1.080 4.2s1.68 2.28 3 3c1.32 0.72 2.76 1.080 4.44 1.080 1.92 0 3.6-0.48 5.28-1.32 1.56-0.84 2.88-2.040 3.84-3.6s1.44-3.12 1.44-5.040c0-1.56-0.36-3-1.080-4.2zM88.401 17.16c-0.48 0.84-1.080 1.56-1.92 2.040s-1.68 0.72-2.64 0.72c-0.84 0-1.56-0.24-2.16-0.6-0.72-0.36-1.2-0.96-1.56-1.68s-0.6-1.56-0.6-2.4c0-0.96 0.24-1.92 0.72-2.88 0.48-0.84 1.2-1.56 2.040-2.040s1.68-0.72 2.64-0.72c0.84 0 1.44 0.24 2.16 0.6 0.6 0.36 1.2 0.96 1.56 1.68s0.6 1.56 0.6 2.4c-0.12 1.080-0.36 2.040-0.84 2.88zM102.441 6.12l-3.48 17.52h-4.56l3.48-17.52h4.56zM117.801 6.12h4.2l-3.48 17.52h-3.96l-5.76-10.44-2.16 10.44h-4.32l3.48-17.52h3.96l5.88 10.56 2.16-10.56zM126.801 0c-1.080 0-2.040 0.96-2.040 2.040s0.96 2.040 2.040 2.040c1.080 0 2.040-0.96 2.040-2.040 0.12-1.080-0.84-2.040-2.040-2.040zM126.801 3.84c-0.96 0-1.8-0.84-1.8-1.8s0.84-1.8 1.8-1.8c0.96 0 1.8 0.84 1.8 1.8s-0.84 1.8-1.8 1.8zM127.161 2.28c0 0-0.12-0.12 0 0 0-0.12 0.12-0.12 0.12-0.24 0.12 0 0.12-0.12 0.12-0.12s0.12-0.12 0.12-0.24c0-0.12 0-0.12 0-0.24s0-0.24 0-0.24-0.12-0.12-0.12-0.24c-0.12 0-0.12-0.12-0.24-0.12s-0.24 0-0.36 0h-0.6v2.28h0.24v-0.84h0.24c0 0 0.12 0 0.12 0s0 0 0 0l0.6 0.84c0 0 0.12 0.12 0.12 0.12h0.24l-0.6-0.96zM126.801 2.040h-0.36v-0.84h0.36c0.12 0 0.36 0 0.36 0.12 0.12 0.12 0.12 0.12 0.12 0.36 0 0.12 0 0.12 0 0.12s0 0.12-0.12 0.12c0 0-0.12 0.12-0.12 0.12-0.12 0-0.24 0-0.24 0z"></path>
</svg>
