<svg version="1.1" xmlns="http://www.w3.org/2000/svg" width="24" height="24" viewBox="0 0 24 24">
  <title>download3</title>
  <path id="svg_3" d="m23.254412,16.446228c-0.33361,0 -0.60418,0.29139 -0.60418,0.65067l0,2.4863c0,1.4351 -1.08413,2.60267 -2.41667,2.60267l-16.48326,0c-1.33254,0 -2.41667,-1.16757 -2.41667,-2.60267l0,-2.4863c0,-0.35928 -0.27048,-0.65067 -0.60418,-0.65067c-0.33371,0 -0.60418,0.29134 -0.60418,0.65067l0,2.4863c0,2.15268 1.62619,3.90403 3.62503,3.90403l16.48326,0c1.99884,0 3.62503,-1.75135 3.62503,-3.90403l0,-2.4863c0,-0.35933 -0.27048,-0.65067 -0.60418,-0.65067z"/>
  <path id="svg_6" d="m20.171245,20.432544l-16.26705,0c-0.3573,0 -0.64708,-0.25037 -0.64708,-0.55908s0.28968,-0.55907 0.64708,-0.55907l16.267,0c0.35739,0 0.64707,0.25028 0.64707,0.55907c0,0.30871 -0.28968,0.55908 -0.64702,0.55908z"/>
  <path id="svg_9" d="m17.633477,10.606507c-0.20624,-0.23123 -0.5606,-0.25135 -0.79157,-0.04472l-4.32177,3.86739l0,-10.88328c0,-0.31007 -0.25097,-0.56155 -0.5606,-0.56155c-0.30954,0 -0.5606,0.25139 -0.5606,0.56155l0,10.88328l-4.32177,-3.86735c-0.23084,-0.20662 -0.58524,-0.18646 -0.79156,0.04472c-0.2062,0.23132 -0.18628,0.58633 0.0446,0.79291l4.69562,4.20181c0.2661,0.23821 0.59982,0.35725 0.93367,0.35725c0.33372,0 0.66748,-0.11904 0.93367,-0.35712l4.69562,-4.20194c0.23097,-0.20671 0.25092,-0.56172 0.04469,-0.79295z"/>
</svg>
