<!-- Generated by IcoMoon.io -->
<svg version="1.1" xmlns="http://www.w3.org/2000/svg" width="24" height="24" viewBox="0 0 24 24">
<title>envelope</title>
<path fill="#b06328" d="M23.509 11.182l-10.527 6c-0.273 0.164-0.6 0.218-0.873 0.218h-0.109c-0.327 0-0.6-0.055-0.873-0.218l-10.527-6c-0.436-0.164-0.6-0.491-0.6-0.818v0c0-0.327 0.164-0.655 0.436-0.818l10.582-7.036c0.273-0.218 0.6-0.327 0.982-0.327v0c0.382 0 0.709 0.109 0.982 0.327l10.582 7.036c0.273 0.164 0.436 0.491 0.436 0.818v0c0 0.327-0.164 0.655-0.491 0.818z"></path>
<path fill="#a35425" d="M21.818 10.145v-1.036c0-0.491-0.273-0.927-0.655-1.2l-0.436-0.273v4.091l-8.727 3.545-12-4.909c0 0.327 0.218 0.655 0.491 0.818l10.527 6c0.273 0.164 0.6 0.218 0.873 0.218h0.109c0.327 0 0.6-0.109 0.873-0.218l8.236-4.636 2.345-1.364c0.273-0.164 0.491-0.491 0.491-0.818l-1.145 0.491c-0.436 0.164-0.982-0.164-0.982-0.709z"></path>
<path fill="#d5e3ef" d="M20.727 4.909v16.909c0 0.6-0.491 1.091-1.091 1.091h-15.273c-0.6 0-1.091-0.491-1.091-1.091v-20.727c0-0.6 0.491-1.091 1.091-1.091h11.455v3.818c0 0.6 0.491 1.091 1.091 1.091h3.818z"></path>
<path fill="#99b4cd" d="M20.727 4.909h-3.818c-0.6 0-1.091-0.491-1.091-1.091v-3.818l4.909 4.909z"></path>
<path fill="#3d545f" d="M5.727 6.545h4.364c0.164 0 0.273 0.109 0.273 0.273v0c0 0.164-0.109 0.273-0.273 0.273h-4.364c-0.164 0-0.273-0.109-0.273-0.273v0c0-0.164 0.109-0.273 0.273-0.273z"></path>
<path fill="#3d545f" d="M9 9.818h4.364c0.164 0 0.273 0.109 0.273 0.273v0c0 0.164-0.109 0.273-0.273 0.273h-4.364c-0.164 0-0.273-0.109-0.273-0.273v0c0-0.164 0.109-0.273 0.273-0.273z"></path>
<path fill="#3d545f" d="M10.091 11.455h5.455c0.164 0 0.273 0.109 0.273 0.273v0c0 0.164-0.109 0.273-0.273 0.273h-5.455c-0.164 0-0.273-0.109-0.273-0.273v0c0-0.164 0.109-0.273 0.273-0.273z"></path>
<path fill="#3d545f" d="M5.727 8.182h3.273c0.164 0 0.273 0.109 0.273 0.273v0c0 0.164-0.109 0.273-0.273 0.273h-3.273c-0.164 0-0.273-0.109-0.273-0.273v0c0-0.164 0.109-0.273 0.273-0.273z"></path>
<path fill="#3d545f" d="M14.455 6.545h3.273c0.164 0 0.273 0.109 0.273 0.273v0c0 0.164-0.109 0.273-0.273 0.273h-3.273c-0.164 0-0.273-0.109-0.273-0.273v0c-0-0.164 0.109-0.273 0.273-0.273z"></path>
<path fill="#3d545f" d="M11.182 6.545h2.182c0.164 0 0.273 0.109 0.273 0.273v0c0 0.164-0.109 0.273-0.273 0.273h-2.182c-0.164 0-0.273-0.109-0.273-0.273v0c0-0.164 0.109-0.273 0.273-0.273z"></path>
<path fill="#3d545f" d="M16.091 8.182h1.091c0.164 0 0.273 0.109 0.273 0.273v0c0 0.164-0.109 0.273-0.273 0.273h-1.091c-0.164 0-0.273-0.109-0.273-0.273v0c0-0.164 0.109-0.273 0.273-0.273z"></path>
<path fill="#3d545f" d="M16.636 11.455h1.091c0.164 0 0.273 0.109 0.273 0.273v0c0 0.164-0.109 0.273-0.273 0.273h-1.091c-0.164 0-0.273-0.109-0.273-0.273v0c0-0.164 0.109-0.273 0.273-0.273z"></path>
<path fill="#3d545f" d="M14.455 9.818h2.182c0.164 0 0.273 0.109 0.273 0.273v0c0 0.164-0.109 0.273-0.273 0.273h-2.182c-0.164 0-0.273-0.109-0.273-0.273v0c-0-0.164 0.109-0.273 0.273-0.273z"></path>
<path fill="#3d545f" d="M10.091 8.182h4.909c0.164 0 0.273 0.109 0.273 0.273v0c0 0.164-0.109 0.273-0.273 0.273h-4.909c-0.164 0-0.273-0.109-0.273-0.273v0c0-0.164 0.109-0.273 0.273-0.273z"></path>
<path fill="#3d545f" d="M9.545 4.364h4.909c0.164 0 0.273 0.109 0.273 0.273v0c0 0.164-0.109 0.273-0.273 0.273h-4.909c-0.164 0-0.273-0.109-0.273-0.273v0c0-0.164 0.109-0.273 0.273-0.273z"></path>
<path fill="#3d545f" d="M5.727 9.818h2.182c0.164 0 0.273 0.109 0.273 0.273v0c0 0.164-0.109 0.273-0.273 0.273h-2.182c-0.164 0-0.273-0.109-0.273-0.273v0c0-0.164 0.109-0.273 0.273-0.273z"></path>
<path fill="#3d545f" d="M5.727 11.455h3.273c0.164 0 0.273 0.109 0.273 0.273v0c0 0.164-0.109 0.273-0.273 0.273h-3.273c-0.164 0-0.273-0.109-0.273-0.273v0c0-0.164 0.109-0.273 0.273-0.273z"></path>
<path fill="#ffcb5b" d="M23.509 11.182l-10.527 6c-0.273 0.164-0.6 0.218-0.873 0.218h-0.109c-0.327 0-0.6-0.109-0.873-0.218l-10.527-6c-0.382-0.164-0.6-0.491-0.6-0.818 0 0 0 0 0 0.055v12.491c0 0.6 0.491 1.091 1.091 1.091h21.818c0.6 0 1.091-0.491 1.091-1.091v-12.491c0 0 0 0 0-0.055-0 0.327-0.218 0.655-0.491 0.818z"></path>
<path fill="#f7b84e" d="M24 11.455c0 0.327-0.218 0.655-0.491 0.818l-9.873 5.618c0 0-0.491 0.218-0.927 0.436-0.382 0.164-0.709 0.545-0.709 0.982v2.509c0 0.6-0.491 1.091-1.091 1.091h-9.818c-0.709 0-0.764 1.091-0.055 1.091v0h21.818c0.6 0 1.091-0.491 1.091-1.091l0.055-11.455z"></path>
<path fill="#c9d5e3" d="M11.564 15.382l-8.291-3.382v0.764l7.745 4.418c0.273 0.164 0.6 0.218 0.873 0.218h0.109c0.327 0 0.6-0.109 0.873-0.218l7.855-4.418v-0.764l-8.291 3.382c-0.273 0.109-0.6 0.109-0.873 0z"></path>
<path fill="#c9d5e3" d="M20.727 4.909h-3.273l3.273 2.182z"></path>
<path fill="#b06328" d="M21.818 20.182c0 0.301-0.244 0.545-0.545 0.545s-0.545-0.244-0.545-0.545c0-0.301 0.244-0.545 0.545-0.545s0.545 0.244 0.545 0.545z"></path>
<path fill="#b06328" d="M21.273 19.091c0.6 0 1.091 0.491 1.091 1.091s-0.491 1.091-1.091 1.091c-0.6 0-1.091-0.491-1.091-1.091s0.491-1.091 1.091-1.091zM21.273 18.545c-0.927 0-1.636 0.709-1.636 1.636s0.709 1.636 1.636 1.636 1.636-0.709 1.636-1.636-0.709-1.636-1.636-1.636v0z"></path>
<path fill="#b06328" d="M15.545 20.182c-0.491 0-0.982-0.218-1.309-0.655-0.109-0.109-0.055-0.273 0.055-0.382s0.273-0.055 0.382 0.055c0.491 0.6 1.309 0.6 1.745 0 0.709-0.818 1.909-0.818 2.618 0 0.109 0.109 0.055 0.273-0.055 0.382s-0.273 0.055-0.382-0.055c-0.491-0.6-1.309-0.6-1.745 0-0.327 0.436-0.818 0.655-1.309 0.655z"></path>
<path fill="#b06328" d="M15.545 21.818c-0.491 0-0.982-0.218-1.309-0.655-0.109-0.109-0.055-0.273 0.055-0.382s0.273-0.055 0.382 0.055c0.491 0.6 1.309 0.6 1.745 0 0.709-0.818 1.909-0.818 2.618 0 0.109 0.109 0.055 0.273-0.055 0.382s-0.273 0.055-0.382-0.055c-0.491-0.6-1.309-0.6-1.745 0-0.327 0.436-0.818 0.655-1.309 0.655z"></path>
<path fill="#ffe27a" d="M0.545 20.182c-0.327 0-0.545-0.218-0.545-0.545v-6c0-0.327 0.218-0.545 0.545-0.545s0.545 0.218 0.545 0.545v6c0 0.327-0.218 0.545-0.545 0.545z"></path>
<path fill="#f19920" d="M14.727 23.455c0-0.327 0.218-0.545 0.545-0.545h7.636c0.327 0 0.545 0.218 0.545 0.545s-0.218 0.545-0.545 0.545h-7.636c-0.327 0-0.545-0.218-0.545-0.545z"></path>
</svg>
