<!-- Generated by IcoMoon.io -->
<svg version="1.1" xmlns="http://www.w3.org/2000/svg" width="24" height="24" viewBox="0 0 24 24">
<title>factory</title>
<path fill="#636892" d="M16.364 12.545l-5.455-3.273v3.273l-5.455-3.273v3.273l-5.455-3.273v14.727h24v-11.455z"></path>
<path fill="#424c7e" d="M10.909 12l-5.455-2.727v0.545l5.455 3.273z"></path>
<path fill="#424c7e" d="M16.364 12l-5.455-2.727v0.545l5.455 3.273h7.636v-1.091z"></path>
<path fill="#424c7e" d="M5.455 12l-5.455-2.727v0.545l5.455 3.273z"></path>
<path fill="#c9d5e3" d="M21.818 12h-4.364l0.491-7.691c0-0.273 0.273-0.491 0.545-0.491h2.236c0.273 0 0.545 0.218 0.545 0.491l0.545 7.691z"></path>
<path fill="#424c7e" d="M22.364 24h-8.182v-7.636c0-0.327 0.218-0.545 0.545-0.545h7.091c0.327 0 0.545 0.218 0.545 0.545v7.636z"></path>
<path fill="#4c9cd6" d="M12 20.182h-8.727c-0.327 0-0.545-0.218-0.545-0.545v-2.182c0-0.327 0.218-0.545 0.545-0.545h8.727c0.327 0 0.545 0.218 0.545 0.545v2.182c0 0.327-0.218 0.545-0.545 0.545z"></path>
<path fill="#c9d5e3" d="M21.273 0h-5.455c-0.327 0-0.545 0.218-0.545 0.545s0.218 0.545 0.545 0.545h5.455c0.327 0 0.545 0.218 0.545 0.545s-0.218 0.545-0.545 0.545h-2.182c-0.327 0-0.545 0.218-0.545 0.545s0.218 0.545 0.545 0.545h2.182c0.927 0 1.636-0.709 1.636-1.636s-0.709-1.636-1.636-1.636z"></path>
<path fill="#c9d5e3" d="M14.182 0.545c0 0.301-0.244 0.545-0.545 0.545s-0.545-0.244-0.545-0.545c0-0.301 0.244-0.545 0.545-0.545s0.545 0.244 0.545 0.545z"></path>
<path fill="#636892" d="M20.182 20.182c0 0.301-0.244 0.545-0.545 0.545s-0.545-0.244-0.545-0.545c0-0.301 0.244-0.545 0.545-0.545s0.545 0.244 0.545 0.545z"></path>
<path fill="#636892" d="M17.455 20.182c0 0.301-0.244 0.545-0.545 0.545s-0.545-0.244-0.545-0.545c0-0.301 0.244-0.545 0.545-0.545s0.545 0.244 0.545 0.545z"></path>
<path fill="#636892" d="M18 15.818h0.545v8.182h-0.545v-8.182z"></path>
<path fill="#b0c4d9" d="M21.818 12h-1.636v-7.636c0-0.327 0.218-0.545 0.545-0.545h0.055c0.273 0 0.545 0.218 0.545 0.491l0.491 7.691z"></path>
<path fill="#f04b4d" d="M17.836 6.436l3.545-0.873-0.055-0.545-3.491 0.873z"></path>
<path fill="#de333f" d="M20.182 5.891l1.2-0.327-0.055-0.545-1.145 0.327z"></path>
<path fill="#f04b4d" d="M17.727 7.582l3.709-0.927v-0.545l-3.655 0.873z"></path>
<path fill="#de333f" d="M20.182 6.982l1.255-0.327v-0.545l-1.255 0.327z"></path>
<path fill="#f04b4d" d="M17.673 8.673l3.873-0.982-0.055-0.545-3.764 0.982z"></path>
<path fill="#de333f" d="M20.182 8.073l1.364-0.382-0.055-0.545-1.309 0.382z"></path>
<path fill="#70b7e5" d="M6.545 20.182h-1.091l2.182-3.273h1.091z"></path>
<path fill="#70b7e5" d="M9.818 20.182h-2.182l2.182-3.273h2.182z"></path>
</svg>
