<!-- Generated by IcoMoon.io -->
<svg version="1.1" xmlns="http://www.w3.org/2000/svg" width="24" height="24" viewBox="0 0 24 24">
<title>flask</title>
<path fill="#d5e3ef" d="M8.724 8.182v0.545c0.327 0.327 0.545 0.818 0.545 1.309v3.545c0 1.091-0.327 2.182-0.982 3.109l-3.709 5.346c-0.164 0.218-0.218 0.436-0.218 0.709v0c0 0.709 0.545 1.255 1.255 1.255h12.764c0.709 0 1.255-0.545 1.255-1.255v0c0-0.273-0.055-0.491-0.218-0.709l-3.709-5.345c-0.655-0.927-0.982-2.018-0.982-3.109v-3.545c0-0.491 0.218-0.982 0.545-1.309v0-0.545l-6.545-0z"></path>
<path fill="#90c962" d="M14.724 1.091c0 0.603-0.488 1.091-1.091 1.091s-1.091-0.488-1.091-1.091c0-0.603 0.488-1.091 1.091-1.091s1.091 0.488 1.091 1.091z"></path>
<path fill="#90c962" d="M10.905 4.909c0 0.603-0.488 1.091-1.091 1.091s-1.091-0.488-1.091-1.091c0-0.603 0.488-1.091 1.091-1.091s1.091 0.488 1.091 1.091z"></path>
<path fill="#90c962" d="M14.178 6.545c0 0.603-0.488 1.091-1.091 1.091s-1.091-0.488-1.091-1.091c0-0.603 0.488-1.091 1.091-1.091s1.091 0.488 1.091 1.091z"></path>
<path fill="#71b956" d="M13.524 5.564c0.055 0.164 0.109 0.273 0.109 0.436 0 0.6-0.491 1.091-1.091 1.091-0.164 0-0.327-0.055-0.436-0.109 0.164 0.382 0.545 0.655 0.982 0.655 0.6 0 1.091-0.491 1.091-1.091 0-0.436-0.273-0.818-0.655-0.982z"></path>
<path fill="#71b956" d="M10.251 3.927c0.055 0.109 0.109 0.273 0.109 0.436 0 0.6-0.491 1.091-1.091 1.091-0.164 0-0.327-0.055-0.436-0.109 0.164 0.382 0.545 0.655 0.982 0.655 0.6 0 1.091-0.491 1.091-1.091 0-0.436-0.273-0.818-0.655-0.982z"></path>
<path fill="#71b956" d="M14.069 0.109c0.055 0.109 0.109 0.273 0.109 0.436 0 0.6-0.491 1.091-1.091 1.091-0.164 0-0.327-0.055-0.436-0.109 0.164 0.382 0.545 0.655 0.982 0.655 0.6 0 1.091-0.491 1.091-1.091 0-0.436-0.273-0.818-0.655-0.982z"></path>
<path fill="#90c962" d="M15.269 4.364c0 0.301-0.244 0.545-0.545 0.545s-0.545-0.244-0.545-0.545c0-0.301 0.244-0.545 0.545-0.545s0.545 0.244 0.545 0.545z"></path>
<path fill="#90c962" d="M12.542 3.273c0 0.301-0.244 0.545-0.545 0.545s-0.545-0.244-0.545-0.545c0-0.301 0.244-0.545 0.545-0.545s0.545 0.244 0.545 0.545z"></path>
<path fill="#b0c4d9" d="M19.415 22.036l-3.709-5.345c-0.655-0.927-0.982-2.018-0.982-3.109v-3.545c0-0.491 0.218-0.982 0.545-1.309v-0.545h-2.182v0.545h-4.364c0.164 0.164 0.273 0.327 0.382 0.545h2.4c0.6 0 1.036 0.491 1.036 1.091v0 3.218c0 1.091 0.327 2.182 0.982 3.109l2.782 5.345c0.164 0.218 0.218 0.436 0.218 0.709 0 0.709-0.545 1.255-1.255 1.255h3.055c0.436 0 0.818-0.218 1.091-0.545 0.327-0.436 0.273-1.036 0-1.418z"></path>
<path fill="#ecf0f9" d="M9.542 8.182h1.636c0.164 0 0.273 0.109 0.273 0.273v0c0 0.164-0.109 0.273-0.273 0.273h-1.636c-0.164 0-0.273-0.109-0.273-0.273v0c0-0.164 0.109-0.273 0.273-0.273z"></path>
<path fill="#ecf0f9" d="M10.36 10.636v3.273c0 0.164-0.109 0.273-0.273 0.273v0c-0.164 0-0.273-0.109-0.273-0.273v-3.273c0-0.164 0.109-0.273 0.273-0.273v0c0.164 0 0.273 0.109 0.273 0.273z"></path>
<path fill="#ecf0f9" d="M9.815 15v0c0-0.164 0.109-0.273 0.273-0.273v0c0.164 0 0.273 0.109 0.273 0.273v0c0 0.164-0.109 0.273-0.273 0.273v0c-0.164 0-0.273-0.109-0.273-0.273z"></path>
<path fill="#90c962" d="M4.36 22.745c0 0.709 0.545 1.255 1.255 1.255h12.764c0.327 0 0.655-0.164 0.873-0.382s0.382-0.545 0.382-0.873c0-0.273-0.055-0.491-0.218-0.709l-2.891-4.2c-1.527-0.545-3.655-0.491-5.018 0.164-1.2 0.545-2.891 0.709-4.309 0.382l-2.564 3.655c-0.218 0.218-0.273 0.436-0.273 0.709z"></path>
<path fill="#71b956" d="M12.542 19.636c0 0.301-0.244 0.545-0.545 0.545s-0.545-0.244-0.545-0.545c0-0.301 0.244-0.545 0.545-0.545s0.545 0.244 0.545 0.545z"></path>
<path fill="#71b956" d="M9.269 19.909c0 0.151-0.122 0.273-0.273 0.273s-0.273-0.122-0.273-0.273c0-0.151 0.122-0.273 0.273-0.273s0.273 0.122 0.273 0.273z"></path>
<path fill="#71b956" d="M7.633 20.727c0 0.301-0.244 0.545-0.545 0.545s-0.545-0.244-0.545-0.545c0-0.301 0.244-0.545 0.545-0.545s0.545 0.244 0.545 0.545z"></path>
<path fill="#71b956" d="M10.36 22.364c0 0.301-0.244 0.545-0.545 0.545s-0.545-0.244-0.545-0.545c0-0.301 0.244-0.545 0.545-0.545s0.545 0.244 0.545 0.545z"></path>
<path fill="#71b956" d="M11.996 21.545c0 0.151-0.122 0.273-0.273 0.273s-0.273-0.122-0.273-0.273c0-0.151 0.122-0.273 0.273-0.273s0.273 0.122 0.273 0.273z"></path>
<path fill="#71b956" d="M14.178 20.455c0 0.151-0.122 0.273-0.273 0.273s-0.273-0.122-0.273-0.273c0-0.151 0.122-0.273 0.273-0.273s0.273 0.122 0.273 0.273z"></path>
<path fill="#71b956" d="M8.178 22.091c0 0.151-0.122 0.273-0.273 0.273s-0.273-0.122-0.273-0.273c0-0.151 0.122-0.273 0.273-0.273s0.273 0.122 0.273 0.273z"></path>
<path fill="#71b956" d="M15.269 22.364c0 0.301-0.244 0.545-0.545 0.545s-0.545-0.244-0.545-0.545c0-0.301 0.244-0.545 0.545-0.545s0.545 0.244 0.545 0.545z"></path>
<path fill="#71b956" d="M7.196 18.273c0.327-0.491 0.927-0.818 1.527-0.818v0c0.982 0 1.964 0.164 2.727 0.545-0.764 0.382-1.745 0.545-2.727 0.545-0.545 0-1.091-0.055-1.582-0.164l0.055-0.109z"></path>
<path fill="#71b956" d="M19.415 22.036l-2.891-4.2c-0.764-0.273-1.691-0.382-2.564-0.382l2.4 4.582c0 0.055 0.055 0.109 0.055 0.164 0.164 0.655-0.382 1.255-1.036 1.255h-10.8c0.218 0.327 0.6 0.545 1.036 0.545h12.764c0.327 0 0.655-0.164 0.873-0.382s0.382-0.545 0.382-0.873c0-0.273-0.055-0.491-0.218-0.709z"></path>
</svg>
