<!-- Generated by IcoMoon.io -->
<svg version="1.1" xmlns="http://www.w3.org/2000/svg" width="24" height="24" viewBox="0 0 24 24">
<title>folder</title>
<path fill="#f19920" d="M7.418 1.636h-5.782c-0.6 0-1.091 0.491-1.091 1.091v4.364h22.909v-2.182c0-0.6-0.491-1.091-1.091-1.091h-10.691c-0.491 0-0.982-0.164-1.364-0.491l-1.527-1.2c-0.382-0.327-0.873-0.491-1.364-0.491z"></path>
<path fill="#ffcb5b" d="M24 7.636v13.636c0 0.6-0.491 1.091-1.091 1.091h-21.818c-0.6 0-1.091-0.491-1.091-1.091v-13.636c0-0.327 0.218-0.545 0.545-0.545h22.909c0.327 0 0.545 0.218 0.545 0.545z"></path>
<path fill="#fff" d="M22.364 7.091v-1.636c0-0.327-0.218-0.545-0.545-0.545h-19.636c-0.327 0-0.545 0.218-0.545 0.545v1.636h20.727z"></path>
<path fill="#f7b84e" d="M22.909 10.8v10.473h-21.273c-0.327 0-0.545 0.218-0.545 0.545v0c0 0.327 0.218 0.545 0.545 0.545h21.273c0.6 0 1.091-0.491 1.091-1.091v-13.091c-0.709 0.709-1.091 1.636-1.091 2.618z"></path>
<path fill="#ffdb6f" d="M1.855 7.636c-0.491 0-0.982-0.218-1.309-0.545v0h16.364c-0.327 0.327-0.818 0.545-1.309 0.545h-13.745z"></path>
<path fill="#e78825" d="M22.364 7.091h1.091c-0.218-0.327-0.545-0.545-0.873-0.545h-0.218v0.545z"></path>
<path fill="#e78825" d="M1.636 7.091h-1.091c0.218-0.327 0.545-0.545 0.873-0.545h0.218v0.545z"></path>
<path fill="#d1d9e1" d="M1.636 6.545h20.727v0.545h-20.727v-0.545z"></path>
<path fill="#f19920" d="M8.455 13.091h7.091c0.164 0 0.273 0.109 0.273 0.273v0c0 0.164-0.109 0.273-0.273 0.273h-7.091c-0.164 0-0.273-0.109-0.273-0.273v0c-0-0.164 0.109-0.273 0.273-0.273z"></path>
<path fill="#f19920" d="M9.545 14.727h4.909c0.164 0 0.273 0.109 0.273 0.273v0c0 0.164-0.109 0.273-0.273 0.273h-4.909c-0.164 0-0.273-0.109-0.273-0.273v0c0-0.164 0.109-0.273 0.273-0.273z"></path>
</svg>
