<!-- Generated by IcoMoon.io -->
<svg version="1.1" xmlns="http://www.w3.org/2000/svg" width="24" height="24" viewBox="0 0 24 24">
<title>gamepad</title>
<path fill="#9ba7af" d="M14.727 2.153h-6c-0.327 0-0.545 0.218-0.545 0.545s0.218 0.545 0.545 0.545h6c0.327 0 0.545 0.218 0.545 0.545s-0.218 0.545-0.545 0.545h-1.636c-0.927 0-1.636 0.709-1.636 1.636v1.091c-0.327 0-0.545 0.218-0.545 0.545s0.218 0.545 0.545 0.545h1.091c0.327 0 0.545-0.218 0.545-0.545s-0.218-0.545-0.545-0.545v-1.091c0-0.327 0.218-0.545 0.545-0.545h1.636c0.927 0 1.636-0.709 1.636-1.636s-0.709-1.636-1.636-1.636z"></path>
<path fill="#35495c" d="M23.727 16.771l-1.364-6.545c-0.327-1.527-1.636-2.618-3.218-2.618h-14.291c-1.582 0-2.891 1.091-3.218 2.618l-1.364 6.545c-0.164 0.764-0.273 1.473-0.273 2.236 0 1.255 0.764 2.455 2.018 2.727 1.309 0.273 2.509-0.382 3-1.582 0 0 0.491-1.145 0.818-2.018 0.164-0.382 0.6-0.436 0.873-0.164 0.382 0.327 0.927 0.545 1.473 0.545 1.036 0 1.909-0.764 2.127-1.745 0.055-0.273 0.273-0.436 0.545-0.436h2.291c0.273 0 0.491 0.218 0.545 0.436 0.218 0.982 1.091 1.745 2.127 1.745 0.545 0 1.091-0.218 1.473-0.6 0.273-0.273 0.709-0.164 0.873 0.164 0.327 0.873 0.818 2.018 0.818 2.018 0.491 1.145 1.691 1.855 3 1.582 1.255-0.273 2.018-1.473 2.018-2.727 0-0.709-0.109-1.418-0.273-2.182z"></path>
<path fill="#123247" d="M17.618 17.044c-0.164-0.382-0.6-0.436-0.873-0.164-0.382 0.327-0.927 0.545-1.473 0.545-0.655 0-1.2-0.273-1.636-0.709 0 0.055 0 0.055 0.055 0.109 0.218 0.982 1.091 1.745 2.127 1.745 0.545 0 1.091-0.218 1.473-0.6 0.218-0.164 0.491-0.164 0.655-0.055-0.109-0.327-0.218-0.6-0.327-0.873z"></path>
<path fill="#123247" d="M13.145 15.68c-0.055-0.273-0.273-0.436-0.545-0.436h-2.291c-0.273 0-0.491 0.218-0.545 0.436-0.218 0.982-1.091 1.745-2.127 1.745-0.545 0-1.091-0.218-1.473-0.6-0.273-0.273-0.709-0.164-0.873 0.164-0.327 0.927-0.818 2.073-0.818 2.073-0.491 1.145-1.691 1.855-3 1.582-0.545-0.109-1.036-0.436-1.364-0.873 0.218 0.927 0.927 1.745 1.909 1.964 1.309 0.273 2.509-0.382 3-1.582 0 0 0.491-1.145 0.818-2.018 0.164-0.382 0.6-0.436 0.873-0.164 0.382 0.327 0.927 0.545 1.473 0.545 1.036 0 1.909-0.764 2.127-1.745 0.055-0.273 0.273-0.436 0.545-0.436h2.291c0.109 0 0.218 0.055 0.327 0.109-0.164-0.218-0.273-0.491-0.327-0.764z"></path>
<path fill="#123247" d="M23.727 16.771l-1.364-6.545c-0.109-0.491-0.327-0.927-0.6-1.309 0 0.055 0.055 0.164 0.055 0.218l1.364 6.6c0.164 0.709 0.218 1.473 0.273 2.236 0 1.255-0.764 2.455-2.018 2.727-1.036 0.218-2.073-0.164-2.673-0.982 0.109 0.273 0.218 0.491 0.218 0.491 0.491 1.145 1.691 1.855 3 1.582 1.255-0.273 2.018-1.473 2.018-2.727 0-0.818-0.109-1.527-0.273-2.291z"></path>
<path fill="#70b7e5" d="M16.909 11.971c0 0.301-0.244 0.545-0.545 0.545s-0.545-0.244-0.545-0.545c0-0.301 0.244-0.545 0.545-0.545s0.545 0.244 0.545 0.545z"></path>
<path fill="#687a8a" d="M14.182 10.334c0 0.301-0.244 0.545-0.545 0.545s-0.545-0.244-0.545-0.545c0-0.301 0.244-0.545 0.545-0.545s0.545 0.244 0.545 0.545z"></path>
<path fill="#687a8a" d="M12.545 13.062c0 0.301-0.244 0.545-0.545 0.545s-0.545-0.244-0.545-0.545c0-0.301 0.244-0.545 0.545-0.545s0.545 0.244 0.545 0.545z"></path>
<path fill="#687a8a" d="M10.909 10.334c0 0.301-0.244 0.545-0.545 0.545s-0.545-0.244-0.545-0.545c0-0.301 0.244-0.545 0.545-0.545s0.545 0.244 0.545 0.545z"></path>
<path fill="#f26a56" d="M20.182 11.971c0 0.301-0.244 0.545-0.545 0.545s-0.545-0.244-0.545-0.545c0-0.301 0.244-0.545 0.545-0.545s0.545 0.244 0.545 0.545z"></path>
<path fill="#89c763" d="M18.545 13.607c0 0.301-0.244 0.545-0.545 0.545s-0.545-0.244-0.545-0.545c0-0.301 0.244-0.545 0.545-0.545s0.545 0.244 0.545 0.545z"></path>
<path fill="#ffcb5b" d="M18.545 10.334c0 0.301-0.244 0.545-0.545 0.545s-0.545-0.244-0.545-0.545c0-0.301 0.244-0.545 0.545-0.545s0.545 0.244 0.545 0.545z"></path>
<path fill="#687a8a" d="M7.636 11.425h-1.091v-1.091c0-0.327-0.218-0.545-0.545-0.545s-0.545 0.218-0.545 0.545v1.091h-1.091c-0.327 0-0.545 0.218-0.545 0.545s0.218 0.545 0.545 0.545h1.091v1.091c0 0.327 0.218 0.545 0.545 0.545s0.545-0.218 0.545-0.545v-1.091h1.091c0.327 0 0.545-0.218 0.545-0.545s-0.218-0.545-0.545-0.545z"></path>
<path fill="#687a8a" d="M17.455 16.334c0 0.904-0.733 1.636-1.636 1.636s-1.636-0.733-1.636-1.636c0-0.904 0.733-1.636 1.636-1.636s1.636 0.733 1.636 1.636z"></path>
<path fill="#576d7e" d="M16.691 14.916c0.164 0.273 0.218 0.545 0.218 0.873 0 0.927-0.709 1.636-1.636 1.636-0.327 0-0.6-0.109-0.873-0.218 0.327 0.436 0.818 0.764 1.418 0.764 0.927 0 1.636-0.709 1.636-1.636-0-0.6-0.327-1.091-0.764-1.418z"></path>
<path fill="#576d7e" d="M15 11.971c-0.164 0-0.273-0.109-0.273-0.273 0-1.636 1.364-3 3-3 0.164 0 0.273 0.109 0.273 0.273s-0.109 0.273-0.273 0.273c-1.364 0-2.455 1.091-2.455 2.455 0 0.164-0.109 0.273-0.273 0.273z"></path>
<path fill="#123247" d="M18.273 15.244c-0.164 0-0.273-0.109-0.273-0.273s0.109-0.273 0.273-0.273c1.364 0 2.455-1.091 2.455-2.455 0-0.164 0.109-0.273 0.273-0.273s0.273 0.109 0.273 0.273c0 1.636-1.364 3-3 3z"></path>
<path fill="#576d7e" d="M3 11.971c-0.164 0-0.273-0.109-0.273-0.273 0-1.636 1.364-3 3-3 0.164 0 0.273 0.109 0.273 0.273s-0.109 0.273-0.273 0.273c-1.364 0-2.455 1.091-2.455 2.455 0 0.164-0.109 0.273-0.273 0.273z"></path>
<path fill="#123247" d="M6.273 15.244c-0.164 0-0.273-0.109-0.273-0.273s0.109-0.273 0.273-0.273c1.364 0 2.455-1.091 2.455-2.455 0-0.164 0.109-0.273 0.273-0.273s0.273 0.109 0.273 0.273c0 1.636-1.364 3-3 3z"></path>
<path fill="#687a8a" d="M9.818 16.334c0 0.904-0.733 1.636-1.636 1.636s-1.636-0.733-1.636-1.636c0-0.904 0.733-1.636 1.636-1.636s1.636 0.733 1.636 1.636z"></path>
<path fill="#576d7e" d="M9.055 14.916c0.164 0.273 0.218 0.545 0.218 0.873 0 0.927-0.709 1.636-1.636 1.636-0.327 0-0.6-0.109-0.873-0.218 0.327 0.436 0.818 0.764 1.418 0.764 0.927 0 1.636-0.709 1.636-1.636-0-0.6-0.327-1.091-0.764-1.418z"></path>
</svg>
