<!-- Generated by IcoMoon.io -->
<svg version="1.1" xmlns="http://www.w3.org/2000/svg" width="24" height="24" viewBox="0 0 24 24">
<title>growth</title>
<path fill="#f6b545" d="M14.722 19.636h-10.909c-0.327 0-0.545-0.218-0.545-0.545v-1.091c0-0.327 0.218-0.545 0.545-0.545h10.909c0.327 0 0.545 0.218 0.545 0.545v1.091c0 0.327-0.218 0.545-0.545 0.545z"></path>
<path fill="#ffcb5b" d="M12.541 18h-9.273c0-0.327 0.218-0.545 0.545-0.545h8.727v0.545z"></path>
<path fill="#f19920" d="M12.541 18v0.545c0 0.327-0.218 0.545-0.545 0.545h-8.727c0 0.327 0.218 0.545 0.545 0.545h10.909c0.327 0 0.545-0.218 0.545-0.545v-1.091h-2.727z"></path>
<path fill="#f19920" d="M4.904 19.091v-0.818c0-0.164-0.109-0.273-0.273-0.273s-0.273 0.109-0.273 0.273v0.818z"></path>
<path fill="#f19920" d="M6.541 19.091v-0.818c0-0.164-0.109-0.273-0.273-0.273s-0.273 0.109-0.273 0.273v0.818z"></path>
<path fill="#f19920" d="M8.177 19.091v-0.818c0-0.164-0.109-0.273-0.273-0.273s-0.273 0.109-0.273 0.273v0.818z"></path>
<path fill="#f19920" d="M9.813 19.091v-0.818c0-0.164-0.109-0.273-0.273-0.273s-0.273 0.109-0.273 0.273v0.818z"></path>
<path fill="#f19920" d="M11.45 19.091v-0.818c0-0.164-0.109-0.273-0.273-0.273s-0.273 0.109-0.273 0.273v0.818z"></path>
<path fill="#f6b545" d="M15.268 17.455h-10.909c-0.327 0-0.545-0.218-0.545-0.545v-1.091c0-0.327 0.218-0.545 0.545-0.545h10.909c0.327 0 0.545 0.218 0.545 0.545v1.091c0 0.327-0.218 0.545-0.545 0.545z"></path>
<path fill="#ffcb5b" d="M13.086 15.818h-9.273c0-0.327 0.218-0.545 0.545-0.545h8.727v0.545z"></path>
<path fill="#f19920" d="M13.086 15.818v0.545c0 0.327-0.218 0.545-0.545 0.545h-8.727c0 0.327 0.218 0.545 0.545 0.545h10.909c0.327 0 0.545-0.218 0.545-0.545v-1.091h-2.727z"></path>
<path fill="#f19920" d="M5.45 16.909v-0.818c0-0.164-0.109-0.273-0.273-0.273s-0.273 0.109-0.273 0.273v0.818z"></path>
<path fill="#f19920" d="M7.086 16.909v-0.818c0-0.164-0.109-0.273-0.273-0.273s-0.273 0.109-0.273 0.273v0.818z"></path>
<path fill="#f19920" d="M8.722 16.909v-0.818c0-0.164-0.109-0.273-0.273-0.273s-0.273 0.109-0.273 0.273v0.818z"></path>
<path fill="#f19920" d="M10.359 16.909v-0.818c0-0.164-0.109-0.273-0.273-0.273s-0.273 0.109-0.273 0.273v0.818z"></path>
<path fill="#f19920" d="M11.995 16.909v-0.818c0-0.164-0.109-0.273-0.273-0.273s-0.273 0.109-0.273 0.273v0.818z"></path>
<path fill="#f6b545" d="M15.813 21.818h-10.909c-0.327 0-0.545-0.218-0.545-0.545v-1.091c0-0.327 0.218-0.545 0.545-0.545h10.909c0.327 0 0.545 0.218 0.545 0.545v1.091c0 0.327-0.218 0.545-0.545 0.545z"></path>
<path fill="#ffcb5b" d="M13.631 20.182h-9.273c0-0.327 0.218-0.545 0.545-0.545h8.727v0.545z"></path>
<path fill="#f19920" d="M13.631 20.182v0.545c0 0.327-0.218 0.545-0.545 0.545h-8.727c0 0.327 0.218 0.545 0.545 0.545h10.909c0.327 0 0.545-0.218 0.545-0.545v-1.091h-2.727z"></path>
<path fill="#f19920" d="M5.995 21.273v-0.818c0-0.164-0.109-0.273-0.273-0.273s-0.273 0.109-0.273 0.273v0.818z"></path>
<path fill="#f19920" d="M7.631 21.273v-0.818c0-0.164-0.109-0.273-0.273-0.273s-0.273 0.109-0.273 0.273v0.818z"></path>
<path fill="#f19920" d="M9.268 21.273v-0.818c0-0.164-0.109-0.273-0.273-0.273s-0.273 0.109-0.273 0.273v0.818z"></path>
<path fill="#f19920" d="M10.904 21.273v-0.818c0-0.164-0.109-0.273-0.273-0.273s-0.273 0.109-0.273 0.273v0.818z"></path>
<path fill="#f19920" d="M12.541 21.273v-0.818c0-0.164-0.109-0.273-0.273-0.273s-0.273 0.109-0.273 0.273v0.818z"></path>
<path fill="#f6b545" d="M13.631 24h-10.909c-0.327 0-0.545-0.218-0.545-0.545v-1.091c0-0.327 0.218-0.545 0.545-0.545h10.909c0.327 0 0.545 0.218 0.545 0.545v1.091c0 0.327-0.218 0.545-0.545 0.545z"></path>
<path fill="#ffcb5b" d="M11.45 22.364h-9.273c0-0.327 0.218-0.545 0.545-0.545h8.727v0.545z"></path>
<path fill="#f19920" d="M11.45 22.364v0.545c0 0.327-0.218 0.545-0.545 0.545h-8.727c0 0.327 0.218 0.545 0.545 0.545h10.909c0.327 0 0.545-0.218 0.545-0.545v-1.091h-2.727z"></path>
<path fill="#f19920" d="M3.813 23.455v-0.818c0-0.164-0.109-0.273-0.273-0.273s-0.273 0.109-0.273 0.273v0.818z"></path>
<path fill="#f19920" d="M5.45 23.455v-0.818c0-0.164-0.109-0.273-0.273-0.273s-0.273 0.109-0.273 0.273v0.818z"></path>
<path fill="#f19920" d="M7.086 23.455v-0.818c0-0.164-0.109-0.273-0.273-0.273s-0.273 0.109-0.273 0.273v0.818z"></path>
<path fill="#f19920" d="M8.722 23.455v-0.818c0-0.164-0.109-0.273-0.273-0.273s-0.273 0.109-0.273 0.273v0.818z"></path>
<path fill="#f19920" d="M10.359 23.455v-0.818c0-0.164-0.109-0.273-0.273-0.273s-0.273 0.109-0.273 0.273v0.818z"></path>
<path fill="#3bb54a" d="M18.268 14.455c0.655-0.655 0.873-1.527 0.818-2.455-0.927-0.109-1.8 0.164-2.455 0.818s-0.873 1.527-0.818 2.455c0.927 0.055 1.8-0.218 2.455-0.818z"></path>
<path fill="#24a049" d="M18.431 12.655c0.273-0.273 0-0.709-0.327-0.6-0.545 0.109-1.036 0.382-1.473 0.764-0.655 0.655-0.873 1.527-0.818 2.455l2.618-2.618z"></path>
<path fill="#3bb54a" d="M15.268 10.909h1.091v6.545h-1.091v-6.545z"></path>
<path fill="#24a049" d="M15.813 11.455h-0.545v1.091c0.327 0 0.545 0.218 0.545 0.545v4.364h0.545v-6h-0.545z"></path>
<path fill="#a35425" d="M12.541 22.909h6.545v1.091h-6.545v-1.091z"></path>
<path fill="#3bb54a" d="M13.359 15.545c-0.655-0.655-0.873-1.527-0.818-2.455 0.927-0.109 1.8 0.164 2.455 0.818s0.873 1.527 0.818 2.455c-0.927 0.055-1.8-0.218-2.455-0.818z"></path>
<path fill="#24a049" d="M13.195 13.745c-0.273-0.273 0-0.709 0.327-0.6 0.545 0.109 1.036 0.382 1.473 0.764 0.655 0.655 0.873 1.527 0.818 2.455l-2.618-2.618z"></path>
<path fill="#ffcb5b" d="M21.813 6c0 3.314-2.686 6-6 6s-6-2.686-6-6c0-3.314 2.686-6 6-6s6 2.686 6 6z"></path>
<path fill="#f6b545" d="M20.722 6c0 2.711-2.198 4.909-4.909 4.909s-4.909-2.198-4.909-4.909c0-2.711 2.198-4.909 4.909-4.909s4.909 2.198 4.909 4.909z"></path>
<path fill="#f19920" d="M11.395 6.382c0-2.727 2.182-4.909 4.909-4.909 1.091 0 2.127 0.382 2.945 0.982-0.873-0.818-2.073-1.364-3.436-1.364-2.727 0-4.909 2.182-4.909 4.909 0 1.582 0.764 3 1.964 3.927-0.927-0.927-1.473-2.127-1.473-3.545z"></path>
<path fill="#f19920" d="M19.904 6.273c0 2.109-1.709 3.818-3.818 3.818s-3.818-1.709-3.818-3.818c0-2.109 1.709-3.818 3.818-3.818s3.818 1.709 3.818 3.818z"></path>
<path fill="#ffcb5b" d="M19.631 6c0 2.109-1.709 3.818-3.818 3.818s-3.818-1.709-3.818-3.818c0-2.109 1.709-3.818 3.818-3.818s3.818 1.709 3.818 3.818z"></path>
<path fill="#ffe27a" d="M18.541 8.073c-0.055 0-0.109 0-0.164-0.055-0.109-0.109-0.164-0.273-0.055-0.382 0.327-0.491 0.491-1.091 0.491-1.636 0-0.164 0.109-0.273 0.273-0.273s0.273 0.109 0.273 0.273c0 0.709-0.218 1.364-0.6 1.964-0.055 0.055-0.109 0.109-0.218 0.109z"></path>
<path fill="#f19920" d="M16.359 5.455h-1.091c-0.327 0-0.545-0.218-0.545-0.545s0.218-0.545 0.545-0.545h1.636c0.327 0 0.545-0.218 0.545-0.545s-0.218-0.545-0.545-0.545h-0.545c0-0.327-0.218-0.545-0.545-0.545s-0.545 0.218-0.545 0.545c-0.927 0-1.636 0.709-1.636 1.636s0.709 1.636 1.636 1.636h1.091c0.327 0 0.545 0.218 0.545 0.545s-0.218 0.545-0.545 0.545h-1.636c-0.327 0-0.545 0.218-0.545 0.545s0.218 0.545 0.545 0.545h0.545c0 0.327 0.218 0.545 0.545 0.545s0.545-0.218 0.545-0.545c0.927 0 1.636-0.709 1.636-1.636s-0.709-1.636-1.636-1.636z"></path>
<path fill="#f6b545" d="M21.595 4.364c0 0-0.055 0-0.109 0-0.218 0.055-0.382 0.273-0.327 0.491 0.055 0.382 0.109 0.764 0.109 1.145 0 3-2.455 5.455-5.455 5.455-0.382 0-0.764-0.055-1.145-0.109-0.218-0.055-0.491 0.109-0.491 0.382v0 0.055c1.145 0.327 2.4 0.327 3.764-0.164 1.582-0.6 2.891-1.909 3.491-3.491 0.491-1.364 0.491-2.618 0.164-3.764z"></path>
<path fill="#ffe27a" d="M15.813 0v0c-3.327 0-6 2.673-6 6v0c0.273 0 0.545-0.218 0.545-0.545 0.109-1.2 0.6-2.236 1.364-3.055 0.873-1.036 2.127-1.691 3.545-1.855 0.327 0 0.545-0.273 0.545-0.545z"></path>
<path fill="#8d4928" d="M12.541 22.909c0 0.327 0.218 0.545 0.545 0.545h3.818c0.327 0 0.545 0.218 0.545 0.545h1.636v-1.091h-6.545z"></path>
<path fill="#b06328" d="M19.413 22.909h-7.2c-0.164 0-0.273-0.109-0.327-0.218v0c-0.655-1.636-0.982-3.436-0.982-5.182v-0.055h9.818v0.055c0 1.8-0.327 3.545-0.982 5.182v0c-0.055 0.109-0.218 0.218-0.327 0.218z"></path>
<path fill="#a35425" d="M17.995 17.455c0 0 0.055 0 0 0 0.055 0.218 0 0.382 0 0.545h-7.091c0 0.164 0 0.382 0.055 0.545h6.491c0.327 0 0.545 0.273 0.545 0.6-0.055 0.818-0.164 1.636-0.382 2.4-0.109 0.491-0.545 0.818-1.036 0.818h-4.746c0.055 0.109 0.055 0.218 0.109 0.327s0.164 0.218 0.327 0.218h7.145c0.164 0 0.273-0.109 0.327-0.218 0.655-1.636 0.982-3.436 0.982-5.182v-0.055h-2.727z"></path>
<path fill="#a35425" d="M20.722 18h-9.818c-0.327 0-0.545-0.218-0.545-0.545v0c0-0.327 0.218-0.545 0.545-0.545h9.818c0.327 0 0.545 0.218 0.545 0.545v0c0 0.327-0.218 0.545-0.545 0.545z"></path>
<path fill="#8d4928" d="M20.722 16.909v0c0 0.327-0.218 0.545-0.545 0.545h-9.818c0 0.327 0.218 0.545 0.545 0.545h9.764c0.273 0 0.545-0.164 0.545-0.436 0.109-0.382-0.164-0.655-0.491-0.655z"></path>
<path fill="#b06328" d="M11.722 16.909h2.727c0.164 0 0.273 0.109 0.273 0.273v0c0 0.164-0.109 0.273-0.273 0.273h-2.727c-0.164 0-0.273-0.109-0.273-0.273v0c0-0.164 0.109-0.273 0.273-0.273z"></path>
</svg>
