<!-- Generated by IcoMoon.io -->
<svg version="1.1" xmlns="http://www.w3.org/2000/svg" width="24" height="24" viewBox="0 0 24 24">
<title>hourglass</title>
<path fill="#c7eafb" d="M6.545 20.727v-3.545c0-0.545 0.218-1.036 0.545-1.418l2.673-3.055c0.382-0.436 0.382-1.036 0-1.418l-2.673-3.055c-0.327-0.382-0.545-0.927-0.545-1.418v-3.545h10.909v3.545c0 0.545-0.218 1.036-0.545 1.418l-2.673 3.055c-0.382 0.436-0.382 1.036 0 1.418l2.673 3.055c0.327 0.382 0.545 0.927 0.545 1.418v3.545h-10.909z"></path>
<path fill="#f7b84e" d="M10.364 15.818c-0.327 0-0.545 0.218-0.545 0.545v0c0 0.327 0.218 0.545 0.545 0.545s0.545-0.218 0.545-0.545v0c0-0.327-0.218-0.545-0.545-0.545zM10.364 16.091v0 0 0z"></path>
<path fill="#f7b84e" d="M14.727 17.455c-0.327 0-0.545 0.218-0.545 0.545v0c0 0.327 0.218 0.545 0.545 0.545s0.545-0.218 0.545-0.545v0c0-0.327-0.218-0.545-0.545-0.545zM14.727 17.727v0 0 0z"></path>
<path fill="#f7b84e" d="M13.364 17.455c-0.164 0-0.273 0.109-0.273 0.273v0c0 0.164 0.109 0.273 0.273 0.273s0.273-0.109 0.273-0.273v0c0-0.164-0.109-0.273-0.273-0.273zM13.364 17.618v0 0c0-0.055 0 0 0 0z"></path>
<path fill="#f7b84e" d="M9 18c-0.164 0-0.273 0.109-0.273 0.273v0c0 0.164 0.109 0.273 0.273 0.273s0.273-0.109 0.273-0.273v0c0-0.164-0.109-0.273-0.273-0.273zM9 18.164v0 0c0-0.055 0 0 0 0z"></path>
<path fill="#f7b84e" d="M7.909 18.545c-0.164 0-0.273 0.109-0.273 0.273v0c0 0.164 0.109 0.273 0.273 0.273s0.273-0.109 0.273-0.273v0c0-0.164-0.109-0.273-0.273-0.273zM7.909 18.709v0 0c0-0.055 0 0 0 0z"></path>
<path fill="#eff9fe" d="M8.182 16.691c-0.109 0-0.218-0.055-0.327-0.109-0.218-0.164-0.273-0.545-0.109-0.764l1.636-1.964c0.164-0.218 0.545-0.273 0.764-0.109s0.273 0.545 0.109 0.764l-1.636 1.964c-0.109 0.164-0.273 0.218-0.436 0.218z"></path>
<path fill="#c97629" d="M19.636 21.273c-0.327 0-0.545-0.218-0.545-0.545v-17.455c0-0.327 0.218-0.545 0.545-0.545s0.545 0.218 0.545 0.545v17.455c0 0.327-0.218 0.545-0.545 0.545z"></path>
<path fill="#c97629" d="M4.364 21.273c-0.327 0-0.545-0.218-0.545-0.545v-17.455c0-0.327 0.218-0.545 0.545-0.545s0.545 0.218 0.545 0.545v17.455c0 0.327-0.218 0.545-0.545 0.545z"></path>
<path fill="#da8c36" d="M3.164 21.164l-0.327 1.2c-0.055 0.382-0.109 0.709-0.109 1.091v0c0 0.327 0.218 0.545 0.545 0.545h17.455c0.327 0 0.545-0.218 0.545-0.545v0c0-0.382-0.055-0.709-0.109-1.091l-0.327-1.255c-0.055-0.218-0.273-0.436-0.545-0.436h-16.582c-0.273 0.055-0.491 0.218-0.545 0.491z"></path>
<path fill="#da8c36" d="M3.164 2.836l-0.327-1.2c-0.055-0.382-0.109-0.709-0.109-1.091v0c0-0.327 0.218-0.545 0.545-0.545h17.455c0.327 0 0.545 0.218 0.545 0.545v0c0 0.382-0.055 0.709-0.109 1.091l-0.327 1.255c-0.055 0.218-0.273 0.436-0.545 0.436h-16.582c-0.273-0.055-0.491-0.218-0.545-0.491z"></path>
<path fill="#b06328" d="M19.636 3.273h-0.545v0.545h0.545v16.909h0.545v-17.455z"></path>
<path fill="#b06328" d="M4.364 3.273h-0.545v0.545h0.545v16.909h0.545v-17.455z"></path>
<path fill="#acd6f2" d="M16.909 8.236c0.327-0.382 0.545-0.927 0.545-1.418v-3.545h-10.909v0.545c0 0.327 0.218 0.545 0.545 0.545h7.636c0.327 0 0.545 0.218 0.545 0.545v1.964c0 0.491-0.164 1.036-0.436 1.418l-1.582 2.564c-0.436 0.709-0.436 1.582 0 2.291l1.582 2.564c0.273 0.436 0.436 0.927 0.436 1.418v3.6h2.182v-3.545c0-0.545-0.218-1.036-0.545-1.418l-2.673-3.055c-0.382-0.436-0.382-1.036 0-1.418l2.673-3.055z"></path>
<path fill="#c97629" d="M20.727 0h-2.727c0.327 0 0.545 0.218 0.545 0.545 0 0.382-0.055 0.709-0.109 1.091v0c-0.164 0.655-0.764 1.091-1.418 1.091h-13.855l0.055 0.109c0 0.273 0.218 0.436 0.491 0.436h16.582c0.273 0 0.491-0.164 0.545-0.436l0.327-1.2c0.055-0.382 0.109-0.709 0.109-1.091-0-0.273-0.218-0.545-0.545-0.545z"></path>
<path fill="#c97629" d="M21.164 22.364l-0.327-1.255c-0.055-0.218-0.273-0.436-0.545-0.436h-2.727c0.273 0 0.491 0.164 0.545 0.436l0.327 1.255c0.109 0.545-0.327 1.091-0.873 1.091h-14.836c0 0.327 0.218 0.545 0.545 0.545h17.455c0.327 0 0.545-0.273 0.545-0.545 0-0.382-0.055-0.709-0.109-1.091z"></path>
<path fill="#eba553" d="M4.091 0.545h2.727c0.164 0 0.273 0.109 0.273 0.273v0c0 0.164-0.109 0.273-0.273 0.273h-2.727c-0.164 0-0.273-0.109-0.273-0.273v0c0-0.164 0.109-0.273 0.273-0.273z"></path>
<path fill="#eba553" d="M4.091 21.273h2.727c0.164 0 0.273 0.109 0.273 0.273v0c0 0.164-0.109 0.273-0.273 0.273h-2.727c-0.164 0-0.273-0.109-0.273-0.273v0c0-0.164 0.109-0.273 0.273-0.273z"></path>
<path fill="#eba553" d="M7.909 0.545h1.091c0.164 0 0.273 0.109 0.273 0.273v0c0 0.164-0.109 0.273-0.273 0.273h-1.091c-0.164 0-0.273-0.109-0.273-0.273v0c0-0.164 0.109-0.273 0.273-0.273z"></path>
<path fill="#f7b84e" d="M15.818 4.909h-7.636c-0.327 0-0.545 0.218-0.545 0.545v0.818c0 0.273 0.109 0.545 0.273 0.709l2.673 3.055c0.327 0.382 0.873 0.927 0.873 1.418v6.6c0 0.655-0.491 1.2-1.091 1.364-0.6 0.109-1.091 0.655-1.091 1.309h5.455c0-0.655-0.436-1.2-1.091-1.309s-1.091-0.709-1.091-1.364v-6.6c0-0.491 0.545-1.036 0.873-1.418l2.673-3.055c0.164-0.218 0.273-0.436 0.273-0.709v-0.818c0-0.327-0.218-0.545-0.545-0.545z"></path>
<path fill="#f19f35" d="M15.818 4.909h-4.364c0 0.6 0.491 1.636 1.091 1.636h1.691c0.382 0 0.6 0.491 0.382 0.764-0.545 0.709-1.527 1.8-2.127 2.509-0.327 0.382-0.491 0.818-0.491 1.309v4.691c0 0.327 0.218 0.545 0.545 0.545v-4.909c0-0.491 0.545-1.036 0.873-1.418l2.673-3.055c0.164-0.218 0.273-0.436 0.273-0.709v-0.818c0-0.327-0.218-0.545-0.545-0.545z"></path>
</svg>
