<!-- Generated by IcoMoon.io -->
<svg version="1.1" xmlns="http://www.w3.org/2000/svg" width="24" height="24" viewBox="0 0 24 24">
<title>idea</title>
<path fill="#b0c4d8" d="M13.636 22.909l-0.382 0.764c-0.109 0.164-0.273 0.327-0.491 0.327h-1.527c-0.218 0-0.382-0.109-0.491-0.327l-0.382-0.764h3.273z"></path>
<path fill="#ffe27a" d="M12 0c4.2 0 7.636 3.382 7.636 7.527 0 2.345-1.036 4.527-2.836 5.836-1.473 1.091-2.073 2.509-2.073 4.091h-5.455c0-1.582-0.655-3-2.073-4.091-1.8-1.309-2.836-3.491-2.836-5.836 0-4.145 3.436-7.527 7.636-7.527z"></path>
<path fill="#ffeda9" d="M10.091 15.273c-0.218 0-0.382-0.109-0.491-0.273-0.382-0.764-0.982-1.418-1.745-2.018-0.218-0.164-0.273-0.545-0.109-0.764s0.545-0.273 0.764-0.109c0.873 0.655 1.582 1.473 2.073 2.4 0.164 0.273 0.055 0.6-0.218 0.709-0.109 0.055-0.218 0.055-0.273 0.055z"></path>
<path fill="#fffcd5" d="M8.727 3.164c-0.164 0-0.327-0.109-0.436-0.273-0.164-0.273-0.109-0.6 0.164-0.764 1.036-0.655 2.291-1.036 3.545-1.036 0.327 0 0.545 0.218 0.545 0.545s-0.218 0.545-0.545 0.545c-1.036 0-2.073 0.327-3 0.873-0.055 0.055-0.164 0.109-0.273 0.109z"></path>
<path fill="#fffcd5" d="M6.982 4.909c-0.109 0-0.218-0.055-0.273-0.109-0.273-0.164-0.327-0.491-0.164-0.764 0.109-0.218 0.273-0.382 0.436-0.6 0.218-0.218 0.545-0.273 0.764-0.055s0.273 0.545 0.055 0.764c-0.109 0.164-0.273 0.327-0.382 0.491s-0.273 0.273-0.436 0.273z"></path>
<path fill="#ffcb5b" d="M15.273 0.764c1.691 1.582 2.182 3.873 2.182 6.327 0 2.673-1.255 5.018-3.273 6.545-1.364 1.036-0.327 2.345-0.545 3.818h1.091c0-1.582 0.655-3 2.073-4.091 1.745-1.309 2.836-3.491 2.836-5.836 0-3-1.8-5.564-4.364-6.764z"></path>
<path fill="#c4d7e5" d="M14.727 22.909h-5.455c-0.327 0-0.545-0.218-0.545-0.545v-4.364c0-0.327 0.218-0.545 0.545-0.545h5.455c0.327 0 0.545 0.218 0.545 0.545v4.364c0 0.327-0.218 0.545-0.545 0.545z"></path>
<path fill="#b0c9db" d="M14.727 17.455h-2.182c0.327 0 0.545 0.218 0.545 0.545v4.364c0 0.327-0.218 0.545-0.545 0.545h2.182c0.327 0 0.545-0.218 0.545-0.545v-4.364c0-0.327-0.218-0.545-0.545-0.545z"></path>
<path fill="#d5e3ef" d="M9.273 22.909h0.545c-0.327 0-0.545-0.218-0.545-0.545v-4.364c0-0.327 0.218-0.545 0.545-0.545h-0.545c-0.327 0-0.545 0.218-0.545 0.545v4.364c0 0.327 0.218 0.545 0.545 0.545z"></path>
<path fill="#99b4cd" d="M15.273 18h-4.091c-0.164 0-0.273 0.109-0.273 0.273s0.109 0.273 0.273 0.273h4.091v-0.545z"></path>
<path fill="#82a7c4" d="M13.091 18h2.182v0.545h-2.182v-0.545z"></path>
<path fill="#99b4cd" d="M15.273 20.182h-5.182c-0.164 0-0.273 0.109-0.273 0.273s0.109 0.273 0.273 0.273h5.182v-0.545z"></path>
<path fill="#82a7c4" d="M13.091 20.182h2.182v0.545h-2.182v-0.545z"></path>
<path fill="#99b4cd" d="M8.727 19.636h5.182c0.164 0 0.273-0.109 0.273-0.273s-0.109-0.273-0.273-0.273h-5.182v0.545z"></path>
<path fill="#b0c4d9" d="M8.727 19.091h0.545v0.545h-0.545v-0.545z"></path>
<path fill="#99b4cd" d="M8.727 21.818h4.091c0.164 0 0.273-0.109 0.273-0.273s-0.109-0.273-0.273-0.273h-4.091v0.545z"></path>
<path fill="#b0c4d9" d="M8.727 21.273h0.545v0.545h-0.545v-0.545z"></path>
<path fill="#99b4cd" d="M13.636 22.909h-3.273l0.273 0.545h1.636l-0.109 0.218c-0.109 0.164-0.273 0.327-0.491 0.327h1.091c0.218 0 0.382-0.109 0.491-0.327l0.382-0.764z"></path>
<path fill="#f19920" d="M12.545 11.455c0 0.301-0.244 0.545-0.545 0.545s-0.545-0.244-0.545-0.545c0-0.301 0.244-0.545 0.545-0.545s0.545 0.244 0.545 0.545z"></path>
<path fill="#f19920" d="M12.545 9.818h-1.091l-0.545-4.364h2.182z"></path>
</svg>
