<!-- Generated by IcoMoon.io -->
<svg version="1.1" xmlns="http://www.w3.org/2000/svg" width="24" height="24" viewBox="0 0 24 24">
<title>key</title>
<path fill="#f6b545" d="M8.945 16.691l4.145-4.145-1.636-1.636-11.127 11.127c-0.218 0.218-0.327 0.491-0.327 0.818 0 0.655 0.491 1.145 1.145 1.145 0.327 0 0.6-0.109 0.818-0.327l1.091-1.091c0.436-0.436 1.091-0.436 1.527 0l0.545 0.545c0.218 0.218 0.491 0.327 0.818 0.327 0.655 0 1.145-0.491 1.145-1.145 0-0.327-0.109-0.6-0.327-0.818l-0.764-0.764 1.091-1.091 1.855 1.855c0.218 0.218 0.491 0.327 0.818 0.327 0.655 0 1.145-0.491 1.145-1.145 0-0.327-0.109-0.6-0.327-0.818l-1.636-1.636c-0.436-0.436-0.436-1.091-0-1.527z"></path>
<path fill="#e78825" d="M3.055 22.582c0.436-0.436 1.091-0.436 1.527 0l0.545 0.545c0.218 0.218 0.491 0.327 0.818 0.327 0.655 0 1.145-0.491 1.145-1.145 0-0.327-0.109-0.6-0.327-0.818l-0.764-0.764 1.091-1.091 1.855 1.855c0.218 0.218 0.491 0.327 0.818 0.327 0.655 0 1.145-0.491 1.145-1.145 0-0.327-0.109-0.6-0.327-0.818l-1.636-1.636c-0.436-0.436-0.436-1.091 0-1.527l-5.891 5.891z"></path>
<path fill="#f19920" d="M12.273 11.727l-0.818-0.818-0.164 0.164c-0.218 0.218-0.218 0.545 0 0.764l0.055 0.055c0.218 0.218 0.218 0.545 0 0.764l-11.018 11.018c0.218 0.218 0.491 0.327 0.818 0.327s0.6-0.109 0.818-0.327l11.127-11.127-0.818-0.818z"></path>
<path fill="#f19920" d="M6.764 23.127c0.218-0.218 0.327-0.491 0.327-0.818s-0.109-0.6-0.327-0.818l-0.764-0.764-0.436 0.436c-0.218 0.218-0.218 0.545 0 0.764l1.2 1.2z"></path>
<path fill="#f19920" d="M10.582 21.491c0.218-0.218 0.327-0.491 0.327-0.818s-0.109-0.6-0.327-0.818l-1.636-1.636c-0.055-0.055-0.164-0.164-0.164-0.273l-0.491 0.491c-0.218 0.218-0.218 0.545 0 0.764l2.291 2.291z"></path>
<path fill="#f6b545" d="M24 4.364c0-2.4-1.964-4.364-4.364-4.364-1.582 0-2.945 0.818-3.709 2.073-0.545-0.273-1.091-0.436-1.745-0.436-2.127 0-3.818 1.691-3.818 3.818 0 1.2 0.545 2.236 1.418 2.945l-0.491 0.491c-0.218 0.218-0.382 0.6-0.382 0.927s0.164 0.709 0.382 0.927l1.964 1.964c0.273 0.273 0.6 0.382 0.927 0.382s0.709-0.164 0.927-0.382l0.491-0.491c0.709 0.873 1.745 1.418 2.945 1.418 2.127 0 3.818-1.691 3.818-3.818 0-0.655-0.164-1.2-0.436-1.745 1.254-0.764 2.073-2.127 2.073-3.709zM19.636 6c-0.927 0-1.636-0.709-1.636-1.636s0.709-1.636 1.636-1.636c0.927 0 1.636 0.709 1.636 1.636s-0.709 1.636-1.636 1.636z"></path>
<path fill="#f19920" d="M14.727 9.818c0-0.218 0-0.382 0.055-0.6-0.218 0.055-0.382 0.055-0.6 0.055-0.927 0-1.745-0.327-2.4-0.873l-0.491 0.491c0 0.055 0 0.055 0 0.109 0.436 0.327 1.2 0.6 1.909 0.709 0.382 0.055 0.545 0.545 0.273 0.818l-0.818 0.818c-0.218 0.218-0.218 0.545 0 0.764l0.6 0.6c0.273 0.273 0.6 0.382 0.927 0.382s0.709-0.164 0.927-0.382l0.491-0.491c-0.545-0.655-0.873-1.473-0.873-2.4z"></path>
<path fill="#f19920" d="M24 4.364c0-1.364-0.6-2.564-1.582-3.327 0.655 0.764 1.036 1.691 1.036 2.782 0 1.582-0.818 2.945-2.073 3.709 0.273 0.545 0.436 1.145 0.436 1.745 0 2.127-1.691 3.818-3.818 3.818-0.927 0-1.745-0.327-2.4-0.873 0.709 0.873 1.745 1.418 2.945 1.418 2.127 0 3.818-1.691 3.818-3.818 0-0.655-0.164-1.2-0.436-1.745 1.255-0.764 2.073-2.127 2.073-3.709z"></path>
<path fill="#ffcb5b" d="M11.182 5.455c-0.164 0-0.273-0.109-0.273-0.273 0-1.636 1.364-3 3-3 0.164 0 0.273 0.109 0.273 0.273s-0.109 0.273-0.273 0.273c-1.364 0-2.455 1.091-2.455 2.455 0 0.164-0.109 0.273-0.273 0.273z"></path>
<path fill="#f19920" d="M18.218 2.673c-0.109 0.109-0.218 0.164-0.273 0.273-0.545 0.655-0.545 1.582 0.109 2.127 0.055 0.055 0.109 0.109 0.164 0.109-0.218-0.327-0.273-0.818-0.109-1.364 0.164-0.491 0.545-0.873 1.036-1.036 0.491-0.109 0.982-0.055 1.364 0.164-0.055-0.055-0.055-0.109-0.109-0.164-0.545-0.6-1.527-0.6-2.182-0.109z"></path>
<path fill="#ffcb5b" d="M14.073 8.727c-0.655 0-1.255-0.218-1.745-0.6-0.109-0.109-0.164-0.273-0.055-0.382s0.273-0.164 0.382-0.055c0.491 0.382 1.145 0.545 1.8 0.436 0.164 0 0.273 0.055 0.327 0.218 0 0.164-0.055 0.273-0.218 0.327-0.218 0.055-0.327 0.055-0.491 0.055z"></path>
<path fill="#ffcb5b" d="M16.636 2.727c-0.055 0-0.109 0-0.164-0.055-0.109-0.055-0.164-0.273-0.109-0.382 0.436-0.655 1.091-1.145 1.8-1.418 0.164-0.055 0.273 0 0.327 0.164s0 0.273-0.164 0.327c-0.6 0.218-1.145 0.655-1.473 1.2-0.055 0.109-0.109 0.164-0.218 0.164z"></path>
</svg>
