<!-- Generated by IcoMoon.io -->
<svg version="1.1" xmlns="http://www.w3.org/2000/svg" width="24" height="24" viewBox="0 0 24 24">
<title>lifebuoy</title>
<path fill="#c97629" d="M19.636 23.455h-15.273c-2.127 0-3.818-1.691-3.818-3.818v-15.273c0-2.127 1.691-3.818 3.818-3.818h15.273c2.127 0 3.818 1.691 3.818 3.818v15.273c0 2.127-1.691 3.818-3.818 3.818zM4.364 1.636c-1.527 0-2.727 1.2-2.727 2.727v15.273c0 1.527 1.2 2.727 2.727 2.727h15.273c1.527 0 2.727-1.2 2.727-2.727v-15.273c0-1.527-1.2-2.727-2.727-2.727h-15.273z"></path>
<path fill="#b06328" d="M7.8 22.364c1.418 0.709 3.055 1.091 4.745 1.091s3.273-0.382 4.745-1.091h-9.491z"></path>
<path fill="#b06328" d="M22.364 17.291c0.709-1.418 1.091-3.055 1.091-4.745s-0.382-3.273-1.091-4.745v9.491z"></path>
<path fill="#f6b545" d="M22.364 13.091h1.091c0.327 0 0.545-0.218 0.545-0.545v-1.091c0-0.327-0.218-0.545-0.545-0.545h-1.091v2.182z"></path>
<path fill="#f6b545" d="M1.636 10.909h-1.091c-0.327 0-0.545 0.218-0.545 0.545v1.091c0 0.327 0.218 0.545 0.545 0.545h1.091v-2.182z"></path>
<path fill="#ffcb5b" d="M1.636 11.455v-0.545h-1.091c-0.327-0-0.545 0.218-0.545 0.545v1.091c0 0.327 0.218 0.545 0.545 0.545v-1.636h1.091z"></path>
<path fill="#f6b545" d="M10.909 22.364v1.091c0 0.327 0.218 0.545 0.545 0.545h1.091c0.327 0 0.545-0.218 0.545-0.545v-1.091h-2.182z"></path>
<path fill="#f6b545" d="M13.091 1.636v-1.091c0-0.327-0.218-0.545-0.545-0.545h-1.091c-0.327 0-0.545 0.218-0.545 0.545v1.091h2.182z"></path>
<path fill="#ffcb5b" d="M12.545 0h-1.091c-0.327 0-0.545 0.218-0.545 0.545v0.545c0-0.327 0.218-0.545 0.545-0.545h1.091c0.327 0 0.545 0.218 0.545 0.545v-0.545c0-0.327-0.218-0.545-0.545-0.545z"></path>
<path fill="#f19920" d="M13.091 23.4v-1.036h-2.182v0.982c0.545 0.055 1.091 0.109 1.636 0.109 0.164 0 0.382 0 0.545-0.055z"></path>
<path fill="#f19920" d="M23.345 10.909h-0.982v2.182h1.036c0-0.164 0.055-0.382 0.055-0.545 0-0.545-0.055-1.091-0.109-1.636z"></path>
<path fill="#d5e3ef" d="M12 1.091c-6 0-10.909 4.909-10.909 10.909s4.909 10.909 10.909 10.909 10.909-4.909 10.909-10.909-4.909-10.909-10.909-10.909zM12 17.455c-3 0-5.455-2.455-5.455-5.455s2.455-5.455 5.455-5.455 5.455 2.455 5.455 5.455-2.455 5.455-5.455 5.455z"></path>
<path fill="#b0c4d9" d="M12 6.545v0c0-0.6-0.545-1.091-1.145-0.982-2.673 0.491-4.8 2.618-5.291 5.291-0.109 0.6 0.382 1.145 0.982 1.145v0c0-1.473 0.6-2.836 1.582-3.818 0.982-1.036 2.345-1.636 3.873-1.636z"></path>
<path fill="#ecf0f9" d="M12 1.091v0c-6 0-10.909 4.909-10.909 10.909v0c1.145 0 2.127-0.818 2.4-1.909 0.436-1.8 1.364-3.436 2.727-4.636 1.091-0.927 2.4-1.636 3.818-1.964 1.145-0.273 1.964-1.255 1.964-2.4z"></path>
<path fill="#f04d4e" d="M8.127 8.127c0.6-0.6 1.309-1.036 2.073-1.309l-2.782-4.745c-1.145 0.545-2.182 1.255-3.164 2.182-0.927 0.927-1.636 2.018-2.182 3.164l4.745 2.782c0.273-0.764 0.709-1.473 1.309-2.073z"></path>
<path fill="#f26a56" d="M7.418 2.127c-1.145 0.545-2.182 1.255-3.164 2.182s-1.636 2.018-2.182 3.164l1.909 1.091c0.491-1.2 1.255-2.236 2.236-3.055 0.655-0.6 1.473-1.091 2.291-1.473l-1.091-1.909z"></path>
<path fill="#db343f" d="M5.891 9.655l0.982 0.545c0.273-0.764 0.709-1.473 1.309-2.073s1.309-1.036 2.073-1.309l-0.545-0.982c-1.8 0.709-3.164 2.073-3.818 3.818z"></path>
<path fill="#b0c4d9" d="M20.727 12c0 4.8-3.927 8.727-8.727 8.727-0.982 0-1.964-0.164-2.836-0.491-0.982-0.327-2.073 0.436-2.073 1.473v0c1.636 0.818 3.436 1.255 5.4 1.145 5.564-0.273 10.145-4.855 10.418-10.418 0.109-1.964-0.327-3.764-1.145-5.4v0c-1.091 0-1.855 1.036-1.473 2.073 0.273 0.927 0.436 1.909 0.436 2.891z"></path>
<path fill="#f04d4e" d="M16.582 2.127l-2.782 4.745c0.764 0.273 1.473 0.709 2.073 1.309s1.036 1.309 1.309 2.073l4.745-2.782c-0.545-1.145-1.255-2.182-2.182-3.164s-2.018-1.691-3.164-2.182z"></path>
<path fill="#db343f" d="M21.873 7.418c-0.055-0.109-0.109-0.218-0.164-0.327-0.818 0-1.418 0.6-1.527 1.309l1.691-0.982z"></path>
<path fill="#f04d4e" d="M7.418 21.873l2.782-4.745c-0.764-0.273-1.473-0.709-2.073-1.309s-1.036-1.309-1.309-2.073l-4.745 2.782c0.545 1.145 1.255 2.182 2.182 3.164 0.982 0.982 2.018 1.691 3.164 2.182z"></path>
<path fill="#db343f" d="M7.091 21.709c0.109 0.055 0.218 0.109 0.327 0.164l0.982-1.691c-0.709 0.109-1.309 0.709-1.309 1.527z"></path>
<path fill="#ecf0f9" d="M17.4 12.6c-0.273 2.509-2.345 4.582-4.909 4.855-0.545 0.055-1.091 0-1.636-0.109v0.109c0 0.6 0.491 1.091 1.091 1.091v0c3.6 0 6.545-2.945 6.545-6.545 0-0.218 0-0.436-0.055-0.655-0.055-0.545-0.545-0.982-1.091-0.982h-0.218c0.273 0.709 0.382 1.473 0.273 2.236z"></path>
<path fill="#99b4cd" d="M22.855 13.091v0c-0.6 0-1.145 0.436-1.255 1.036-0.818 3.709-3.764 6.6-7.418 7.418-0.6 0.109-1.036 0.655-1.036 1.255v0c5.073-0.436 9.218-4.582 9.709-9.709z"></path>
<path fill="#f04d4e" d="M15.873 15.873c-0.6 0.6-1.309 1.036-2.073 1.309l2.782 4.745c1.145-0.545 2.182-1.255 3.164-2.182 0.927-0.927 1.636-2.018 2.182-3.164l-4.745-2.782c-0.273 0.764-0.709 1.473-1.309 2.073z"></path>
<path fill="#f26a56" d="M18.109 14.345l-0.982-0.545c-0.273 0.764-0.709 1.473-1.309 2.073s-1.309 1.036-2.073 1.309l0.545 0.982c1.8-0.709 3.164-2.073 3.818-3.818z"></path>
<path fill="#db343f" d="M16.582 21.873c1.145-0.545 2.182-1.255 3.164-2.182s1.636-2.018 2.182-3.164l-1.909-1.091c-0.873 2.018-2.509 3.655-4.527 4.527l1.091 1.909z"></path>
<path fill="#c61c31" d="M20.945 16.036c-0.982 2.182-2.727 3.927-4.909 4.909l0.545 0.927c0.055 0 0.055 0 0.109-0.055 2.291-1.091 4.091-2.945 5.182-5.182 0-0.055 0-0.055 0.055-0.109l-0.982-0.491z"></path>
</svg>
