<svg xmlns="http://www.w3.org/2000/svg" xmlns:xlink="http://www.w3.org/1999/xlink" version="1.1" id="Capa_1" x="0px" y="0px" viewBox="0 0 490.4 490.4" style="enable-background:new 0 0 490.4 490.4;" xml:space="preserve" width="100%" height="100%" ><rect id="svgEditorBackground" x="0" y="0" width="490.3999938964844" height="490.3999938964844" style="fill:none;stroke:none;"/>
<g>
	<g>
		<path d="M245.2,490.4c135.2,0,245.2-110,245.2-245.2S380.4,0,245.2,0S0,110,0,245.2S110,490.4,245.2,490.4z M245.2,24.5    c121.7,0,220.7,99,220.7,220.7s-99,220.7-220.7,220.7s-220.7-99-220.7-220.7S123.5,24.5,245.2,24.5z"/>
		<path d="M185,216.2l48,-48v183.40000000000003c0,6.800000000000011,5.5,12.300000000000011,12.300000000000011,12.300000000000011c6.800000000000011,0,12.300000000000011,-5.5,12.300000000000011,-12.300000000000011v-183.3l48,48c2.3999999999999773,2.4000000000000057,5.5,3.5999999999999943,8.699999999999989,3.5999999999999943s6.300000000000011,-1.1999999999999886,8.699999999999989,-3.5999999999999943c4.800000000000011,-4.800000000000011,4.800000000000011,-12.5,0,-17.30000000000001l-68.9,-68.9c-4.800000000000011,-4.799999999999997,-12.5,-4.799999999999997,-17.30000000000001,0l-68.89999999999998,68.9c-4.800000000000011,4.800000000000011,-4.800000000000011,12.5,0,17.30000000000001c4.5,4.699999999999989,12.299999999999983,4.699999999999989,17.099999999999994,-0.10000000000002274Z" transform="matrix(0.00844904 0.999964 -0.999964 0.00844904 488.567 -2.313)"/>
	</g>
</g>
</svg>
