<svg xmlns="http://www.w3.org/2000/svg" version="1.1" width="14.367346915774078" height="16.16326530842258" style=""><rect id="backgroundrect" width="100%" height="100%" x="0" y="0" fill="none" stroke="none" class="" style=""/>
<title>credit-card</title>

<g class="currentLayer" style=""><title>Layer 1</title><path d="M1.9638420623362662,11.782608328022711 h1.7464505544740305 v-1.4021738767623901 h-1.7464505544740305 v1.4021738767623901 zM4.583517894047313,11.782608328022711 h1.7464505544740305 v-1.4021738767623901 h-1.7464505544740305 v1.4021738767623901 zM5.456743171284328,7.5760866977355406 h-3.492901108948061 v1.4021738767623901 h3.492901108948061 v-1.4021738767623901 zM3.710292616810297,6.17391282097315 h0.8732252772370155 l1.7464505544740305,-2.8043477535247803 h-0.8732252772370155 l-1.7464505544740305,2.8043477535247803 zM6.329968448521343,8.97826057449793 h2.6196758317110462 v-1.4021738767623901 h-2.6196758317110462 v1.4021738767623901 zM13.315770666417466,0.5652173139235896 c-0.43661263861850796,0 -11.788541242699706,0 -12.225153881318215,0 s-0.8732252772370155,0.7010869383811955 -0.8732252772370155,1.4021738767623901 s0,10.516304075717926 0,11.217391014099121 s0.43661263861850796,1.4021738767623901 0.8732252772370155,1.4021738767623901 s11.788541242699706,0 12.225153881318215,0 s0.8732252772370155,-0.7010869383811955 0.8732252772370155,-1.4021738767623901 s0,-10.516304075717926 0,-11.217391014099121 s-0.43661263861850796,-1.4021738767623901 -0.8732252772370155,-1.4021738767623901 zM13.315770666417466,6.17391282097315 v6.309782445430756 s0,0.7010869383811955 -0.43661263861850796,0.7010869383811955 h-11.351928604081198 c-0.43661263861850796,0 -0.43661263861850796,-0.7010869383811955 -0.43661263861850796,-0.7010869383811955 v-6.309782445430756 h0.8732252772370155 l1.7464505544740305,-2.8043477535247803 h-2.6196758317110462 v-0.7010869383811955 s0,-0.7010869383811955 0.43661263861850796,-0.7010869383811955 h11.351928604081198 c0.43661263861850796,0 0.43661263861850796,0.7010869383811955 0.43661263861850796,0.7010869383811955 v0.7010869383811955 h-5.2393516634220925 l-1.7464505544740305,2.8043477535247803 h6.985802217896122 z" id="svg_1" class=""/><polyline fill="" stroke-dashoffset="" fill-rule="nonzero" marker-start="" marker-mid="" marker-end="" id="svg_3" points="4.132104289454375,0.021741499051085356 4.0234086334956345,-0.30434546882514013 3.806017321578153,-0.6304324367013621 3.5886260096606573,-1.1739107164950724 3.479930353701917,-1.6086933403300385 3.3712346977431764,-2.0434759641650047 3.2625390417844358,-2.1521716201237453 3.2625390417844358,-2.36956293204123 3.2625390417844358,-2.478258587999971 3.2625390417844358,-2.695649899917452 3.153843385825695,-2.8043455558761963 3.153843385825695,-3.0217368677936776 3.153843385825695,-3.1304325237524218 3.153843385825695,-3.2391281797111624 3.153843385825695,-3.347823835669903 3.153843385825695,-3.4565194916286437 3.153843385825695,-3.5652151475873874 " style="color: rgb(0, 0, 0);" class=""/><path fill="" fill-opacity="1" stroke="none" stroke-opacity="1" stroke-width="1" stroke-dasharray="none" stroke-linejoin="miter" stroke-linecap="butt" stroke-dashoffset="" fill-rule="nonzero" opacity="1" marker-start="" marker-mid="" marker-end="" id="svg_4" d="M 13.525743283393288 11.132653674875908 C 13.525743283393288 11.214286329087205 -10.310991746305042 7.295918926945011 -10.285714285714286 7.26530612244898" style="color: rgb(0, 0, 0);"/></g></svg>