<!-- Generated by IcoMoon.io -->
<svg version="1.1" xmlns="http://www.w3.org/2000/svg" width="24" height="24" viewBox="0 0 24 24">
<title>medal</title>
<path fill="#f04b4d" d="M15.908 14.51v9.49l-3.908-2.233-3.908 2.233v-9.49z"></path>
<path fill="#de333f" d="M12 14.51h3.908v1.786c-0.279 0.167-0.502 0.391-0.614 0.67v0c-0.447 0.893-1.563 1.172-2.4 0.614-0.279-0.167-0.614-0.279-0.893-0.279v4.41l-3.908 2.233v-9.434h3.908z"></path>
<path fill="#ffcb5b" d="M12.893 0.275v0c0.837-0.502 1.954-0.223 2.4 0.614v0c0.279 0.558 0.893 0.949 1.563 0.893v0c1.005-0.056 1.786 0.782 1.731 1.731v0c-0.056 0.67 0.335 1.284 0.893 1.563v0c0.893 0.447 1.172 1.563 0.614 2.4v0c-0.335 0.558-0.335 1.228 0 1.786v0c0.502 0.837 0.223 1.954-0.614 2.4v0c-0.558 0.279-0.949 0.893-0.893 1.563v0c0.056 1.005-0.782 1.786-1.731 1.731v0c-0.67-0.056-1.284 0.335-1.563 0.893v0c-0.447 0.893-1.563 1.172-2.4 0.614v0c-0.558-0.335-1.228-0.335-1.786 0v0c-0.837 0.502-1.954 0.223-2.4-0.614v0c-0.279-0.558-0.893-0.949-1.563-0.893v0c-1.005 0.056-1.786-0.782-1.731-1.731v0c0.056-0.67-0.335-1.284-0.893-1.563v0c-0.893-0.447-1.172-1.563-0.614-2.4v0c0.335-0.558 0.335-1.228 0-1.786v0c-0.502-0.837-0.223-1.954 0.614-2.4v0c0.558-0.279 0.949-0.893 0.893-1.563v0c-0.056-1.005 0.782-1.786 1.731-1.731v0c0.67 0.056 1.284-0.335 1.563-0.893v0c0.447-0.837 1.563-1.172 2.4-0.614v0c0.558 0.335 1.228 0.335 1.786 0z"></path>
<path fill="#f19920" d="M17.582 8.369c0 3.083-2.499 5.582-5.582 5.582s-5.582-2.499-5.582-5.582c0-3.083 2.499-5.582 5.582-5.582s5.582 2.499 5.582 5.582z"></path>
<path fill="#f6b545" d="M12 1.671c-3.684 0-6.699 3.014-6.699 6.699s3.014 6.699 6.699 6.699 6.699-3.014 6.699-6.699-3.015-6.699-6.699-6.699zM12 13.952c-3.070 0-5.582-2.512-5.582-5.582s2.512-5.582 5.582-5.582 5.582 2.512 5.582 5.582-2.512 5.582-5.582 5.582z"></path>
<path fill="#ffe27a" d="M16.857 1.782c-0.67 0.056-1.284-0.335-1.563-0.893v0c-0.056-0.056-0.112-0.167-0.167-0.223l-10.216 11.276c0.335 0.335 0.558 0.782 0.502 1.284v0c0 0.335 0.056 0.67 0.223 0.949l11.276-12.393c-0.056 0-0.056 0-0.056 0z"></path>
<path fill="#f6b545" d="M6.641 9.988c0.223 0.726 0.558 1.34 1.061 1.954l7.425-8.206c-0.614-0.391-1.284-0.67-2.010-0.837l-6.476 7.090z"></path>
<path fill="#ffcb5b" d="M6.92 12.779l0.726-0.837c-0.447-0.558-0.837-1.228-1.061-1.954l-0.837 0.949c0.335 0.67 0.726 1.284 1.172 1.842z"></path>
<path fill="#ffcb5b" d="M13.116 2.899c0.726 0.167 1.396 0.447 2.010 0.837l0.782-0.837c-0.558-0.391-1.228-0.726-1.898-0.949l-0.893 0.949z"></path>
<path fill="#ffe27a" d="M19.48 5.076c-0.558-0.279-0.949-0.893-0.893-1.563v0c0.056-0.614-0.279-1.172-0.782-1.507l-11.555 12.728c0.279 0.167 0.558 0.223 0.893 0.223 0.67-0.056 1.284 0.335 1.563 0.893v0c0.112 0.223 0.279 0.447 0.502 0.558l10.271-11.332z"></path>
<path fill="#f6b545" d="M11.442 13.952l6.029-6.587c-0.223-1.172-0.837-2.233-1.675-3.014l-7.536 8.15c0.893 0.782 2.010 1.284 3.182 1.451z"></path>
<path fill="#ffcb5b" d="M11.442 13.952c-1.228-0.112-2.345-0.614-3.182-1.396l-0.726 0.782c0.837 0.782 1.898 1.34 3.070 1.563l0.837-0.949z"></path>
<path fill="#ffcb5b" d="M16.522 3.457l-0.726 0.837c0.837 0.782 1.451 1.842 1.675 3.014l0.893-1.005c-0.335-1.116-1.005-2.065-1.842-2.847z"></path>
<path fill="#ffeda9" d="M13.954 11.719c-0.056 0-0.056 0-0.112 0l-1.842-1.061-1.842 1.005c-0.056 0.056-0.167 0.056-0.223 0s-0.112-0.112-0.056-0.223l0.335-2.177-1.507-1.507c-0.056 0-0.056-0.112-0.056-0.167s0.112-0.112 0.167-0.167l2.066-0.335 0.949-1.954c0.056-0.056 0.112-0.112 0.167-0.112v0c0.056 0 0.167 0.056 0.167 0.112l0.949 1.954 2.066 0.335c0.056 0 0.167 0.056 0.167 0.167 0 0.056 0 0.167-0.056 0.223l-1.507 1.507 0.335 2.177c0 0.056 0 0.167-0.056 0.223-0.056 0-0.056 0-0.112 0z"></path>
<path fill="#fffcd5" d="M12.167 5.132c-0.056-0.056-0.112-0.112-0.167-0.112s-0.167 0.056-0.167 0.112l-0.949 1.954-1.842 0.279-0.335 0.391c0 0 0 0 0 0.056l1.451 1.451 2.624-2.903-0.614-1.228z"></path>
<path fill="#fffcd5" d="M13.786 9.318l1.507-1.507c0.056-0.056 0.056-0.167 0.056-0.223s-0.112-0.112-0.167-0.167l-1.954-0.279-3.182 3.517-0.167 0.782c0 0.056 0 0.167 0.056 0.223s0.167 0.056 0.223 0l1.842-1.005 1.619 0.893 0.447-0.502-0.279-1.731z"></path>
</svg>
