<!-- Generated by IcoMoon.io -->
<svg version="1.1" xmlns="http://www.w3.org/2000/svg" width="24" height="24" viewBox="0 0 24 24">
<title>megaphone</title>
<path fill="#0261a5" d="M4.909 17.993h1.636c0.327 0 0.545-0.218 0.545-0.545v-1.091h-2.182v1.636z"></path>
<path fill="#99b4cd" d="M21.818 9.811c1.2 0 2.182 0.982 2.182 2.182s-0.982 2.182-2.182 2.182v-4.364z"></path>
<path fill="#6c9abb" d="M21.818 13.084v1.091c1.2 0 2.182-0.982 2.182-2.182 0-0.164-0.055-0.382-0.055-0.545-0.273 0.927-1.091 1.636-2.127 1.636z"></path>
<path fill="#d5e3ef" d="M1.636 14.175h-1.091c-0.327 0-0.545-0.218-0.545-0.545v-3.273c0-0.327 0.218-0.545 0.545-0.545h1.091v4.364z"></path>
<path fill="#b0c4d9" d="M1.091 9.811v2.182c0 0.327-0.218 0.545-0.545 0.545h-0.545v1.091c0 0.327 0.218 0.545 0.545 0.545h1.091v-4.364h-0.545z"></path>
<path fill="#4c9cd6" d="M9.273 16.357h-7.091c-0.327 0-0.545-0.218-0.545-0.545v-7.636c0-0.327 0.218-0.545 0.545-0.545h7.091c0.327 0 0.545 0.218 0.545 0.545v7.636c0 0.327-0.218 0.545-0.545 0.545z"></path>
<path fill="#3689c9" d="M9.273 7.629v0c-0.327 0-0.545 0.218-0.545 0.545v4.909c0 0.327-0.218 0.545-0.545 0.545h-6c-0.327 0-0.545 0.218-0.545 0.545v1.636c0 0.327 0.218 0.545 0.545 0.545h7.091c0.327 0 0.545-0.218 0.545-0.545v-7.636c0-0.327-0.218-0.545-0.545-0.545z"></path>
<path fill="#d5e3ef" d="M19.636 19.629l-0.109-0.109c-2.564-2.727-6.055-4.255-9.709-4.255v0-6.545c3.655 0 7.145-1.527 9.709-4.255l0.109-0.109v15.273z"></path>
<path fill="#fff" d="M15 8.993c-0.109 0-0.218-0.055-0.273-0.164-0.055-0.164 0.055-0.273 0.164-0.327 1.309-0.436 2.564-1.2 3.545-2.236 0.109-0.109 0.273-0.109 0.382 0s0.109 0.273 0 0.382c-1.036 1.091-2.345 1.964-3.764 2.4 0-0.055 0-0.055-0.055-0.055z"></path>
<path fill="#b0c4d9" d="M10.909 12.538v-2.782c0-0.6-0.491-1.036-1.091-1.036v0 6.545c3.655 0 7.145 1.527 9.709 4.255l0.109 0.109v-3.6c-2.182-1.745-4.855-2.291-7.691-2.345-0.6-0.055-1.036-0.545-1.036-1.145z"></path>
<path fill="#4c9cd6" d="M20.727 20.72v0c-0.6 0-1.091-0.491-1.091-1.091v-15.273c0-0.6 0.491-1.091 1.091-1.091v0c0.6 0 1.091 0.491 1.091 1.091v15.273c0 0.6-0.491 1.091-1.091 1.091z"></path>
<path fill="#3689c9" d="M4.473 20.72v0c-0.382 0-0.655-0.273-0.655-0.655v-3.709h2.727l-1.473 3.927c-0.109 0.273-0.327 0.436-0.6 0.436z"></path>
<path fill="#1470b8" d="M3.818 16.357v0.545h0.273c0.709 0 1.2 0.655 1.091 1.309l-0.545 2.455c0.164-0.055 0.327-0.218 0.382-0.382l1.527-3.927h-2.727z"></path>
<path fill="#3689c9" d="M20.727 3.266v14.727c0 0.6-0.491 1.091-1.091 1.091v0 0.491c0 0.545 0.382 1.036 0.927 1.145 0.709 0.109 1.255-0.436 1.255-1.091v-15.273c0-0.6-0.491-1.091-1.091-1.091z"></path>
<path fill="#70b7e5" d="M20.182 12.538v0c-0.327 0-0.545-0.218-0.545-0.545v-6.545c0-0.327 0.218-0.545 0.545-0.545v0c0.327 0 0.545 0.218 0.545 0.545v6.545c0 0.327-0.218 0.545-0.545 0.545z"></path>
<path fill="#1470b8" d="M21.273 19.084v0c-0.327 0-0.545-0.218-0.545-0.545v-3.818c0-0.327 0.218-0.545 0.545-0.545v0c0.327 0 0.545 0.218 0.545 0.545v3.818c0 0.327-0.218 0.545-0.545 0.545z"></path>
<path fill="#1470b8" d="M4.091 10.357h3.273c0.164 0 0.273 0.109 0.273 0.273v0c0 0.164-0.109 0.273-0.273 0.273h-3.273c-0.164 0-0.273-0.109-0.273-0.273v0c0-0.164 0.109-0.273 0.273-0.273z"></path>
<path fill="#70b7e5" d="M2.455 8.175h3.273c0.164 0 0.273 0.109 0.273 0.273v0c0 0.164-0.109 0.273-0.273 0.273h-3.273c-0.164 0-0.273-0.109-0.273-0.273v0c-0-0.164 0.109-0.273 0.273-0.273z"></path>
<path fill="#1470b8" d="M4.091 11.448h3.273c0.164 0 0.273 0.109 0.273 0.273v0c0 0.164-0.109 0.273-0.273 0.273h-3.273c-0.164 0-0.273-0.109-0.273-0.273v0c0-0.164 0.109-0.273 0.273-0.273z"></path>
<path fill="#1470b8" d="M4.091 12.538h3.273c0.164 0 0.273 0.109 0.273 0.273v0c0 0.164-0.109 0.273-0.273 0.273h-3.273c-0.164 0-0.273-0.109-0.273-0.273v0c0-0.164 0.109-0.273 0.273-0.273z"></path>
<path fill="#70b7e5" d="M6.818 8.72v0c-0.164 0-0.273-0.109-0.273-0.273v0c0-0.164 0.109-0.273 0.273-0.273v0c0.164 0 0.273 0.109 0.273 0.273v0c0 0.164-0.109 0.273-0.273 0.273z"></path>
</svg>
