<!-- Generated by IcoMoon.io -->
<svg version="1.1" xmlns="http://www.w3.org/2000/svg" width="24" height="24" viewBox="0 0 24 24">
<title>microscope</title>
<path fill="#99b4cd" d="M17.455 19.091h-10.364c-0.327 0-0.545-0.218-0.545-0.545s0.218-0.545 0.545-0.545h10.364c0.327 0 0.545 0.218 0.545 0.545s-0.218 0.545-0.545 0.545z"></path>
<path fill="#6c9abb" d="M7.091 19.091h10.364c0.327 0 0.545-0.218 0.545-0.545h-11.455c0 0.327 0.218 0.545 0.545 0.545z"></path>
<path fill="#3689c9" d="M14.182 7.636h-1.091v2.182h1.091c1.8 0 3.273 1.473 3.273 3.273v4.364h-1.636c-0.327 0-0.545 0.218-0.545 0.545v1.091c0 0.327 0.218 0.545 0.545 0.545h1.636v1.091h-12c-0.6 0-1.091 0.491-1.091 1.091v1.636c0 0.327 0.218 0.545 0.545 0.545h14.182c0.327 0 0.545-0.218 0.545-0.545v-10.364c0-3-2.455-5.455-5.455-5.455z"></path>
<path fill="#1470b8" d="M18.545 19.636v-6.545c0-2.4-1.964-4.364-4.364-4.364h-1.091v1.091h1.091c1.8 0 3.273 1.473 3.273 3.273v5.455h-1.091c-0.327 0-0.545 0.218-0.545 0.545v0.545h1.636v1.091h2.182v-0.545l-1.091-0.545z"></path>
<path fill="#4c9cd6" d="M13.091 13.091v-9.273c0-0.6-0.491-1.091-1.091-1.091h-4.364c-0.6 0-1.091 0.491-1.091 1.091v9.273h6.545z"></path>
<path fill="#3689c9" d="M13.091 13.091h-2.182v-10.364h1.091c0.6 0 1.091 0.491 1.091 1.091v9.273z"></path>
<path fill="#70b7e5" d="M8.182 4.091v3.818c0 0.164-0.109 0.273-0.273 0.273v0c-0.164 0-0.273-0.109-0.273-0.273v-3.818c0-0.164 0.109-0.273 0.273-0.273v0c0.164 0 0.273 0.109 0.273 0.273z"></path>
<path fill="#70b7e5" d="M7.636 9v0c0-0.164 0.109-0.273 0.273-0.273v0c0.164 0 0.273 0.109 0.273 0.273v0c0 0.164-0.109 0.273-0.273 0.273v0c-0.164 0-0.273-0.109-0.273-0.273z"></path>
<path fill="#d5e3ef" d="M8.182 0.545h3.273v2.182h-3.273v-2.182z"></path>
<path fill="#4c9cd6" d="M11.455 1.091h-3.273c-0.327 0-0.545-0.218-0.545-0.545s0.218-0.545 0.545-0.545h3.273c0.327 0 0.545 0.218 0.545 0.545s-0.218 0.545-0.545 0.545z"></path>
<path fill="#d5e3ef" d="M13.091 13.091h-6.545l0.927 1.855c0.109 0.164 0.273 0.327 0.491 0.327h3.709c0.218 0 0.382-0.109 0.491-0.327l0.927-1.855z"></path>
<path fill="#b0c4d9" d="M8.182 1.091v0.545h1.091c0.6 0 1.091 0.491 1.091 1.091v0h1.091v-1.636h-3.273z"></path>
<path fill="#1470b8" d="M13.091 7.636v2.182h1.091c0.055 0 0.055 0 0.109 0 0.273-0.273 0.436-0.655 0.436-1.091s-0.164-0.818-0.436-1.091c-0.055 0-0.109 0-0.109 0h-1.091z"></path>
<path fill="#4c9cd6" d="M14.182 8.727c0 0.904-0.733 1.636-1.636 1.636s-1.636-0.733-1.636-1.636c0-0.904 0.733-1.636 1.636-1.636s1.636 0.733 1.636 1.636z"></path>
<path fill="#d5e3ef" d="M13.091 8.727c0 0.301-0.244 0.545-0.545 0.545s-0.545-0.244-0.545-0.545c0-0.301 0.244-0.545 0.545-0.545s0.545 0.244 0.545 0.545z"></path>
<path fill="#1470b8" d="M4.909 24h14.182c0.327 0 0.545-0.218 0.545-0.545h-15.273c0 0.327 0.218 0.545 0.545 0.545z"></path>
<path fill="#b0c4d9" d="M10.909 13.091l-0.327 1.2c-0.055 0.218-0.273 0.436-0.545 0.436h-2.727l0.109 0.218c0.109 0.164 0.273 0.327 0.491 0.327h3.764c0.218 0 0.382-0.109 0.491-0.327l0.927-1.855h-2.182z"></path>
<path fill="#4c9cd6" d="M9 21.818h-3.273c-0.164 0-0.273-0.109-0.273-0.273v0c0-0.164 0.109-0.273 0.273-0.273h3.273c0.164 0 0.273 0.109 0.273 0.273v0c0 0.164-0.109 0.273-0.273 0.273z"></path>
<path fill="#4c9cd6" d="M11.182 21.818h-1.091c-0.164 0-0.273-0.109-0.273-0.273v0c0-0.164 0.109-0.273 0.273-0.273h1.091c0.164 0 0.273 0.109 0.273 0.273v0c0 0.164-0.109 0.273-0.273 0.273z"></path>
<path fill="#3689c9" d="M8.182 1.091h3.273c0.327 0 0.545-0.218 0.545-0.545h-4.364c0 0.327 0.218 0.545 0.545 0.545z"></path>
</svg>
