<!-- Generated by IcoMoon.io -->
<svg version="1.1" xmlns="http://www.w3.org/2000/svg" width="24" height="24" viewBox="0 0 24 24">
<title>money-bag</title>
<path fill="#f6b545" d="M12.545 23.455h-12c-0.327 0-0.545-0.218-0.545-0.545v-1.091c0-0.327 0.218-0.545 0.545-0.545h12c0.327 0 0.545 0.218 0.545 0.545v1.091c0 0.327-0.218 0.545-0.545 0.545z"></path>
<path fill="#ffcb5b" d="M10.364 21.818h-10.364c0-0.327 0.218-0.545 0.545-0.545h9.818v0.545z"></path>
<path fill="#f19920" d="M10.364 21.818v0.545c0 0.327-0.218 0.545-0.545 0.545h-9.818c0 0.327 0.218 0.545 0.545 0.545h12c0.327 0 0.545-0.218 0.545-0.545v-1.091h-2.727z"></path>
<path fill="#f19920" d="M1.636 22.909v-0.818c0-0.164-0.109-0.273-0.273-0.273s-0.273 0.109-0.273 0.273v0.818z"></path>
<path fill="#f19920" d="M3.273 22.909v-0.818c0-0.164-0.109-0.273-0.273-0.273s-0.273 0.109-0.273 0.273v0.818z"></path>
<path fill="#f19920" d="M4.909 22.909v-0.818c0-0.164-0.109-0.273-0.273-0.273s-0.273 0.109-0.273 0.273v0.818z"></path>
<path fill="#f19920" d="M6.545 22.909v-0.818c0-0.164-0.109-0.273-0.273-0.273s-0.273 0.109-0.273 0.273v0.818z"></path>
<path fill="#f19920" d="M8.182 22.909v-0.818c0-0.164-0.109-0.273-0.273-0.273s-0.273 0.109-0.273 0.273v0.818z"></path>
<path fill="#f19920" d="M9.818 22.909v-0.818c0-0.164-0.109-0.273-0.273-0.273s-0.273 0.109-0.273 0.273v0.818z"></path>
<path fill="#f6b545" d="M13.636 21.273h-12c-0.327 0-0.545-0.218-0.545-0.545v-1.091c0-0.327 0.218-0.545 0.545-0.545h12c0.327 0 0.545 0.218 0.545 0.545v1.091c0 0.327-0.218 0.545-0.545 0.545z"></path>
<path fill="#ffcb5b" d="M11.455 19.636h-10.364c0-0.327 0.218-0.545 0.545-0.545h9.818v0.545z"></path>
<path fill="#f19920" d="M11.455 19.636v0.545c0 0.327-0.218 0.545-0.545 0.545h-9.818c0 0.327 0.218 0.545 0.545 0.545h12c0.327 0 0.545-0.218 0.545-0.545v-1.091h-2.727z"></path>
<path fill="#f19920" d="M2.727 20.727v-0.818c0-0.164-0.109-0.273-0.273-0.273s-0.273 0.109-0.273 0.273v0.818z"></path>
<path fill="#f19920" d="M4.364 20.727v-0.818c0-0.164-0.109-0.273-0.273-0.273s-0.273 0.109-0.273 0.273v0.818z"></path>
<path fill="#f19920" d="M6 20.727v-0.818c0-0.164-0.109-0.273-0.273-0.273s-0.273 0.109-0.273 0.273v0.818z"></path>
<path fill="#f19920" d="M7.636 20.727v-0.818c0-0.164-0.109-0.273-0.273-0.273s-0.273 0.109-0.273 0.273v0.818z"></path>
<path fill="#f19920" d="M9.273 20.727v-0.818c0-0.164-0.109-0.273-0.273-0.273s-0.273 0.109-0.273 0.273v0.818z"></path>
<path fill="#f19920" d="M10.909 20.727v-0.818c0-0.164-0.109-0.273-0.273-0.273s-0.273 0.109-0.273 0.273v0.818z"></path>
<path fill="#f6b545" d="M14.727 16.909h-12c-0.327 0-0.545-0.218-0.545-0.545v-1.091c0-0.327 0.218-0.545 0.545-0.545h12c0.327 0 0.545 0.218 0.545 0.545v1.091c0 0.327-0.218 0.545-0.545 0.545z"></path>
<path fill="#ffcb5b" d="M12.545 15.273h-10.364c0-0.327 0.218-0.545 0.545-0.545h9.818v0.545z"></path>
<path fill="#f19920" d="M12.545 15.273v0.545c0 0.327-0.218 0.545-0.545 0.545h-9.818c0 0.327 0.218 0.545 0.545 0.545h12c0.327 0 0.545-0.218 0.545-0.545v-1.091h-2.727z"></path>
<path fill="#f19920" d="M3.818 16.364v-0.818c0-0.164-0.109-0.273-0.273-0.273s-0.273 0.109-0.273 0.273v0.818z"></path>
<path fill="#f19920" d="M5.455 16.364v-0.818c0-0.164-0.109-0.273-0.273-0.273s-0.273 0.109-0.273 0.273v0.818z"></path>
<path fill="#f19920" d="M7.091 16.364v-0.818c0-0.164-0.109-0.273-0.273-0.273s-0.273 0.109-0.273 0.273v0.818z"></path>
<path fill="#f19920" d="M8.727 16.364v-0.818c0-0.164-0.109-0.273-0.273-0.273s-0.273 0.109-0.273 0.273v0.818z"></path>
<path fill="#f19920" d="M10.364 16.364v-0.818c0-0.164-0.109-0.273-0.273-0.273s-0.273 0.109-0.273 0.273v0.818z"></path>
<path fill="#f19920" d="M12 16.364v-0.818c0-0.164-0.109-0.273-0.273-0.273s-0.273 0.109-0.273 0.273v0.818z"></path>
<path fill="#f6b545" d="M13.636 14.727h-12c-0.327 0-0.545-0.218-0.545-0.545v-1.091c0-0.327 0.218-0.545 0.545-0.545h12c0.327 0 0.545 0.218 0.545 0.545v1.091c0 0.327-0.218 0.545-0.545 0.545z"></path>
<path fill="#ffcb5b" d="M11.455 13.091h-10.364c0-0.327 0.218-0.545 0.545-0.545h9.818v0.545z"></path>
<path fill="#f19920" d="M11.455 13.091v0.545c0 0.327-0.218 0.545-0.545 0.545h-9.818c0 0.327 0.218 0.545 0.545 0.545h12c0.327 0 0.545-0.218 0.545-0.545v-1.091h-2.727z"></path>
<path fill="#f19920" d="M2.727 14.182v-0.818c0-0.164-0.109-0.273-0.273-0.273s-0.273 0.109-0.273 0.273v0.818z"></path>
<path fill="#f19920" d="M4.364 14.182v-0.818c0-0.164-0.109-0.273-0.273-0.273s-0.273 0.109-0.273 0.273v0.818z"></path>
<path fill="#f19920" d="M6 14.182v-0.818c0-0.164-0.109-0.273-0.273-0.273s-0.273 0.109-0.273 0.273v0.818z"></path>
<path fill="#f19920" d="M7.636 14.182v-0.818c0-0.164-0.109-0.273-0.273-0.273s-0.273 0.109-0.273 0.273v0.818z"></path>
<path fill="#f19920" d="M9.273 14.182v-0.818c0-0.164-0.109-0.273-0.273-0.273s-0.273 0.109-0.273 0.273v0.818z"></path>
<path fill="#f19920" d="M10.909 14.182v-0.818c0-0.164-0.109-0.273-0.273-0.273s-0.273 0.109-0.273 0.273v0.818z"></path>
<path fill="#f6b545" d="M12.545 19.091h-12c-0.327 0-0.545-0.218-0.545-0.545v-1.091c0-0.327 0.218-0.545 0.545-0.545h12c0.327 0 0.545 0.218 0.545 0.545v1.091c0 0.327-0.218 0.545-0.545 0.545z"></path>
<path fill="#ffcb5b" d="M10.364 17.455h-10.364c0-0.327 0.218-0.545 0.545-0.545h9.818v0.545z"></path>
<path fill="#f19920" d="M10.364 17.455v0.545c0 0.327-0.218 0.545-0.545 0.545h-9.818c0 0.327 0.218 0.545 0.545 0.545h12c0.327 0 0.545-0.218 0.545-0.545v-1.091h-2.727z"></path>
<path fill="#f19920" d="M1.636 18.545v-0.818c0-0.164-0.109-0.273-0.273-0.273s-0.273 0.109-0.273 0.273v0.818z"></path>
<path fill="#f19920" d="M3.273 18.545v-0.818c0-0.164-0.109-0.273-0.273-0.273s-0.273 0.109-0.273 0.273v0.818z"></path>
<path fill="#f19920" d="M4.909 18.545v-0.818c0-0.164-0.109-0.273-0.273-0.273s-0.273 0.109-0.273 0.273v0.818z"></path>
<path fill="#f19920" d="M6.545 18.545v-0.818c0-0.164-0.109-0.273-0.273-0.273s-0.273 0.109-0.273 0.273v0.818z"></path>
<path fill="#f19920" d="M8.182 18.545v-0.818c0-0.164-0.109-0.273-0.273-0.273s-0.273 0.109-0.273 0.273v0.818z"></path>
<path fill="#f19920" d="M9.818 18.545v-0.818c0-0.164-0.109-0.273-0.273-0.273s-0.273 0.109-0.273 0.273v0.818z"></path>
<path fill="#c97629" d="M22.909 19.909c-0.709-0.491-1.091-1.309-1.091-2.182 0-3.327-1.309-6.491-3.655-8.836l-2.345-2.345v-1.636l1.909-2.4c0.164-0.218 0.273-0.491 0.273-0.764 0-0.655-0.545-1.2-1.2-1.2h-2.073l-0.545 1.091-1.091-1.091h-2.618c-0.655 0-1.2 0.545-1.2 1.2 0 0.273 0.109 0.545 0.273 0.764l1.909 2.4v1.636l-2.345 2.345c-2.345 2.345-3.655 5.509-3.655 8.836v0c0 0.873-0.382 1.691-1.091 2.182s-1.091 1.309-1.091 2.182v0c0 0.764 0.6 1.364 1.364 1.364h18c0.764 0 1.364-0.6 1.364-1.364v0c0-0.873-0.382-1.691-1.091-2.182z"></path>
<path fill="#b06328" d="M22.909 19.909c-0.709-0.545-1.091-1.364-1.091-2.236 0.055-3.436-1.527-6.655-3.927-9.109l-2.073-2.018v-1.636l1.909-2.4c0.327-0.382 0.382-0.927 0.109-1.418-0.218-0.382-0.655-0.545-1.091-0.545-0.382 0-0.6 0.436-0.491 0.764 0.055 0.109 0.109 0.273 0.109 0.436 0 0.273-0.109 0.545-0.273 0.764l-1.909 2.4v1.636h-2.727l-0.545 0.545h3.818l2.018 2.018c2.236 2.236 3.109 5.291 2.891 8.4-0.055 0.927 0.327 1.8 1.036 2.345 0.055 0.055 0.109 0.109 0.164 0.109 0.818 0.873 0.109 2.345-1.145 2.345h-16.364c0.109 0.6 0.655 1.091 1.309 1.091h18c0.764 0 1.364-0.6 1.364-1.364v-0.109c0-0.818-0.436-1.527-1.091-2.018z"></path>
<path fill="#ffcb5b" d="M16.091 6.545h-4.909c-0.436 0-0.818-0.382-0.818-0.818v0c0-0.436 0.382-0.818 0.818-0.818h4.909c0.436 0 0.818 0.382 0.818 0.818v0c0 0.436-0.382 0.818-0.818 0.818z"></path>
<path fill="#ffe278" d="M11.182 4.909h2.727c0.164 0 0.273 0.109 0.273 0.273v0c0 0.164-0.109 0.273-0.273 0.273h-2.727c-0.164 0-0.273-0.109-0.273-0.273v0c0-0.164 0.109-0.273 0.273-0.273z"></path>
<path fill="#f6b545" d="M16.091 4.909h-0.273v0.545c0 0.327-0.218 0.545-0.545 0.545h-4.855c0.109 0.327 0.436 0.545 0.764 0.545h4.909c0.436 0 0.818-0.382 0.818-0.818s-0.382-0.818-0.818-0.818z"></path>
<path fill="#f19920" d="M14.455 6h1.636c0.164 0 0.273 0.109 0.273 0.273v0c0 0.164-0.109 0.273-0.273 0.273h-1.636c-0.164 0-0.273-0.109-0.273-0.273v0c-0-0.164 0.109-0.273 0.273-0.273z"></path>
<path fill="#f6b545" d="M13.091 6.545h1.091v4.364h-1.091v-4.364z"></path>
<path fill="#f19920" d="M13.091 6.545v0.545h0.545v3.818h0.545v-4.364z"></path>
<path fill="#f6b545" d="M18 14.727c0 2.41-1.954 4.364-4.364 4.364s-4.364-1.954-4.364-4.364c0-2.41 1.954-4.364 4.364-4.364s4.364 1.954 4.364 4.364z"></path>
<path fill="#b06328" d="M16.964 11.945c0.655 0.764 1.036 1.691 1.036 2.782 0 2.4-1.964 4.364-4.364 4.364-1.091 0-2.018-0.382-2.782-1.036 0.818 0.982 2.018 1.582 3.327 1.582 2.4 0 4.364-1.964 4.364-4.364-0-1.364-0.6-2.564-1.582-3.327z"></path>
<path fill="#ffcb5b" d="M17.455 14.727c0 2.109-1.709 3.818-3.818 3.818s-3.818-1.709-3.818-3.818c0-2.109 1.709-3.818 3.818-3.818s3.818 1.709 3.818 3.818z"></path>
<path fill="#f19920" d="M17.455 14.727c0 2.127-1.691 3.818-3.818 3.818v0.545c2.4 0 4.364-1.964 4.364-4.364h-0.545z"></path>
<path fill="#ffe27a" d="M13.636 10.909v-0.545c-2.4 0-4.364 1.964-4.364 4.364h0.545c0-2.127 1.691-3.818 3.818-3.818z"></path>
<path fill="#e78825" d="M14.182 14.182h-1.091c-0.327 0-0.545-0.218-0.545-0.545s0.218-0.545 0.545-0.545h1.636c0.327 0 0.545-0.218 0.545-0.545s-0.218-0.545-0.545-0.545h-0.545c0-0.327-0.218-0.545-0.545-0.545s-0.545 0.218-0.545 0.545v0c-0.927 0-1.636 0.709-1.636 1.636s0.709 1.636 1.636 1.636h1.091c0.327 0 0.545 0.218 0.545 0.545s-0.218 0.545-0.545 0.545h-1.636c-0.327 0-0.545 0.218-0.545 0.545s0.218 0.545 0.545 0.545h0.545c0 0.327 0.218 0.545 0.545 0.545s0.545-0.218 0.545-0.545v0c0.927 0 1.636-0.709 1.636-1.636s-0.709-1.636-1.636-1.636z"></path>
</svg>
