<!-- Generated by IcoMoon.io -->
<svg version="1.1" xmlns="http://www.w3.org/2000/svg" width="24" height="24" viewBox="0 0 24 24">
<title>money</title>
<path fill="#0e9347" d="M22.909 15.273h-21.818c-0.6 0-1.091-0.491-1.091-1.091v-12c0-0.6 0.491-1.091 1.091-1.091h21.818c0.6 0 1.091 0.491 1.091 1.091v12c-0 0.6-0.491 1.091-1.091 1.091z"></path>
<path fill="#0d8944" d="M20.182 10.909c-1.255 0-2.4 0.6-3.055 1.582-0.545-0.273-1.145-0.491-1.855-0.491-1.909 0-3.491 1.418-3.764 3.273h11.4c0.545 0 0.982-0.382 1.091-0.927-0.218-1.909-1.855-3.436-3.818-3.436z"></path>
<path fill="#3bb54a" d="M20.727 14.182h-17.455c0-1.2-0.982-2.182-2.182-2.182v-7.636c1.2 0 2.182-0.982 2.182-2.182h17.455c0 1.2 0.982 2.182 2.182 2.182v7.636c-1.2 0-2.182 0.982-2.182 2.182z"></path>
<path fill="#0e9347" d="M20.182 10.909c-1.255 0-2.4 0.6-3.055 1.582-0.545-0.273-1.145-0.491-1.855-0.491-1.527 0-2.836 0.873-3.436 2.182h8.891c0-1.2 0.927-2.127 2.127-2.182-0.709-0.655-1.636-1.091-2.673-1.091z"></path>
<path fill="#0e9347" d="M16.364 8.182c0 2.711-1.954 4.909-4.364 4.909s-4.364-2.198-4.364-4.909c0-2.711 1.954-4.909 4.364-4.909s4.364 2.198 4.364 4.909z"></path>
<path fill="#0e9347" d="M6.545 8.182c0 0.603-0.488 1.091-1.091 1.091s-1.091-0.488-1.091-1.091c0-0.603 0.488-1.091 1.091-1.091s1.091 0.488 1.091 1.091z"></path>
<path fill="#0e9347" d="M19.636 8.182c0 0.603-0.488 1.091-1.091 1.091s-1.091-0.488-1.091-1.091c0-0.603 0.488-1.091 1.091-1.091s1.091 0.488 1.091 1.091z"></path>
<path fill="#89c763" d="M12.545 7.636h-1.091c-0.327 0-0.545-0.218-0.545-0.545s0.218-0.545 0.545-0.545h1.636c0.327 0 0.545-0.218 0.545-0.545s-0.218-0.545-0.545-0.545h-0.545c0-0.327-0.218-0.545-0.545-0.545s-0.545 0.218-0.545 0.545c-0.927 0-1.636 0.709-1.636 1.636s0.709 1.636 1.636 1.636h1.091c0.327 0 0.545 0.218 0.545 0.545s-0.218 0.545-0.545 0.545h-1.636c-0.327 0-0.545 0.218-0.545 0.545s0.218 0.545 0.545 0.545h0.545c0 0.327 0.218 0.545 0.545 0.545s0.545-0.218 0.545-0.545c0.927 0 1.636-0.709 1.636-1.636s-0.709-1.636-1.636-1.636z"></path>
<path fill="#ffca5d" d="M18 15.818c0 2.109-1.709 3.818-3.818 3.818s-3.818-1.709-3.818-3.818c0-2.109 1.709-3.818 3.818-3.818s3.818 1.709 3.818 3.818z"></path>
<path fill="#f6b545" d="M22.909 14.727c0 2.109-1.709 3.818-3.818 3.818s-3.818-1.709-3.818-3.818c0-2.109 1.709-3.818 3.818-3.818s3.818 1.709 3.818 3.818z"></path>
<path fill="#ffcb5b" d="M19.091 10.909c-2.127 0-3.818 1.691-3.818 3.818s1.691 3.818 3.818 3.818 3.818-1.691 3.818-3.818-1.691-3.818-3.818-3.818zM19.091 17.455c-1.527 0-2.727-1.2-2.727-2.727s1.2-2.727 2.727-2.727 2.727 1.2 2.727 2.727-1.2 2.727-2.727 2.727z"></path>
<path fill="#f6b545" d="M19.091 18.491v0c2.127 0.055 3.818-1.691 3.818-3.764h-0.055c-0.273 0-0.491 0.218-0.545 0.491-0.109 0.764-0.491 1.473-1.036 1.964-0.436 0.436-1.036 0.709-1.691 0.818-0.273 0-0.491 0.218-0.491 0.491z"></path>
<path fill="#ffe27a" d="M19.091 10.964v0c-2.127-0.055-3.818 1.691-3.818 3.764h0.055c0.273 0 0.491-0.218 0.545-0.491 0.109-0.764 0.491-1.473 1.036-1.964 0.436-0.436 1.036-0.709 1.691-0.818 0.273 0 0.491-0.218 0.491-0.491z"></path>
<path fill="#f19920" d="M16.745 15.109c0-1.527 1.2-2.727 2.727-2.727 0.655 0 1.255 0.218 1.745 0.655-0.545-0.655-1.255-1.036-2.127-1.036-1.527 0-2.727 1.2-2.727 2.727 0 0.873 0.382 1.582 0.982 2.073-0.382-0.436-0.6-1.036-0.6-1.691z"></path>
<path fill="#ffcb5b" d="M20.727 16.418c-0.055 0-0.109 0-0.164-0.055-0.109-0.109-0.109-0.273 0-0.382 0.327-0.327 0.491-0.818 0.491-1.255 0-0.164 0.109-0.273 0.273-0.273s0.273 0.109 0.273 0.273c0 0.6-0.218 1.2-0.6 1.636-0.109 0.055-0.218 0.055-0.273 0.055z"></path>
<path fill="#f19920" d="M19.091 16.364c-0.327 0-0.545-0.218-0.545-0.545v-2.182c0-0.327 0.218-0.545 0.545-0.545s0.545 0.218 0.545 0.545v2.182c0 0.327-0.218 0.545-0.545 0.545z"></path>
<path fill="#f19920" d="M21.109 17.945c-0.382-1.364-1.364-2.455-2.618-2.945-0.218-1.255-1.036-2.345-2.073-3-0.655 0.709-1.091 1.636-1.091 2.673 0 2.127 1.691 3.818 3.818 3.818 0.709 0.055 1.364-0.164 1.964-0.545z"></path>
<path fill="#e78825" d="M17.345 16.8c-0.382-0.491-0.655-1.091-0.655-1.745 0-0.764 0.327-1.473 0.873-1.964-0.109-0.164-0.218-0.273-0.327-0.382-0.545 0.491-0.873 1.2-0.873 2.018 0 0.873 0.382 1.582 0.982 2.073z"></path>
<path fill="#e78825" d="M18.545 15.055v0.764c0 0.327 0.218 0.545 0.545 0.545s0.545-0.218 0.545-0.545v-0.109c-0.327-0.273-0.709-0.491-1.091-0.655z"></path>
<path fill="#f6b545" d="M21.109 17.945c-0.109-0.382-0.218-0.709-0.436-1.036-0.436 0.327-0.982 0.545-1.582 0.545-1.527 0-2.727-1.2-2.727-2.727 0-0.818 0.327-1.527 0.873-2.018-0.273-0.273-0.545-0.491-0.873-0.655-0.655 0.709-1.091 1.636-1.091 2.673 0 2.127 1.691 3.818 3.818 3.818 0.764 0 1.418-0.218 2.018-0.6z"></path>
<path fill="#f19920" d="M20.945 17.455c-0.382 0.273-0.873 0.436-1.364 0.545-0.273 0.055-0.491 0.273-0.491 0.545v0c0.764 0 1.418-0.218 2.018-0.6-0.055-0.164-0.109-0.327-0.164-0.491z"></path>
<path fill="#ffcb5b" d="M16.364 12.055c-0.655 0.709-1.091 1.636-1.091 2.673h0.055c0.273 0 0.491-0.218 0.545-0.491 0.109-0.764 0.491-1.418 0.982-1.909-0.164-0.055-0.327-0.164-0.491-0.273z"></path>
<path fill="#f6b545" d="M18 15.818c0 2.109-1.709 3.818-3.818 3.818s-3.818-1.709-3.818-3.818c0-2.109 1.709-3.818 3.818-3.818s3.818 1.709 3.818 3.818z"></path>
<path fill="#f19920" d="M13.636 18.545c0 0.382 0.055 0.709 0.164 1.091 0.109 0 0.273 0 0.382 0 2.127 0 3.818-1.691 3.818-3.818 0-0.382-0.055-0.709-0.164-1.091-0.109 0-0.273 0-0.382 0-2.127 0-3.818 1.691-3.818 3.818z"></path>
<path fill="#ffcb5b" d="M14.182 12c-2.127 0-3.818 1.691-3.818 3.818s1.691 3.818 3.818 3.818 3.818-1.691 3.818-3.818-1.691-3.818-3.818-3.818zM14.182 18.545c-1.527 0-2.727-1.2-2.727-2.727s1.2-2.727 2.727-2.727 2.727 1.2 2.727 2.727-1.2 2.727-2.727 2.727z"></path>
<path fill="#f6b545" d="M14.182 19.582v0c2.127 0.055 3.818-1.691 3.818-3.764h-0.055c-0.273 0-0.491 0.218-0.545 0.491-0.109 0.764-0.491 1.473-1.036 1.964-0.436 0.436-1.036 0.709-1.691 0.818-0.273-0-0.491 0.218-0.491 0.491z"></path>
<path fill="#ffe27a" d="M14.182 12.055v0c-2.127-0.055-3.818 1.691-3.818 3.764h0.055c0.273 0 0.491-0.218 0.545-0.491 0.109-0.764 0.491-1.473 1.036-1.964 0.436-0.436 1.036-0.709 1.691-0.818 0.273 0 0.491-0.218 0.491-0.491z"></path>
<path fill="#f19920" d="M11.836 16.2c0-1.527 1.2-2.727 2.727-2.727 0.655 0 1.255 0.218 1.745 0.655-0.545-0.655-1.255-1.036-2.127-1.036-1.527 0-2.727 1.2-2.727 2.727 0 0.873 0.382 1.582 0.982 2.073-0.382-0.436-0.6-1.036-0.6-1.691z"></path>
<path fill="#ffcb5b" d="M15.818 17.509c-0.055 0-0.109 0-0.164-0.055-0.109-0.109-0.109-0.273 0-0.382 0.327-0.327 0.491-0.818 0.491-1.255 0-0.164 0.109-0.273 0.273-0.273s0.273 0.109 0.273 0.273c0 0.6-0.218 1.2-0.6 1.636-0.109 0.055-0.218 0.055-0.273 0.055z"></path>
<path fill="#f19920" d="M14.182 17.455c-0.327 0-0.545-0.218-0.545-0.545v-2.182c0-0.327 0.218-0.545 0.545-0.545s0.545 0.218 0.545 0.545v2.182c0 0.327-0.218 0.545-0.545 0.545z"></path>
<path fill="#f6b545" d="M16.691 14.782c0.109 0.327 0.218 0.655 0.218 1.036 0 1.527-1.2 2.727-2.727 2.727-0.164 0-0.382 0-0.545-0.055v0.055c0 0.382 0.055 0.709 0.164 1.091 0.109 0 0.273 0 0.382 0 2.127 0 3.818-1.691 3.818-3.818 0-0.382-0.055-0.709-0.164-1.091-0.109 0-0.273 0-0.382 0-0.273 0-0.491 0-0.764 0.055z"></path>
<path fill="#f6b545" d="M20.727 19.091c0 2.109-1.709 3.818-3.818 3.818s-3.818-1.709-3.818-3.818c0-2.109 1.709-3.818 3.818-3.818s3.818 1.709 3.818 3.818z"></path>
<path fill="#ffcb5b" d="M16.909 15.273c-2.127 0-3.818 1.691-3.818 3.818s1.691 3.818 3.818 3.818 3.818-1.691 3.818-3.818-1.691-3.818-3.818-3.818zM16.909 21.818c-1.527 0-2.727-1.2-2.727-2.727s1.2-2.727 2.727-2.727 2.727 1.2 2.727 2.727-1.2 2.727-2.727 2.727z"></path>
<path fill="#f6b545" d="M16.909 22.855v0c2.127 0.055 3.818-1.691 3.818-3.764h-0.055c-0.273 0-0.491 0.218-0.545 0.491-0.109 0.764-0.491 1.473-1.036 1.964-0.436 0.436-1.036 0.709-1.691 0.818-0.273-0-0.491 0.218-0.491 0.491z"></path>
<path fill="#ffe27a" d="M16.909 15.327v0c-2.127-0.055-3.818 1.691-3.818 3.764h0.055c0.273 0 0.491-0.218 0.545-0.491 0.109-0.764 0.491-1.473 1.036-1.964 0.436-0.436 1.036-0.709 1.691-0.818 0.273 0 0.491-0.218 0.491-0.491z"></path>
<path fill="#f19920" d="M14.564 19.473c0-1.527 1.2-2.727 2.727-2.727 0.655 0 1.255 0.218 1.745 0.655-0.545-0.655-1.255-1.036-2.127-1.036-1.527 0-2.727 1.2-2.727 2.727 0 0.873 0.382 1.582 0.982 2.073-0.382-0.436-0.6-1.036-0.6-1.691z"></path>
<path fill="#ffcb5b" d="M18.545 20.782c-0.055 0-0.109 0-0.164-0.055-0.109-0.109-0.109-0.273 0-0.382 0.327-0.327 0.491-0.818 0.491-1.255 0-0.164 0.109-0.273 0.273-0.273s0.273 0.109 0.273 0.273c0 0.6-0.218 1.2-0.6 1.636-0.109 0.055-0.218 0.055-0.273 0.055z"></path>
<path fill="#f19920" d="M16.909 20.727c-0.327 0-0.545-0.218-0.545-0.545v-2.182c0-0.327 0.218-0.545 0.545-0.545s0.545 0.218 0.545 0.545v2.182c0 0.327-0.218 0.545-0.545 0.545z"></path>
</svg>
