<!-- Generated by IcoMoon.io -->
<svg version="1.1" xmlns="http://www.w3.org/2000/svg" width="24" height="24" viewBox="0 0 24 24">
<title>mountain</title>
<path fill="#697f90" d="M18.857 16.829l1.543-1.543c0.114-0.114 0.229-0.171 0.4-0.171h1.257c0.171 0 0.286-0.057 0.4-0.171l1.543-1.543v9.714h-5.143v-6.286z"></path>
<path fill="#697f90" d="M0 12.829h4.686c0.286 0 0.571 0.114 0.8 0.343l2.514 2.514v7.429h-8v-10.286z"></path>
<path fill="#c97629" d="M12 11.114c-0.343 0-0.571-0.229-0.571-0.571v-9.143c0-0.343 0.229-0.571 0.571-0.571s0.571 0.229 0.571 0.571v9.143c0 0.343-0.229 0.571-0.571 0.571z"></path>
<path fill="#b06328" d="M12 10.543v-8.857c0-0.171 0.114-0.286 0.286-0.286v0c0.171 0 0.286 0.171 0.286 0.286v8.857c0 0.171-0.114 0.286-0.286 0.286v0c-0.171 0-0.286-0.114-0.286-0.286z"></path>
<path fill="#f04b4d" d="M12.571 1.971h5.143l-1.143 2.286 1.143 2.286h-5.143z"></path>
<path fill="#697f90" d="M12 10.543h1.6c0.457 0 0.857 0.229 1.029 0.629l1.086 2.171c0.171 0.4 0.571 0.629 1.029 0.629h1.486c0.4 0 0.8 0.229 0.971 0.571l2.743 4.629c0.229 0.343 0.571 0.571 0.971 0.571v0c0.571 0 1.086 0.457 1.086 1.086v2.343h-24v-2.343c0-0.571 0.457-1.086 1.086-1.086h0.057c0.4 0 0.743-0.171 0.971-0.514l2.743-4.114c0.229-0.343 0.571-0.514 0.971-0.514h1.486c0.457 0 0.857-0.286 1.029-0.686l1.143-2.629c0.171-0.4 0.571-0.686 1.029-0.686z"></path>
<path fill="#7b93a3" d="M3.943 19.686v0c0.4 0 0.8-0.171 0.971-0.514l1.6-4.114c0.229-0.343 0.571-0.514 0.971-0.514h1.486c0.457 0 0.857-0.286 1.029-0.686l1.429-3.314h-0.971c-0.457 0-0.857 0.286-1.029 0.686l-1.143 2.629c-0.171 0.4-0.571 0.686-1.029 0.686h-1.486c-0.4 0-0.743 0.171-0.971 0.514l-2.743 4.114c-0.229 0.343-0.571 0.514-0.971 0.514v0c-0.571 0-1.086 0.457-1.086 1.086v2.343h2.857v-2.343c0-0.629 0.457-1.086 1.086-1.086z"></path>
<path fill="#4f6473" d="M22.914 19.686c-0.4 0-0.8-0.229-0.971-0.571l-2.743-4.629c-0.229-0.343-0.571-0.571-0.971-0.571h-1.486c-0.457 0-0.857-0.229-1.029-0.629l-1.086-2.171c-0.171-0.4-0.571-0.629-1.029-0.629h-1.029l1.371 2.8c0.171 0.4 0.571 0.629 1.029 0.629h1.486c0.4 0 0.8 0.229 0.971 0.571l1.6 4.629c0.229 0.343 0.571 0.571 0.971 0.571 0.571 0 1.086 0.457 1.086 1.086v2.343h2.857v-2.343c0.057-0.629-0.4-1.086-1.029-1.086z"></path>
<path fill="#4f6473" d="M9.143 18.543c0 0.316-0.256 0.571-0.571 0.571s-0.571-0.256-0.571-0.571c0-0.316 0.256-0.571 0.571-0.571s0.571 0.256 0.571 0.571z"></path>
<path fill="#4f6473" d="M13.714 16.829c0 0.316-0.256 0.571-0.571 0.571s-0.571-0.256-0.571-0.571c0-0.316 0.256-0.571 0.571-0.571s0.571 0.256 0.571 0.571z"></path>
<path fill="#4f6473" d="M14.857 21.4c0 0.316-0.256 0.571-0.571 0.571s-0.571-0.256-0.571-0.571c0-0.316 0.256-0.571 0.571-0.571s0.571 0.256 0.571 0.571z"></path>
<path fill="#4f6473" d="M16 19.971c0 0.158-0.128 0.286-0.286 0.286s-0.286-0.128-0.286-0.286c0-0.158 0.128-0.286 0.286-0.286s0.286 0.128 0.286 0.286z"></path>
<path fill="#697f90" d="M4.571 18.257c0 0.158-0.128 0.286-0.286 0.286s-0.286-0.128-0.286-0.286c0-0.158 0.128-0.286 0.286-0.286s0.286 0.128 0.286 0.286z"></path>
<path fill="#4f6473" d="M17.143 18.257c0 0.158-0.128 0.286-0.286 0.286s-0.286-0.128-0.286-0.286c0-0.158 0.128-0.286 0.286-0.286s0.286 0.128 0.286 0.286z"></path>
<path fill="#697f90" d="M1.714 21.114c0 0.158-0.128 0.286-0.286 0.286s-0.286-0.128-0.286-0.286c0-0.158 0.128-0.286 0.286-0.286s0.286 0.128 0.286 0.286z"></path>
<path fill="#4f6473" d="M12 19.4c0 0.158-0.128 0.286-0.286 0.286s-0.286-0.128-0.286-0.286c0-0.158 0.128-0.286 0.286-0.286s0.286 0.128 0.286 0.286z"></path>
<path fill="#4f6473" d="M9.714 21.114c0 0.158-0.128 0.286-0.286 0.286s-0.286-0.128-0.286-0.286c0-0.158 0.128-0.286 0.286-0.286s0.286 0.128 0.286 0.286z"></path>
<path fill="#4f6473" d="M16.571 16.543c0 0.158-0.128 0.286-0.286 0.286s-0.286-0.128-0.286-0.286c0-0.158 0.128-0.286 0.286-0.286s0.286 0.128 0.286 0.286z"></path>
<path fill="#4f6473" d="M5.714 21.686c0 0.158-0.128 0.286-0.286 0.286s-0.286-0.128-0.286-0.286c0-0.158 0.128-0.286 0.286-0.286s0.286 0.128 0.286 0.286z"></path>
<path fill="#4f6473" d="M11.429 13.686c0 0.158-0.128 0.286-0.286 0.286s-0.286-0.128-0.286-0.286c0-0.158 0.128-0.286 0.286-0.286s0.286 0.128 0.286 0.286z"></path>
<path fill="#4f6473" d="M18.286 21.114c0 0.158-0.128 0.286-0.286 0.286s-0.286-0.128-0.286-0.286c0-0.158 0.128-0.286 0.286-0.286s0.286 0.128 0.286 0.286z"></path>
<path fill="#4f6473" d="M10.857 15.971c0 0.158-0.128 0.286-0.286 0.286s-0.286-0.128-0.286-0.286c0-0.158 0.128-0.286 0.286-0.286s0.286 0.128 0.286 0.286z"></path>
<path fill="#de333f" d="M16.571 4.257h-2.857c-0.343 0-0.571-0.229-0.571-0.571v-1.714h-0.571v4.571h5.143l-1.143-2.286z"></path>
</svg>
