<?xml version="1.0" encoding="utf-8"?>
<!-- Generator: Adobe Illustrator 21.1.0, SVG Export Plug-In . SVG Version: 6.00 Build 0)  -->
<svg version="1.1" id="Capa_1" xmlns="http://www.w3.org/2000/svg" xmlns:xlink="http://www.w3.org/1999/xlink" x="0px" y="0px"
	 viewBox="0 0 512 512" style="enable-background:new 0 0 512 512;" xml:space="preserve">
<style type="text/css">
	.st0{fill:#EF4874;}
	.st1{fill:#ED1238;}
</style>
<g>
	<g>
		<path class="st0" d="M456.2,21.8c-15.3,0-28.2,10.1-32.5,24h-42.6c-5.5,0-10,4.5-10,10s4.5,10,10,10h42.6
			c4.3,13.9,17.2,24,32.5,24c18.7,0,34-15.3,34-34S474.9,21.8,456.2,21.8z M456.2,69.8c-7.2,0-13.1-5.5-13.9-12.4
			c0.1-0.5,0.1-1,0.1-1.6s-0.1-1-0.1-1.6c0.8-7,6.7-12.4,13.9-12.4c7.7,0,14,6.3,14,14S463.9,69.8,456.2,69.8z"/>
	</g>
</g>
<g>
	<g>
		<path class="st0" d="M350.3,48.8c-1.9-1.9-4.4-2.9-7.1-2.9c-2.6,0-5.2,1.1-7.1,2.9c-1.9,1.9-2.9,4.4-2.9,7.1s1.1,5.2,2.9,7.1
			c1.9,1.9,4.4,2.9,7.1,2.9c2.6,0,5.2-1.1,7.1-2.9c1.9-1.9,2.9-4.4,2.9-7.1S352.1,50.6,350.3,48.8z"/>
	</g>
</g>
<g>
	<g>
		<path class="st1" d="M509.1,349L366.2,206.1c-5.8-5.8-14.5-7.5-22.1-4.4s-12.5,10.5-12.5,18.7V246H180.4v-34.9
			c13.9-4.3,24-17.2,24-32.5c0-18.7-15.3-34-34-34s-34,15.3-34,34c0,15.3,10.1,28.2,24,32.5v80.5c0,0.1,0,0.1,0,0.1
			c-0.1,0.1-0.2,0.1-0.3,0.1c0,0,0.1,0.1-0.1-0.1L24.1,155.9L160,20.1c0.1-0.1,0.1-0.1,0.1-0.1c0.1,0,0.3,0.1,0.3,0.1s0,0,0,0.2
			v35.5c0,5.5,4.5,10,10,10h131.7c5.5,0,10-4.5,10-10s-4.5-10-10-10H180.4V20.3c0-8.2-4.9-15.6-12.5-18.7S151.6,0.2,145.8,6
			L2.9,148.8c-3.9,3.9-3.9,10.2,0,14.1l142.9,142.9c5.8,5.8,14.5,7.5,22.1,4.4s12.5-10.5,12.5-18.7V266h151.2v48.2
			c-13.9,4.3-24,17.2-24,32.5c0,18.7,15.3,34,34,34s34-15.3,34-34c0-15.3-10.1-28.2-24-32.5v-93.8c0-0.1,0-0.1,0-0.1
			c0.1-0.1,0.2-0.1,0.3-0.1c0,0-0.1-0.1,0.1,0.1l135.8,135.8L352,491.9c-0.1,0.1-0.1,0.1-0.1,0.1c-0.1,0-0.3-0.1-0.3-0.1s0,0,0-0.2
			v-35.6c0-5.5-4.5-10-10-10H168c-5.5,0-10,4.5-10,10s4.5,10,10,10h163.6v25.6c0,8.2,4.9,15.6,12.5,18.7c2.5,1,5.2,1.6,7.8,1.6
			c5.3,0,10.4-2.1,14.3-5.9l142.9-142.9C513,359.3,513,352.9,509.1,349z M170.4,192.6c-7.7,0-14-6.3-14-14s6.3-14,14-14
			s14,6.3,14,14S178.1,192.6,170.4,192.6z M355.6,346.7c0,7.7-6.3,14-14,14s-14-6.3-14-14s6.3-14,14-14S355.6,339,355.6,346.7z"/>
	</g>
</g>
<g>
	<g>
		<path class="st0" d="M129.4,449.1c-1.9-1.9-4.4-2.9-7.1-2.9c-2.6,0-5.2,1.1-7.1,2.9c-1.9,1.9-2.9,4.4-2.9,7.1s1.1,5.2,2.9,7.1
			c1.9,1.9,4.4,2.9,7.1,2.9c2.6,0,5.2-1.1,7.1-2.9c1.9-1.9,2.9-4.4,2.9-7.1S131.3,451,129.4,449.1z"/>
	</g>
</g>
<g>
	<g>
		<path class="st0" d="M55.8,422.2c-18.7,0-34,15.3-34,34s15.3,34,34,34s34-15.3,34-34S74.6,422.2,55.8,422.2z M55.8,470.2
			c-7.7,0-14-6.3-14-14s6.3-14,14-14s14,6.3,14,14S63.5,470.2,55.8,470.2z"/>
	</g>
</g>
<g>
	<g>
		<path class="st0" d="M363.3,86H250.6c-5.5,0-10,4.5-10,10s4.5,10,10,10h112.7c5.5,0,10-4.5,10-10S368.9,86,363.3,86z"/>
	</g>
</g>
<g>
	<g>
		<path class="st0" d="M313.8,406H201.1c-5.5,0-10,4.5-10,10s4.5,10,10,10h112.7c5.5,0,10-4.5,10-10S319.3,406,313.8,406z"/>
	</g>
</g>
</svg>
