<!-- Generated by IcoMoon.io -->
<svg version="1.1" xmlns="http://www.w3.org/2000/svg" width="24" height="24" viewBox="0 0 24 24">
<title>office</title>
<path fill="#da8c36" d="M2.727 22.909v-2.182c0-0.327-0.218-0.545-0.545-0.545s-0.545 0.218-0.545 0.545v2.182h1.091z"></path>
<path fill="#da8c36" d="M22.364 22.909v-2.182c0-0.327-0.218-0.545-0.545-0.545s-0.545 0.218-0.545 0.545v2.182h1.091z"></path>
<path fill="#c97629" d="M21.273 20.182v1.091h0.545v1.636h0.545v-2.727z"></path>
<path fill="#c97629" d="M1.636 20.182v1.091h0.545v1.636h0.545v-2.727z"></path>
<path fill="#b0c4d9" d="M12 3.273c-0.327 0-0.545-0.218-0.545-0.545v-2.182c0-0.327 0.218-0.545 0.545-0.545s0.545 0.218 0.545 0.545v2.182c0 0.327-0.218 0.545-0.545 0.545z"></path>
<path fill="#d5e3ef" d="M5.455 22.909v-17.455c0-0.327 0.218-0.545 0.545-0.545h2.727c0.327 0 0.545-0.218 0.545-0.545v-1.091c0-0.327 0.218-0.545 0.545-0.545h4.364c0.327 0 0.545 0.218 0.545 0.545v1.091c0 0.327 0.218 0.545 0.545 0.545h2.727c0.327 0 0.545 0.218 0.545 0.545v17.455h-13.091z"></path>
<path fill="#4c9cd6" d="M16.364 8.727h-8.727c-0.327 0-0.545-0.218-0.545-0.545v-1.091c0-0.327 0.218-0.545 0.545-0.545h8.727c0.327 0 0.545 0.218 0.545 0.545v1.091c0 0.327-0.218 0.545-0.545 0.545z"></path>
<path fill="#70b7e5" d="M11.455 8.727h-1.091l1.636-2.182h1.091z"></path>
<path fill="#70b7e5" d="M14.182 8.727h-2.182l1.636-2.182h2.182z"></path>
<path fill="#4c9cd6" d="M16.364 12h-8.727c-0.327 0-0.545-0.218-0.545-0.545v-1.091c0-0.327 0.218-0.545 0.545-0.545h8.727c0.327 0 0.545 0.218 0.545 0.545v1.091c0 0.327-0.218 0.545-0.545 0.545z"></path>
<path fill="#70b7e5" d="M11.455 12h-1.091l1.636-2.182h1.091z"></path>
<path fill="#70b7e5" d="M14.182 12h-2.182l1.636-2.182h2.182z"></path>
<path fill="#4c9cd6" d="M16.364 15.273h-8.727c-0.327 0-0.545-0.218-0.545-0.545v-1.091c0-0.327 0.218-0.545 0.545-0.545h8.727c0.327 0 0.545 0.218 0.545 0.545v1.091c0 0.327-0.218 0.545-0.545 0.545z"></path>
<path fill="#70b7e5" d="M11.455 15.273h-1.091l1.636-2.182h1.091z"></path>
<path fill="#70b7e5" d="M14.182 15.273h-2.182l1.636-2.182h2.182z"></path>
<path fill="#4c9cd6" d="M16.364 18.545h-8.727c-0.327 0-0.545-0.218-0.545-0.545v-1.091c0-0.327 0.218-0.545 0.545-0.545h8.727c0.327 0 0.545 0.218 0.545 0.545v1.091c0 0.327-0.218 0.545-0.545 0.545z"></path>
<path fill="#70b7e5" d="M11.455 18.545h-1.091l1.636-2.182h1.091z"></path>
<path fill="#70b7e5" d="M14.182 18.545h-2.182l1.636-2.182h2.182z"></path>
<path fill="#595a66" d="M23.455 24h-22.909c-0.327 0-0.545-0.218-0.545-0.545s0.218-0.545 0.545-0.545h22.909c0.327 0 0.545 0.218 0.545 0.545s-0.218 0.545-0.545 0.545z"></path>
<path fill="#89c763" d="M23.455 19.091c0 0.927-0.709 1.636-1.636 1.636s-1.636-0.709-1.636-1.636 1.636-2.727 1.636-2.727 1.636 1.8 1.636 2.727z"></path>
<path fill="#71b956" d="M22.636 17.345c0.164 0.382 0.273 0.709 0.273 0.982 0 1.036-0.709 1.855-1.636 1.855-0.327 0-0.6-0.109-0.873-0.273 0.273 0.491 0.818 0.818 1.418 0.818 0.927 0 1.636-0.709 1.636-1.636 0-0.436-0.436-1.145-0.818-1.745z"></path>
<path fill="#89c763" d="M3.818 19.091c0 0.927-0.709 1.636-1.636 1.636s-1.636-0.709-1.636-1.636 1.636-2.727 1.636-2.727 1.636 1.8 1.636 2.727z"></path>
<path fill="#4c9cd6" d="M10.364 19.636h3.273v3.273h-3.273v-3.273z"></path>
<path fill="#4c9cd6" d="M16.364 21.818h-1.091c-0.327 0-0.545-0.218-0.545-0.545v-1.091c0-0.327 0.218-0.545 0.545-0.545h1.091c0.327 0 0.545 0.218 0.545 0.545v1.091c0 0.327-0.218 0.545-0.545 0.545z"></path>
<path fill="#4c9cd6" d="M8.727 21.818h-1.091c-0.327 0-0.545-0.218-0.545-0.545v-1.091c0-0.327 0.218-0.545 0.545-0.545h1.091c0.327 0 0.545 0.218 0.545 0.545v1.091c0 0.327-0.218 0.545-0.545 0.545z"></path>
<path fill="#71b956" d="M3 17.345c0.164 0.382 0.273 0.709 0.273 0.982 0 1.036-0.709 1.855-1.636 1.855-0.327 0-0.6-0.109-0.873-0.273 0.273 0.491 0.818 0.818 1.418 0.818 0.927 0 1.636-0.709 1.636-1.636 0-0.436-0.436-1.145-0.818-1.745z"></path>
<path fill="#c9d5e3" d="M14.182 2.727h-4.364c-0.327 0-0.545 0.218-0.545 0.545v1.091c0 0.327-0.218 0.545-0.545 0.545h6.545c-0.327 0-0.545-0.218-0.545-0.545v-1.091c0-0.327-0.218-0.545-0.545-0.545z"></path>
<path fill="#b0c4d9" d="M14.727 4.364v-1.091c0-0.327-0.218-0.545-0.545-0.545h-1.636c0.327 0 0.545 0.218 0.545 0.545v1.091c0 0.327 0.218 0.545 0.545 0.545h1.636c-0.327 0-0.545-0.218-0.545-0.545z"></path>
<path fill="#3689c9" d="M16.909 7.091h-9.818c0-0.327 0.218-0.545 0.545-0.545h8.727c0.327-0 0.545 0.218 0.545 0.545v0z"></path>
<path fill="#4c9cd6" d="M12.655 7.091l0.436-0.545h-1.091l-0.436 0.545z"></path>
<path fill="#4c9cd6" d="M15.382 7.091l0.436-0.545h-2.182l-0.436 0.545z"></path>
<path fill="#3689c9" d="M16.909 10.364h-9.818c0-0.327 0.218-0.545 0.545-0.545h8.727c0.327 0 0.545 0.218 0.545 0.545v0z"></path>
<path fill="#4c9cd6" d="M12.655 10.364l0.436-0.545h-1.091l-0.436 0.545z"></path>
<path fill="#4c9cd6" d="M15.382 10.364l0.436-0.545h-2.182l-0.436 0.545z"></path>
<path fill="#3689c9" d="M16.909 13.636h-9.818c0-0.327 0.218-0.545 0.545-0.545h8.727c0.327 0 0.545 0.218 0.545 0.545v0z"></path>
<path fill="#4c9cd6" d="M12.655 13.636l0.436-0.545h-1.091l-0.436 0.545z"></path>
<path fill="#4c9cd6" d="M15.382 13.636l0.436-0.545h-2.182l-0.436 0.545z"></path>
<path fill="#3689c9" d="M16.909 16.909h-9.818c0-0.327 0.218-0.545 0.545-0.545h8.727c0.327 0 0.545 0.218 0.545 0.545v0z"></path>
<path fill="#3689c9" d="M16.909 20.182h-2.182c0-0.327 0.218-0.545 0.545-0.545h1.091c0.327 0 0.545 0.218 0.545 0.545v0z"></path>
<path fill="#3689c9" d="M9.273 20.182h-2.182c0-0.327 0.218-0.545 0.545-0.545h1.091c0.327 0 0.545 0.218 0.545 0.545v0z"></path>
<path fill="#4c9cd6" d="M12.655 16.909l0.436-0.545h-1.091l-0.436 0.545z"></path>
<path fill="#4c9cd6" d="M15.382 16.909l0.436-0.545h-2.182l-0.436 0.545z"></path>
<path fill="#70b7e5" d="M12 19.636l-1.636 1.964v1.309l2.727-3.273z"></path>
<path fill="#70b7e5" d="M13.636 19.636l-2.727 3.273h2.182l0.545-0.655z"></path>
<path fill="#1470b8" d="M12.545 21.545c0 0.151-0.122 0.273-0.273 0.273s-0.273-0.122-0.273-0.273c0-0.151 0.122-0.273 0.273-0.273s0.273 0.122 0.273 0.273z"></path>
<path fill="#1470b8" d="M12 21.545c0 0.151-0.122 0.273-0.273 0.273s-0.273-0.122-0.273-0.273c0-0.151 0.122-0.273 0.273-0.273s0.273 0.122 0.273 0.273z"></path>
</svg>
