<!-- Generated by IcoMoon.io -->
<svg version="1.1" xmlns="http://www.w3.org/2000/svg" width="24" height="24" viewBox="0 0 24 24">
<title>online-shop</title>
<path fill="#595a66" d="M17.455 0h-10.909c-0.927 0-1.636 0.709-1.636 1.636v20.727c0 0.927 0.709 1.636 1.636 1.636h10.909c0.927 0 1.636-0.709 1.636-1.636v-20.727c0-0.927-0.709-1.636-1.636-1.636z"></path>
<path fill="#494a52" d="M18.545 0.436v2.891c0 0.218-0.273 0.382-0.436 0.273l-0.655-0.327v1.636h1.091v17.455c0 0.6-0.491 1.091-1.091 1.091h-11.455c-0.327 0-0.6-0.109-0.873-0.218 0.327 0.436 0.818 0.764 1.418 0.764h10.909c0.927 0 1.636-0.709 1.636-1.636v-20.727c0-0.491-0.218-0.927-0.545-1.2z"></path>
<path fill="#494a52" d="M19.091 9.764v-2.127h-14.182v2.127c0.764 0.164 1.582 0 2.182-0.491 0.927 0.709 2.345 0.709 3.273 0 0.927 0.709 2.345 0.709 3.273 0 0.927 0.709 2.345 0.709 3.273 0 0.6 0.491 1.418 0.655 2.182 0.491z"></path>
<path fill="#70b7e5" d="M18 4.364v15.818c0 0.273-0.218 0.545-0.545 0.545h-10.909c-0.327 0-0.545-0.218-0.545-0.545v-15.818c0-0.273 0.218-0.545 0.545-0.545h10.909c0.327 0 0.545 0.218 0.545 0.545z"></path>
<path fill="#4c9cd6" d="M6 7.636v12.545c0 0.273 0.218 0.545 0.545 0.545v-10.418c0-0.436 0.218-0.818 0.545-1.036v0c0.927 0.709 2.345 0.709 3.273 0 0.927 0.709 2.345 0.709 3.273 0 0.927 0.709 2.345 0.709 3.273 0 0.327 0.273 0.709 0.382 1.091 0.491v-2.127h-12z"></path>
<path fill="#35363e" d="M12.545 22.364c0 0.301-0.244 0.545-0.545 0.545s-0.545-0.244-0.545-0.545c0-0.301 0.244-0.545 0.545-0.545s0.545 0.244 0.545 0.545z"></path>
<path fill="#f26a5f" d="M20.182 6.545h-16.364l2.727-3.273h10.909z"></path>
<path fill="#f04b4d" d="M17.455 3.273h-0.436l2.618 3.273h0.545z"></path>
<path fill="#fff" d="M10.364 6.545h-3.273l1.636-3.273h2.182z"></path>
<path fill="#fff" d="M13.636 6.545h3.273l-1.636-3.273h-2.182z"></path>
<path fill="#d4e3ee" d="M15.273 3.273h-0.382l1.473 3.273h0.545z"></path>
<path fill="#d4e3ee" d="M10.473 3.273h0.436l-0.545 3.273h-0.545z"></path>
<path fill="#f04b4d" d="M3.818 6.545v1.636c0.927 0.709 2.345 0.709 3.273 0 0.927 0.709 2.345 0.709 3.273 0 0.927 0.709 2.345 0.709 3.273 0 0.927 0.709 2.345 0.709 3.273 0 0.927 0.709 2.345 0.709 3.273 0v-1.636h-16.364z"></path>
<path fill="#d4e3ee" d="M13.636 6.545v1.636c0.927 0.709 2.345 0.709 3.273 0v-1.636h-3.273z"></path>
<path fill="#b0c4d9" d="M16.364 6.545v0.982c0 0.436-0.273 0.873-0.709 1.036-0.218 0.055-0.436 0.109-0.655 0.164 0.655 0.055 1.364-0.109 1.909-0.545v-1.636h-0.545z"></path>
<path fill="#d4e3ee" d="M7.091 6.545v1.636c0.927 0.709 2.345 0.709 3.273 0v-1.636h-3.273z"></path>
<path fill="#90cef1" d="M17.455 20.182h-2.727l2.727-2.727z"></path>
<path fill="#90cef1" d="M13.636 20.182l3.818-3.818v-1.091l-4.909 4.909z"></path>
<path fill="#6f707e" d="M5.455 20.509c0 0.491-0.218 0.982-0.545 1.309v0-10.582c0.327 0.327 0.545 0.818 0.545 1.309v7.964z"></path>
<path fill="#6f707e" d="M8.4 0.545c-0.491 0-0.982-0.218-1.309-0.545v0h8.727c-0.327 0.327-0.818 0.545-1.309 0.545h-6.109z"></path>
<path fill="#35363e" d="M13.364 2.182h-2.727c-0.164 0-0.273-0.109-0.273-0.273v0c0-0.164 0.109-0.273 0.273-0.273h2.727c0.164 0 0.273 0.109 0.273 0.273v0c0 0.164-0.109 0.273-0.273 0.273z"></path>
<path fill="#35363e" d="M9.545 1.636v0c0.164 0 0.273 0.109 0.273 0.273v0c0 0.164-0.109 0.273-0.273 0.273v0c-0.164 0-0.273-0.109-0.273-0.273v0c0-0.164 0.109-0.273 0.273-0.273z"></path>
<path fill="#f04b4d" d="M13.636 6.545h-0.545l-0.436-3.273h0.436z"></path>
<path fill="#f04b4d" d="M7.091 6.545h-0.545l1.745-3.273h0.436z"></path>
<path fill="#b0c4d9" d="M9.818 6.545v0.982c0 0.436-0.273 0.873-0.709 1.036-0.218 0.055-0.436 0.109-0.655 0.164 0.655 0.055 1.364-0.109 1.909-0.545v-1.636h-0.545z"></path>
<path fill="#de333f" d="M13.091 6.545v0.982c0 0.436-0.273 0.873-0.709 1.036-0.218 0.055-0.436 0.109-0.655 0.164 0.655 0.055 1.364-0.109 1.909-0.545v-1.636h-0.545z"></path>
<path fill="#de333f" d="M19.636 6.545v0.982c0 0.436-0.273 0.873-0.709 1.036-0.218 0.055-0.436 0.109-0.655 0.164 0.655 0.055 1.364-0.109 1.909-0.545v-1.636h-0.545z"></path>
<path fill="#de333f" d="M6.545 6.545v0.982c0 0.436-0.273 0.873-0.709 1.036-0.218 0.055-0.436 0.109-0.655 0.164 0.655 0.055 1.364-0.109 1.909-0.545v-1.636h-0.545z"></path>
<path fill="#1470b8" d="M10.909 16.364c0 0.301-0.244 0.545-0.545 0.545s-0.545-0.244-0.545-0.545c0-0.301 0.244-0.545 0.545-0.545s0.545 0.244 0.545 0.545z"></path>
<path fill="#1470b8" d="M14.182 16.364c0 0.301-0.244 0.545-0.545 0.545s-0.545-0.244-0.545-0.545c0-0.301 0.244-0.545 0.545-0.545s0.545 0.244 0.545 0.545z"></path>
<path fill="#1470b8" d="M15.164 12.218c-0.109-0.164-0.273-0.218-0.436-0.218h-3.818c0-0.927-0.709-1.636-1.636-1.636-0.327 0-0.545 0.218-0.545 0.545s0.218 0.545 0.545 0.545c0.327 0 0.545 0.218 0.545 0.545v2.727c0 0.327 0.218 0.545 0.545 0.545h3.818c0.273 0 0.491-0.164 0.545-0.436l0.545-2.182c0-0.164 0-0.327-0.109-0.436z"></path>
</svg>
