<!-- Generated by IcoMoon.io -->
<svg version="1.1" xmlns="http://www.w3.org/2000/svg" width="24" height="24" viewBox="0 0 24 24">
<title>online-shop-1</title>
<path fill="#d5e3ef" d="M12.545 19.636v-1.091h-4.364v1.091c0 0.6-0.491 1.091-1.091 1.091h-1.091c-0.327 0-0.545 0.218-0.545 0.545v0c0 0.327 0.218 0.545 0.545 0.545h8.727c0.327 0 0.545-0.218 0.545-0.545v0c0-0.327-0.218-0.545-0.545-0.545h-1.091c-0.6 0-1.091-0.491-1.091-1.091z"></path>
<path fill="#b0c4d9" d="M8.182 18.545v0.545h2.727c0.327 0 0.545 0.218 0.545 0.545v0c0 0.327 0.218 0.545 0.545 0.545h0.273c0.164 0 0.273-0.109 0.273-0.273v-1.364h-4.364z"></path>
<path fill="#b0c4d9" d="M14.727 21.818h-8.727c-0.327 0-0.545-0.218-0.545-0.545h9.818c-0 0.327-0.218 0.545-0.545 0.545z"></path>
<path fill="#d5e3ef" d="M20.727 18.545h-19.636c-0.6 0-1.091-0.491-1.091-1.091v-14.182c0-0.6 0.491-1.091 1.091-1.091h19.636c0.6 0 1.091 0.491 1.091 1.091v14.182c0 0.6-0.491 1.091-1.091 1.091z"></path>
<path fill="#595a66" d="M21.818 15.273h-21.818v-12c0-0.6 0.491-1.091 1.091-1.091h19.636c0.6 0 1.091 0.491 1.091 1.091v12z"></path>
<path fill="#595a66" d="M10.909 16.909c0 0.301-0.244 0.545-0.545 0.545s-0.545-0.244-0.545-0.545c0-0.301 0.244-0.545 0.545-0.545s0.545 0.244 0.545 0.545z"></path>
<path fill="#70b7e5" d="M1.091 3.273h19.636v10.909h-19.636v-10.909z"></path>
<path fill="#90cef1" d="M19.636 13.636h-4.364l4.909-4.909v4.364c0 0.327-0.218 0.545-0.545 0.545z"></path>
<path fill="#90cef1" d="M13.636 13.636l6.545-6.545v-1.636l-8.182 8.182z"></path>
<path fill="#6f707e" d="M4.036 2.727c-0.491 0-2.073-0.218-2.4-0.545v0h12c-0.327 0.327-0.818 0.545-1.309 0.545h-8.291z"></path>
<path fill="#1470b8" d="M9.818 11.455c0 0.301-0.244 0.545-0.545 0.545s-0.545-0.244-0.545-0.545c0-0.301 0.244-0.545 0.545-0.545s0.545 0.244 0.545 0.545z"></path>
<path fill="#1470b8" d="M13.091 11.455c0 0.301-0.244 0.545-0.545 0.545s-0.545-0.244-0.545-0.545c0-0.301 0.244-0.545 0.545-0.545s0.545 0.244 0.545 0.545z"></path>
<path fill="#1470b8" d="M14.073 7.309c-0.109-0.164-0.273-0.218-0.436-0.218h-3.818c0-0.927-0.709-1.636-1.636-1.636-0.327 0-0.545 0.218-0.545 0.545s0.218 0.545 0.545 0.545c0.327 0 0.545 0.218 0.545 0.545v2.727c0 0.327 0.218 0.545 0.545 0.545h3.818c0.273 0 0.491-0.164 0.545-0.436l0.545-2.182c0-0.164 0-0.327-0.109-0.436z"></path>
<path fill="#1470b8" d="M7.909 9.818h-1.636c-0.164 0-0.273-0.109-0.273-0.273s0.109-0.273 0.273-0.273h1.636c0.164 0 0.273 0.109 0.273 0.273s-0.109 0.273-0.273 0.273z"></path>
<path fill="#1470b8" d="M7.364 8.727h-2.182c-0.164 0-0.273-0.109-0.273-0.273s0.109-0.273 0.273-0.273h2.182c0.164 0 0.273 0.109 0.273 0.273s-0.109 0.273-0.273 0.273z"></path>
<path fill="#1470b8" d="M6.818 7.636h-2.727c-0.164 0-0.273-0.109-0.273-0.273s0.109-0.273 0.273-0.273h2.727c0.164 0 0.273 0.109 0.273 0.273s-0.109 0.273-0.273 0.273z"></path>
<path fill="#f6b545" d="M24 13.636c0 2.109-1.709 3.818-3.818 3.818s-3.818-1.709-3.818-3.818c0-2.109 1.709-3.818 3.818-3.818s3.818 1.709 3.818 3.818z"></path>
<path fill="#ffcb5b" d="M20.182 9.818c-2.127 0-3.818 1.691-3.818 3.818s1.691 3.818 3.818 3.818 3.818-1.691 3.818-3.818-1.691-3.818-3.818-3.818zM20.182 16.364c-1.527 0-2.727-1.2-2.727-2.727s1.2-2.727 2.727-2.727 2.727 1.2 2.727 2.727-1.2 2.727-2.727 2.727z"></path>
<path fill="#f6b545" d="M20.182 17.4v0c2.127 0.055 3.818-1.691 3.818-3.764h-0.055c-0.273 0-0.491 0.218-0.545 0.491-0.109 0.764-0.491 1.473-1.036 1.964-0.436 0.436-1.036 0.709-1.691 0.818-0.273-0-0.491 0.218-0.491 0.491z"></path>
<path fill="#ffe27a" d="M20.182 9.873v0c-2.127-0.055-3.818 1.691-3.818 3.764h0.055c0.273 0 0.491-0.218 0.545-0.491 0.109-0.764 0.491-1.473 1.036-1.964 0.436-0.436 1.036-0.709 1.691-0.818 0.273 0 0.491-0.218 0.491-0.491z"></path>
<path fill="#f19920" d="M17.836 14.018c0-1.527 1.2-2.727 2.727-2.727 0.655 0 1.255 0.218 1.745 0.655-0.545-0.655-1.255-1.036-2.127-1.036-1.527 0-2.727 1.2-2.727 2.727 0 0.873 0.382 1.582 0.982 2.073-0.382-0.436-0.6-1.036-0.6-1.691z"></path>
<path fill="#ffcb5b" d="M21.818 15.327c-0.055 0-0.109 0-0.164-0.055-0.109-0.109-0.109-0.273 0-0.382 0.327-0.327 0.491-0.818 0.491-1.255 0-0.164 0.109-0.273 0.273-0.273s0.273 0.109 0.273 0.273c0 0.6-0.218 1.2-0.6 1.636-0.109 0.055-0.218 0.055-0.273 0.055z"></path>
<path fill="#f19920" d="M20.182 15.273c-0.327 0-0.545-0.218-0.545-0.545v-2.182c0-0.327 0.218-0.545 0.545-0.545s0.545 0.218 0.545 0.545v2.182c0 0.327-0.218 0.545-0.545 0.545z"></path>
<path fill="#f19920" d="M22.2 16.855c-0.382-1.364-1.364-2.455-2.618-2.945-0.218-1.255-1.036-2.345-2.073-3-0.655 0.709-1.091 1.636-1.091 2.673 0 2.127 1.691 3.818 3.818 3.818 0.709 0.055 1.364-0.164 1.964-0.545z"></path>
<path fill="#e78825" d="M18.436 15.709c-0.382-0.491-0.655-1.091-0.655-1.745 0-0.764 0.327-1.473 0.873-1.964-0.109-0.164-0.218-0.273-0.327-0.382-0.545 0.491-0.873 1.2-0.873 2.018 0 0.873 0.382 1.582 0.982 2.073z"></path>
<path fill="#e78825" d="M19.636 13.964v0.764c0 0.327 0.218 0.545 0.545 0.545s0.545-0.218 0.545-0.545v-0.109c-0.327-0.273-0.709-0.491-1.091-0.655z"></path>
<path fill="#f6b545" d="M22.2 16.855c-0.109-0.382-0.218-0.709-0.436-1.036-0.436 0.327-0.982 0.545-1.582 0.545-1.527 0-2.727-1.2-2.727-2.727 0-0.818 0.327-1.527 0.873-2.018-0.273-0.273-0.545-0.491-0.873-0.655-0.655 0.709-1.091 1.636-1.091 2.673 0 2.127 1.691 3.818 3.818 3.818 0.764 0 1.418-0.218 2.018-0.6z"></path>
<path fill="#f19920" d="M22.036 16.364c-0.382 0.273-0.873 0.436-1.364 0.545-0.273 0.055-0.491 0.273-0.491 0.545v0c0.764 0 1.418-0.218 2.018-0.6-0.055-0.164-0.109-0.327-0.164-0.491z"></path>
<path fill="#ffcb5b" d="M17.455 10.964c-0.655 0.709-1.091 1.636-1.091 2.673h0.055c0.273 0 0.491-0.218 0.545-0.491 0.109-0.764 0.491-1.418 0.982-1.909-0.164-0.055-0.327-0.164-0.491-0.273z"></path>
<path fill="#f6b545" d="M19.091 14.727c0 2.109-1.709 3.818-3.818 3.818s-3.818-1.709-3.818-3.818c0-2.109 1.709-3.818 3.818-3.818s3.818 1.709 3.818 3.818z"></path>
<path fill="#f19920" d="M14.727 17.455c0 0.382 0.055 0.709 0.164 1.091 0.109 0 0.273 0 0.382 0 2.127 0 3.818-1.691 3.818-3.818 0-0.382-0.055-0.709-0.164-1.091-0.109 0-0.273 0-0.382 0-2.127 0-3.818 1.691-3.818 3.818z"></path>
<path fill="#ffcb5b" d="M15.273 10.909c-2.127 0-3.818 1.691-3.818 3.818s1.691 3.818 3.818 3.818 3.818-1.691 3.818-3.818-1.691-3.818-3.818-3.818zM15.273 17.455c-1.527 0-2.727-1.2-2.727-2.727s1.2-2.727 2.727-2.727 2.727 1.2 2.727 2.727-1.2 2.727-2.727 2.727z"></path>
<path fill="#f6b545" d="M15.273 18.491v0c2.127 0.055 3.818-1.691 3.818-3.764h-0.055c-0.273 0-0.491 0.218-0.545 0.491-0.109 0.764-0.491 1.473-1.036 1.964-0.436 0.436-1.036 0.709-1.691 0.818-0.273 0-0.491 0.218-0.491 0.491z"></path>
<path fill="#ffe27a" d="M15.273 10.964v0c-2.127-0.055-3.818 1.691-3.818 3.764h0.055c0.273 0 0.491-0.218 0.545-0.491 0.109-0.764 0.491-1.473 1.036-1.964 0.436-0.436 1.036-0.709 1.691-0.818 0.273 0 0.491-0.218 0.491-0.491z"></path>
<path fill="#f19920" d="M12.927 15.109c0-1.527 1.2-2.727 2.727-2.727 0.655 0 1.255 0.218 1.745 0.655-0.545-0.655-1.255-1.036-2.127-1.036-1.527 0-2.727 1.2-2.727 2.727 0 0.873 0.382 1.582 0.982 2.073-0.382-0.436-0.6-1.036-0.6-1.691z"></path>
<path fill="#ffcb5b" d="M16.909 16.418c-0.055 0-0.109 0-0.164-0.055-0.109-0.109-0.109-0.273 0-0.382 0.327-0.327 0.491-0.818 0.491-1.255 0-0.164 0.109-0.273 0.273-0.273s0.273 0.109 0.273 0.273c0 0.6-0.218 1.2-0.6 1.636-0.109 0.055-0.218 0.055-0.273 0.055z"></path>
<path fill="#f19920" d="M15.273 16.364c-0.327 0-0.545-0.218-0.545-0.545v-2.182c0-0.327 0.218-0.545 0.545-0.545s0.545 0.218 0.545 0.545v2.182c0 0.327-0.218 0.545-0.545 0.545z"></path>
<path fill="#f6b545" d="M17.782 13.691c0.109 0.327 0.218 0.655 0.218 1.036 0 1.527-1.2 2.727-2.727 2.727-0.164 0-0.382 0-0.545-0.055v0.055c0 0.382 0.055 0.709 0.164 1.091 0.109 0 0.273 0 0.382 0 2.127 0 3.818-1.691 3.818-3.818 0-0.382-0.055-0.709-0.164-1.091-0.109 0-0.273 0-0.382 0-0.273 0-0.491 0-0.764 0.055z"></path>
<path fill="#f6b545" d="M21.818 18c0 2.109-1.709 3.818-3.818 3.818s-3.818-1.709-3.818-3.818c0-2.109 1.709-3.818 3.818-3.818s3.818 1.709 3.818 3.818z"></path>
<path fill="#ffcb5b" d="M18 14.182c-2.127 0-3.818 1.691-3.818 3.818s1.691 3.818 3.818 3.818 3.818-1.691 3.818-3.818-1.691-3.818-3.818-3.818zM18 20.727c-1.527 0-2.727-1.2-2.727-2.727s1.2-2.727 2.727-2.727 2.727 1.2 2.727 2.727-1.2 2.727-2.727 2.727z"></path>
<path fill="#f6b545" d="M18 21.764v0c2.127 0.055 3.818-1.691 3.818-3.764h-0.055c-0.273 0-0.491 0.218-0.545 0.491-0.109 0.764-0.491 1.473-1.036 1.964-0.436 0.436-1.036 0.709-1.691 0.818-0.273-0-0.491 0.218-0.491 0.491z"></path>
<path fill="#ffe27a" d="M18 14.236v0c-2.127-0.055-3.818 1.691-3.818 3.764h0.055c0.273 0 0.491-0.218 0.545-0.491 0.109-0.764 0.491-1.473 1.036-1.964 0.436-0.436 1.036-0.709 1.691-0.818 0.273 0 0.491-0.218 0.491-0.491z"></path>
<path fill="#f19920" d="M15.655 18.382c0-1.527 1.2-2.727 2.727-2.727 0.655 0 1.255 0.218 1.745 0.655-0.545-0.655-1.255-1.036-2.127-1.036-1.527 0-2.727 1.2-2.727 2.727 0 0.873 0.382 1.582 0.982 2.073-0.382-0.436-0.6-1.036-0.6-1.691z"></path>
<path fill="#ffcb5b" d="M19.636 19.691c-0.055 0-0.109 0-0.164-0.055-0.109-0.109-0.109-0.273 0-0.382 0.327-0.327 0.491-0.818 0.491-1.255 0-0.164 0.109-0.273 0.273-0.273s0.273 0.109 0.273 0.273c0 0.6-0.218 1.2-0.6 1.636-0.109 0.055-0.218 0.055-0.273 0.055z"></path>
<path fill="#f19920" d="M18 19.636c-0.327 0-0.545-0.218-0.545-0.545v-2.182c0-0.327 0.218-0.545 0.545-0.545s0.545 0.218 0.545 0.545v2.182c0 0.327-0.218 0.545-0.545 0.545z"></path>
</svg>
