<!-- Generated by IcoMoon.io -->
<svg version="1.1" xmlns="http://www.w3.org/2000/svg" width="24" height="24" viewBox="0 0 24 24">
<title>online-shop-2</title>
<path fill="#b0c4d8" d="M22.909 21.273h-21.818c-0.6 0-1.091-0.491-1.091-1.091v-18c0-0.6 0.491-1.091 1.091-1.091h21.818c0.6 0 1.091 0.491 1.091 1.091v18c-0 0.6-0.491 1.091-1.091 1.091z"></path>
<path fill="#eceff9" d="M1.091 4.364h21.818v15.818h-21.818v-15.818z"></path>
<path fill="#d5e3ef" d="M3 12.545h4.364c0.164 0 0.273 0.109 0.273 0.273v0c0 0.164-0.109 0.273-0.273 0.273h-4.364c-0.164 0-0.273-0.109-0.273-0.273v0c0-0.164 0.109-0.273 0.273-0.273z"></path>
<path fill="#d5e3ef" d="M3 13.636h4.364c0.164 0 0.273 0.109 0.273 0.273v0c0 0.164-0.109 0.273-0.273 0.273h-4.364c-0.164 0-0.273-0.109-0.273-0.273v0c0-0.164 0.109-0.273 0.273-0.273z"></path>
<path fill="#d5e3ef" d="M3 14.727h4.364c0.164 0 0.273 0.109 0.273 0.273v0c0 0.164-0.109 0.273-0.273 0.273h-4.364c-0.164 0-0.273-0.109-0.273-0.273v0c0-0.164 0.109-0.273 0.273-0.273z"></path>
<path fill="#d5e3ef" d="M3 15.818h4.364c0.164 0 0.273 0.109 0.273 0.273v0c0 0.164-0.109 0.273-0.273 0.273h-4.364c-0.164 0-0.273-0.109-0.273-0.273v0c0-0.164 0.109-0.273 0.273-0.273z"></path>
<path fill="#d5e3ef" d="M3 16.909h4.364c0.164 0 0.273 0.109 0.273 0.273v0c0 0.164-0.109 0.273-0.273 0.273h-4.364c-0.164 0-0.273-0.109-0.273-0.273v0c0-0.164 0.109-0.273 0.273-0.273z"></path>
<path fill="#d5e3ef" d="M3 18h4.364c0.164 0 0.273 0.109 0.273 0.273v0c0 0.164-0.109 0.273-0.273 0.273h-4.364c-0.164 0-0.273-0.109-0.273-0.273v0c0-0.164 0.109-0.273 0.273-0.273z"></path>
<path fill="#d5e3ef" d="M9.545 12.545h4.909c0.164 0 0.273 0.109 0.273 0.273v0c0 0.164-0.109 0.273-0.273 0.273h-4.909c-0.164 0-0.273-0.109-0.273-0.273v0c0-0.164 0.109-0.273 0.273-0.273z"></path>
<path fill="#d5e3ef" d="M9.545 13.636h4.909c0.164 0 0.273 0.109 0.273 0.273v0c0 0.164-0.109 0.273-0.273 0.273h-4.909c-0.164 0-0.273-0.109-0.273-0.273v0c0-0.164 0.109-0.273 0.273-0.273z"></path>
<path fill="#d5e3ef" d="M9.545 14.727h4.909c0.164 0 0.273 0.109 0.273 0.273v0c0 0.164-0.109 0.273-0.273 0.273h-4.909c-0.164 0-0.273-0.109-0.273-0.273v0c0-0.164 0.109-0.273 0.273-0.273z"></path>
<path fill="#d5e3ef" d="M9.545 15.818h4.909c0.164 0 0.273 0.109 0.273 0.273v0c0 0.164-0.109 0.273-0.273 0.273h-4.909c-0.164 0-0.273-0.109-0.273-0.273v0c0-0.164 0.109-0.273 0.273-0.273z"></path>
<path fill="#d5e3ef" d="M9.545 18h4.909c0.164 0 0.273 0.109 0.273 0.273v0c0 0.164-0.109 0.273-0.273 0.273h-4.909c-0.164 0-0.273-0.109-0.273-0.273v0c0-0.164 0.109-0.273 0.273-0.273z"></path>
<path fill="#d5e3ef" d="M9.545 16.909h4.909c0.164 0 0.273 0.109 0.273 0.273v0c0 0.164-0.109 0.273-0.273 0.273h-4.909c-0.164 0-0.273-0.109-0.273-0.273v0c0-0.164 0.109-0.273 0.273-0.273z"></path>
<path fill="#d5e3ef" d="M16.636 12.545h4.364c0.164 0 0.273 0.109 0.273 0.273v0c0 0.164-0.109 0.273-0.273 0.273h-4.364c-0.164 0-0.273-0.109-0.273-0.273v0c0-0.164 0.109-0.273 0.273-0.273z"></path>
<path fill="#d5e3ef" d="M16.636 13.636h4.364c0.164 0 0.273 0.109 0.273 0.273v0c0 0.164-0.109 0.273-0.273 0.273h-4.364c-0.164 0-0.273-0.109-0.273-0.273v0c0-0.164 0.109-0.273 0.273-0.273z"></path>
<path fill="#d5e3ef" d="M16.636 14.727h4.364c0.164 0 0.273 0.109 0.273 0.273v0c0 0.164-0.109 0.273-0.273 0.273h-4.364c-0.164 0-0.273-0.109-0.273-0.273v0c0-0.164 0.109-0.273 0.273-0.273z"></path>
<path fill="#d5e3ef" d="M16.636 15.818h4.364c0.164 0 0.273 0.109 0.273 0.273v0c0 0.164-0.109 0.273-0.273 0.273h-4.364c-0.164 0-0.273-0.109-0.273-0.273v0c0-0.164 0.109-0.273 0.273-0.273z"></path>
<path fill="#d5e3ef" d="M16.636 16.909h4.364c0.164 0 0.273 0.109 0.273 0.273v0c0 0.164-0.109 0.273-0.273 0.273h-4.364c-0.164 0-0.273-0.109-0.273-0.273v0c0-0.164 0.109-0.273 0.273-0.273z"></path>
<path fill="#d5e3ef" d="M16.636 18h4.364c0.164 0 0.273 0.109 0.273 0.273v0c0 0.164-0.109 0.273-0.273 0.273h-4.364c-0.164 0-0.273-0.109-0.273-0.273v0c0-0.164 0.109-0.273 0.273-0.273z"></path>
<path fill="#d5e3ef" d="M2.727 7.091h18.545v4.364h-18.545v-4.364z"></path>
<path fill="#f04d4e" d="M2.182 2.727c0 0.301-0.244 0.545-0.545 0.545s-0.545-0.244-0.545-0.545c0-0.301 0.244-0.545 0.545-0.545s0.545 0.244 0.545 0.545z"></path>
<path fill="#ffcb5b" d="M4.364 2.727c0 0.301-0.244 0.545-0.545 0.545s-0.545-0.244-0.545-0.545c0-0.301 0.244-0.545 0.545-0.545s0.545 0.244 0.545 0.545z"></path>
<path fill="#3bb54a" d="M6.545 2.727c0 0.301-0.244 0.545-0.545 0.545s-0.545-0.244-0.545-0.545c0-0.301 0.244-0.545 0.545-0.545s0.545 0.244 0.545 0.545z"></path>
<path fill="#e2e7f0" d="M22.364 3.273h-14.182c-0.327 0-0.545-0.218-0.545-0.545v0c0-0.327 0.218-0.545 0.545-0.545h14.182c0.327 0 0.545 0.218 0.545 0.545v0c0 0.327-0.218 0.545-0.545 0.545z"></path>
<path fill="#b0c4d8" d="M4.091 5.455h3.273c0.164 0 0.273 0.109 0.273 0.273v0c0 0.164-0.109 0.273-0.273 0.273h-3.273c-0.164 0-0.273-0.109-0.273-0.273v0c0-0.164 0.109-0.273 0.273-0.273z"></path>
<path fill="#b0c4d8" d="M19.909 5.455h1.091c0.164 0 0.273 0.109 0.273 0.273v0c0 0.164-0.109 0.273-0.273 0.273h-1.091c-0.164 0-0.273-0.109-0.273-0.273v0c0-0.164 0.109-0.273 0.273-0.273z"></path>
<path fill="#b0c4d8" d="M17.727 5.455h1.091c0.164 0 0.273 0.109 0.273 0.273v0c0 0.164-0.109 0.273-0.273 0.273h-1.091c-0.164 0-0.273-0.109-0.273-0.273v0c0-0.164 0.109-0.273 0.273-0.273z"></path>
<path fill="#b0c4d8" d="M15.545 5.455h1.091c0.164 0 0.273 0.109 0.273 0.273v0c0 0.164-0.109 0.273-0.273 0.273h-1.091c-0.164 0-0.273-0.109-0.273-0.273v0c0-0.164 0.109-0.273 0.273-0.273z"></path>
<path fill="#b0c4d8" d="M3 5.455c-0.164 0-0.273 0.109-0.273 0.273v0c0 0.164 0.109 0.273 0.273 0.273s0.273-0.109 0.273-0.273v0c0-0.164-0.109-0.273-0.273-0.273zM3 5.618c0 0 0-0.055 0 0v0c0-0.055 0 0 0 0z"></path>
<path fill="#f6b545" d="M18 14.727c0 2.109-1.709 3.818-3.818 3.818s-3.818-1.709-3.818-3.818c0-2.109 1.709-3.818 3.818-3.818s3.818 1.709 3.818 3.818z"></path>
<path fill="#ffcb5b" d="M14.182 10.909c-2.127 0-3.818 1.691-3.818 3.818s1.691 3.818 3.818 3.818 3.818-1.691 3.818-3.818-1.691-3.818-3.818-3.818zM14.182 17.455c-1.527 0-2.727-1.2-2.727-2.727s1.2-2.727 2.727-2.727 2.727 1.2 2.727 2.727-1.2 2.727-2.727 2.727z"></path>
<path fill="#f6b545" d="M14.182 18.491v0c2.127 0.055 3.818-1.691 3.818-3.764h-0.055c-0.273 0-0.491 0.218-0.545 0.491-0.109 0.764-0.491 1.473-1.036 1.964-0.436 0.436-1.036 0.709-1.691 0.818-0.273 0-0.491 0.218-0.491 0.491z"></path>
<path fill="#ffe27a" d="M14.182 10.964v0c-2.127-0.055-3.818 1.691-3.818 3.764h0.055c0.273 0 0.491-0.218 0.545-0.491 0.109-0.764 0.491-1.473 1.036-1.964 0.436-0.436 1.036-0.709 1.691-0.818 0.273 0 0.491-0.218 0.491-0.491z"></path>
<path fill="#f19920" d="M11.836 15.109c0-1.527 1.2-2.727 2.727-2.727 0.655 0 1.255 0.218 1.745 0.655-0.545-0.655-1.255-1.036-2.127-1.036-1.527 0-2.727 1.2-2.727 2.727 0 0.873 0.382 1.582 0.982 2.073-0.382-0.436-0.6-1.036-0.6-1.691z"></path>
<path fill="#ffcb5b" d="M15.818 16.418c-0.055 0-0.109 0-0.164-0.055-0.109-0.109-0.109-0.273 0-0.382 0.327-0.327 0.491-0.818 0.491-1.255 0-0.164 0.109-0.273 0.273-0.273s0.273 0.109 0.273 0.273c0 0.6-0.218 1.2-0.6 1.636-0.109 0.055-0.218 0.055-0.273 0.055z"></path>
<path fill="#f19920" d="M14.182 16.364c-0.327 0-0.545-0.218-0.545-0.545v-2.182c0-0.327 0.218-0.545 0.545-0.545s0.545 0.218 0.545 0.545v2.182c0 0.327-0.218 0.545-0.545 0.545z"></path>
<path fill="#f19920" d="M16.2 17.945c-0.382-1.364-1.364-2.455-2.618-2.945-0.218-1.255-1.036-2.345-2.073-3-0.655 0.709-1.091 1.636-1.091 2.673 0 2.127 1.691 3.818 3.818 3.818 0.709 0.055 1.364-0.164 1.964-0.545z"></path>
<path fill="#e78825" d="M12.436 16.8c-0.382-0.491-0.655-1.091-0.655-1.745 0-0.764 0.327-1.473 0.873-1.964-0.109-0.164-0.218-0.273-0.327-0.382-0.545 0.491-0.873 1.2-0.873 2.018 0 0.873 0.382 1.582 0.982 2.073z"></path>
<path fill="#e78825" d="M13.636 15.055v0.764c0 0.327 0.218 0.545 0.545 0.545s0.545-0.218 0.545-0.545v-0.109c-0.327-0.273-0.709-0.491-1.091-0.655z"></path>
<path fill="#f6b545" d="M16.2 17.945c-0.109-0.382-0.218-0.709-0.436-1.036-0.436 0.327-0.982 0.545-1.582 0.545-1.527 0-2.727-1.2-2.727-2.727 0-0.818 0.327-1.527 0.873-2.018-0.273-0.273-0.545-0.491-0.873-0.655-0.655 0.709-1.091 1.636-1.091 2.673 0 2.127 1.691 3.818 3.818 3.818 0.764 0 1.418-0.218 2.018-0.6z"></path>
<path fill="#f19920" d="M16.036 17.455c-0.382 0.273-0.873 0.436-1.364 0.545-0.273 0.055-0.491 0.273-0.491 0.545v0c0.764 0 1.418-0.218 2.018-0.6-0.055-0.164-0.109-0.327-0.164-0.491z"></path>
<path fill="#ffcb5b" d="M11.455 12.055c-0.655 0.709-1.091 1.636-1.091 2.673h0.055c0.273 0 0.491-0.218 0.545-0.491 0.109-0.764 0.491-1.418 0.982-1.909-0.164-0.055-0.327-0.164-0.491-0.273z"></path>
<path fill="#f6b545" d="M13.091 15.818c0 2.109-1.709 3.818-3.818 3.818s-3.818-1.709-3.818-3.818c0-2.109 1.709-3.818 3.818-3.818s3.818 1.709 3.818 3.818z"></path>
<path fill="#f19920" d="M8.727 18.545c0 0.382 0.055 0.709 0.164 1.091 0.109 0 0.273 0 0.382 0 2.127 0 3.818-1.691 3.818-3.818 0-0.382-0.055-0.709-0.164-1.091-0.109 0-0.273 0-0.382 0-2.127 0-3.818 1.691-3.818 3.818z"></path>
<path fill="#ffcb5b" d="M9.273 12c-2.127 0-3.818 1.691-3.818 3.818s1.691 3.818 3.818 3.818 3.818-1.691 3.818-3.818-1.691-3.818-3.818-3.818zM9.273 18.545c-1.527 0-2.727-1.2-2.727-2.727s1.2-2.727 2.727-2.727 2.727 1.2 2.727 2.727-1.2 2.727-2.727 2.727z"></path>
<path fill="#f6b545" d="M9.273 19.582v0c2.127 0.055 3.818-1.691 3.818-3.764h-0.055c-0.273 0-0.491 0.218-0.545 0.491-0.109 0.764-0.491 1.473-1.036 1.964-0.436 0.436-1.036 0.709-1.691 0.818-0.273 0-0.491 0.218-0.491 0.491z"></path>
<path fill="#ffe27a" d="M9.273 12.055v0c-2.127-0.055-3.818 1.691-3.818 3.764h0.055c0.273 0 0.491-0.218 0.545-0.491 0.109-0.764 0.491-1.473 1.036-1.964 0.436-0.436 1.036-0.709 1.691-0.818 0.273 0 0.491-0.218 0.491-0.491z"></path>
<path fill="#f19920" d="M6.927 16.2c0-1.527 1.2-2.727 2.727-2.727 0.655 0 1.255 0.218 1.745 0.655-0.545-0.655-1.255-1.036-2.127-1.036-1.527 0-2.727 1.2-2.727 2.727 0 0.873 0.382 1.582 0.982 2.073-0.382-0.436-0.6-1.036-0.6-1.691z"></path>
<path fill="#ffcb5b" d="M10.909 17.509c-0.055 0-0.109 0-0.164-0.055-0.109-0.109-0.109-0.273 0-0.382 0.327-0.327 0.491-0.818 0.491-1.255 0-0.164 0.109-0.273 0.273-0.273s0.273 0.109 0.273 0.273c0 0.6-0.218 1.2-0.6 1.636-0.109 0.055-0.218 0.055-0.273 0.055z"></path>
<path fill="#f19920" d="M9.273 17.455c-0.327 0-0.545-0.218-0.545-0.545v-2.182c0-0.327 0.218-0.545 0.545-0.545s0.545 0.218 0.545 0.545v2.182c0 0.327-0.218 0.545-0.545 0.545z"></path>
<path fill="#f6b545" d="M11.782 14.782c0.109 0.327 0.218 0.655 0.218 1.036 0 1.527-1.2 2.727-2.727 2.727-0.164 0-0.382 0-0.545-0.055v0.055c0 0.382 0.055 0.709 0.164 1.091 0.109 0 0.273 0 0.382 0 2.127 0 3.818-1.691 3.818-3.818 0-0.382-0.055-0.709-0.164-1.091-0.109 0-0.273 0-0.382 0-0.273 0-0.491 0-0.764 0.055z"></path>
<path fill="#f6b545" d="M15.818 19.091c0 2.109-1.709 3.818-3.818 3.818s-3.818-1.709-3.818-3.818c0-2.109 1.709-3.818 3.818-3.818s3.818 1.709 3.818 3.818z"></path>
<path fill="#ffcb5b" d="M12 15.273c-2.127 0-3.818 1.691-3.818 3.818s1.691 3.818 3.818 3.818 3.818-1.691 3.818-3.818-1.691-3.818-3.818-3.818zM12 21.818c-1.527 0-2.727-1.2-2.727-2.727s1.2-2.727 2.727-2.727 2.727 1.2 2.727 2.727-1.2 2.727-2.727 2.727z"></path>
<path fill="#f6b545" d="M12 22.855v0c2.127 0.055 3.818-1.691 3.818-3.764h-0.055c-0.273 0-0.491 0.218-0.545 0.491-0.109 0.764-0.491 1.473-1.036 1.964-0.436 0.436-1.036 0.709-1.691 0.818-0.273-0-0.491 0.218-0.491 0.491z"></path>
<path fill="#ffe27a" d="M12 15.327v0c-2.127-0.055-3.818 1.691-3.818 3.764h0.055c0.273 0 0.491-0.218 0.545-0.491 0.109-0.764 0.491-1.473 1.036-1.964 0.436-0.436 1.036-0.709 1.691-0.818 0.273 0 0.491-0.218 0.491-0.491z"></path>
<path fill="#f19920" d="M9.655 19.473c0-1.527 1.2-2.727 2.727-2.727 0.655 0 1.255 0.218 1.745 0.655-0.545-0.655-1.255-1.036-2.127-1.036-1.527 0-2.727 1.2-2.727 2.727 0 0.873 0.382 1.582 0.982 2.073-0.382-0.436-0.6-1.036-0.6-1.691z"></path>
<path fill="#ffcb5b" d="M13.636 20.782c-0.055 0-0.109 0-0.164-0.055-0.109-0.109-0.109-0.273 0-0.382 0.327-0.327 0.491-0.818 0.491-1.255 0-0.164 0.109-0.273 0.273-0.273s0.273 0.109 0.273 0.273c0 0.6-0.218 1.2-0.6 1.636-0.109 0.055-0.218 0.055-0.273 0.055z"></path>
<path fill="#f19920" d="M12 20.727c-0.327 0-0.545-0.218-0.545-0.545v-2.182c0-0.327 0.218-0.545 0.545-0.545s0.545 0.218 0.545 0.545v2.182c0 0.327-0.218 0.545-0.545 0.545z"></path>
</svg>
