<!-- Generated by IcoMoon.io -->
<svg version="1.1" xmlns="http://www.w3.org/2000/svg" width="24" height="24" viewBox="0 0 24 24">
<title>package</title>
<path fill="#3bb54a" d="M18 6.544c0 3.314-2.686 6-6 6s-6-2.686-6-6c0-3.314 2.686-6 6-6s6 2.686 6 6z"></path>
<path fill="#8fcc92" d="M8.728 3.164c-0.056 0-0.164-0.056-0.22-0.108-0.108-0.108-0.108-0.272 0-0.38 0.492-0.436 1.092-0.82 1.744-1.036 0.164-0.056 0.272 0 0.328 0.164s0 0.272-0.164 0.328c-0.544 0.211-1.087 0.487-1.523 0.923-0.056 0.108-0.112 0.108-0.164 0.108z"></path>
<path fill="#8fcc92" d="M7.092 6.82c-0.164 0-0.272-0.108-0.272-0.272 0-0.82 0.164-1.58 0.544-2.292 0.056-0.108 0.22-0.164 0.38-0.108 0.108 0.056 0.164 0.22 0.108 0.38-0.328 0.656-0.492 1.364-0.492 2.072 0.005 0.108-0.103 0.22-0.267 0.22z"></path>
<path fill="#0e9347" d="M15.328 1.58c0.656 0.928 1.036 2.072 1.036 3.328 0 3.328-2.672 6-6 6-1.256 0-2.4-0.38-3.328-1.036 1.092 1.58 2.892 2.672 4.964 2.672 3.328 0 6-2.672 6-6 0-2.072-1.036-3.923-2.672-4.964z"></path>
<path fill="#c97629" d="M13.636 23.456h-10.908c-0.328 0-0.544-0.22-0.544-0.544v-13.092h11.456v13.636h-0.005z"></path>
<path fill="#b06328" d="M13.636 23.456h7.636c0.328 0 0.544-0.22 0.544-0.544v-13.092h-8.18v13.636z"></path>
<path fill="#b06328" d="M2.728 22.908v-6.544c0-0.6 0.492-1.092 1.092-1.092h8.292c0.272 0 0.492-0.164 0.544-0.436l0.98-5.020h-11.456v13.092c0 0.328 0.22 0.544 0.544 0.544h10.908c-0.328-0.328-0.82-0.544-1.308-0.544h-9.595z"></path>
<path fill="#a35425" d="M21.272 9.82h-7.636l0.98 5.020c0.056 0.272 0.272 0.436 0.544 0.436h5.020c0.6 0 1.092 0.492 1.092 1.092v6.544h-6.328c-0.492 0-0.98 0.22-1.308 0.544h7.636c0.328 0 0.544-0.22 0.544-0.544v-13.092h-0.544z"></path>
<path fill="#c97629" d="M16.964 14.18h6.492c0.328 0 0.544-0.272 0.544-0.544 0-0.108 0-0.22-0.108-0.272l-2.072-3.544h-8.184l2.4 3.872c0.22 0.272 0.544 0.487 0.928 0.487z"></path>
<path fill="#da8c36" d="M10.308 14.18h-9.764c-0.328 0-0.544-0.272-0.544-0.544 0-0.108 0-0.22 0.108-0.272l2.072-3.544h11.456l-2.4 3.872c-0.216 0.272-0.544 0.487-0.928 0.487z"></path>
<path fill="#ffcb5b" d="M3.544 19.636h3.272c0.164 0 0.272 0.108 0.272 0.272v0c0 0.164-0.108 0.272-0.272 0.272h-3.272c-0.164 0-0.272-0.108-0.272-0.272v0c0-0.164 0.108-0.272 0.272-0.272z"></path>
<path fill="#ffcb5b" d="M3.544 20.728h2.18c0.164 0 0.272 0.108 0.272 0.272v0c0 0.164-0.108 0.272-0.272 0.272h-2.18c-0.164 0-0.272-0.108-0.272-0.272v0c0-0.164 0.108-0.272 0.272-0.272z"></path>
<path fill="#0e9347" d="M12 8.648c-0.122 0-0.239-0.047-0.333-0.136l-1.636-1.636c-0.183-0.183-0.183-0.478 0-0.661s0.478-0.183 0.661 0l1.303 1.303 2.939-2.939c0.183-0.183 0.478-0.183 0.661 0s0.183 0.478 0 0.661l-3.272 3.272c-0.084 0.094-0.202 0.136-0.323 0.136z"></path>
<path fill="#fff" d="M11.456 8.105c-0.127 0-0.244-0.052-0.333-0.136l-1.636-1.636c-0.183-0.183-0.183-0.478 0-0.661s0.478-0.183 0.661 0l1.303 1.303 2.944-2.944c0.183-0.183 0.478-0.183 0.661 0s0.183 0.478 0 0.661l-3.272 3.277c-0.084 0.089-0.206 0.136-0.328 0.136z"></path>
</svg>
