<!-- Generated by IcoMoon.io -->
<svg version="1.1" xmlns="http://www.w3.org/2000/svg" width="24" height="24" viewBox="0 0 24 24">
<title>panel</title>
<path fill="#92582b" d="M10.909 21.273v-20.182c0-0.6 0.491-1.091 1.091-1.091v0c0.6 0 1.091 0.491 1.091 1.091v20.182h-2.182z"></path>
<path fill="#7c4b22" d="M7.091 23.455c0 0.273 0.273 0.545 0.545 0.545h8.727c0.273 0 0.545-0.273 0.545-0.545v0c0-0.273-0.218-0.655-0.491-0.764 0 0-3-1.418-3.327-1.418h-2.182c-0.273 0-3.327 1.418-3.327 1.418-0.273 0.109-0.491 0.491-0.491 0.764v0z"></path>
<path fill="#7c4b22" d="M12 1.091v6.545h-1.091v0.545c0.6 0 1.091 0.491 1.091 1.091v4.909h-1.091v0.545c0.6 0 1.091 0.491 1.091 1.091v5.455h1.091v-20.182c0-0.327-0.218-0.545-0.545-0.545v0c-0.327-0-0.545 0.218-0.545 0.545z"></path>
<path fill="#6e421b" d="M7.636 24h8.727c0.273 0 0.545-0.273 0.545-0.545v0c0-0.273-0.218-0.655-0.491-0.764 0 0-3-1.418-3.327-1.418h-1.091l0.709 1.418c0.164 0.382-0.109 0.764-0.491 0.764h-5.127c0 0.273 0.273 0.545 0.545 0.545z"></path>
<path fill="#da8c36" d="M14.182 14.727h-11.564c-0.273 0-0.545-0.109-0.764-0.327l-1.473-1.473c-0.218-0.218-0.382-0.6-0.382-0.927v0c0-0.327 0.164-0.709 0.382-0.927l1.473-1.473c0.218-0.218 0.491-0.327 0.764-0.327h11.564c0.6 0 1.091 0.491 1.091 1.091v3.273c-0 0.6-0.491 1.091-1.091 1.091z"></path>
<path fill="#da8c36" d="M9.818 2.182h11.564c0.273 0 0.545 0.109 0.764 0.327l1.473 1.473c0.218 0.218 0.382 0.6 0.382 0.927v0c0 0.327-0.164 0.709-0.382 0.927l-1.473 1.473c-0.218 0.218-0.491 0.327-0.764 0.327h-11.564c-0.6 0-1.091-0.491-1.091-1.091v-3.273c0-0.6 0.491-1.091 1.091-1.091z"></path>
<path fill="#c97629" d="M14.182 10.364v1.091c0 0.327-0.218 0.545-0.545 0.545h-13.636c0 0.327 0.164 0.709 0.382 0.927l1.473 1.473c0.218 0.218 0.491 0.327 0.764 0.327h11.564c0.6 0 1.091-0.491 1.091-1.091v-3.273c-0-0.709-1.091-0.655-1.091 0z"></path>
<path fill="#7c4b22" d="M12.545 12c0 0.301-0.244 0.545-0.545 0.545s-0.545-0.244-0.545-0.545c0-0.301 0.244-0.545 0.545-0.545s0.545 0.244 0.545 0.545z"></path>
<path fill="#c97629" d="M9.818 7.636h11.564c0.273 0 0.545-0.109 0.764-0.327l1.473-1.473c0.218-0.218 0.382-0.6 0.382-0.927h-13.636c-0.327 0-0.545 0.218-0.545 0.545v2.182z"></path>
<path fill="#7c4b22" d="M12.545 4.909c0 0.301-0.244 0.545-0.545 0.545s-0.545-0.244-0.545-0.545c0-0.301 0.244-0.545 0.545-0.545s0.545 0.244 0.545 0.545z"></path>
<path fill="#e7a54c" d="M9.818 2.727h2.182c0.164 0 0.273 0.109 0.273 0.273v0c0 0.164-0.109 0.273-0.273 0.273h-2.182c-0.164 0-0.273-0.109-0.273-0.273v0c-0-0.164 0.109-0.273 0.273-0.273z"></path>
<path fill="#e7a54c" d="M13.364 3c0 0.151-0.122 0.273-0.273 0.273s-0.273-0.122-0.273-0.273c0-0.151 0.122-0.273 0.273-0.273s0.273 0.122 0.273 0.273z"></path>
<path fill="#e7a54c" d="M3 9.818h2.727c0.164 0 0.273 0.109 0.273 0.273v0c0 0.164-0.109 0.273-0.273 0.273h-2.727c-0.164 0-0.273-0.109-0.273-0.273v0c0-0.164 0.109-0.273 0.273-0.273z"></path>
</svg>
