<?xml version="1.0" encoding="utf-8"?>
<!-- Generator: Adobe Illustrator 21.1.0, SVG Export Plug-In . SVG Version: 6.00 Build 0)  -->
<svg version="1.1" id="Layer_1" xmlns="http://www.w3.org/2000/svg" xmlns:xlink="http://www.w3.org/1999/xlink" x="0px" y="0px"
	 viewBox="0 0 512 512" style="enable-background:new 0 0 512 512;" xml:space="preserve">
<style type="text/css">
	.st0{display:none;fill:#FFFFFF;}
	.st1{fill:#FFFFFF;}
	.st2{fill:#FFEBF0;}
	.st3{fill:#F2F2F2;}
	.st4{fill:#D8C3CA;}
	.st5{fill:#FECE0E;}
	.st6{fill:#EFE4E7;}
</style>
<circle class="st0" cx="256" cy="256" r="256"/>
<g>
	<path class="st1" d="M396.6,123l-233.1,80.2l71,14.2L396.6,123z"/>
	<path class="st2" d="M163.5,203.2l71,14.2l47.1-27.4L163.5,203.2z"/>
	<path class="st3" d="M234.5,217.4l11,83.7L396.6,123L234.5,217.4z"/>
	<path class="st4" d="M234.5,217.4l11,83.7l67.5-79.6l-11.7-19l-23.1,19.3l3.3-31.8l0,0L234.5,217.4L234.5,217.4L234.5,217.4
		L234.5,217.4z"/>
	<path class="st5" d="M396.6,123L260,237l-14.5,64L396.6,123z"/>
	<path class="st6" d="M278.3,221.8L260,237l-14.5,64l67.5-79.6l-11.7-19L278.3,221.8L278.3,221.8L278.3,221.8z"/>
	<path class="st1" d="M350.1,281.9L396.6,123L260,237L350.1,281.9z"/>
	<path class="st2" d="M278.2,221.8L259.9,237l90.1,44.9l-48.8-79.4L278.2,221.8L278.2,221.8L278.2,221.8L278.2,221.8z"/>
	<path class="st1" d="M115.4,324.6l97.3-91.9l4,5.5L115.4,324.6z M224,389l88.6-98.3l5.9,2.7L224,389z M153,379.4l77.9-75.3l4.2,3.7
		L153,379.4L153,379.4L153,379.4L153,379.4z"/>
</g>
</svg>
