<!-- Generated by IcoMoon.io -->
<svg version="1.1" xmlns="http://www.w3.org/2000/svg" width="24" height="24" viewBox="0 0 24 24">
<title>payment-method</title>
<path fill="#595a66" d="M15.818 0h-10.909c-0.927 0-1.636 0.709-1.636 1.636v20.727c0 0.927 0.709 1.636 1.636 1.636h10.909c0.927 0 1.636-0.709 1.636-1.636v-20.727c0-0.927-0.709-1.636-1.636-1.636z"></path>
<path fill="#494a52" d="M16.909 0.436v21.927c0 0.6-0.491 1.091-1.091 1.091h-11.455c-0.327 0-0.6-0.109-0.873-0.218 0.327 0.436 0.818 0.764 1.418 0.764h10.909c0.927 0 1.636-0.709 1.636-1.636v-20.727c0-0.491-0.218-0.927-0.545-1.2z"></path>
<path fill="#70b7e5" d="M16.364 4.364v15.818c0 0.273-0.218 0.545-0.545 0.545h-10.909c-0.327 0-0.545-0.218-0.545-0.545v-15.818c0-0.273 0.218-0.545 0.545-0.545h10.909c0.327 0 0.545 0.218 0.545 0.545z"></path>
<path fill="#4c9cd6" d="M15.818 3.818h-10.909c-0.327 0-0.545 0.218-0.545 0.545v0.545c0-0.273 0.218-0.545 0.545-0.545h10.909c0.327 0 0.545 0.218 0.545 0.545v-0.545c0-0.327-0.218-0.545-0.545-0.545z"></path>
<path fill="#35363e" d="M10.909 22.364c0 0.301-0.244 0.545-0.545 0.545s-0.545-0.244-0.545-0.545c0-0.301 0.244-0.545 0.545-0.545s0.545 0.244 0.545 0.545z"></path>
<path fill="#90cef1" d="M4.909 20.182v-2.727l2.727 2.727z"></path>
<path fill="#90cef1" d="M4.909 16.364l3.818 3.818h1.091l-4.909-4.909z"></path>
<path fill="#6f707e" d="M3.818 20.509c0 0.491-0.218 0.982-0.545 1.309v0-10.582c0.327 0.327 0.545 0.818 0.545 1.309v7.964z"></path>
<path fill="#6f707e" d="M6.764 0.545c-0.491 0-0.982-0.218-1.309-0.545v0h8.727c-0.327 0.327-0.818 0.545-1.309 0.545h-6.109z"></path>
<path fill="#35363e" d="M11.727 2.182h-2.727c-0.164 0-0.273-0.109-0.273-0.273v0c0-0.164 0.109-0.273 0.273-0.273h2.727c0.164 0 0.273 0.109 0.273 0.273v0c0 0.164-0.109 0.273-0.273 0.273z"></path>
<path fill="#35363e" d="M7.909 1.636v0c0.164 0 0.273 0.109 0.273 0.273v0c0 0.164-0.109 0.273-0.273 0.273v0c-0.164 0-0.273-0.109-0.273-0.273v0c0-0.164 0.109-0.273 0.273-0.273z"></path>
<path fill="#f37321" d="M19.636 15.818h-9.818c-0.6 0-1.091-0.491-1.091-1.091v-6.545c0-0.6 0.491-1.091 1.091-1.091h9.818c0.6 0 1.091 0.491 1.091 1.091v6.545c-0 0.6-0.491 1.091-1.091 1.091z"></path>
<path fill="#f79548" d="M13.636 15.818h-3.273l3.818-8.727h3.273z"></path>
<path fill="#f79548" d="M15.273 15.818h-1.091l3.818-8.727h1.091z"></path>
<path fill="#ea5434" d="M13.909 13.636h-3.818c-0.164 0-0.273-0.109-0.273-0.273s0.109-0.273 0.273-0.273h3.818c0.164 0 0.273 0.109 0.273 0.273s-0.109 0.273-0.273 0.273z"></path>
<path fill="#f37321" d="M13.909 13.636c0.164 0 0.273-0.109 0.273-0.273s-0.109-0.273-0.273-0.273h-2.345l-0.218 0.545h2.564z"></path>
<path fill="#ea5434" d="M12.273 14.727h-2.182c-0.164 0-0.273-0.109-0.273-0.273s0.109-0.273 0.273-0.273h2.182c0.164 0 0.273 0.109 0.273 0.273s-0.109 0.273-0.273 0.273z"></path>
<path fill="#f37321" d="M12.273 14.727c0.164 0 0.273-0.109 0.273-0.273s-0.109-0.273-0.273-0.273h-1.2l-0.218 0.545h1.418z"></path>
<path fill="#014463" d="M8.727 8.727h12v2.182h-12v-2.182z"></path>
<path fill="#0b5068" d="M16.309 10.909h1.091l0.982-2.182h-1.091z"></path>
<path fill="#0b5068" d="M12.491 10.909h3.273l0.982-2.182h-3.273z"></path>
<path fill="#494a52" d="M16.364 15.818h0.545v0.545h-0.545v-0.545z"></path>
<path fill="#4c9cd6" d="M9.818 15.818c0.327 0.327 0.818 0.545 1.309 0.545h5.236v-0.545h-6.545z"></path>
</svg>
