<!-- Generated by IcoMoon.io -->
<svg version="1.1" xmlns="http://www.w3.org/2000/svg" width="24" height="24" viewBox="0 0 24 24">
<title>presentation</title>
<path fill="#35495c" d="M16.357 19.636h-8.727c-0.327 0-0.545-0.218-0.545-0.545s0.218-0.545 0.545-0.545h8.727c0.327 0 0.545 0.218 0.545 0.545s-0.218 0.545-0.545 0.545z"></path>
<path fill="#123247" d="M8.775 18.764l0.055-0.218h-1.145l-0.218 0.545h-0.382c0 0.218 0.164 0.436 0.382 0.491 0.055 0 0.109 0.055 0.164 0.055h8.727c0.327 0 0.545-0.218 0.545-0.545h-7.855c-0.164 0-0.327-0.164-0.273-0.327z"></path>
<path fill="#576d7e" d="M19.084 22.909h-0.709l-2.345-6.545h-1.145l2.618 7.255c0.055 0.218 0.273 0.382 0.491 0.382h1.091c0.327 0 0.545-0.218 0.545-0.545s-0.218-0.545-0.545-0.545z"></path>
<path fill="#576d7e" d="M7.957 16.364l-2.345 6.545h-0.709c-0.327 0-0.545 0.218-0.545 0.545s0.218 0.545 0.545 0.545h1.091c0.218 0 0.436-0.164 0.491-0.382l2.618-7.255h-1.145z"></path>
<path fill="#35495c" d="M19.084 22.909h-0.545c0.327 0 0.545 0.218 0.545 0.545s-0.218 0.545-0.545 0.545h0.545c0.327 0 0.545-0.218 0.545-0.545s-0.218-0.545-0.545-0.545z"></path>
<path fill="#b0c4d8" d="M21.266 16.364h-18.545c-0.927 0-1.636-0.709-1.636-1.636v-12.545h21.818v12.545c-0 0.927-0.709 1.636-1.636 1.636z"></path>
<path fill="#35495c" d="M16.029 16.364v0h-1.145l0.382 1.091c0.382 0 0.709 0.218 0.818 0.6l1.582 4.364c0.109 0.327 0.382 0.491 0.709 0.491l-2.291-6.382-0.055-0.164z"></path>
<path fill="#35495c" d="M8.557 16.364v0h-0.6l-0.382 1.091h0.109c0.218 0 0.382 0.218 0.327 0.436l-2.018 5.727c-0.109 0.218-0.327 0.382-0.545 0.382h0.545c0.218 0 0.436-0.164 0.491-0.382l2.618-7.255h-0.545z"></path>
<path fill="#99b4cd" d="M21.811 2.727v12h-19.636c0 0.6 0.491 1.091 1.091 1.091h18c0.6 0 1.091-0.491 1.091-1.091v-9.818c0-0.327 0.218-0.545 0.545-0.545v-1.636h-1.091z"></path>
<path fill="#eceff9" d="M21.266 15.273h-18.545c-0.327 0-0.545-0.218-0.545-0.545v-11.455h19.636v11.455c0 0.327-0.218 0.545-0.545 0.545z"></path>
<path fill="#b0c4d8" d="M9.266 13.636c-0.109 0-0.218-0.055-0.327-0.109-0.218-0.164-0.327-0.491-0.109-0.764l2.727-3.818c0.164-0.273 0.491-0.327 0.764-0.109 0.218 0.164 0.327 0.491 0.109 0.764l-2.727 3.818c-0.109 0.164-0.273 0.218-0.436 0.218z"></path>
<path fill="#b0c4d8" d="M15.811 11.455c-0.055 0-0.164 0-0.218-0.055l-3.818-1.636c-0.273-0.109-0.382-0.436-0.273-0.709s0.436-0.382 0.709-0.273l3.818 1.636c0.273 0.109 0.382 0.436 0.273 0.709-0.055 0.218-0.273 0.327-0.491 0.327z"></path>
<path fill="#99b4cd" d="M15.811 10.909c-0.055 0-0.164 0-0.218-0.055l-3.818-1.636c-0.109-0.055-0.164-0.109-0.273-0.218l-0.055 0.055c-0.109 0.273 0 0.6 0.273 0.709l3.818 1.636c0.109 0.055 0.218 0.055 0.273 0.055 0.218 0 0.436-0.109 0.491-0.327 0.055-0.164 0.055-0.327-0.055-0.491-0.055 0.164-0.273 0.273-0.436 0.273z"></path>
<path fill="#b0c4d8" d="M15.811 11.455c-0.109 0-0.218 0-0.273-0.109-0.273-0.164-0.327-0.491-0.164-0.764l2.727-4.364c0.164-0.273 0.491-0.327 0.764-0.164s0.327 0.491 0.164 0.764l-2.727 4.364c-0.109 0.164-0.327 0.273-0.491 0.273z"></path>
<path fill="#b0c4d8" d="M9.266 13.636c-0.055 0-0.164 0-0.218-0.055l-3.818-1.636c-0.273-0.109-0.382-0.436-0.273-0.709s0.436-0.382 0.709-0.273l3.818 1.636c0.273 0.109 0.382 0.436 0.273 0.709-0.055 0.218-0.273 0.327-0.491 0.327z"></path>
<path fill="#99b4cd" d="M9.702 12.818c-0.055 0.164-0.273 0.273-0.436 0.273-0.055 0-0.164 0-0.218-0.055l-3.818-1.636c-0.109-0.055-0.164-0.109-0.273-0.218l-0.055 0.055c-0.109 0.273 0 0.6 0.273 0.709l3.818 1.636c0.109 0.055 0.218 0.055 0.273 0.055 0.218 0 0.436-0.109 0.491-0.327 0.055-0.164 0.055-0.327-0.055-0.491z"></path>
<path fill="#ee2c39" d="M10.357 13.091c0 0.603-0.488 1.091-1.091 1.091s-1.091-0.488-1.091-1.091c0-0.603 0.488-1.091 1.091-1.091s1.091 0.488 1.091 1.091z"></path>
<path fill="#3bb54a" d="M6.538 11.455c0 0.603-0.488 1.091-1.091 1.091s-1.091-0.488-1.091-1.091c0-0.603 0.488-1.091 1.091-1.091s1.091 0.488 1.091 1.091z"></path>
<path fill="#3bb54a" d="M13.084 9.273c0 0.603-0.488 1.091-1.091 1.091s-1.091-0.488-1.091-1.091c0-0.603 0.488-1.091 1.091-1.091s1.091 0.488 1.091 1.091z"></path>
<path fill="#ee2c39" d="M16.902 10.909c0 0.603-0.488 1.091-1.091 1.091s-1.091-0.488-1.091-1.091c0-0.603 0.488-1.091 1.091-1.091s1.091 0.488 1.091 1.091z"></path>
<path fill="#3bb54a" d="M19.629 6.545c0 0.603-0.488 1.091-1.091 1.091s-1.091-0.488-1.091-1.091c0-0.603 0.488-1.091 1.091-1.091s1.091 0.488 1.091 1.091z"></path>
<path fill="#99b4cd" d="M17.557 7.036l-0.109 0.218c0 0.109 0.055 0.273 0.109 0.327 0.109 0.218 0.109 0.436 0 0.655l-1.145 1.8c0.109 0.109 0.218 0.218 0.327 0.382l1.418-2.291 0.327-0.491c-0.382 0-0.709-0.273-0.927-0.6z"></path>
<path fill="#99b4cd" d="M11.011 9.709l-0.109 0.164c0 0.164 0.055 0.273 0.109 0.382 0.109 0.218 0.055 0.491-0.055 0.655l-0.982 1.364c0.109 0.109 0.218 0.218 0.273 0.382l1.309-1.8 0.327-0.491c-0.382-0.055-0.709-0.273-0.873-0.655z"></path>
<path fill="#cc202c" d="M16.575 11.673c0.327-0.327 0.382-0.873 0.218-1.255-0.055-0.164-0.327-0.164-0.436-0.055l-1.091 1.091c-0.109 0.109-0.109 0.327 0.055 0.436 0.436 0.218 0.927 0.109 1.255-0.218z"></path>
<path fill="#cc202c" d="M10.029 13.855c0.327-0.327 0.382-0.873 0.218-1.255-0.055-0.164-0.327-0.164-0.436-0.055l-1.091 1.091c-0.109 0.109-0.109 0.327 0.055 0.436 0.436 0.218 0.927 0.109 1.255-0.218z"></path>
<path fill="#0e9347" d="M19.302 7.309c0.327-0.327 0.382-0.873 0.218-1.255-0.055-0.164-0.327-0.164-0.436-0.055l-1.091 1.091c-0.109 0.109-0.109 0.327 0.055 0.436 0.436 0.218 0.927 0.109 1.255-0.218z"></path>
<path fill="#0e9347" d="M12.757 10.036c0.327-0.327 0.382-0.873 0.218-1.255-0.055-0.164-0.327-0.164-0.436-0.055l-1.091 1.091c-0.109 0.109-0.109 0.327 0.055 0.436 0.436 0.218 0.927 0.109 1.255-0.218z"></path>
<path fill="#0e9347" d="M6.211 12.218c0.327-0.327 0.382-0.873 0.218-1.255-0.055-0.164-0.327-0.164-0.436-0.055l-1.091 1.091c-0.109 0.109-0.109 0.327 0.055 0.436 0.436 0.218 0.927 0.109 1.255-0.218z"></path>
<path fill="#c4d7e5" d="M2.175 3.273h19.636v1.091h-19.636v-1.091z"></path>
<path fill="#99b4cd" d="M1.084 2.727h1.091v1.636h-1.091v-1.636z"></path>
<path fill="#4c9cd6" d="M22.357 3.273h-20.727c-0.6 0-1.091-0.491-1.091-1.091v0c0-0.6 0.491-1.091 1.091-1.091h20.727c0.6 0 1.091 0.491 1.091 1.091v0c0 0.6-0.491 1.091-1.091 1.091z"></path>
<path fill="#70b7e5" d="M2.448 1.091h3.273c0.164 0 0.273 0.109 0.273 0.273v0c0 0.164-0.109 0.273-0.273 0.273h-3.273c-0.164 0-0.273-0.109-0.273-0.273v0c-0-0.164 0.109-0.273 0.273-0.273z"></path>
<path fill="#99b4cd" d="M4.629 5.455h3.273c0.164 0 0.273 0.109 0.273 0.273v0c0 0.164-0.109 0.273-0.273 0.273h-3.273c-0.164 0-0.273-0.109-0.273-0.273v0c0-0.164 0.109-0.273 0.273-0.273z"></path>
<path fill="#99b4cd" d="M4.629 6.545h2.727c0.164 0 0.273 0.109 0.273 0.273v0c0 0.164-0.109 0.273-0.273 0.273h-2.727c-0.164 0-0.273-0.109-0.273-0.273v0c0-0.164 0.109-0.273 0.273-0.273z"></path>
<path fill="#70b7e5" d="M6.811 1.636v0c-0.164 0-0.273-0.109-0.273-0.273v0c0-0.164 0.109-0.273 0.273-0.273v0c0.164 0 0.273 0.109 0.273 0.273v0c0 0.164-0.109 0.273-0.273 0.273z"></path>
<path fill="#576d7e" d="M12.538 1.091h-1.091v-0.545c0-0.327 0.218-0.545 0.545-0.545v0c0.327 0 0.545 0.218 0.545 0.545v0.545z"></path>
<path fill="#35495c" d="M12.538 1.091v-0.273c0-0.164-0.109-0.273-0.273-0.273s-0.273 0.109-0.273 0.273v0.273h0.545z"></path>
<path fill="#ee2c39" d="M3.538 5.455c-0.164 0-0.273 0.109-0.273 0.273v0c0 0.164 0.109 0.273 0.273 0.273s0.273-0.109 0.273-0.273v0c0-0.164-0.109-0.273-0.273-0.273zM3.538 5.618c0 0 0-0.055 0 0v0c0-0.055 0 0 0 0z"></path>
<path fill="#3bb54a" d="M3.538 6.545c-0.164 0-0.273 0.109-0.273 0.273v0c0 0.164 0.109 0.273 0.273 0.273s0.273-0.109 0.273-0.273v0c0-0.164-0.109-0.273-0.273-0.273zM3.538 6.709v0 0 0z"></path>
<path fill="#3689c9" d="M22.357 1.091v0c0 0.6-0.491 1.091-1.091 1.091h-20.727c0 0.6 0.491 1.091 1.091 1.091h20.673c0.545 0 1.036-0.382 1.145-0.927 0.109-0.655-0.436-1.255-1.091-1.255z"></path>
<path fill="#1470b8" d="M18.266 2.727h3.273c0.164 0 0.273 0.109 0.273 0.273v0c0 0.164-0.109 0.273-0.273 0.273h-3.273c-0.164 0-0.273-0.109-0.273-0.273v0c0-0.164 0.109-0.273 0.273-0.273z"></path>
<path fill="#1470b8" d="M15.538 2.727h1.636c0.164 0 0.273 0.109 0.273 0.273v0c0 0.164-0.109 0.273-0.273 0.273h-1.636c-0.164 0-0.273-0.109-0.273-0.273v0c0-0.164 0.109-0.273 0.273-0.273z"></path>
</svg>
