<!-- Generated by IcoMoon.io -->
<svg version="1.1" xmlns="http://www.w3.org/2000/svg" width="24" height="24" viewBox="0 0 24 24">
<title>qr-code-read</title>
<path d="M0 0v10.957h10.957v-10.957h-10.957zM9.391 9.391h-7.826v-7.826h7.826v7.826z"></path>
<path d="M3.13 3.13h4.696v4.696h-4.696v-4.696z"></path>
<path d="M13.043 0v10.957h10.957v-10.957h-10.957zM22.435 9.391h-7.826v-7.826h7.826v7.826z"></path>
<path d="M16.174 3.13h4.696v4.696h-4.696v-4.696z"></path>
<path d="M0 13.043v10.957h10.957v-10.957h-10.957zM9.391 22.435h-7.826v-7.826h7.826v7.826z"></path>
<path d="M3.13 16.174h4.696v4.696h-4.696v-4.696z"></path>
<path d="M16.174 14.609v-1.565h-3.13v10.957h3.13v-1.565h-1.565v-3.13h1.565v-1.565h-1.565v-3.13z"></path>
<path d="M22.435 13.043h1.565v1.565h-1.565v-1.565z"></path>
<path d="M22.435 16.696v5.739h-1.565v1.565h3.13v-7.304z"></path>
<path d="M17.739 13.043h3.13v1.565h-3.13v-1.565z"></path>
<path d="M20.87 17.739v-1.565h-3.13v4.696h3.13v-1.565h-1.565v-1.565z"></path>
<path d="M17.739 22.435h1.565v1.565h-1.565v-1.565z"></path>
</svg>
