<!-- Generated by IcoMoon.io -->
<svg version="1.1" xmlns="http://www.w3.org/2000/svg" width="24" height="24" viewBox="0 0 24 24">
<title>receive</title>
<path d="M14.116 18.29l-5.003 5.52c-0.11 0.121-0.265 0.19-0.428 0.19s-0.319-0.069-0.428-0.19l-5.003-5.52c-0.153-0.169-0.193-0.413-0.1-0.622s0.3-0.344 0.528-0.344h2.307v-8.747c0-0.319 0.259-0.578 0.578-0.578h4.236c0.319 0 0.578 0.259 0.578 0.578v8.747h2.307c0.229 0 0.436 0.135 0.528 0.344s0.053 0.453-0.1 0.622zM18.011 15.422v-8.747h2.307c0.229 0 0.436-0.135 0.528-0.344s0.053-0.453-0.1-0.622l-5.003-5.52c-0.11-0.121-0.265-0.19-0.428-0.19s-0.319 0.069-0.428 0.19l-5.003 5.52c-0.153 0.169-0.193 0.413-0.1 0.622s0.3 0.344 0.528 0.344h2.307v8.747c0 0.319 0.259 0.578 0.578 0.578h4.236c0.319 0 0.578-0.259 0.578-0.578zM13.775 6.098c0-0.319-0.259-0.578-0.578-0.578h-1.581l3.7-4.082 3.7 4.082h-1.581c-0.319 0-0.578 0.259-0.578 0.578v8.747h-3.081v-8.747z"></path>
</svg>
