<!-- Generated by IcoMoon.io -->
<svg version="1.1" xmlns="http://www.w3.org/2000/svg" width="24" height="24" viewBox="0 0 24 24">
<title>responsive</title>
<path fill="#d5e3ef" d="M14.727 19.636v-1.091h-4.364v1.091c0 0.6-0.491 1.091-1.091 1.091h-1.091c-0.327 0-0.545 0.218-0.545 0.545v0c0 0.327 0.218 0.545 0.545 0.545h8.727c0.327 0 0.545-0.218 0.545-0.545v0c0-0.327-0.218-0.545-0.545-0.545h-1.091c-0.6 0-1.091-0.491-1.091-1.091z"></path>
<path fill="#b0c4d9" d="M10.364 18.545v0.545h2.727c0.327 0 0.545 0.218 0.545 0.545v0c0 0.327 0.218 0.545 0.545 0.545h0.273c0.164 0 0.273-0.109 0.273-0.273v-1.364h-4.364z"></path>
<path fill="#b0c4d9" d="M16.909 21.818h-8.727c-0.327 0-0.545-0.218-0.545-0.545h9.818c0 0.327-0.218 0.545-0.545 0.545z"></path>
<path fill="#d5e3ef" d="M22.909 18.545h-19.636c-0.6 0-1.091-0.491-1.091-1.091v-14.182c0-0.6 0.491-1.091 1.091-1.091h19.636c0.6 0 1.091 0.491 1.091 1.091v14.182c0 0.6-0.491 1.091-1.091 1.091z"></path>
<path fill="#595a66" d="M24 15.273h-21.818v-12c0-0.6 0.491-1.091 1.091-1.091h19.636c0.6 0 1.091 0.491 1.091 1.091v12z"></path>
<path fill="#595a66" d="M13.091 16.909c0 0.301-0.244 0.545-0.545 0.545s-0.545-0.244-0.545-0.545c0-0.301 0.244-0.545 0.545-0.545s0.545 0.244 0.545 0.545z"></path>
<path fill="#70b7e5" d="M3.273 3.273h19.636v10.909h-19.636v-10.909z"></path>
<path fill="#595a66" d="M6.545 21.818h-5.455c-0.6 0-1.091-0.491-1.091-1.091v-10.909c0-0.6 0.491-1.091 1.091-1.091h5.455c0.6 0 1.091 0.491 1.091 1.091v10.909c-0 0.6-0.491 1.091-1.091 1.091z"></path>
<path fill="#494a52" d="M7.091 8.891v11.836c0 0.327-0.218 0.545-0.545 0.545h-6.382c0.164 0.327 0.545 0.545 0.927 0.545h5.455c0.6 0 1.091-0.491 1.091-1.091v-10.909c-0-0.382-0.218-0.764-0.545-0.927z"></path>
<path fill="#70b7e5" d="M1.091 10.909h5.455v8.727h-5.455v-8.727z"></path>
<path fill="#35363e" d="M4.364 20.727c0 0.301-0.244 0.545-0.545 0.545s-0.545-0.244-0.545-0.545c0-0.301 0.244-0.545 0.545-0.545s0.545 0.244 0.545 0.545z"></path>
<path fill="#35363e" d="M4.636 10.364h-1.636c-0.164 0-0.273-0.109-0.273-0.273s0.109-0.273 0.273-0.273h1.636c0.164 0 0.273 0.109 0.273 0.273s-0.109 0.273-0.273 0.273z"></path>
<path fill="#90cef1" d="M6.545 19.636h-2.727l2.727-2.727z"></path>
<path fill="#90cef1" d="M2.727 19.636l3.818-3.818v-1.091l-4.909 4.909z"></path>
<path fill="#4c9cd6" d="M1.091 10.909h5.455v0.545h-5.455v-0.545z"></path>
<path fill="#6f707e" d="M0.545 19.418c0 0.491-0.218 0.982-0.545 1.309v0-10.909c0.327 0.327 0.545 0.818 0.545 1.309v8.291z"></path>
<path fill="#90cef1" d="M21.818 13.636h-4.364l4.909-4.909v4.364c0 0.327-0.218 0.545-0.545 0.545z"></path>
<path fill="#90cef1" d="M15.818 13.636l6.545-6.545v-1.636l-8.182 8.182z"></path>
<path fill="#6f707e" d="M5.127 2.727c-0.491 0-0.982-0.218-1.309-0.545v0h10.909c-0.327 0.327-0.818 0.545-1.309 0.545h-8.291z"></path>
<path fill="#35363e" d="M7.636 14.182h1.091v1.091h-1.091v-1.091z"></path>
<path fill="#b0c4d9" d="M7.636 15.273h1.091v3.273h-1.091v-3.273z"></path>
<path fill="#4c9cd6" d="M8.727 14.182h-1.091v-4.364c0.6 0 1.091 0.491 1.091 1.091v3.273z"></path>
</svg>
