<svg xmlns="http://www.w3.org/2000/svg" width="24" height="24" viewBox="0 0 24 24"><title>responsive</title><path fill="#d5e3ef" d="M14.727 19.636v-1.091h-4.364v1.091c0 .6-.491 1.091-1.091 1.091H8.181c-.327 0-.545.218-.545.545 0 .327.218.545.545.545h8.727c.327 0 .545-.218.545-.545 0-.327-.218-.545-.545-.545h-1.091c-.6 0-1.091-.491-1.091-1.091z"/><path fill="#b0c4d9" d="M10.364 18.545v.545h2.727c.327 0 .545.218.545.545 0 .327.218.545.545.545h.273c.164 0 .273-.109.273-.273v-1.364h-4.364zM16.909 21.818H8.182c-.327 0-.545-.218-.545-.545h9.818c0 .327-.218.545-.545.545z"/><path fill="#d5e3ef" d="M22.909 18.545H3.273c-.6 0-1.091-.491-1.091-1.091V3.272c0-.6.491-1.091 1.091-1.091h19.636c.6 0 1.091.491 1.091 1.091v14.182c0 .6-.491 1.091-1.091 1.091z"/><path fill="#595a66" d="M24 15.273H2.182v-12c0-.6.491-1.091 1.091-1.091h19.636c.6 0 1.091.491 1.091 1.091v12zM13.091 16.909a.545.545 0 1 1-1.09 0 .545.545 0 0 1 1.09 0z"/><path fill="#70b7e5" d="M3.273 3.273h19.636v10.909H3.273V3.273z"/><path fill="#595a66" d="M6.545 21.818H1.09c-.6 0-1.091-.491-1.091-1.091V9.818c0-.6.491-1.091 1.091-1.091h5.455c.6 0 1.091.491 1.091 1.091v10.909c0 .6-.491 1.091-1.091 1.091z"/><path fill="#494a52" d="M7.091 8.891v11.836c0 .327-.218.545-.545.545H.164c.164.327.545.545.927.545h5.455c.6 0 1.091-.491 1.091-1.091V9.817c0-.382-.218-.764-.545-.927z"/><path fill="#70b7e5" d="M1.091 10.909h5.455v8.727H1.091v-8.727z"/><path fill="#35363e" d="M4.364 20.727a.545.545 0 1 1-1.09 0 .545.545 0 0 1 1.09 0zM4.636 10.364H3c-.164 0-.273-.109-.273-.273s.109-.273.273-.273h1.636c.164 0 .273.109.273.273s-.109.273-.273.273z"/><path fill="#90cef1" d="M6.545 19.636H3.818l2.727-2.727zM2.727 19.636l3.818-3.818v-1.091l-4.909 4.909z"/><path fill="#4c9cd6" d="M1.091 10.909h5.455v.545H1.091v-.545z"/><path fill="#6f707e" d="M.545 19.418c0 .491-.218.982-.545 1.309V9.818c.327.327.545.818.545 1.309v8.291z"/><path fill="#90cef1" d="M21.818 13.636h-4.364l4.909-4.909v4.364c0 .327-.218.545-.545.545zM15.818 13.636l6.545-6.545V5.455l-8.182 8.182z"/><path fill="#6f707e" d="M5.127 2.727c-.491 0-.982-.218-1.309-.545h10.909a1.905 1.905 0 0 1-1.309.545H5.127z"/><path fill="#35363e" d="M7.636 14.182h1.091v1.091H7.636v-1.091z"/><path fill="#b0c4d9" d="M7.636 15.273h1.091v3.273H7.636v-3.273z"/><path fill="#4c9cd6" d="M8.727 14.182H7.636V9.818c.6 0 1.091.491 1.091 1.091v3.273z"/></svg>