<!-- Generated by IcoMoon.io -->
<svg version="1.1" xmlns="http://www.w3.org/2000/svg" width="24" height="24" viewBox="0 0 24 24">
<title>safe</title>
<path fill="#3e7777" d="M20.4 23.24c0 0.4-0.32 0.76-0.76 0.76h-0.88c-0.4 0-0.76-0.32-0.76-0.76v-1.28c0-0.4 0.32-0.76 0.76-0.76h0.88c0.4 0 0.76 0.32 0.76 0.76v1.28z"></path>
<path fill="#3e7777" d="M5.6 23.24c0 0.4-0.32 0.76-0.76 0.76h-0.88c-0.4 0-0.76-0.32-0.76-0.76v-1.28c0-0.4 0.32-0.76 0.76-0.76h0.88c0.4 0 0.76 0.32 0.76 0.76v1.28z"></path>
<path fill="#97b8bf" d="M23.2 20.16c0 1.24-0.96 2.24-2.2 2.24h-18c-1.24 0-2.2-1-2.2-2.24v-18c0-1.24 0.96-2.16 2.2-2.16h18c1.24 0 2.2 0.92 2.2 2.12v18.040z"></path>
<path fill="#719fa3" d="M23.2 6l-3.16-3.16-16.4 16.4 3.040 3.12h14.32c1.24 0 2.2-1 2.2-2.24v-14.12z"></path>
<path fill="#b9d7db" d="M20.8 18.080c0 0.96-0.92 1.92-1.84 1.92h-13.92c-0.96 0-1.84-0.96-1.84-1.92v-13.88c0-0.96 0.92-1.8 1.84-1.8h13.92c0.96 0 1.84 0.84 1.84 1.8v13.88z"></path>
<path fill="#99bec1" d="M3.2 9.040l10.92 10.96h4.040l-14.32-14.36-0.64 0.48z"></path>
<path fill="#99bec1" d="M3.2 17.080l2.88 2.92h4l-6.24-6.28-0.64 0.44z"></path>
<path fill="#cae8ea" d="M4.4 8.48c0 0.4-0.32 0.72-0.72 0.72h-0.2c-0.4 0-0.72-0.32-0.72-0.72v-2.2c0-0.4 0.32-0.72 0.72-0.72h0.2c0.4 0 0.72 0.32 0.72 0.72v2.2z"></path>
<path fill="#cae8ea" d="M4.4 16.48c0 0.4-0.32 0.72-0.72 0.72h-0.2c-0.4 0-0.72-0.32-0.72-0.72v-2.2c0-0.4 0.32-0.72 0.72-0.72h0.2c0.4 0 0.72 0.32 0.72 0.72v2.2z"></path>
<path fill="#bae1e2" d="M3.68 5.6v0c0.4 0 0.72 0.32 0.72 0.72v2.2c0 0.4-0.32 0.72-0.72 0.72v0z"></path>
<path fill="#bae1e2" d="M3.68 13.6v0c0.4 0 0.72 0.32 0.72 0.72v2.2c0 0.4-0.32 0.72-0.72 0.72v0z"></path>
<path fill="#05365b" d="M15.56 4.32c-2.12 0-3.88 1.72-3.88 3.88 0 2.12 1.72 3.88 3.88 3.88s3.88-1.72 3.88-3.88c0-2.16-1.76-3.88-3.88-3.88zM15.56 10.6c-1.32 0-2.4-1.080-2.4-2.4s1.080-2.4 2.4-2.4 2.4 1.080 2.4 2.4-1.080 2.4-2.4 2.4z"></path>
<path fill="#24966a" d="M16.56 8.2c0 0.552-0.448 1-1 1s-1-0.448-1-1c0-0.552 0.448-1 1-1s1 0.448 1 1z"></path>
<path fill="#137f53" d="M16.24 7.48c0.4 0.4 0.4 1 0 1.4s-1 0.4-1.4 0z"></path>
<path fill="#a6c7c9" d="M21.2 0.8c0 0.24-0.16 0.4-0.4 0.4h-17.6c-0.24 0-0.4-0.16-0.4-0.4v0c0-0.24 0.16-0.4 0.4-0.4h17.6c0.24 0 0.4 0.16 0.4 0.4v0z"></path>
<path fill="#137f53" d="M14.44 13.28c0 0.080-0.080 0.16-0.16 0.16h-0.44c-0.080 0-0.16-0.080-0.16-0.16v-0.48c0-0.080 0.080-0.16 0.16-0.16h0.44c0.080 0 0.16 0.080 0.16 0.16v0.48z"></path>
<path fill="#137f53" d="M16 13.28c0 0.080-0.080 0.16-0.16 0.16h-0.44c-0.080 0-0.16-0.080-0.16-0.16v-0.48c0-0.080 0.080-0.16 0.16-0.16h0.44c0.080 0 0.16 0.080 0.16 0.16v0.48z"></path>
<path fill="#137f53" d="M17.52 13.28c0 0.080-0.080 0.16-0.16 0.16h-0.44c-0.080 0-0.16-0.080-0.16-0.16v-0.48c0-0.080 0.080-0.16 0.16-0.16h0.44c0.080 0 0.16 0.080 0.16 0.16v0.48z"></path>
<path fill="#137f53" d="M14.44 14.56c0 0.080-0.080 0.16-0.16 0.16h-0.44c-0.080 0-0.16-0.080-0.16-0.16v-0.44c0-0.080 0.080-0.16 0.16-0.16h0.44c0.080 0 0.16 0.080 0.16 0.16v0.44z"></path>
<path fill="#137f53" d="M16 14.56c0 0.080-0.080 0.16-0.16 0.16h-0.44c-0.080 0-0.16-0.080-0.16-0.16v-0.44c0-0.080 0.080-0.16 0.16-0.16h0.44c0.080 0 0.16 0.080 0.16 0.16v0.44z"></path>
<path fill="#137f53" d="M17.52 14.56c0 0.080-0.080 0.16-0.16 0.16h-0.44c-0.080 0-0.16-0.080-0.16-0.16v-0.44c0-0.080 0.080-0.16 0.16-0.16h0.44c0.080 0 0.16 0.080 0.16 0.16v0.44z"></path>
<path fill="#137f53" d="M14.44 15.88c0 0.080-0.080 0.16-0.16 0.16h-0.44c-0.080 0-0.16-0.080-0.16-0.16v-0.44c0-0.080 0.080-0.16 0.16-0.16h0.44c0.080 0 0.16 0.080 0.16 0.16v0.44z"></path>
<path fill="#137f53" d="M16 15.88c0 0.080-0.080 0.16-0.16 0.16h-0.44c-0.080 0-0.16-0.080-0.16-0.16v-0.44c0-0.080 0.080-0.16 0.16-0.16h0.44c0.080 0 0.16 0.080 0.16 0.16v0.44z"></path>
<path fill="#137f53" d="M17.52 15.88c0 0.080-0.080 0.16-0.16 0.16h-0.44c-0.080 0-0.16-0.080-0.16-0.16v-0.44c0-0.080 0.080-0.16 0.16-0.16h0.44c0.080 0 0.16 0.080 0.16 0.16v0.44z"></path>
</svg>
