<!-- Generated by IcoMoon.io -->
<svg version="1.1" xmlns="http://www.w3.org/2000/svg" width="24" height="24" viewBox="0 0 24 24">
<title>scales</title>
<path fill="#f6b545" d="M23.182 14.182c-0.109 0-0.218-0.055-0.273-0.164l-2.727-7.636c-0.055-0.164 0-0.273 0.164-0.327s0.273 0 0.327 0.164l2.782 7.418c0 0-0.055 0.491-0.164 0.545-0.055 0-0.055 0-0.109 0z"></path>
<path fill="#f6b545" d="M6.273 14.182c-0.109 0-0.218-0.055-0.273-0.164l-2.727-7.636c-0.055-0.164 0-0.273 0.164-0.327s0.273 0 0.327 0.164l2.782 7.418c0 0-0.055 0.491-0.164 0.545-0.055 0-0.055 0-0.109 0z"></path>
<path fill="#c97629" d="M21.818 6.545h-0.873c-1.145 0-2.236-0.327-3.218-0.873-1.473-0.873-3.382-0.982-4.964-0.218l-0.218-4.909c0-0.327-0.273-0.545-0.545-0.545s-0.545 0.218-0.545 0.545l-0.218 4.855c-1.582-0.709-3.436-0.655-4.964 0.218-0.982 0.6-2.127 0.927-3.218 0.927h-0.873c-0.327 0-0.545 0.218-0.545 0.545s0.218 0.545 0.545 0.545h0.873c1.309 0 2.618-0.382 3.764-1.036 1.309-0.764 3-0.764 4.309 0.055l-0.764 14.618c-0.273 0-2.782 1.418-2.782 1.418-0.273 0.109-0.491 0.491-0.491 0.764s0.273 0.545 0.545 0.545h8.727c0.273 0 0.545-0.273 0.545-0.545s-0.218-0.655-0.491-0.764c0 0-2.455-1.418-2.782-1.418v0l-0.709-14.618c1.309-0.818 3-0.818 4.309-0.055 1.145 0.709 2.455 1.036 3.764 1.036h0.818c0.327 0 0.545-0.218 0.545-0.545s-0.218-0.545-0.545-0.545z"></path>
<path fill="#ffcb5b" d="M2.945 13.636h3.6v0.655c0 1.745-1.364 3.164-3 3.164v0c-1.636 0-3-1.418-3-3.164v-0.655h2.4z"></path>
<path fill="#b06328" d="M16.418 22.691c0 0-2.455-1.418-2.782-1.418v0l-1.091-20.727c0-0.327-0.545-0.545-0.545 0v20.727l0.709 1.418c0.164 0.382-0.109 0.764-0.491 0.764h-5.127c0 0.273 0.273 0.545 0.545 0.545h8.727c0.273 0 0.545-0.273 0.545-0.545s-0.218-0.655-0.491-0.764z"></path>
<path fill="#b06328" d="M20.945 7.091c-1.255 0-2.455-0.327-3.491-0.982-0.709-0.436-1.582-0.655-2.4-0.655-0.927 0-1.855 0.273-2.618 0.764l-0.436 0.327-0.327 0.436c0.164 0.109 0.436 0.109 0.6 0l0.436-0.327c1.309-0.873 3.109-0.927 4.473-0.109 1.145 0.709 2.455 1.036 3.764 1.036h0.873c0.273 0 0.545-0.218 0.545-0.545h-1.418v0.055z"></path>
<path fill="#b06328" d="M3.055 7.091c1.255 0 2.455-0.327 3.491-0.982 0.709-0.436 1.582-0.655 2.4-0.655 0.927 0 1.855 0.273 2.618 0.764l0.436 0.327 0.327 0.436c-0.164 0.109-0.436 0.109-0.6 0l-0.436-0.327c-1.309-0.873-3.109-0.927-4.473-0.109-1.145 0.709-2.455 1.091-3.764 1.091h-0.873c-0.273 0-0.545-0.218-0.545-0.545h1.418z"></path>
<path fill="#ffcb5b" d="M13.636 6.545c0 0.904-0.733 1.636-1.636 1.636s-1.636-0.733-1.636-1.636c0-0.904 0.733-1.636 1.636-1.636s1.636 0.733 1.636 1.636z"></path>
<path fill="#f6b545" d="M12.873 5.127c0.164 0.273 0.218 0.545 0.218 0.873 0 0.927-0.709 1.636-1.636 1.636-0.327 0-0.6-0.109-0.873-0.218 0.327 0.436 0.818 0.764 1.418 0.764 0.927 0 1.636-0.709 1.636-1.636-0-0.6-0.327-1.091-0.764-1.418z"></path>
<path fill="#ffe27a" d="M11.455 6.273c0 0.151-0.122 0.273-0.273 0.273s-0.273-0.122-0.273-0.273c0-0.151 0.122-0.273 0.273-0.273s0.273 0.122 0.273 0.273z"></path>
<path fill="#ffcb5b" d="M0.818 14.182c-0.055 0-0.055 0-0.109 0-0.109-0.055-0.164-0.545-0.164-0.545l2.727-7.473c0.055-0.164 0.218-0.218 0.327-0.164 0.164 0.055 0.218 0.218 0.164 0.327l-2.727 7.636c0 0.164-0.109 0.218-0.218 0.218z"></path>
<path fill="#ffcb5b" d="M19.855 13.636h3.6v0.655c0 1.745-1.364 3.164-3 3.164v0c-1.636 0-3-1.418-3-3.164v-0.655h2.4z"></path>
<path fill="#f6b545" d="M21.818 13.636v0.109c0 1.745-1.364 3.164-3 3.164h-0.055c0.491 0.327 1.036 0.545 1.691 0.545 1.636 0 3-1.418 3-3.164v-0.655h-1.636z"></path>
<path fill="#ffcb5b" d="M17.727 14.182c-0.055 0-0.055 0-0.109 0-0.164-0.055-0.164-0.545-0.164-0.545l2.727-7.473c0.055-0.164 0.218-0.218 0.327-0.164 0.164 0.055 0.218 0.218 0.164 0.327l-2.727 7.636c-0 0.164-0.109 0.218-0.218 0.218z"></path>
<path fill="#ffe27a" d="M19.909 14.727h-1.636c-0.164 0-0.273-0.109-0.273-0.273v0c0-0.164 0.109-0.273 0.273-0.273h1.636c0.164 0 0.273 0.109 0.273 0.273v0c0 0.164-0.109 0.273-0.273 0.273z"></path>
<path fill="#f6b545" d="M4.909 13.636v0.109c0 1.745-1.364 3.164-3 3.164h-0.055c0.491 0.327 1.036 0.545 1.691 0.545 1.636 0 3-1.418 3-3.164v-0.655h-1.636z"></path>
<path fill="#ffe27a" d="M3 14.727h-1.636c-0.164 0-0.273-0.109-0.273-0.273v0c0-0.164 0.109-0.273 0.273-0.273h1.636c0.164 0 0.273 0.109 0.273 0.273v0c0 0.164-0.109 0.273-0.273 0.273z"></path>
</svg>
