<!-- Generated by IcoMoon.io -->
<svg version="1.1" xmlns="http://www.w3.org/2000/svg" width="24" height="24" viewBox="0 0 24 24">
<title>search</title>
<path fill="#b06328" d="M24 22.091v0c0 1.036-0.873 1.909-1.909 1.909v0c-0.545 0-1.036-0.218-1.418-0.6l-6.109-6.655c-0.218-0.218-0.218-0.545 0-0.764l1.418-1.418c0.218-0.218 0.545-0.218 0.764 0l6.655 6.164c0.382 0.327 0.6 0.873 0.6 1.364z"></path>
<path fill="#b0c4d8" d="M15.804 14.725l-1.080 1.080-1.62-1.62 1.080-1.080 1.62 1.62z"></path>
<path fill="#99b4cd" d="M15 15l0.273 0.273 0.545-0.545-1.636-1.636-1.091 1.091 0.818 0.818c0.327-0.327 0.764-0.327 1.091 0z"></path>
<path fill="#c4d7e5" d="M8.182 0c-4.527 0-8.182 3.655-8.182 8.182s3.655 8.182 8.182 8.182 8.182-3.655 8.182-8.182-3.655-8.182-8.182-8.182zM8.182 14.727c-3.6 0-6.545-2.945-6.545-6.545s2.945-6.545 6.545-6.545 6.545 2.945 6.545 6.545-2.945 6.545-6.545 6.545z"></path>
<path fill="#70b7e5" d="M14.727 8.182c0 3.615-2.93 6.545-6.545 6.545s-6.545-2.93-6.545-6.545c0-3.615 2.93-6.545 6.545-6.545s6.545 2.93 6.545 6.545z"></path>
<path fill="#92c5eb" d="M4.964 8.945c0.273-2.073 1.909-3.709 3.982-3.982h0.055c0.927-0.109 0.982-1.418 0.109-1.582-0.545-0.109-1.091-0.109-1.636-0.055-2.127 0.327-3.818 2.018-4.091 4.091-0.109 0.545-0.055 1.145 0.055 1.636 0.164 0.927 1.473 0.818 1.582-0.109-0.055 0.055-0.055-0-0.055-0z"></path>
<path fill="#4c9cd6" d="M2.182 8.727c0-3.6 2.945-6.545 6.545-6.545 1.691 0 3.164 0.655 4.364 1.636-1.2-1.364-2.945-2.182-4.909-2.182-3.6 0-6.545 2.945-6.545 6.545 0 1.964 0.873 3.709 2.182 4.909-0.982-1.2-1.636-2.673-1.636-4.364z"></path>
<path fill="#b0c9db" d="M8.182 16.364v0c4.527 0 8.182-3.655 8.182-8.182v0c-0.273 0-0.545 0.218-0.545 0.545-0.109 1.855-0.927 3.545-2.182 4.8-1.255 1.309-3 2.127-4.909 2.291-0.327 0-0.545 0.273-0.545 0.545z"></path>
<path fill="#e2e7f0" d="M8.182 0v0c-4.527 0-8.182 3.655-8.182 8.182v0c0.273 0 0.545-0.218 0.545-0.545 0.109-1.8 0.873-3.436 2.018-4.636 1.309-1.364 3.109-2.291 5.073-2.455 0.327 0 0.545-0.273 0.545-0.545z"></path>
<path fill="#a35425" d="M23.345 20.673l-0.327-0.273c0.273 0.327 0.436 0.764 0.436 1.2v0c0 0.709-0.873 0.982-1.364 0.491l-5.727-5.727c-0.327-0.327-0.818-0.327-1.145 0l-0.545 0.545 5.945 6.382c0.327 0.327 0.764 0.6 1.2 0.655 0.6 0.055 1.2-0.164 1.582-0.545s0.6-0.982 0.545-1.582c0-0.436-0.273-0.818-0.6-1.145z"></path>
<path fill="#c97629" d="M17.727 16.909c-0.055 0-0.164 0-0.218-0.055l-1.364-1.364c-0.109-0.109-0.109-0.273 0-0.382s0.273-0.109 0.382 0l1.364 1.364c0.109 0.109 0.109 0.273 0 0.382 0 0.055-0.109 0.055-0.164 0.055z"></path>
</svg>
