<!-- Generated by IcoMoon.io -->
<svg version="1.1" xmlns="http://www.w3.org/2000/svg" width="24" height="24" viewBox="0 0 24 24">
<title>send2</title>
<path d="M9.884 5.71l5.003-5.52c0.11-0.121 0.265-0.19 0.428-0.19s0.319 0.069 0.428 0.19l5.003 5.52c0.153 0.169 0.193 0.413 0.1 0.622s-0.3 0.344-0.528 0.344h-2.307v8.747c0 0.319-0.259 0.578-0.578 0.578h-4.236c-0.319 0-0.578-0.259-0.578-0.578v-8.747h-2.307c-0.229 0-0.436-0.135-0.528-0.344s-0.053-0.453 0.1-0.622zM5.989 8.578v8.747h-2.307c-0.229 0-0.436 0.135-0.528 0.344s-0.053 0.453 0.1 0.622l5.003 5.52c0.11 0.121 0.265 0.19 0.428 0.19s0.319-0.069 0.428-0.19l5.003-5.52c0.153-0.169 0.193-0.413 0.1-0.622s-0.3-0.344-0.528-0.344h-2.307v-8.747c0-0.319-0.259-0.578-0.578-0.578h-4.236c-0.319 0-0.578 0.259-0.578 0.578zM10.225 17.902c0 0.319 0.259 0.578 0.578 0.578h1.581l-3.7 4.082-3.7-4.082h1.581c0.319 0 0.578-0.259 0.578-0.578v-8.747h3.081v8.747z"></path>
</svg>
