<!-- Generated by IcoMoon.io -->
<svg version="1.1" xmlns="http://www.w3.org/2000/svg" width="24" height="24" viewBox="0 0 24 24">
<title>server</title>
<path fill="#99b4cd" d="M9.273 23.455h-3.818c-0.327 0-0.545-0.218-0.545-0.545s0.218-0.545 0.545-0.545h3.818c0.327 0 0.545 0.218 0.545 0.545s-0.218 0.545-0.545 0.545z"></path>
<path fill="#6c9abb" d="M5.455 23.455h3.818c0.327 0 0.545-0.218 0.545-0.545h-4.909c0 0.327 0.218 0.545 0.545 0.545z"></path>
<path fill="#99b4cd" d="M12 22.364c-0.327 0-0.545-0.218-0.545-0.545v-4.909c0-0.327 0.218-0.545 0.545-0.545s0.545 0.218 0.545 0.545v4.909c0 0.327-0.218 0.545-0.545 0.545z"></path>
<path fill="#595a66" d="M21.818 6.545v4.364c0 0.327-0.218 0.545-0.545 0.545h-18.545c-0.327 0-0.545-0.218-0.545-0.545v-4.364c0-0.327 0.218-0.545 0.545-0.545h18.545c0.327 0 0.545 0.218 0.545 0.545z"></path>
<path fill="#595a66" d="M21.818 0.545v4.364c0 0.327-0.218 0.545-0.545 0.545h-18.545c-0.327 0-0.545-0.218-0.545-0.545v-4.364c-0-0.327 0.218-0.545 0.545-0.545h18.545c0.273 0 0.545 0.218 0.545 0.545z"></path>
<path fill="#595a66" d="M21.818 12.545v4.364c0 0.273-0.273 0.545-0.545 0.545h-18.545c-0.327 0-0.545-0.273-0.545-0.545v-4.364c0-0.327 0.218-0.545 0.545-0.545h18.545c0.327 0 0.545 0.218 0.545 0.545z"></path>
<path fill="#99b4cd" d="M18.545 23.455h-3.818c-0.327 0-0.545-0.218-0.545-0.545s0.218-0.545 0.545-0.545h3.818c0.327 0 0.545 0.218 0.545 0.545s-0.218 0.545-0.545 0.545z"></path>
<path fill="#35363e" d="M11.455 3.818c-0.327 0-0.545-0.218-0.545-0.545v-1.091c0-0.327 0.218-0.545 0.545-0.545s0.545 0.218 0.545 0.545v1.091c0 0.327-0.218 0.545-0.545 0.545z"></path>
<path fill="#35363e" d="M13.091 3.818c-0.327 0-0.545-0.218-0.545-0.545v-1.091c0-0.327 0.218-0.545 0.545-0.545s0.545 0.218 0.545 0.545v1.091c0 0.327-0.218 0.545-0.545 0.545z"></path>
<path fill="#35363e" d="M14.727 3.818c-0.327 0-0.545-0.218-0.545-0.545v-1.091c0-0.327 0.218-0.545 0.545-0.545s0.545 0.218 0.545 0.545v1.091c0 0.327-0.218 0.545-0.545 0.545z"></path>
<path fill="#35363e" d="M16.364 3.818c-0.327 0-0.545-0.218-0.545-0.545v-1.091c0-0.327 0.218-0.545 0.545-0.545s0.545 0.218 0.545 0.545v1.091c0 0.327-0.218 0.545-0.545 0.545z"></path>
<path fill="#35363e" d="M18 3.818c-0.327 0-0.545-0.218-0.545-0.545v-1.091c0-0.327 0.218-0.545 0.545-0.545s0.545 0.218 0.545 0.545v1.091c0 0.327-0.218 0.545-0.545 0.545z"></path>
<path fill="#35363e" d="M19.636 3.818c-0.327 0-0.545-0.218-0.545-0.545v-1.091c0-0.327 0.218-0.545 0.545-0.545s0.545 0.218 0.545 0.545v1.091c0 0.327-0.218 0.545-0.545 0.545z"></path>
<path fill="#35363e" d="M11.455 9.818c-0.327 0-0.545-0.218-0.545-0.545v-1.091c0-0.327 0.218-0.545 0.545-0.545s0.545 0.218 0.545 0.545v1.091c0 0.327-0.218 0.545-0.545 0.545z"></path>
<path fill="#35363e" d="M13.091 9.818c-0.327 0-0.545-0.218-0.545-0.545v-1.091c0-0.327 0.218-0.545 0.545-0.545s0.545 0.218 0.545 0.545v1.091c0 0.327-0.218 0.545-0.545 0.545z"></path>
<path fill="#35363e" d="M14.727 9.818c-0.327 0-0.545-0.218-0.545-0.545v-1.091c0-0.327 0.218-0.545 0.545-0.545s0.545 0.218 0.545 0.545v1.091c0 0.327-0.218 0.545-0.545 0.545z"></path>
<path fill="#35363e" d="M16.364 9.818c-0.327 0-0.545-0.218-0.545-0.545v-1.091c0-0.327 0.218-0.545 0.545-0.545s0.545 0.218 0.545 0.545v1.091c0 0.327-0.218 0.545-0.545 0.545z"></path>
<path fill="#35363e" d="M18 9.818c-0.327 0-0.545-0.218-0.545-0.545v-1.091c0-0.327 0.218-0.545 0.545-0.545s0.545 0.218 0.545 0.545v1.091c0 0.327-0.218 0.545-0.545 0.545z"></path>
<path fill="#35363e" d="M19.636 9.818c-0.327 0-0.545-0.218-0.545-0.545v-1.091c0-0.327 0.218-0.545 0.545-0.545s0.545 0.218 0.545 0.545v1.091c0 0.327-0.218 0.545-0.545 0.545z"></path>
<path fill="#35363e" d="M11.455 15.818c-0.327 0-0.545-0.218-0.545-0.545v-1.091c0-0.327 0.218-0.545 0.545-0.545s0.545 0.218 0.545 0.545v1.091c0 0.327-0.218 0.545-0.545 0.545z"></path>
<path fill="#35363e" d="M13.091 15.818c-0.327 0-0.545-0.218-0.545-0.545v-1.091c0-0.327 0.218-0.545 0.545-0.545s0.545 0.218 0.545 0.545v1.091c0 0.327-0.218 0.545-0.545 0.545z"></path>
<path fill="#35363e" d="M14.727 15.818c-0.327 0-0.545-0.218-0.545-0.545v-1.091c0-0.327 0.218-0.545 0.545-0.545s0.545 0.218 0.545 0.545v1.091c0 0.327-0.218 0.545-0.545 0.545z"></path>
<path fill="#35363e" d="M16.364 15.818c-0.327 0-0.545-0.218-0.545-0.545v-1.091c0-0.327 0.218-0.545 0.545-0.545s0.545 0.218 0.545 0.545v1.091c0 0.327-0.218 0.545-0.545 0.545z"></path>
<path fill="#35363e" d="M18 15.818c-0.327 0-0.545-0.218-0.545-0.545v-1.091c0-0.327 0.218-0.545 0.545-0.545s0.545 0.218 0.545 0.545v1.091c0 0.327-0.218 0.545-0.545 0.545z"></path>
<path fill="#35363e" d="M19.636 15.818c-0.327 0-0.545-0.218-0.545-0.545v-1.091c0-0.327 0.218-0.545 0.545-0.545s0.545 0.218 0.545 0.545v1.091c0 0.327-0.218 0.545-0.545 0.545z"></path>
<path fill="#89c763" d="M4.909 14.727c0 0.301-0.244 0.545-0.545 0.545s-0.545-0.244-0.545-0.545c0-0.301 0.244-0.545 0.545-0.545s0.545 0.244 0.545 0.545z"></path>
<path fill="#ffcb5b" d="M6.545 14.727c0 0.301-0.244 0.545-0.545 0.545s-0.545-0.244-0.545-0.545c0-0.301 0.244-0.545 0.545-0.545s0.545 0.244 0.545 0.545z"></path>
<path fill="#89c763" d="M8.182 14.727c0 0.301-0.244 0.545-0.545 0.545s-0.545-0.244-0.545-0.545c0-0.301 0.244-0.545 0.545-0.545s0.545 0.244 0.545 0.545z"></path>
<path fill="#89c763" d="M4.909 8.727c0 0.301-0.244 0.545-0.545 0.545s-0.545-0.244-0.545-0.545c0-0.301 0.244-0.545 0.545-0.545s0.545 0.244 0.545 0.545z"></path>
<path fill="#89c763" d="M6.545 8.727c0 0.301-0.244 0.545-0.545 0.545s-0.545-0.244-0.545-0.545c0-0.301 0.244-0.545 0.545-0.545s0.545 0.244 0.545 0.545z"></path>
<path fill="#ffcb5b" d="M8.182 8.727c0 0.301-0.244 0.545-0.545 0.545s-0.545-0.244-0.545-0.545c0-0.301 0.244-0.545 0.545-0.545s0.545 0.244 0.545 0.545z"></path>
<path fill="#89c763" d="M4.909 2.727c0 0.301-0.244 0.545-0.545 0.545s-0.545-0.244-0.545-0.545c0-0.301 0.244-0.545 0.545-0.545s0.545 0.244 0.545 0.545z"></path>
<path fill="#ffcb5b" d="M6.545 2.727c0 0.301-0.244 0.545-0.545 0.545s-0.545-0.244-0.545-0.545c0-0.301 0.244-0.545 0.545-0.545s0.545 0.244 0.545 0.545z"></path>
<path fill="#ffcb5b" d="M8.182 2.727c0 0.301-0.244 0.545-0.545 0.545s-0.545-0.244-0.545-0.545c0-0.301 0.244-0.545 0.545-0.545s0.545 0.244 0.545 0.545z"></path>
<path fill="#6c9abb" d="M11.455 17.455v0.545h0.545v3.818h0.545v-4.364z"></path>
<path fill="#6f707e" d="M14.455 12.545h-10.364c-0.164 0-0.273-0.109-0.273-0.273v0c0-0.164 0.109-0.273 0.273-0.273h10.364c0.164 0 0.273 0.109 0.273 0.273v0c0 0.164-0.109 0.273-0.273 0.273z"></path>
<path fill="#6f707e" d="M13.909 6.545h-10.364c-0.164 0-0.273-0.109-0.273-0.273v0c0-0.164 0.109-0.273 0.273-0.273h10.364c0.164 0 0.273 0.109 0.273 0.273v0c0 0.164-0.109 0.273-0.273 0.273z"></path>
<path fill="#6f707e" d="M13.909 0.545h-10.364c-0.164 0-0.273-0.109-0.273-0.273v0c0-0.164 0.109-0.273 0.273-0.273h10.364c0.164 0 0.273 0.109 0.273 0.273v0c0 0.164-0.109 0.273-0.273 0.273z"></path>
<path fill="#6c9abb" d="M14.727 23.455h3.818c0.327 0 0.545-0.218 0.545-0.545h-4.909c0 0.327 0.218 0.545 0.545 0.545z"></path>
<path fill="#595a66" d="M13.636 24h-3.273c-0.6 0-1.091-0.491-1.091-1.091v0c0-0.6 0.491-1.091 1.091-1.091h3.273c0.6 0 1.091 0.491 1.091 1.091v0c0 0.6-0.491 1.091-1.091 1.091z"></path>
<path fill="#494a52" d="M13.636 24h-3.273v-0.545c0-0.327 0.218-0.545 0.545-0.545h3.818c0 0.6-0.491 1.091-1.091 1.091z"></path>
<path fill="#494a52" d="M21.545 1.091c-0.164 0-0.273 0.109-0.273 0.273v3.545h-19.091c0 0.327 0.218 0.545 0.545 0.545h18.545c0.327 0 0.545-0.218 0.545-0.545v-3.545c0-0.164-0.109-0.273-0.273-0.273z"></path>
<path fill="#494a52" d="M21.545 7.091c-0.164 0-0.273 0.109-0.273 0.273v3.545h-19.091c0 0.327 0.218 0.545 0.545 0.545h18.545c0.327 0 0.545-0.218 0.545-0.545v-3.545c0-0.164-0.109-0.273-0.273-0.273z"></path>
<path fill="#494a52" d="M21.545 13.091c-0.164 0-0.273 0.109-0.273 0.273v3.545h-19.091c0 0.327 0.218 0.545 0.545 0.545h18.545c0.327 0 0.545-0.218 0.545-0.545v-3.545c0-0.164-0.109-0.273-0.273-0.273z"></path>
<path fill="#35363e" d="M3.818 11.455h16.364v0.545h-16.364v-0.545z"></path>
<path fill="#35363e" d="M3.818 5.455h16.364v0.545h-16.364v-0.545z"></path>
</svg>
