<svg xmlns="http://www.w3.org/2000/svg" width="24" height="24" viewBox="0 0 24 24"><title>shield</title><path fill="#595a66" d="M20.182 18.927L11.946 24 3.71 18.927c-.655-.382-1.036-1.091-1.036-1.855V2.454c0-.491.327-.927.818-1.036L5.401.873C7.583.273 9.765 0 12.056 0c2.345 0 4.636.327 6.873.982l1.582.436c.491.109.818.545.818 1.036v14.618c-.109.764-.491 1.418-1.145 1.855z"/><path fill="#d3e2eb" d="M4.855 16.745V3.709c0-.273.164-.436.382-.545L5.946 3a22.538 22.538 0 0 1 6.055-.818c2.127 0 4.2.273 6.273.873l.382.109c.218.055.382.273.382.545v13.036a.65.65 0 0 1-.273.491l-6.545 4.036c-.164.109-.382.109-.6 0l-6.545-4.036a.692.692 0 0 1-.218-.491z"/><path fill="#b0c4d8" d="M5.945 4.745c0-.273.164-.436.382-.545l.709-.164a22.538 22.538 0 0 1 6.055-.818c2.018 0 4.036.273 5.945.818v-.327c0-.218-.164-.436-.382-.545l-.382-.109a22.329 22.329 0 0 0-6.273-.873c-2.073 0-4.091.273-6.055.818l-.709.164c-.218.109-.382.327-.382.545v13.036a.65.65 0 0 0 .273.491l.818.491V4.745z"/><path fill="#fff" d="M19.036 3.709c0-.109-.055-.218-.109-.327l-13.8 13.8L7.8 18.818 19.036 7.636V3.709z"/><path fill="#d5e3ef" d="M5.127 17.236l.818.491v-1.364l-.818.873zM18.982 3.545c0-.055-.055-.109-.055-.164l-.491.491c.218.055.382.109.6.164v-.327c0-.055 0-.109-.055-.164z"/><path fill="#fff" d="M19.036 16.745V9.272l-10.2 10.2 2.836 1.745c.164.109.382.109.6 0l6.545-4.036c.109-.055.218-.218.218-.436z"/><path fill="#494a52" d="M21.218 2.345c-.164-.6-1.091-.382-1.091.218v13.964c0 .764-.382 1.473-1.036 1.855l-6.109 3.764c-.655.382-1.036 1.091-1.036 1.855l8.236-5.073c.655-.382 1.036-1.091 1.036-1.855V2.455v-.109z"/><path fill="#6f707e" d="M3.764 3.545v4.364c0 .164-.109.273-.273.273-.164 0-.273-.109-.273-.273V3.545c0-.164.109-.273.273-.273.164 0 .273.109.273.273zM3.764 10.091v1.091c0 .164-.109.273-.273.273-.164 0-.273-.109-.273-.273v-1.091c0-.164.109-.273.273-.273.164 0 .273.109.273.273zM3.218 9c0-.164.109-.273.273-.273.164 0 .273.109.273.273 0 .164-.109.273-.273.273-.164 0-.273-.109-.273-.273zM13.582 11.455c-.327 0-.545-.218-.545-.545V8.183c0-.6-.491-1.091-1.091-1.091s-1.091.491-1.091 1.091v2.727c0 .327-.218.545-.545.545s-.545-.218-.545-.545V8.183c0-1.2.982-2.182 2.182-2.182s2.182.982 2.182 2.182v2.727c0 .327-.218.545-.545.545z"/><path fill="#595a66" d="M11.4 7.091c-.6 0-1.091.491-1.091 1.091v2.727c0 .218-.109.382-.273.436a.416.416 0 0 0 .273.109c.327 0 .545-.218.545-.545V8.182c0-.491.327-.927.818-1.036-.109-.055-.164-.055-.273-.055zM11.945 6a.49.49 0 0 0-.273.055 2.13 2.13 0 0 1 1.909 2.127v2.727c0 .218-.109.382-.273.436a.416.416 0 0 0 .273.109c.327 0 .545-.218.545-.545V8.182c0-1.2-.982-2.182-2.182-2.182z"/><path fill="#595a66" d="M9.655 10.364h5.018c.327 0 .545.218.545.545v3.818c0 .327-.218.545-.545.545H9.218c-.327 0-.545-.218-.545-.545v-3.818c0-.327.218-.545.545-.545h.436z"/><path fill="#35363e" d="M11.945 13.636c-.327 0-.545-.218-.545-.545V12c0-.327.218-.545.545-.545s.545.218.545.545v1.091c0 .327-.218.545-.545.545z"/><path fill="#494a52" d="M14.673 10.364v4.364h-6c0 .327.218.545.545.545h5.455c.327 0 .545-.218.545-.545V10.91c0-.327-.218-.545-.545-.545z"/><path fill="#6f707e" d="M9.764 11.182v1.091c0 .164-.109.273-.273.273-.164 0-.273-.109-.273-.273v-1.091c0-.164.109-.273.273-.273.164 0 .273.109.273.273zM9.218 13.364c0-.164.109-.273.273-.273.164 0 .273.109.273.273 0 .164-.109.273-.273.273-.164 0-.273-.109-.273-.273z"/></svg>