<!-- Generated by IcoMoon.io -->
<svg version="1.1" xmlns="http://www.w3.org/2000/svg" width="24" height="24" viewBox="0 0 24 24">
<title>shield</title>
<path fill="#595a66" d="M20.182 18.927l-8.236 5.073-8.236-5.073c-0.655-0.382-1.036-1.091-1.036-1.855v-14.618c0-0.491 0.327-0.927 0.818-1.036l1.909-0.545c2.182-0.6 4.364-0.873 6.655-0.873v0c2.345 0 4.636 0.327 6.873 0.982l1.582 0.436c0.491 0.109 0.818 0.545 0.818 1.036v14.618c-0.109 0.764-0.491 1.418-1.145 1.855z"></path>
<path fill="#d3e2eb" d="M4.855 16.745v-13.036c0-0.273 0.164-0.436 0.382-0.545l0.709-0.164c1.964-0.545 3.982-0.818 6.055-0.818 2.127 0 4.2 0.273 6.273 0.873l0.382 0.109c0.218 0.055 0.382 0.273 0.382 0.545v13.036c0 0.164-0.109 0.382-0.273 0.491l-6.545 4.036c-0.164 0.109-0.382 0.109-0.6 0l-6.545-4.036c-0.109-0.109-0.218-0.273-0.218-0.491z"></path>
<path fill="#b0c4d8" d="M5.945 4.745c0-0.273 0.164-0.436 0.382-0.545l0.709-0.164c1.964-0.545 3.982-0.818 6.055-0.818 2.018 0 4.036 0.273 5.945 0.818v-0.327c0-0.218-0.164-0.436-0.382-0.545l-0.382-0.109c-2.073-0.6-4.145-0.873-6.273-0.873-2.073 0-4.091 0.273-6.055 0.818l-0.709 0.164c-0.218 0.109-0.382 0.327-0.382 0.545v13.036c0 0.164 0.109 0.382 0.273 0.491l0.818 0.491v-12.982z"></path>
<path fill="#fff" d="M19.036 3.709c0-0.109-0.055-0.218-0.109-0.327l-13.8 13.8 2.673 1.636 11.236-11.182v-3.927z"></path>
<path fill="#d5e3ef" d="M5.127 17.236l0.818 0.491v-1.364l-0.818 0.873z"></path>
<path fill="#d5e3ef" d="M18.982 3.545c0-0.055-0.055-0.109-0.055-0.164v0l-0.491 0.491c0.218 0.055 0.382 0.109 0.6 0.164v-0.327c0-0.055 0-0.109-0.055-0.164z"></path>
<path fill="#fff" d="M19.036 16.745v-7.473l-10.2 10.2 2.836 1.745c0.164 0.109 0.382 0.109 0.6 0l6.545-4.036c0.109-0.055 0.218-0.218 0.218-0.436z"></path>
<path fill="#494a52" d="M21.218 2.345c-0.164-0.6-1.091-0.382-1.091 0.218v13.964c0 0.764-0.382 1.473-1.036 1.855l-6.109 3.764c-0.655 0.382-1.036 1.091-1.036 1.855v0l8.236-5.073c0.655-0.382 1.036-1.091 1.036-1.855v-14.618c0-0.055 0-0.055 0-0.109z"></path>
<path fill="#6f707e" d="M3.764 3.545v4.364c0 0.164-0.109 0.273-0.273 0.273v0c-0.164 0-0.273-0.109-0.273-0.273v-4.364c0-0.164 0.109-0.273 0.273-0.273v0c0.164 0 0.273 0.109 0.273 0.273z"></path>
<path fill="#6f707e" d="M3.764 10.091v1.091c0 0.164-0.109 0.273-0.273 0.273v0c-0.164 0-0.273-0.109-0.273-0.273v-1.091c0-0.164 0.109-0.273 0.273-0.273v0c0.164 0 0.273 0.109 0.273 0.273z"></path>
<path fill="#6f707e" d="M3.218 9v0c0-0.164 0.109-0.273 0.273-0.273v0c0.164 0 0.273 0.109 0.273 0.273v0c0 0.164-0.109 0.273-0.273 0.273v0c-0.164 0-0.273-0.109-0.273-0.273z"></path>
<path fill="#6f707e" d="M13.582 11.455c-0.327 0-0.545-0.218-0.545-0.545v-2.727c0-0.6-0.491-1.091-1.091-1.091s-1.091 0.491-1.091 1.091v2.727c0 0.327-0.218 0.545-0.545 0.545s-0.545-0.218-0.545-0.545v-2.727c0-1.2 0.982-2.182 2.182-2.182s2.182 0.982 2.182 2.182v2.727c0 0.327-0.218 0.545-0.545 0.545z"></path>
<path fill="#595a66" d="M11.4 7.091c-0.6 0-1.091 0.491-1.091 1.091v2.727c0 0.218-0.109 0.382-0.273 0.436 0.055 0.055 0.164 0.109 0.273 0.109 0.327 0 0.545-0.218 0.545-0.545v-2.727c0-0.491 0.327-0.927 0.818-1.036-0.109-0.055-0.164-0.055-0.273-0.055z"></path>
<path fill="#595a66" d="M11.945 6c-0.109 0-0.164 0-0.273 0.055 1.091 0.109 1.909 1.036 1.909 2.127v2.727c0 0.218-0.109 0.382-0.273 0.436 0.055 0.055 0.164 0.109 0.273 0.109 0.327 0 0.545-0.218 0.545-0.545v-2.727c0-1.2-0.982-2.182-2.182-2.182z"></path>
<path fill="#595a66" d="M9.655 10.364h5.018c0.327 0 0.545 0.218 0.545 0.545v3.818c0 0.327-0.218 0.545-0.545 0.545h-5.455c-0.327 0-0.545-0.218-0.545-0.545v-3.818c0-0.327 0.218-0.545 0.545-0.545h0.436z"></path>
<path fill="#35363e" d="M11.945 13.636c-0.327 0-0.545-0.218-0.545-0.545v-1.091c0-0.327 0.218-0.545 0.545-0.545s0.545 0.218 0.545 0.545v1.091c0 0.327-0.218 0.545-0.545 0.545z"></path>
<path fill="#494a52" d="M14.673 10.364v4.364h-6c0 0.327 0.218 0.545 0.545 0.545h5.455c0.327 0 0.545-0.218 0.545-0.545v-3.818c0-0.327-0.218-0.545-0.545-0.545z"></path>
<path fill="#6f707e" d="M9.764 11.182v1.091c0 0.164-0.109 0.273-0.273 0.273v0c-0.164 0-0.273-0.109-0.273-0.273v-1.091c0-0.164 0.109-0.273 0.273-0.273v0c0.164 0 0.273 0.109 0.273 0.273z"></path>
<path fill="#6f707e" d="M9.218 13.364v0c0-0.164 0.109-0.273 0.273-0.273v0c0.164 0 0.273 0.109 0.273 0.273v0c0 0.164-0.109 0.273-0.273 0.273v0c-0.164 0-0.273-0.109-0.273-0.273z"></path>
</svg>
