<!-- Generated by IcoMoon.io -->
<svg version="1.1" xmlns="http://www.w3.org/2000/svg" width="24" height="24" viewBox="0 0 24 24">
<title>shop</title>
<path fill="#ffcb5b" d="M1.091 4.364h21.818v15.273h-21.818v-15.273z"></path>
<path fill="#eceff9" d="M20.727 16.364v-6.545h-9.818v6.545h-0.545v1.091h10.909v-1.091z"></path>
<path fill="#f6b545" d="M22.909 9.818h-21.818v1.964c0.873 0.382 1.964 0.273 2.727-0.327 0.927 0.709 2.345 0.709 3.273 0 0.927 0.709 2.345 0.709 3.273 0 0.927 0.709 2.345 0.709 3.273 0 0.927 0.709 2.345 0.709 3.273 0 0.927 0.709 2.345 0.709 3.273 0 0.764 0.6 1.855 0.709 2.727 0.327v-1.964z"></path>
<path fill="#99b4cd" d="M24 20.182v1.636h-24v-1.636c0-0.6 0.491-1.091 1.091-1.091h21.818c0.6 0 1.091 0.491 1.091 1.091z"></path>
<path fill="#eceff9" d="M2.727 9.818h6.545v12h-6.545v-12z"></path>
<path fill="#70b7e5" d="M11.455 10.364h8.727v6h-8.727v-6z"></path>
<path fill="#acd6f2" d="M14.727 16.364h-1.636l2.182-6h1.636z"></path>
<path fill="#acd6f2" d="M15.818 16.364h-0.545l2.182-6h0.545z"></path>
<path fill="#4c9cd6" d="M11.455 13.636h8.727v0.545h-8.727v-0.545z"></path>
<path fill="#70b7e5" d="M13.909 14.182h1.636l0.164-0.545h-1.636z"></path>
<path fill="#70b7e5" d="M16.636 14.182l0.164-0.545h-0.545l-0.164 0.545z"></path>
<path fill="#70b7e5" d="M3.818 10.364h4.364v4.364h-4.364v-4.364z"></path>
<path fill="#70b7e5" d="M3.818 15.273h4.364v4.909h-4.364v-4.909z"></path>
<path fill="#eceff9" d="M11.455 13.091h8.727v0.545h-8.727v-0.545z"></path>
<path fill="#6c9abb" d="M9.818 21.273v-2.182h-0.545v2.727h14.727v-0.545z"></path>
<path fill="#6c9abb" d="M2.182 19.091v2.182h-2.182v0.545h2.727v-2.727z"></path>
<path fill="#f6b545" d="M10.364 17.455h10.909v0.545h-10.909v-0.545z"></path>
<path fill="#b0c4d9" d="M17.455 20.182h-6.545c-0.327 0-0.545-0.218-0.545-0.545v0c0-0.327 0.218-0.545 0.545-0.545h6.545c0.327 0 0.545 0.218 0.545 0.545v0c0 0.327-0.218 0.545-0.545 0.545z"></path>
<path fill="#d4e3ee" d="M3.818 11.455c0.927 0.709 2.345 0.709 3.273 0 0.6 0.491 1.418 0.655 2.182 0.491v-2.127h-6.545v2.127c0.382-0.109 0.764-0.218 1.091-0.491z"></path>
<path fill="#d4e3ee" d="M20.727 9.818h-9.818v1.964c0.873 0.382 1.964 0.273 2.727-0.327 0.927 0.709 2.345 0.709 3.273 0 0.927 0.709 2.345 0.709 3.273 0 0.164 0.109 0.327 0.218 0.545 0.327v-1.964z"></path>
<path fill="#4c9cd6" d="M3.818 11.455c0.927 0.709 2.345 0.709 3.273 0 0.327 0.273 0.709 0.382 1.091 0.491v-1.582h-4.364v1.091z"></path>
<path fill="#4c9cd6" d="M11.455 10.364v1.582c0.764 0.164 1.582 0 2.182-0.491 0.927 0.709 2.345 0.709 3.273 0 0.927 0.709 2.345 0.709 3.273 0v-1.091h-8.727z"></path>
<path fill="#70b7e5" d="M17.509 11.782l0.491-1.418h-0.545l-0.436 1.145c0.164 0.109 0.327 0.218 0.491 0.273z"></path>
<path fill="#70b7e5" d="M16.418 11.727l0.491-1.364h-1.636l-0.545 1.582c0.545 0.109 1.145 0.055 1.691-0.218z"></path>
<path fill="#99b4cd" d="M22.909 4.364h-21.818c-0.327 0-0.545-0.218-0.545-0.545v-1.091c0-0.327 0.218-0.545 0.545-0.545h21.818c0.327 0 0.545 0.218 0.545 0.545v1.091c0 0.327-0.218 0.545-0.545 0.545z"></path>
<path fill="#6c9abb" d="M22.909 2.727v0.545c0 0.327-0.218 0.545-0.545 0.545h-21.273c-0.327 0-0.382 0.545 0 0.545v0h21.818c0.327 0 0.545-0.218 0.545-0.545v-1.091c0-0.382-0.545-0.327-0.545 0z"></path>
<path fill="#f6b545" d="M1.091 4.364h21.818v0.545h-21.818v-0.545z"></path>
<path fill="#b0c4d9" d="M8.455 2.727h-7.091c-0.164 0-0.273-0.109-0.273-0.273v0c0-0.164 0.109-0.273 0.273-0.273h7.091c0.164 0 0.273 0.109 0.273 0.273v0c0 0.164-0.109 0.273-0.273 0.273z"></path>
<path fill="#b0c4d9" d="M12.273 2.727h-2.727c-0.164 0-0.273-0.109-0.273-0.273v0c0-0.164 0.109-0.273 0.273-0.273h2.727c0.164 0 0.273 0.109 0.273 0.273v0c0 0.164-0.109 0.273-0.273 0.273z"></path>
<path fill="#f6b545" d="M21.273 14.182h1.091v0.545h-1.091v-0.545z"></path>
<path fill="#f6b545" d="M21.273 18h1.091v0.545h-1.091v-0.545z"></path>
<path fill="#f6b545" d="M11.455 18.545h1.091v0.545h-1.091v-0.545z"></path>
<path fill="#f6b545" d="M20.727 13.091h1.091v0.545h-1.091v-0.545z"></path>
<path fill="#f6b545" d="M9.273 18.545h1.091v0.545h-1.091v-0.545z"></path>
<path fill="#f6b545" d="M9.818 13.091h1.091v0.545h-1.091v-0.545z"></path>
<path fill="#f6b545" d="M1.636 15.273h1.091v0.545h-1.091v-0.545z"></path>
<path fill="#f6b545" d="M9.273 13.636h1.091v0.545h-1.091v-0.545z"></path>
<path fill="#f6b545" d="M20.727 14.727h1.091v0.545h-1.091v-0.545z"></path>
<path fill="#acd6f2" d="M5.455 20.182h-1.091l1.636-4.909h1.091z"></path>
<path fill="#acd6f2" d="M6.545 20.182h-0.545l1.636-4.909h0.545z"></path>
<path fill="#4c9cd6" d="M3.818 15.273h4.364v0.545h-4.364v-0.545z"></path>
<path fill="#70b7e5" d="M8.018 15.818l0.164-0.545h-0.545l-0.164 0.545z"></path>
<path fill="#70b7e5" d="M6.927 15.818l0.164-0.545h-1.091l-0.164 0.545z"></path>
<path fill="#acd6f2" d="M5.455 14.727h-1.091l1.636-4.909h1.091z"></path>
<path fill="#acd6f2" d="M6.545 14.727h-0.545l1.636-4.909h0.545z"></path>
<path fill="#70b7e5" d="M7.473 10.364l-0.382 1.091c0.164 0.109 0.273 0.218 0.436 0.273l0.436-1.364h-0.491z"></path>
<path fill="#70b7e5" d="M5.836 10.364l-0.545 1.636c0.382 0 0.764-0.055 1.145-0.164l0.491-1.473h-1.091z"></path>
<path fill="#f26a5f" d="M23.455 8.727h-22.909l2.182-3.273h18.545z"></path>
<path fill="#fff" d="M7.091 8.727h-3.273l1.636-3.273h2.727z"></path>
<path fill="#fff" d="M16.909 8.727h3.273l-1.636-3.273h-2.727z"></path>
<path fill="#fff" d="M13.636 8.727h-3.273l0.545-3.273h2.182z"></path>
<path fill="#f04b4d" d="M0.545 8.727v1.636c0.927 0.709 2.345 0.709 3.273 0h3.273c0.927 0.709 2.345 0.709 3.273 0h3.273c0.927 0.709 2.345 0.709 3.273 0h3.273c0.927 0.709 2.345 0.709 3.273 0v-1.636h-22.909z"></path>
<path fill="#b0c4d9" d="M3.818 8.727v1.636c0.927 0.709 2.345 0.709 3.273 0v-1.636h-3.273z"></path>
<path fill="#b0c4d9" d="M10.364 8.727v1.636c0.927 0.709 2.345 0.709 3.273 0v-1.636h-3.273z"></path>
<path fill="#b0c4d9" d="M16.909 8.727v1.636c0.927 0.709 2.345 0.709 3.273 0v-1.636h-3.273z"></path>
<path fill="#f04b4d" d="M16.909 8.727h-0.545l-0.982-3.273h0.436z"></path>
<path fill="#f04b4d" d="M10.364 8.727h-0.545l0.655-3.273h0.436z"></path>
<path fill="#f04b4d" d="M3.818 8.727h-0.545l1.745-3.273h0.436z"></path>
<path fill="#f04b4d" d="M23.455 8.727h-0.545l-2.073-3.273h0.436z"></path>
<path fill="#d4e3ee" d="M20.182 8.727h-0.545l-1.527-3.273h0.436z"></path>
<path fill="#d4e3ee" d="M13.636 8.727h-0.545l-0.436-3.273h0.436z"></path>
<path fill="#d4e3ee" d="M7.091 8.727h-0.545l1.2-3.273h0.436z"></path>
<path fill="#de333f" d="M16.364 8.727v0.982c0 0.436-0.273 0.873-0.709 1.036-0.218 0.055-0.436 0.109-0.655 0.164 0.655 0.055 1.364-0.109 1.909-0.545v-1.636h-0.545z"></path>
<path fill="#de333f" d="M22.909 8.727v0.982c0 0.436-0.273 0.873-0.709 1.036-0.218 0.055-0.436 0.109-0.655 0.164 0.655 0.055 1.364-0.109 1.909-0.545v-1.636h-0.545z"></path>
<path fill="#99b5cd" d="M19.636 8.727v0.982c0 0.436-0.273 0.873-0.709 1.036-0.218 0.055-0.436 0.109-0.655 0.164 0.655 0.055 1.364-0.109 1.909-0.545v-1.636h-0.545z"></path>
<path fill="#de333f" d="M9.818 8.727v0.982c0 0.436-0.273 0.873-0.709 1.036-0.218 0.055-0.436 0.109-0.655 0.164 0.655 0.055 1.364-0.109 1.909-0.545v-1.636h-0.545z"></path>
<path fill="#99b5cd" d="M13.091 8.727v0.982c0 0.436-0.273 0.873-0.709 1.036-0.218 0.055-0.436 0.109-0.655 0.164 0.655 0.055 1.364-0.109 1.909-0.545v-1.636h-0.545z"></path>
<path fill="#de333f" d="M3.273 8.727v0.982c0 0.436-0.273 0.873-0.709 1.036-0.218 0.055-0.436 0.109-0.655 0.164 0.655 0.055 1.364-0.109 1.909-0.545v-1.636h-0.545z"></path>
<path fill="#99b5cd" d="M6.545 8.727v0.982c0 0.436-0.273 0.873-0.709 1.036-0.218 0.055-0.436 0.109-0.655 0.164 0.655 0.055 1.364-0.109 1.909-0.545v-1.636h-0.545z"></path>
</svg>
