<!-- Generated by IcoMoon.io -->
<svg version="1.1" xmlns="http://www.w3.org/2000/svg" width="24" height="24" viewBox="0 0 24 24">
<title>speech</title>
<path fill="#efc9ae" d="M12 1.091c-2.727 0-4.909 2.182-4.909 4.909v1.091c-0.327 0-0.545 0.218-0.545 0.545v0.873c0 0.164 0.055 0.273 0.164 0.382l0.382 0.382v0.327c0 0.491 0.164 0.982 0.491 1.364l2.018 2.618c0.327 0.382 0.764 0.6 1.309 0.6h2.182c0.491 0 0.982-0.218 1.309-0.6l2.018-2.618c0.327-0.382 0.491-0.873 0.491-1.364v-3.6c-0-2.727-2.182-4.909-4.909-4.909z"></path>
<path fill="#e2b698" d="M14.4 13.582c-0.327 0.382-0.764 0.6-1.309 0.6h-2.182c-0.491 0-0.982-0.218-1.309-0.6l-0.873-1.091v2.782l3.273 2.727 3.273-2.727v-2.836l-0.873 1.145z"></path>
<path fill="#d8a984" d="M15.273 12.436l-0.873 1.091c-0.327 0.436-0.764 0.655-1.309 0.655h-2.182c-0.491 0-0.982-0.218-1.309-0.6l-0.873-1.091v0.545l0.873 1.091c0.327 0.382 0.764 0.6 1.309 0.6h1.091c0.327 0 0.545 0.218 0.545 0.545v2.182l2.727-2.727v-1.636h-0.055l0.055-0.109v-0.545z"></path>
<path fill="#6f707e" d="M1.091 20.727c-0.327 0-0.545-0.218-0.545-0.545v-5.018c0-0.436 0.164-0.873 0.491-1.145l1.309-1.309c0.218-0.218 0.545-0.218 0.764 0s0.218 0.545 0 0.764l-1.309 1.309c-0.109 0.109-0.164 0.273-0.164 0.382v5.018c0 0.327-0.218 0.545-0.545 0.545z"></path>
<path fill="#6f707e" d="M22.909 20.727c-0.327 0-0.545-0.218-0.545-0.545v-5.018c0-0.164-0.055-0.273-0.164-0.382l-1.309-1.309c-0.218-0.218-0.218-0.545 0-0.764s0.545-0.218 0.764 0l1.309 1.309c0.327 0.327 0.491 0.709 0.491 1.145v5.018c0 0.327-0.218 0.545-0.545 0.545z"></path>
<path fill="#d5e3ef" d="M15.273 15.273l-3.273 2.727-3.273-2.727-5.782 1.909c-0.436 0.164-0.764 0.545-0.764 1.036v1.964h19.636v-1.964c0-0.491-0.327-0.873-0.764-1.036l-5.782-1.909z"></path>
<path fill="#494a52" d="M21.818 12.273c0 0.753-0.611 1.364-1.364 1.364s-1.364-0.611-1.364-1.364c0-0.753 0.611-1.364 1.364-1.364s1.364 0.611 1.364 1.364z"></path>
<path fill="#595a66" d="M21.982 13.8c-0.164-0.164-0.218-0.436-0.164-0.709 0-0.055 0-0.164 0-0.218l-0.164-0.164c-0.218-0.218-0.545-0.218-0.764 0s-0.218 0.545 0 0.764l1.309 1.309c0.109 0.109 0.164 0.218 0.164 0.382v5.018c0 0.327 0.218 0.545 0.545 0.545v-5.564c0-0.273-0.109-0.545-0.327-0.764l-0.6-0.6z"></path>
<path fill="#595a66" d="M2.018 13.8c0.164-0.164 0.218-0.436 0.164-0.709 0-0.055 0-0.164 0-0.218l0.164-0.164c0.218-0.218 0.545-0.218 0.764 0s0.218 0.545 0 0.764l-0.382 0.436-0.927 0.927c-0.109 0.055-0.164 0.218-0.164 0.327v5.018c0 0.327-0.218 0.545-0.545 0.545v-5.564c0-0.273 0.109-0.545 0.327-0.764l0.6-0.6z"></path>
<path fill="#35363e" d="M21.109 11.073c0.109 0.218 0.164 0.436 0.164 0.655 0 0.764-0.6 1.364-1.364 1.364-0.218 0-0.436-0.055-0.655-0.164 0.218 0.436 0.655 0.709 1.2 0.709 0.764 0 1.364-0.6 1.364-1.364 0-0.491-0.273-0.982-0.709-1.2z"></path>
<path fill="#494a52" d="M4.909 12.273c0 0.753-0.611 1.364-1.364 1.364s-1.364-0.611-1.364-1.364c0-0.753 0.611-1.364 1.364-1.364s1.364 0.611 1.364 1.364z"></path>
<path fill="#595a66" d="M10.909 7.364c0-0.164-0.109-0.273-0.273-0.273h-1.091c-0.164 0-0.273 0.109-0.273 0.273s0.109 0.273 0.273 0.273h0.273c0 0.327 0.218 0.545 0.545 0.545s0.545-0.218 0.545-0.545c0-0.055 0-0.109-0.055-0.164 0.055 0 0.055-0.055 0.055-0.109z"></path>
<path fill="#595a66" d="M14.455 7.091h-1.091c-0.164 0-0.273 0.109-0.273 0.273 0 0.055 0 0.109 0.055 0.109 0 0.055-0.055 0.109-0.055 0.164 0 0.327 0.218 0.545 0.545 0.545s0.545-0.218 0.545-0.545v0h0.273c0.164 0 0.273-0.109 0.273-0.273s-0.109-0.273-0.273-0.273z"></path>
<path fill="#e2b698" d="M13.091 10.364h-1.091v-2.727z"></path>
<path fill="#b0c4d8" d="M14.182 20.182v0-2.182h-2.182c0.327 1.036 1.145 1.855 2.182 2.182z"></path>
<path fill="#b0c4d9" d="M12 18h-2.182v2.182c0.655-0.218 1.2-0.655 1.636-1.145v1.145c0.164 0 0.382 0 0.545 0v-2.182z"></path>
<path fill="#70b7e5" d="M9.818 20.182v0c0.327-1.036 1.145-1.855 2.182-2.182v0l-3.273-3.273c0 0-1.255 0.382-1.636 1.091l2.727 4.364z"></path>
<path fill="#70b7e5" d="M14.182 20.182v0c-0.327-1.036-1.145-1.855-2.182-2.182v0l3.273-3.273c0 0 1.309 0.382 1.636 1.091l-2.727 4.364z"></path>
<path fill="#da8c36" d="M23.455 22.909h-22.909c-0.327 0-0.545-0.218-0.545-0.545v-1.636c0-0.327 0.218-0.545 0.545-0.545h22.909c0.327 0 0.545 0.218 0.545 0.545v1.636c0 0.327-0.218 0.545-0.545 0.545z"></path>
<path fill="#35363e" d="M4.2 11.073c0.109 0.218 0.164 0.436 0.164 0.655 0 0.764-0.6 1.364-1.364 1.364-0.218 0-0.436-0.055-0.655-0.164 0.218 0.436 0.709 0.709 1.2 0.709 0.764 0 1.364-0.6 1.364-1.364 0-0.491-0.273-0.982-0.709-1.2z"></path>
<path fill="#f48476" d="M12.818 11.727h-1.636c-0.164 0-0.273-0.109-0.273-0.273s0.109-0.273 0.273-0.273h1.636c0.164 0 0.273 0.109 0.273 0.273s-0.109 0.273-0.273 0.273z"></path>
<path fill="#4c9cd6" d="M10.745 16.745c-0.436 0.655-1.364 0.655-1.855 0l-1.145-1.527c-0.273 0.164-0.491 0.382-0.6 0.6l2.727 4.364c0.327-1.036 1.145-1.855 2.182-2.182l-1.309-1.255z"></path>
<path fill="#4c9cd6" d="M15.273 14.727l-1.145 1.145c-0.327 0.327-0.273 0.818 0.055 1.145v0c0.327 0.273 0.382 0.709 0.109 1.036l-0.709 1.036c0.273 0.327 0.491 0.709 0.6 1.091l2.727-4.364c-0.327-0.709-1.636-1.091-1.636-1.091z"></path>
<path fill="#c97629" d="M23.455 20.182h-1.636c-0.327 0-0.545 0.218-0.545 0.545v1.091c0 0.327-0.218 0.545-0.545 0.545h-20.727c0 0.327 0.218 0.545 0.545 0.545h22.909c0.327 0 0.545-0.218 0.545-0.545v-1.636c0-0.327-0.218-0.545-0.545-0.545z"></path>
<path fill="#e2b698" d="M16.909 7.091v-1.091c0-1.145-0.382-2.182-1.036-3-0.873-0.818-2.073-1.364-3.436-1.364h-0.927c-1.309 0-2.509 0.545-3.436 1.364-0.6 0.818-0.982 1.855-0.982 3v1.091c2.455-0.055 4.855-0.491 6.709-1.364v0c0.273 0.164 0.6 0.327 0.927 0.436v3.436c0 0.491-0.164 0.982-0.491 1.364l-1.691 3.218h0.545c0.491 0 0.982-0.218 1.309-0.6l2.018-2.618c0.327-0.382 0.491-0.873 0.491-1.364v-0.327l0.382-0.382c0.109-0.109 0.164-0.218 0.164-0.382v-0.873c0-0.327-0.218-0.545-0.545-0.545z"></path>
<path fill="#da8c36" d="M13.8 5.182c-1.964 0.927-4.636 1.364-7.255 1.364v-0.436c0-2.782 2.236-5.018 5.018-5.018h0.927c2.782 0 5.018 2.236 5.018 5.018v0c-0.327 0-0.6 0-0.927-0.055-1.036-0.109-2.018-0.382-2.782-0.873z"></path>
<path fill="#c97629" d="M13.418 1.2c1.745 0.927 2.891 2.727 2.891 4.8 0.055 0 0.109 0 0.164 0.055 0.327 0.055 0.6 0.055 0.927 0.055 0.055-2.455-1.691-4.473-3.982-4.909z"></path>
</svg>
