<!-- Generated by IcoMoon.io -->
<svg version="1.1" xmlns="http://www.w3.org/2000/svg" width="24" height="24" viewBox="0 0 24 24">
<title>startup</title>
<path fill="#d5e3ef" d="M13.66 16.886l-6.531-6.531 5.333-5.333c2.558-2.558 5.823-4.245 9.361-4.844l0.98-0.163c0.054 0 0.109 0 0.163 0v0c0.544 0 0.98 0.435 0.98 0.98v0c0 0.054 0 0.109 0 0.163l-0.109 1.034c-0.599 3.537-2.286 6.803-4.789 9.306l-5.388 5.388z"></path>
<path fill="#b0c4d9" d="M19.537 7.199l-7.782 7.782 1.905 1.905 5.333-5.333c2.558-2.558 4.19-5.769 4.789-9.306l0.218-1.034c0-0.054 0-0.109 0-0.163 0-0.272-0.109-0.49-0.272-0.653-0.816 2.503-2.231 4.844-4.19 6.803z"></path>
<path fill="#f79548" d="M13.932 22.056c-0.327-0.327-0.871-0.327-1.197 0-0.435 0.435-0.707 1.796-0.762 1.85 0 0.054 0 0.054 0 0.054s0.054 0.054 0.054 0 1.361-0.272 1.85-0.762c0.435-0.327 0.435-0.816 0.054-1.143z"></path>
<path fill="#f79548" d="M1.959 10.083c-0.327-0.327-0.871-0.327-1.197 0-0.435 0.435-0.707 1.741-0.707 1.796s0 0.054 0 0.054 0.054 0.054 0.054 0 1.361-0.272 1.85-0.762c0.381-0.272 0.381-0.762-0-1.088z"></path>
<path fill="#f79548" d="M5.823 18.192c-0.98-0.98-2.612-0.98-3.592 0-1.361 1.361-2.177 5.333-2.231 5.497 0 0.109 0 0.163 0.054 0.218 0.109 0.054 0.218 0.054 0.327 0.054 0.163-0.054 4.136-0.816 5.497-2.231 0.98-0.98 0.98-2.558-0.054-3.537z"></path>
<path fill="#fcbb76" d="M5.66 18.246c-0.49-0.49-1.306-0.49-1.796 0-0.707 0.707-1.088 2.667-1.088 2.721s0 0.109 0.054 0.109 0.054 0.054 0.109 0.054c0.109 0 2.068-0.435 2.721-1.088 0.49-0.49 0.49-1.306 0-1.796z"></path>
<path fill="#99b4cd" d="M14.204 19.607l-1.633-1.633 3.265-3.265v3.265z"></path>
<path fill="#6c9abb" d="M14.041 17.593l1.034-1.034c0.49-0.49 0.762-1.143 0.762-1.85v0l-3.265 3.265 1.633 1.633 0.544-0.544-0.707-0.707c-0.218-0.218-0.218-0.544 0-0.762z"></path>
<path fill="#d5e3ef" d="M15.293 22.872l-2.177-2.177 3.918-3.918c0.272-0.272 0.653-0.435 1.088-0.435v0c0.871 0 1.524 0.707 1.524 1.524v0c0 0.435-0.163 0.816-0.435 1.088l-3.918 3.918z"></path>
<path fill="#b0c4d9" d="M19.211 17.865l-3.918 3.918-1.633-1.633-0.544 0.544 2.177 2.177 3.918-3.918c0.272-0.272 0.435-0.653 0.435-1.088 0-0.218-0.054-0.381-0.109-0.544-0.054 0.218-0.163 0.381-0.327 0.544z"></path>
<path fill="#99b4cd" d="M4.408 15.253v0c0.381-0.381 0.816-0.653 1.252-0.762l0.925-0.327 3.265 3.265-0.327 0.925c-0.163 0.49-0.435 0.925-0.762 1.252v0l-4.354-4.354z"></path>
<path fill="#6c9abb" d="M6.585 14.165l-0.816 0.272 1.796 1.796c0.435 0.435 0.544 1.034 0.381 1.578v0c-0.054 0.218-0.163 0.435-0.327 0.653l1.143 1.143c0.381-0.381 0.653-0.816 0.762-1.252l0.327-0.925-3.265-3.265z"></path>
<path fill="#99b4cd" d="M4.408 9.811l1.633 1.633 3.265-3.265h-3.265z"></path>
<path fill="#6c9abb" d="M5.878 10.192c-0.218-0.218-0.218-0.544 0-0.762l1.252-1.252h-1.088l-1.633 1.633 1.633 1.633c0.327-0.327 0.327-0.762 0-1.088l-0.163-0.163z"></path>
<path fill="#d5e3ef" d="M1.143 8.723l2.177 2.177 3.918-3.918c0.272-0.272 0.435-0.653 0.435-1.088v0c0-0.816-0.707-1.524-1.524-1.524v0c-0.435 0-0.816 0.163-1.088 0.435l-3.918 3.918z"></path>
<path fill="#70b7e5" d="M17.469 8.723c0 1.202-0.975 2.177-2.177 2.177s-2.177-0.975-2.177-2.177c0-1.202 0.975-2.177 2.177-2.177s2.177 0.975 2.177 2.177z"></path>
<path fill="#f04b4d" d="M15.293 11.444c-1.524 0-2.721-1.197-2.721-2.721s1.197-2.721 2.721-2.721 2.721 1.197 2.721 2.721-1.197 2.721-2.721 2.721zM15.293 7.090c-0.925 0-1.633 0.707-1.633 1.633s0.707 1.633 1.633 1.633 1.633-0.707 1.633-1.633-0.707-1.633-1.633-1.633z"></path>
<path fill="#4c9cd6" d="M14.422 10.138c-0.163-0.272-0.218-0.544-0.218-0.871 0-0.925 0.707-1.633 1.633-1.633 0.327 0 0.599 0.109 0.871 0.218-0.327-0.435-0.816-0.762-1.415-0.762-0.925 0-1.633 0.707-1.633 1.633 0 0.599 0.327 1.088 0.762 1.415z"></path>
<path fill="#f04d4e" d="M13.66 16.886l-1.796 1.796c-0.218 0.218-0.544 0.218-0.762 0l-5.769-5.769c-0.218-0.218-0.218-0.544 0-0.762l1.796-1.796 6.531 6.531z"></path>
<path fill="#db343f" d="M9.633 15.58l-3.429-3.429c-0.218-0.218-0.599-0.218-0.871 0v0c-0.218 0.218-0.218 0.544 0 0.762l5.769 5.769c0.218 0.218 0.544 0.218 0.762 0l1.796-1.796-1.905-1.905-0.599 0.599c-0.435 0.435-1.088 0.435-1.524 0z"></path>
<path fill="#f04d4e" d="M16.944 21.275l-1.616 1.616-2.193-2.193 1.616-1.616 2.193 2.193z"></path>
<path fill="#db343f" d="M16.381 20.695l-0.762 0.762c-0.327 0.327-0.762 0.327-1.088 0l-1.088-1.088-0.327 0.327 2.177 2.177 1.633-1.633-0.544-0.544z"></path>
<path fill="#ecf0f9" d="M9.306 10.083c-0.054 0-0.163 0-0.218-0.054-0.109-0.109-0.109-0.272 0-0.381l2.721-2.721c0.109-0.109 0.272-0.109 0.381 0s0.109 0.272 0 0.381l-2.721 2.721c0 0.054-0.109 0.054-0.163 0.054z"></path>
<path fill="#ecf0f9" d="M13.116 6.274c-0.054 0-0.163 0-0.218-0.054-0.109-0.109-0.109-0.272 0-0.381l1.088-1.088c0.109-0.109 0.272-0.109 0.381 0s0.109 0.272 0 0.381l-1.088 1.088c0 0.054-0.109 0.054-0.163 0.054z"></path>
<path fill="#f04d4e" d="M23.020 0.015c-0.054 0-0.109 0-0.163 0l-1.034 0.163c-1.687 0.272-3.265 0.816-4.789 1.578 0 0 0.98 0.98 2.612 2.612s2.612 2.612 2.612 2.612c0.762-1.524 1.252-3.102 1.578-4.789l0.163-0.98c0-0.054 0-0.109 0-0.163 0-0.599-0.435-1.034-0.98-1.034z"></path>
<path fill="#f26a56" d="M19.102 2.246c-0.109 0-0.218-0.054-0.272-0.163-0.054-0.163 0-0.272 0.163-0.327 1.088-0.435 2.177-0.707 3.32-0.925 0.163 0 0.272 0.054 0.327 0.218 0 0.163-0.054 0.272-0.218 0.327-1.088 0.163-2.177 0.49-3.211 0.871-0.054 0-0.054 0-0.109 0z"></path>
<path fill="#f26a56" d="M15.293 6.056v-0.054c-1.524 0-2.721 1.197-2.721 2.721h0.054c0.272 0 0.49-0.163 0.544-0.435 0.054-0.381 0.272-0.707 0.49-0.98 0.327-0.327 0.707-0.599 1.197-0.707 0.272-0.054 0.435-0.272 0.435-0.544z"></path>
<path fill="#db343f" d="M15.293 11.389v0.054c1.524 0 2.721-1.197 2.721-2.721h-0.054c-0.272 0-0.49 0.163-0.544 0.435-0.054 0.381-0.272 0.707-0.49 0.98-0.327 0.327-0.707 0.599-1.197 0.707-0.272 0.054-0.435 0.272-0.435 0.544z"></path>
<path fill="#ecf0f9" d="M16.381 18.791c-0.054 0-0.163 0-0.218-0.054-0.109-0.109-0.109-0.272 0-0.381l1.088-1.088c0.109-0.109 0.272-0.109 0.381 0s0.109 0.272 0 0.381l-1.088 1.088c0 0.054-0.109 0.054-0.163 0.054z"></path>
<path fill="#b0c4d9" d="M7.238 5.893l-3.918 3.918-1.633-1.633-0.544 0.544 2.177 2.177 3.918-3.918c0.272-0.272 0.435-0.653 0.435-1.088 0-0.218-0.054-0.381-0.109-0.544-0.054 0.218-0.163 0.381-0.327 0.544z"></path>
<path fill="#ecf0f9" d="M4.408 6.818c-0.054 0-0.163 0-0.218-0.054-0.109-0.109-0.109-0.272 0-0.381l1.088-1.088c0.109-0.109 0.272-0.109 0.381 0s0.109 0.272 0 0.381l-1.088 1.088c0 0.054-0.109 0.054-0.163 0.054z"></path>
<path fill="#f04d4e" d="M4.97 9.303l-1.616 1.616-2.193-2.193 1.616-1.616 2.193 2.193z"></path>
<path fill="#db343f" d="M4.408 8.723l-0.762 0.762c-0.327 0.327-0.762 0.327-1.088 0l-1.088-1.088-0.327 0.327 2.177 2.177 1.633-1.633-0.544-0.544z"></path>
<path fill="#db343f" d="M20.898 5.621l1.361 1.361c0.762-1.524 1.252-3.102 1.578-4.789l0.163-0.98c0-0.054 0-0.109 0-0.163 0-0.272-0.109-0.49-0.272-0.653-0.599 1.85-1.578 3.646-2.83 5.224z"></path>
</svg>
