<!-- Generated by IcoMoon.io -->
<svg version="1.1" xmlns="http://www.w3.org/2000/svg" width="24" height="24" viewBox="0 0 24 24">
<title>support</title>
<path fill="#e2b698" d="M13.908 15.319c-0.545 0.327-1.145 0.491-1.799 0.491h-0.273c-0.654 0-1.254-0.164-1.799-0.491l-1.744-1.145h-0.109v2.726l3.816 2.181 3.816-2.181v-2.726h-0.109l-1.799 1.145z"></path>
<path fill="#d8a984" d="M14.562 13.629h-6.324l-0.055 1.090 1.254 1.036c0.709 0.382 1.526 1.145 2.399 1.145h0.273c0.164 0 0.273 0 0.436 0 1.036-0.109 1.963 0.545 1.963 1.472v0l-3.162 3.107 0.654-0.491 3.816-2.671v-4.688h-1.254z"></path>
<path fill="#d5e3ef" d="M0.552 22.896l0.327-2.453c0.109-0.818 0.709-1.526 1.526-1.799l5.779-1.744 3.816 2.181 3.816-2.181 5.779 1.799c0.818 0.273 1.417 0.927 1.526 1.799l0.327 2.399c-5.124 1.472-17.772 1.472-22.896 0z"></path>
<path fill="#efc9ae" d="M17.997 7.087c0-3.325-2.671-5.997-5.997-5.997s-5.997 2.671-5.997 5.997h-0.545v1.090c0 0.6 0.491 1.090 1.090 1.090v0 2.017c0 1.145 0.6 2.181 1.526 2.78l2.017 1.254c0.545 0.327 1.145 0.491 1.799 0.491h0.273c0.654 0 1.254-0.164 1.799-0.491l2.017-1.254c0.981-0.6 1.526-1.635 1.526-2.78v-2.017c0.6 0 1.090-0.491 1.090-1.090v-1.090h-0.6z"></path>
<path fill="#595a66" d="M10.365 8.177c0 0.301-0.244 0.545-0.545 0.545s-0.545-0.244-0.545-0.545c0-0.301 0.244-0.545 0.545-0.545s0.545 0.244 0.545 0.545z"></path>
<path fill="#595a66" d="M14.726 8.177c0 0.301-0.244 0.545-0.545 0.545s-0.545-0.244-0.545-0.545c0-0.301 0.244-0.545 0.545-0.545s0.545 0.244 0.545 0.545z"></path>
<path fill="#b0c4d9" d="M13.090 21.533c0 0.151-0.122 0.273-0.273 0.273s-0.273-0.122-0.273-0.273c0-0.151 0.122-0.273 0.273-0.273s0.273 0.122 0.273 0.273z"></path>
<path fill="#b0c4d9" d="M13.090 23.169c0 0.151-0.122 0.273-0.273 0.273s-0.273-0.122-0.273-0.273c0-0.151 0.122-0.273 0.273-0.273s0.273 0.122 0.273 0.273z"></path>
<path fill="#e2b698" d="M13.090 11.448h-1.090v-3.271z"></path>
<path fill="#f04d4e" d="M6.003 5.997h0.545v3.816h-0.545c-0.6 0-1.090-0.491-1.090-1.090v-1.635c0-0.6 0.491-1.090 1.090-1.090z"></path>
<path fill="#b0c4d8" d="M14.181 21.261v0-2.181h-2.181c0.327 1.036 1.145 1.853 2.181 2.181z"></path>
<path fill="#70b7e5" d="M14.181 21.261v0c-0.327-1.036-1.145-1.854-2.181-2.181v0l1.036-0.6c1.090-0.654 2.072-1.581 2.78-2.671v0l0.491 0.164c0.763 0.273 1.363 0.763 1.744 1.472v0l-3.871 3.816z"></path>
<path fill="#4c9cd6" d="M16.307 15.973l-0.491-0.164c-0.055 0.109-0.164 0.218-0.218 0.327 0.164 0.055 0.273 0.164 0.382 0.218 0.6 0.436 0.709 1.308 0.164 1.854l-1.69 1.635c-0.382 0.382-0.436 0.872-0.273 1.363v0l3.816-3.816c-0.327-0.654-0.981-1.199-1.69-1.417z"></path>
<path fill="#de333f" d="M6.003 5.997h0.545v3.816h-0.545v-3.816z"></path>
<path fill="#e2b698" d="M17.997 7.087c0-3.325-2.671-5.997-5.997-5.997-0.927 0-1.744 0.218-2.508 0.545 0.109 0 0.218 0 0.327 0 2.562 0 4.743 1.581 5.615 3.871-0.436-0.164-0.872-0.327-1.254-0.545v0c-2.126 0.981-4.852 1.472-7.632 1.581v0.545c2.78-0.109 5.506-0.654 7.632-1.581v0c0.218 0.109 0.436 0.218 0.654 0.327 0.545 0.273 0.927 0.763 0.981 1.363 0 0.164 0 0.273 0 0.436v4.198c0 0.654-0.218 1.308-0.545 1.799h-0.055c-0.109-0.327-0.436-0.545-0.763-0.545h-1.635c-0.436 0-0.818 0.382-0.818 0.818s0.382 0.818 0.818 0.818h1.254l-1.744 1.090c0.545-0.055 1.090-0.218 1.581-0.491l2.017-1.254c0.981-0.6 1.526-1.635 1.526-2.78v-2.017c0.6 0 1.090-0.491 1.090-1.090v-1.090h-0.545z"></path>
<path fill="#da8c36" d="M14.181 4.906c-2.399 1.090-5.56 1.635-8.722 1.635v-0.545c0-3.325 2.671-5.997 5.997-5.997h1.090c3.325 0 5.997 2.671 5.997 5.997v0c-0.382 0-0.709 0-1.090-0.055-1.199-0.109-2.344-0.491-3.271-1.036z"></path>
<path fill="#c97629" d="M13.581 0.109c1.963 0.981 3.325 2.998 3.325 5.342v0.382c0.164 0.055 0.382 0.055 0.545 0.109 0.382 0.055 0.709 0.055 1.090 0.055 0-2.944-2.126-5.397-4.961-5.888z"></path>
<path fill="#c97629" d="M12.981 1.308l-1.526-1.308 1.199 1.854c0.382 0.545 0.545 1.145 0.6 1.799 0 0.491-0.327 0.872-0.818 0.927-0.327 0-0.6 0.109-0.927 0.218-1.744 0.6-3.871 1.635-6.051 1.744 2.889 0 5.779-0.491 8.123-1.363 0.6-0.273 0.6-0.273 0.6-0.273 0.327-1.308-0.109-2.726-1.199-3.598z"></path>
<path fill="#595a66" d="M18.542 8.177c-0.327 0-0.545 0.218-0.545 0.545v2.726c0 0.927-0.709 1.635-1.635 1.635h-1.69c-0.109-0.327-0.436-0.545-0.763-0.545h-1.090c-0.436 0-0.818 0.382-0.818 0.818s0.382 0.818 0.818 0.818h3.543c1.526 0 2.726-1.199 2.726-2.726v-2.726c0-0.327-0.218-0.545-0.545-0.545z"></path>
<path fill="#494a52" d="M18.814 11.448v0c-0.164 0-0.273-0.109-0.273-0.273v-2.453c0-0.164 0.109-0.273 0.273-0.273v0c0.164 0 0.273 0.109 0.273 0.273v2.453c0 0.163-0.109 0.273-0.273 0.273z"></path>
<path fill="#f04d4e" d="M17.997 9.813h-0.545v-3.816h0.545c0.6 0 1.090 0.491 1.090 1.090v1.635c0 0.6-0.491 1.090-1.090 1.090z"></path>
<path fill="#de333f" d="M17.451 5.997h0.545v3.816h-0.545v-3.816z"></path>
<path fill="#6f707e" d="M14.998 13.083h1.090c0.164 0 0.273 0.109 0.273 0.273v0c0 0.164-0.109 0.273-0.273 0.273h-1.090c-0.164 0-0.273-0.109-0.273-0.273v0c0-0.164 0.109-0.273 0.273-0.273z"></path>
<path fill="#f26a56" d="M5.458 7.359v1.090c0 0.164-0.109 0.273-0.273 0.273v0c-0.164 0-0.273-0.109-0.273-0.273v-1.090c0-0.164 0.109-0.273 0.273-0.273v0c0.164 0 0.273 0.109 0.273 0.273z"></path>
<path fill="#6f707e" d="M12.818 12.538h0.545c0.164 0 0.273 0.109 0.273 0.273v0c0 0.164-0.109 0.273-0.273 0.273h-0.545c-0.164 0-0.273-0.109-0.273-0.273v0c0-0.164 0.109-0.273 0.273-0.273z"></path>
<path fill="#494a52" d="M12.818 13.629h3.271c0.164 0 0.273 0.109 0.273 0.273v0c0 0.164-0.109 0.273-0.273 0.273h-3.271c-0.164 0-0.273-0.109-0.273-0.273v0c0-0.164 0.109-0.273 0.273-0.273z"></path>
<path fill="#f48476" d="M11.128 13.629c-0.709 0-1.308-0.6-1.308-1.308 0-0.164 0.164-0.327 0.327-0.327s0.327 0.164 0.327 0.327c0 0.382 0.273 0.654 0.654 0.654 0.164 0 0.327 0.164 0.327 0.327s-0.164 0.327-0.327 0.327z"></path>
<path fill="#b0c4d9" d="M9.819 19.080v2.181c0.654-0.218 1.199-0.654 1.635-1.145v3.871c0.164 0 0.382 0 0.545 0v-4.906h-2.181z"></path>
<path fill="#70b7e5" d="M9.819 21.261v0c0.327-1.036 1.145-1.854 2.181-2.181v0l-1.036-0.6c-1.090-0.654-2.072-1.581-2.78-2.671v0l-0.491 0.164c-0.763 0.273-1.363 0.763-1.744 1.472v0l3.871 3.816z"></path>
<path fill="#4c9cd6" d="M9.165 19.516l-1.635-1.635c-0.327-0.327-0.709-0.491-1.145-0.491-0.164 0-0.327 0-0.327 0.109l3.816 3.816c0.327-1.036 1.145-1.854 2.181-2.181v0c-0.491-0.327-1.145-0.218-1.581 0.164-0.055 0.055-0.109 0.109-0.164 0.164-0.327 0.327-0.872 0.327-1.145 0.054z"></path>
</svg>
