<!-- Generated by IcoMoon.io -->
<svg version="1.1" xmlns="http://www.w3.org/2000/svg" width="24" height="24" viewBox="0 0 24 24">
<title>target</title>
<path fill="#b06328" d="M16.691 19.909c-0.545 0.382-1.091 0.709-1.691 0.982l1.091 2.4c0.164 0.382 0.6 0.655 1.036 0.655v0c0.491 0 0.873-0.382 0.873-0.873 0-0.109 0-0.273-0.055-0.382l-1.255-2.782z"></path>
<path fill="#b06328" d="M5.127 19.909l-1.255 2.782c-0.055 0.164-0.055 0.273-0.055 0.436 0 0.491 0.382 0.873 0.873 0.873v0c0.436 0 0.873-0.273 1.036-0.655l1.091-2.4c-0.6-0.273-1.145-0.6-1.691-1.036z"></path>
<path fill="#b06328" d="M12 2.727h-2.182v-1.091c0-0.6 0.491-1.091 1.091-1.091v0c0.6 0 1.091 0.491 1.091 1.091v1.091z"></path>
<path fill="#9f5223" d="M12 2.727h-1.091v-1.091c0-0.327 0.218-0.545 0.545-0.545v0c0.327 0 0.545 0.218 0.545 0.545v1.091z"></path>
<path fill="#f04b4d" d="M20.727 12c0 5.422-4.396 9.818-9.818 9.818s-9.818-4.396-9.818-9.818c0-5.422 4.396-9.818 9.818-9.818s9.818 4.396 9.818 9.818z"></path>
<path fill="#9f5223" d="M16.691 19.909c-0.545 0.382-1.091 0.709-1.691 0.982l0.491 1.091c0.273-0.109 0.545-0.273 0.764-0.382 0.273-0.164 0.655-0.055 0.764 0.273l0.382 0.818c0.055 0.109 0.055 0.218 0.055 0.382 0 0.382-0.273 0.764-0.655 0.873 0.109 0 0.164 0.055 0.273 0.055v0c0.491 0 0.873-0.382 0.873-0.873 0-0.109 0-0.273-0.055-0.382l-1.2-2.836z"></path>
<path fill="#9f5223" d="M5.127 19.909l-0.218 0.491c0.218 0.164 0.436 0.382 0.655 0.545s0.273 0.436 0.164 0.655l-0.545 1.2c-0.164 0.382-0.545 0.655-1.036 0.655v0c-0.109 0-0.218 0-0.273-0.055 0.109 0.327 0.436 0.6 0.818 0.6v0c0.436 0 0.873-0.273 1.036-0.655l1.091-2.4c-0.6-0.273-1.146-0.6-1.691-1.036z"></path>
<path fill="#de333f" d="M20.509 9.873c-0.055-0.382-0.164-0.709-0.273-1.036l-9.491 2.618c-0.273 0.055-0.436 0.382-0.382 0.655 0.055 0.164 0.109 0.273 0.273 0.327 0.109 0.109 0.273 0.109 0.436 0.109l9.436-2.673z"></path>
<path fill="#eceff9" d="M10.909 4.364c-4.2 0-7.636 3.436-7.636 7.636s3.436 7.636 7.636 7.636 7.636-3.436 7.636-7.636-3.436-7.636-7.636-7.636zM10.909 17.455c-3 0-5.455-2.455-5.455-5.455s2.455-5.455 5.455-5.455 5.455 2.455 5.455 5.455-2.455 5.455-5.455 5.455z"></path>
<path fill="#eceff9" d="M10.909 8.727c-1.8 0-3.273 1.473-3.273 3.273s1.473 3.273 3.273 3.273 3.273-1.473 3.273-3.273-1.473-3.273-3.273-3.273zM10.909 13.636c-0.927 0-1.636-0.709-1.636-1.636s0.709-1.636 1.636-1.636 1.636 0.709 1.636 1.636-0.709 1.636-1.636 1.636z"></path>
<path fill="#f6b545" d="M18.545 4.364l1.582 0.382c0.382 0.109 0.764 0 1.036-0.273l1.745-1.745-2.182-0.545-0.545-2.182-1.745 1.745c-0.273 0.273-0.382 0.655-0.273 1.036l0.382 1.582z"></path>
<path fill="#f19920" d="M20.018 4.745l2.182-2.182-1.2-0.327-2.182 2.182z"></path>
<path fill="#7f4122" d="M10.909 12.545c-0.164 0-0.273-0.055-0.382-0.164-0.218-0.218-0.218-0.545 0-0.764l10.909-10.909c0.218-0.218 0.545-0.218 0.764 0s0.218 0.545 0 0.764l-10.909 10.909c-0.109 0.109-0.218 0.164-0.382 0.164z"></path>
<path fill="#c4d7e5" d="M18.109 9.436l-2.127 0.6c0.109 0.327 0.218 0.709 0.273 1.036l2.127-0.6c-0.055-0.327-0.164-0.709-0.273-1.036z"></path>
<path fill="#c4d7e5" d="M14.182 11.673c-0.055-0.382-0.164-0.709-0.273-1.036l-1.636 0.436c0.164 0.273 0.273 0.6 0.273 0.927 0 0.055 0 0.055 0 0.109l1.636-0.436z"></path>
<path fill="#73371b" d="M10.909 12.545c0.164 0 0.273-0.055 0.382-0.164l10.909-10.909c0.218-0.218 0.218-0.545 0-0.764l-11.673 11.673c0.109 0.109 0.218 0.164 0.382 0.164z"></path>
</svg>
