<!-- Generated by IcoMoon.io -->
<svg version="1.1" xmlns="http://www.w3.org/2000/svg" width="24" height="24" viewBox="0 0 24 24">
<title>technology</title>
<path fill="#ffebeb" d="M5.936 21.31h12.128c2.351-1.816 3.867-4.661 3.867-7.862 0-5.485-4.446-9.931-9.931-9.931s-9.931 4.446-9.931 9.931c0 3.201 1.516 6.046 3.867 7.862z"></path>
<path fill="#ffcece" d="M21.317 8.069c-0.114-0.198-0.367-0.266-0.565-0.151l-2.159 1.247c-0.6-0.921-1.387-1.709-2.309-2.309l1.247-2.159c0.114-0.198 0.046-0.451-0.151-0.565s-0.451-0.046-0.565 0.151l-1.246 2.158c-1.071-0.546-2.283-0.855-3.568-0.855s-2.497 0.308-3.568 0.855l-1.246-2.158c-0.114-0.198-0.367-0.266-0.565-0.151s-0.266 0.367-0.151 0.565l1.247 2.159c-0.921 0.6-1.709 1.387-2.309 2.309l-2.159-1.247c-0.198-0.114-0.451-0.046-0.565 0.151s-0.046 0.451 0.151 0.565l2.158 1.246c-0.546 1.071-0.855 2.283-0.855 3.568 0 4.342 3.52 7.862 7.862 7.862s7.862-3.52 7.862-7.862c0-1.285-0.308-2.497-0.855-3.568l2.158-1.246c0.198-0.114 0.266-0.367 0.151-0.565z"></path>
<path fill="#c7cfe2" d="M18.621 21.31h-13.241v-1.655c0-0.457 0.37-0.828 0.828-0.828h11.586c0.457 0 0.828 0.37 0.828 0.828v1.655z"></path>
<path fill="#ff6464" d="M17.793 18.828h-11.586v-5.379c0-3.199 2.594-5.793 5.793-5.793v0c3.199 0 5.793 2.594 5.793 5.793v5.379z"></path>
<path fill="#afb9d2" d="M19.034 22.552h-14.069c-0.229 0-0.414-0.185-0.414-0.414v-0.414c0-0.229 0.185-0.414 0.414-0.414h14.069c0.229 0 0.414 0.185 0.414 0.414v0.414c0 0.229-0.185 0.414-0.414 0.414z"></path>
<path fill="#afb9d2" d="M10.345 18.828h-4.138c-0.457 0-0.828 0.37-0.828 0.828v1.655h4.138v-1.655c-0-0.457 0.371-0.828 0.828-0.828z"></path>
<path fill="#959cb3" d="M9.103 22.138v-0.414c0-0.229 0.185-0.414 0.414-0.414h-4.552c-0.229 0-0.414 0.185-0.414 0.414v0.414c0 0.229 0.185 0.414 0.414 0.414h4.552c-0.229-0-0.414-0.185-0.414-0.414z"></path>
<path fill="#d2555a" d="M13.356 7.821c-0.436-0.105-0.888-0.166-1.356-0.166-3.199 0-5.793 2.594-5.793 5.793v5.379h4.138v-5.379c0-2.732 1.285-5.016 3.011-5.627z"></path>
<path fill="#ff937c" d="M13.655 13.448c0-0.914-0.741-1.655-1.655-1.655s-1.655 0.741-1.655 1.655c0 0.719 0.461 1.324 1.101 1.553l-0.273 3.826h1.655l-0.273-3.826c0.64-0.229 1.101-0.834 1.101-1.553z"></path>
<path fill="#ffb1b1" d="M24 13.448v0c0-0.229-0.185-0.414-0.414-0.414h-4.552c-0.229 0-0.414 0.185-0.414 0.414v0c0 0.229 0.185 0.414 0.414 0.414h4.552c0.229-0 0.414-0.185 0.414-0.414z"></path>
<path fill="#ffb1b1" d="M0 13.448v0c0 0.229 0.185 0.414 0.414 0.414h4.552c0.229 0 0.414-0.185 0.414-0.414v0c0-0.229-0.185-0.414-0.414-0.414h-4.552c-0.229 0-0.414 0.185-0.414 0.414z"></path>
<path fill="#ffb1b1" d="M12 1.448v0c-0.229 0-0.414 0.185-0.414 0.414v4.552c0 0.229 0.185 0.414 0.414 0.414v0c0.229 0 0.414-0.185 0.414-0.414v-4.552c0-0.229-0.185-0.414-0.414-0.414z"></path>
</svg>
