<!-- Generated by IcoMoon.io -->
<svg version="1.1" xmlns="http://www.w3.org/2000/svg" width="24" height="24" viewBox="0 0 24 24">
<title>technology-1</title>
<path fill="#d77258" d="M18.851 20.25v-6.95c0-3.768-3.083-6.851-6.851-6.851v0c-3.768 0-6.851 3.083-6.851 6.851v6.95h13.703z"></path>
<path fill="#f9e375" d="M11.119 0h1.763v3.526h-1.763v-3.526z"></path>
<path fill="#f5d361" d="M20.374 8.815h3.526v1.763h-3.526v-1.763z"></path>
<path fill="#f9e375" d="M0.1 8.815h3.526v1.763h-3.526v-1.763z"></path>
<path fill="#f9e375" d="M6.969 4.741l-1.247 1.247-2.493-2.493 1.247-1.247 2.493 2.493z"></path>
<path fill="#f5d361" d="M20.77 3.494l-2.493 2.493-1.247-1.247 2.493-2.493 1.247 1.247z"></path>
<path fill="#d14f4e" d="M12 6.449v0 13.801h6.851v-6.95c0-3.768-3.083-6.851-6.851-6.851z"></path>
<path fill="#f5d361" d="M12 0h0.881v3.526h-0.881v-3.526z"></path>
<path fill="#f9e375" d="M3.706 19.673h16.588v4.327h-16.588v-4.327z"></path>
<path fill="#f5d361" d="M12 19.673h8.294v4.327h-8.294v-4.327z"></path>
</svg>
