<!-- Generated by IcoMoon.io -->
<svg version="1.1" xmlns="http://www.w3.org/2000/svg" width="24" height="24" viewBox="0 0 24 24">
<title>transfer</title>
<path fill="#3a556a" d="M13.341 0.842h-12.034c-0.721 0-1.306 0.585-1.306 1.306v20.547c0 0.721 0.585 1.306 1.306 1.306h12.034c0.721 0 1.306-0.585 1.306-1.306v-20.547c0-0.721-0.584-1.306-1.306-1.306z"></path>
<path fill="#64798a" d="M13.341 0h-12.034c-0.721 0-1.306 0.585-1.306 1.306v20.547c0 0.721 0.585 1.306 1.306 1.306h12.034c0.721 0 1.306-0.585 1.306-1.306v-20.547c0-0.721-0.584-1.306-1.306-1.306z"></path>
<path fill="#ebf0f3" d="M1.306 19.699c-0.023 0-0.042-0.016-0.042-0.036v-17.432c0-0.020 0.019-0.036 0.042-0.036h12.035c0.023 0 0.042 0.016 0.042 0.036v17.432c0 0.020-0.019 0.036-0.042 0.036h-12.035z"></path>
<path fill="#3a556a" d="M7.323 22.65c-0.642 0-1.164-0.522-1.164-1.164s0.522-1.164 1.164-1.164c0.642 0 1.164 0.522 1.164 1.164s-0.522 1.164-1.164 1.164zM7.323 20.743c-0.41 0-0.743 0.333-0.743 0.743s0.333 0.743 0.743 0.743c0.41 0 0.743-0.333 0.743-0.743s-0.333-0.743-0.743-0.743z"></path>
<path fill="#3a556a" d="M9.282 1.39h-3.917c-0.101 0-0.182-0.082-0.182-0.182v-0.272c0-0.101 0.082-0.182 0.182-0.182h3.917c0.101 0 0.182 0.082 0.182 0.182v0.272c0 0.101-0.082 0.182-0.182 0.182z"></path>
<path fill="#3ea69b" d="M23.999 11.74l-17.939 3.449-1.755-9.13 17.939-3.449 1.755 9.13z"></path>
<path fill="#44c4a1" d="M6.446 13.675l-1.221-6.353c0.407-0.078 0.673-0.471 0.595-0.878l15.162-2.914c0.078 0.407 0.471 0.673 0.878 0.595l1.221 6.353c-0.407 0.078-0.673 0.471-0.595 0.878l-15.162 2.914c-0.078-0.407-0.471-0.673-0.878-0.595z"></path>
<path fill="#3ea69b" d="M13.554 5.785c1.359-0.261 2.728 0.922 3.059 2.642s-0.503 3.326-1.861 3.588c-1.359 0.261-2.728-0.922-3.059-2.642s0.503-3.326 1.861-3.588z"></path>
<path fill="#3ea69b" d="M21.69 7.56c0 0.313-0.254 0.567-0.567 0.567s-0.567-0.254-0.567-0.567c0-0.313 0.254-0.567 0.567-0.567s0.567 0.254 0.567 0.567z"></path>
<path fill="#3ea69b" d="M7.751 10.239c0 0.313-0.254 0.567-0.567 0.567s-0.567-0.254-0.567-0.567c0-0.313 0.254-0.567 0.567-0.567s0.567 0.254 0.567 0.567z"></path>
<path fill="#44c4a1" d="M14.502 11.434l-0.085-0.442c-0.564 0.050-1.103-0.075-1.616-0.373l0.341-0.611c0.395 0.229 0.778 0.338 1.148 0.325l-0.226-1.174c-0.477-0.021-0.838-0.1-1.084-0.237s-0.402-0.38-0.469-0.729c-0.067-0.349-0-0.658 0.201-0.927s0.496-0.451 0.884-0.546l-0.058-0.303 0.387-0.074 0.059 0.309c0.45-0.053 0.899 0.018 1.346 0.212l-0.286 0.632c-0.303-0.138-0.613-0.2-0.933-0.185l0.219 1.138 0.018-0.004c0.485 0.020 0.854 0.102 1.107 0.245s0.414 0.392 0.482 0.745c0.068 0.353-0.002 0.665-0.21 0.935s-0.515 0.455-0.923 0.554l0.084 0.436-0.387 0.074zM13.324 7.61c-0.086 0.11-0.115 0.233-0.089 0.368s0.087 0.234 0.183 0.297c0.095 0.063 0.264 0.109 0.504 0.139l-0.201-1.047c-0.179 0.051-0.311 0.132-0.396 0.243zM15.108 10.018c0.095-0.114 0.129-0.242 0.102-0.384s-0.093-0.245-0.198-0.31c-0.105-0.066-0.285-0.111-0.541-0.138l0.209 1.089c0.19-0.057 0.332-0.143 0.428-0.258z"></path>
<path fill="#64798a" d="M2.023 9.216l-0.114-0.434 2.246-0.501 0.114 0.434z"></path>
<path fill="#64798a" d="M2.023 10.953l-0.114-0.434 2.568-0.595 0.114 0.434z"></path>
<path fill="#64798a" d="M2.023 12.69l-0.114-0.434 2.826-0.718 0.114 0.434z"></path>
<path fill="#64798a" d="M2.023 14.427l-0.114-0.434 3.118-0.935 0.114 0.434z"></path>
<path fill="#e56353" d="M4.201 16.288h6.245v1.72h-6.245v-1.72z"></path>
<path fill="#fff" d="M5.772 16.802c-0.047 0-0.085 0.010-0.115 0.029s-0.045 0.048-0.045 0.087c0 0.039 0.015 0.068 0.045 0.089s0.094 0.043 0.192 0.066c0.098 0.024 0.172 0.057 0.221 0.1s0.074 0.106 0.074 0.189-0.031 0.151-0.094 0.203c-0.063 0.052-0.145 0.078-0.247 0.078-0.149 0-0.282-0.052-0.398-0.154l0.101-0.122c0.097 0.084 0.197 0.126 0.301 0.126 0.052 0 0.093-0.011 0.124-0.033s0.046-0.052 0.046-0.089c0-0.037-0.014-0.066-0.043-0.086s-0.078-0.039-0.148-0.056c-0.070-0.017-0.124-0.032-0.16-0.046s-0.069-0.033-0.097-0.055c-0.056-0.043-0.085-0.108-0.085-0.197s0.032-0.157 0.096-0.204c0.064-0.048 0.144-0.072 0.239-0.072 0.061 0 0.122 0.010 0.182 0.030s0.112 0.048 0.156 0.085l-0.086 0.122c-0.028-0.025-0.067-0.046-0.115-0.063s-0.096-0.025-0.143-0.025z"></path>
<path fill="#fff" d="M7.015 16.676v0.152h-0.51v0.253h0.458v0.144h-0.458v0.256h0.526v0.152h-0.688v-0.956h0.671z"></path>
<path fill="#fff" d="M7.954 16.676h0.161v0.956h-0.175l-0.541-0.697v0.697h-0.161v-0.956h0.161l0.555 0.714v-0.714z"></path>
<path fill="#fff" d="M9.104 16.801c0.092 0.083 0.138 0.199 0.138 0.348s-0.045 0.266-0.134 0.353c-0.089 0.087-0.226 0.13-0.41 0.13h-0.317v-0.956h0.328c0.171 0 0.303 0.042 0.395 0.125zM9.079 17.153c0-0.219-0.125-0.328-0.376-0.328h-0.161v0.655h0.179c0.116 0 0.204-0.028 0.266-0.083s0.092-0.136 0.092-0.244z"></path>
</svg>
