<!-- Generated by IcoMoon.io -->
<svg version="1.1" xmlns="http://www.w3.org/2000/svg" width="24" height="24" viewBox="0 0 24 24">
<title>wallet</title>
<path d="M20.5 6.508h-17c-1.93 0-3.5 1.57-3.5 3.5v10c0 1.93 1.57 3.5 3.5 3.5h17c1.93 0 3.5-1.57 3.5-3.5v-10c-0-1.93-1.57-3.5-3.5-3.5zM23 20.008c0 1.378-1.121 2.5-2.5 2.5h-17c-1.379 0-2.5-1.122-2.5-2.5v-10c0-1.378 1.121-2.5 2.5-2.5h17c1.379 0 2.5 1.122 2.5 2.5v10z"></path>
<path d="M19.5 13.508c-0.827 0-1.5 0.673-1.5 1.5s0.673 1.5 1.5 1.5c0.827 0 1.5-0.673 1.5-1.5s-0.673-1.5-1.5-1.5zM19.5 15.508c-0.275 0-0.5-0.224-0.5-0.5s0.225-0.5 0.5-0.5c0.275 0 0.5 0.224 0.5 0.5s-0.225 0.5-0.5 0.5z"></path>
<path d="M23.5 11.508h-4c-1.93 0-3.5 1.57-3.5 3.5s1.57 3.5 3.5 3.5h4c0.276 0 0.5-0.224 0.5-0.5v-6c0-0.276-0.224-0.5-0.5-0.5zM23 17.508h-3.5c-1.379 0-2.5-1.122-2.5-2.5s1.121-2.5 2.5-2.5v0h3.5v5z"></path>
<path d="M20.447 6.784l-2.117-4.234c-0.427-0.854-1.164-1.483-2.074-1.771s-1.874-0.197-2.716 0.255l-10.277 5.534c-0.243 0.13-0.334 0.434-0.203 0.677s0.435 0.334 0.677 0.203l10.279-5.532c0.6-0.324 1.291-0.389 1.939-0.183 0.65 0.205 1.176 0.655 1.481 1.265l2.117 4.234c0.088 0.175 0.264 0.276 0.447 0.276 0.075 0 0.151-0.017 0.223-0.053 0.247-0.124 0.347-0.424 0.224-0.671z"></path>
<path d="M18.441 2.772c-0.132-0.244-0.436-0.334-0.678-0.204l-7.429 4c-0.243 0.131-0.334 0.434-0.203 0.677 0.090 0.168 0.262 0.263 0.44 0.263 0.080 0 0.162-0.019 0.238-0.059l7.429-4c0.243-0.131 0.334-0.434 0.203-0.677z"></path>
<path d="M9 3.508h-3.5c-3.032 0-5.5 2.467-5.5 5.5v1c0 0.276 0.224 0.5 0.5 0.5s0.5-0.224 0.5-0.5v-1c0-2.481 2.019-4.5 4.5-4.5h3.5c0.276 0 0.5-0.224 0.5-0.5s-0.224-0.5-0.5-0.5z"></path>
<path d="M18.5 3.508c-0.276 0-0.5 0.224-0.5 0.5s0.224 0.5 0.5 0.5c2.481 0 4.5 2.019 4.5 4.5v1c0 0.276 0.224 0.5 0.5 0.5s0.5-0.224 0.5-0.5v-1c-0-3.033-2.468-5.5-5.5-5.5z"></path>
</svg>
