<svg xmlns="http://www.w3.org/2000/svg" width="24" height="24" viewBox="0 0 24 24"><title>wallet</title><path d="M20.5 6.508h-17c-1.93 0-3.5 1.57-3.5 3.5v10c0 1.93 1.57 3.5 3.5 3.5h17c1.93 0 3.5-1.57 3.5-3.5v-10c0-1.93-1.57-3.5-3.5-3.5zm2.5 13.5c0 1.378-1.121 2.5-2.5 2.5h-17a2.503 2.503 0 0 1-2.5-2.5v-10c0-1.378 1.121-2.5 2.5-2.5h17c1.379 0 2.5 1.122 2.5 2.5v10z"/><path d="M19.5 13.508c-.827 0-1.5.673-1.5 1.5s.673 1.5 1.5 1.5 1.5-.673 1.5-1.5-.673-1.5-1.5-1.5zm0 2a.5.5 0 1 1 .002-1.002.5.5 0 0 1-.002 1.002z"/><path d="M23.5 11.508h-4c-1.93 0-3.5 1.57-3.5 3.5s1.57 3.5 3.5 3.5h4a.5.5 0 0 0 .5-.5v-6a.5.5 0 0 0-.5-.5zm-.5 6h-3.5c-1.379 0-2.5-1.122-2.5-2.5s1.121-2.5 2.5-2.5H23v5zM20.447 6.784L18.33 2.55c-.427-.854-1.164-1.483-2.074-1.771s-1.874-.197-2.716.255L3.263 6.568a.5.5 0 1 0 .474.88l10.279-5.532a2.476 2.476 0 0 1 1.939-.183c.65.205 1.176.655 1.481 1.265l2.117 4.234a.5.5 0 1 0 .894-.448z"/><path d="M18.441 2.772a.502.502 0 0 0-.678-.204l-7.429 4a.5.5 0 1 0 .475.881l7.429-4a.5.5 0 0 0 .203-.677zM9 3.508H5.5a5.506 5.506 0 0 0-5.5 5.5v1a.5.5 0 0 0 1 0v-1c0-2.481 2.019-4.5 4.5-4.5H9a.5.5 0 0 0 0-1zM18.5 3.508a.5.5 0 0 0 0 1c2.481 0 4.5 2.019 4.5 4.5v1a.5.5 0 0 0 1 0v-1c0-3.033-2.468-5.5-5.5-5.5z"/></svg>