<!-- Generated by IcoMoon.io -->
<svg version="1.1" xmlns="http://www.w3.org/2000/svg" width="24" height="24" viewBox="0 0 24 24">
<title>wall-clock</title>
<path fill="#ecf0f9" d="M21.818 12c0 5.422-4.396 9.818-9.818 9.818s-9.818-4.396-9.818-9.818c0-5.422 4.396-9.818 9.818-9.818s9.818 4.396 9.818 9.818z"></path>
<path fill="#c97629" d="M12 0c-6.655 0-12 5.345-12 12s5.345 12 12 12 12-5.345 12-12-5.345-12-12-12zM12 21.818c-5.4 0-9.818-4.418-9.818-9.818s4.418-9.818 9.818-9.818 9.818 4.418 9.818 9.818-4.418 9.818-9.818 9.818z"></path>
<path fill="#d5e3ef" d="M3 12.818c0-5.4 4.418-9.818 9.818-9.818 2.509 0 4.8 0.927 6.491 2.509-1.8-2.073-4.364-3.327-7.309-3.327-5.4 0-9.818 4.418-9.818 9.818 0 2.945 1.255 5.509 3.327 7.309-1.582-1.691-2.509-3.982-2.509-6.491z"></path>
<path fill="#c97629" d="M3.273 12.545h-2.182c-0.327 0-0.545-0.218-0.545-0.545v0c0-0.327 0.218-0.545 0.545-0.545h2.182c0.327 0 0.545 0.218 0.545 0.545v0c0 0.327-0.218 0.545-0.545 0.545z"></path>
<path fill="#b06328" d="M2.182 12c0 0.164 0 0.382 0.055 0.545h0.818c0-0.382 0.055-0.709 0.109-1.091h-0.927c-0.055 0.164-0.055 0.382-0.055 0.545z"></path>
<path fill="#c97629" d="M22.909 12.545h-2.182c-0.327 0-0.545-0.218-0.545-0.545v0c0-0.327 0.218-0.545 0.545-0.545h2.182c0.327 0 0.545 0.218 0.545 0.545v0c0 0.327-0.218 0.545-0.545 0.545z"></path>
<path fill="#c97629" d="M11.455 3.273v-2.182c0-0.327 0.218-0.545 0.545-0.545v0c0.327 0 0.545 0.218 0.545 0.545v2.182c0 0.327-0.218 0.545-0.545 0.545v0c-0.327 0-0.545-0.218-0.545-0.545z"></path>
<path fill="#b06328" d="M11.455 2.236v0.873c0.382-0.055 0.709-0.055 1.091-0.109v-0.764c-0.164-0.055-0.382-0.055-0.545-0.055s-0.382 0-0.545 0.055z"></path>
<path fill="#c97629" d="M11.455 22.909v-2.182c0-0.327 0.218-0.545 0.545-0.545v0c0.327 0 0.545 0.218 0.545 0.545v2.182c0 0.327-0.218 0.545-0.545 0.545v0c-0.327 0-0.545-0.218-0.545-0.545z"></path>
<path fill="#da8c36" d="M12 0v0c-6.655 0-12 5.345-12 12v0c0.6 0 1.091-0.436 1.145-1.036 0.273-2.618 1.418-5.018 3.218-6.764 1.745-1.691 4.036-2.836 6.6-3.055 0.6-0.055 1.036-0.545 1.036-1.145z"></path>
<path fill="#b06328" d="M12 24v0c6.655 0 12-5.345 12-12v0c-0.6 0-1.091 0.436-1.145 1.036-0.218 2.564-1.364 4.855-3.055 6.6-1.745 1.8-4.091 2.945-6.764 3.218-0.6 0.055-1.036 0.545-1.036 1.145z"></path>
<path fill="#595a66" d="M12 11.455c-0.327 0-0.545-0.218-0.545-0.545v-4.364c0-0.327 0.218-0.545 0.545-0.545s0.545 0.218 0.545 0.545v4.364c0 0.327-0.218 0.545-0.545 0.545z"></path>
<path fill="#595a66" d="M16.909 17.455c-0.164 0-0.273-0.055-0.382-0.164l-4.364-4.364c-0.218-0.218-0.218-0.545 0-0.764s0.545-0.218 0.764 0l4.364 4.364c0.218 0.218 0.218 0.545 0 0.764-0.109 0.109-0.218 0.164-0.382 0.164z"></path>
<path fill="#f6b545" d="M8.452 4.91c0 0.301-0.244 0.545-0.545 0.545s-0.545-0.244-0.545-0.545c0-0.301 0.244-0.545 0.545-0.545s0.545 0.244 0.545 0.545z"></path>
<path fill="#f6b545" d="M16.639 19.090c0 0.301-0.244 0.545-0.545 0.545s-0.545-0.244-0.545-0.545c0-0.301 0.244-0.545 0.545-0.545s0.545 0.244 0.545 0.545z"></path>
<path fill="#f6b545" d="M5.458 7.912c0 0.301-0.244 0.545-0.545 0.545s-0.545-0.244-0.545-0.545c0-0.301 0.244-0.545 0.545-0.545s0.545 0.244 0.545 0.545z"></path>
<path fill="#f6b545" d="M19.635 16.085c0 0.301-0.244 0.545-0.545 0.545s-0.545-0.244-0.545-0.545c0-0.301 0.244-0.545 0.545-0.545s0.545 0.244 0.545 0.545z"></path>
<path fill="#f6b545" d="M16.631 4.911c0 0.301-0.244 0.545-0.545 0.545s-0.545-0.244-0.545-0.545c0-0.301 0.244-0.545 0.545-0.545s0.545 0.244 0.545 0.545z"></path>
<path fill="#f6b545" d="M8.46 19.087c0 0.301-0.244 0.545-0.545 0.545s-0.545-0.244-0.545-0.545c0-0.301 0.244-0.545 0.545-0.545s0.545 0.244 0.545 0.545z"></path>
<path fill="#f6b545" d="M19.635 7.906c0 0.301-0.244 0.545-0.545 0.545s-0.545-0.244-0.545-0.545c0-0.301 0.244-0.545 0.545-0.545s0.545 0.244 0.545 0.545z"></path>
<path fill="#f6b545" d="M5.455 16.093c0 0.301-0.244 0.545-0.545 0.545s-0.545-0.244-0.545-0.545c0-0.301 0.244-0.545 0.545-0.545s0.545 0.244 0.545 0.545z"></path>
<path fill="#35363e" d="M12 10.636v-3.818c0-0.164 0.109-0.273 0.273-0.273v0c0.164 0 0.273 0.109 0.273 0.273v3.818c0 0.164-0.109 0.273-0.273 0.273v0c-0.164 0-0.273-0.109-0.273-0.273z"></path>
<path fill="#35363e" d="M16.473 17.236l-3.764-3.764c-0.109-0.109-0.109-0.273 0-0.382v0c0.109-0.109 0.273-0.109 0.382 0l3.764 3.764c0.109 0.109 0.109 0.273 0 0.382v0c-0.109 0.109-0.273 0.109-0.382 0z"></path>
<path fill="#c97629" d="M13.636 12c0 0.904-0.733 1.636-1.636 1.636s-1.636-0.733-1.636-1.636c0-0.904 0.733-1.636 1.636-1.636s1.636 0.733 1.636 1.636z"></path>
<path fill="#b06328" d="M12.873 10.582c0.164 0.273 0.218 0.545 0.218 0.873 0 0.927-0.709 1.636-1.636 1.636-0.327 0-0.6-0.109-0.873-0.218 0.327 0.436 0.818 0.764 1.418 0.764 0.927 0 1.636-0.709 1.636-1.636-0-0.6-0.327-1.091-0.764-1.418z"></path>
<path fill="#da8c36" d="M11.455 11.727c0 0.151-0.122 0.273-0.273 0.273s-0.273-0.122-0.273-0.273c0-0.151 0.122-0.273 0.273-0.273s0.273 0.122 0.273 0.273z"></path>
</svg>
