<!-- Generated by IcoMoon.io -->
<svg version="1.1" xmlns="http://www.w3.org/2000/svg" width="24" height="24" viewBox="0 0 24 24">
<title>warning-1</title>
<path fill="#c42014" d="M24 12c0 6.627-5.373 12-12 12s-12-5.373-12-12c0-6.627 5.373-12 12-12s12 5.373 12 12z"></path>
<path fill="#840202" d="M0 12c0 6.614 5.347 11.96 12 11.96 6.614 0 11.96-5.347 11.96-11.96z"></path>
<path fill="#ebfff6" d="M13.267 15.168h-2.535l-0.95-11.881h4.436z"></path>
<path fill="#d6eae0" d="M14.257 3.208l-0.99 11.96h-2.455z"></path>
<path fill="#ebfff6" d="M14.111 18.62l-2.1 2.101-2.101-2.1 2.1-2.101 2.101 2.1z"></path>
<path fill="#d6eae0" d="M12 16.554l2.099 2.099-2.099 2.059z"></path>
</svg>
