<!-- Generated by IcoMoon.io -->
<svg version="1.1" xmlns="http://www.w3.org/2000/svg" width="24" height="24" viewBox="0 0 24 24">
<title>website</title>
<path fill="#b0c4d8" d="M22.909 20.182h-21.818c-0.6 0-1.091-0.491-1.091-1.091v-18c0-0.6 0.491-1.091 1.091-1.091h21.818c0.6 0 1.091 0.491 1.091 1.091v18c0 0.6-0.491 1.091-1.091 1.091z"></path>
<path fill="#99b4cd" d="M7.145 19.091c0.109 0.218 0.218 0.436 0.327 0.655l-0.818 0.436h5.836c-0.436 0-1.964-0.436-2.673-1.091h-2.673z"></path>
<path fill="#99b4cd" d="M15.764 19.091c-0.709 0.655-1.636 1.091-2.673 1.091h5.836l-0.273-0.436c0.109-0.218 0.273-0.436 0.327-0.655h-3.218z"></path>
<path fill="#eceff9" d="M1.091 3.273h21.818v15.818h-21.818v-15.818z"></path>
<path fill="#c4d7e5" d="M18.655 12.982l0.982-1.636-1.527-1.527-1.636 0.982c-0.545-0.327-1.2-0.6-1.855-0.764v0l-0.436-1.855h-2.182l-0.436 1.855c-0.655 0.164-1.309 0.436-1.855 0.764l-1.636-0.982-1.527 1.527 0.982 1.636c-0.327 0.545-0.6 1.2-0.764 1.855l-1.855 0.436v2.182l1.855 0.436c0.109 0.436 0.218 0.818 0.436 1.2h2.564c-0.055-0.055-0.055-0.055-0.109-0.109l3.491-2.018 3.491 2.018c0 0.055-0.055 0.055-0.055 0.109h2.564c0.164-0.382 0.327-0.764 0.436-1.2l1.691-0.436v-2.182l-1.855-0.436c-0.109-0.709-0.382-1.309-0.764-1.855zM12.545 16.036l-3.491 2.018c-0.218-0.491-0.327-1.091-0.327-1.691 0-2.236 1.691-4.036 3.818-4.309v3.982zM13.091 16.418v0 0 0zM17.127 18.055l-3.491-2.018v-4.036c2.127 0.273 3.818 2.127 3.818 4.309 0 0.655-0.109 1.2-0.327 1.745z"></path>
<path fill="#d5e3ef" d="M3 11.455h4.364c0.164 0 0.273 0.109 0.273 0.273v0c0 0.164-0.109 0.273-0.273 0.273h-4.364c-0.164 0-0.273-0.109-0.273-0.273v0c0-0.164 0.109-0.273 0.273-0.273z"></path>
<path fill="#d5e3ef" d="M3 12.545h3.273c0.164 0 0.273 0.109 0.273 0.273v0c0 0.164-0.109 0.273-0.273 0.273h-3.273c-0.164 0-0.273-0.109-0.273-0.273v0c0-0.164 0.109-0.273 0.273-0.273z"></path>
<path fill="#d5e3ef" d="M3 13.636h3.273c0.164 0 0.273 0.109 0.273 0.273v0c0 0.164-0.109 0.273-0.273 0.273h-3.273c-0.164 0-0.273-0.109-0.273-0.273v0c0-0.164 0.109-0.273 0.273-0.273z"></path>
<path fill="#d5e3ef" d="M3 14.727h3.273c0.164 0 0.273 0.109 0.273 0.273v0c0 0.164-0.109 0.273-0.273 0.273h-3.273c-0.164 0-0.273-0.109-0.273-0.273v0c0-0.164 0.109-0.273 0.273-0.273z"></path>
<path fill="#d5e3ef" d="M3 15.818h3.273c0.164 0 0.273 0.109 0.273 0.273v0c0 0.164-0.109 0.273-0.273 0.273h-3.273c-0.164 0-0.273-0.109-0.273-0.273v0c0-0.164 0.109-0.273 0.273-0.273z"></path>
<path fill="#d5e3ef" d="M3 16.909h3.273c0.164 0 0.273 0.109 0.273 0.273v0c0 0.164-0.109 0.273-0.273 0.273h-3.273c-0.164 0-0.273-0.109-0.273-0.273v0c0-0.164 0.109-0.273 0.273-0.273z"></path>
<path fill="#d5e3ef" d="M9.545 11.455h4.909c0.164 0 0.273 0.109 0.273 0.273v0c0 0.164-0.109 0.273-0.273 0.273h-4.909c-0.164 0-0.273-0.109-0.273-0.273v0c0-0.164 0.109-0.273 0.273-0.273z"></path>
<path fill="#d5e3ef" d="M9.545 12.545h4.909c0.164 0 0.273 0.109 0.273 0.273v0c0 0.164-0.109 0.273-0.273 0.273h-4.909c-0.164 0-0.273-0.109-0.273-0.273v0c0-0.164 0.109-0.273 0.273-0.273z"></path>
<path fill="#d5e3ef" d="M9.545 13.636h4.909c0.164 0 0.273 0.109 0.273 0.273v0c0 0.164-0.109 0.273-0.273 0.273h-4.909c-0.164 0-0.273-0.109-0.273-0.273v0c0-0.164 0.109-0.273 0.273-0.273z"></path>
<path fill="#d5e3ef" d="M9.545 14.727h4.909c0.164 0 0.273 0.109 0.273 0.273v0c0 0.164-0.109 0.273-0.273 0.273h-4.909c-0.164 0-0.273-0.109-0.273-0.273v0c0-0.164 0.109-0.273 0.273-0.273z"></path>
<path fill="#d5e3ef" d="M9.545 15.818h4.909c0.164 0 0.273 0.109 0.273 0.273v0c0 0.164-0.109 0.273-0.273 0.273h-4.909c-0.164 0-0.273-0.109-0.273-0.273v0c0-0.164 0.109-0.273 0.273-0.273z"></path>
<path fill="#d5e3ef" d="M9.545 16.909h4.909c0.164 0 0.273 0.109 0.273 0.273v0c0 0.164-0.109 0.273-0.273 0.273h-4.909c-0.164 0-0.273-0.109-0.273-0.273v0c0-0.164 0.109-0.273 0.273-0.273z"></path>
<path fill="#b0c4d9" d="M14.727 17.182c0-0.164-0.109-0.273-0.273-0.273h-3.436l-0.927 0.545h2.182l0.818-0.491 0.818 0.491h0.545c0.164 0 0.273-0.109 0.273-0.273z"></path>
<path fill="#b0c4d9" d="M14.182 16.364l-0.545-0.327v-0.218h-1.091v0.218l-0.6 0.327h1.145z"></path>
<path fill="#b0c4d9" d="M12.545 14.727h1.091v0.545h-1.091v-0.545z"></path>
<path fill="#b0c4d9" d="M9.273 13.909c0 0.055 0.055 0.164 0.109 0.218 0.109-0.164 0.218-0.327 0.327-0.491h-0.164c-0.164 0-0.273 0.109-0.273 0.273z"></path>
<path fill="#b0c4d9" d="M12.545 13.636h1.091v0.545h-1.091v-0.545z"></path>
<path fill="#b0c4d9" d="M12.545 12.545h1.091v0.545h-1.091v-0.545z"></path>
<path fill="#b0c4d9" d="M9.273 12.818c0 0.164 0.109 0.273 0.273 0.273h0.655c0.218-0.218 0.491-0.382 0.764-0.545h-1.418c-0.164-0-0.273 0.109-0.273 0.273z"></path>
<path fill="#d5e3ef" d="M16.909 11.455h4.091c0.164 0 0.273 0.109 0.273 0.273v0c0 0.164-0.109 0.273-0.273 0.273h-4.091c-0.164 0-0.273-0.109-0.273-0.273v0c0-0.164 0.109-0.273 0.273-0.273z"></path>
<path fill="#d5e3ef" d="M17.727 12.545h3.273c0.164 0 0.273 0.109 0.273 0.273v0c0 0.164-0.109 0.273-0.273 0.273h-3.273c-0.164 0-0.273-0.109-0.273-0.273v0c0-0.164 0.109-0.273 0.273-0.273z"></path>
<path fill="#d5e3ef" d="M17.727 13.636h3.273c0.164 0 0.273 0.109 0.273 0.273v0c0 0.164-0.109 0.273-0.273 0.273h-3.273c-0.164 0-0.273-0.109-0.273-0.273v0c0-0.164 0.109-0.273 0.273-0.273z"></path>
<path fill="#d5e3ef" d="M17.727 14.727h3.273c0.164 0 0.273 0.109 0.273 0.273v0c0 0.164-0.109 0.273-0.273 0.273h-3.273c-0.164 0-0.273-0.109-0.273-0.273v0c0-0.164 0.109-0.273 0.273-0.273z"></path>
<path fill="#b0c4d9" d="M17.727 15.818h3.273c0.164 0 0.273 0.109 0.273 0.273v0c0 0.164-0.109 0.273-0.273 0.273h-3.273c-0.164 0-0.273-0.109-0.273-0.273v0c0-0.164 0.109-0.273 0.273-0.273z"></path>
<path fill="#b0c4d9" d="M17.727 16.909h3.273c0.164 0 0.273 0.109 0.273 0.273v0c0 0.164-0.109 0.273-0.273 0.273h-3.273c-0.164 0-0.273-0.109-0.273-0.273v0c0-0.164 0.109-0.273 0.273-0.273z"></path>
<path fill="#b0c4d9" d="M21.109 15.218l-1.691-0.436c0-0.055 0-0.055 0-0.109h-1.691c-0.164 0-0.273 0.109-0.273 0.273s0.109 0.273 0.273 0.273h3.273c0.055 0.055 0.109 0.055 0.109 0z"></path>
<path fill="#b0c4d9" d="M19.036 13.636h-1.309c-0.164 0-0.273 0.109-0.273 0.273s0.109 0.273 0.273 0.273h1.527c-0.055-0.164-0.164-0.382-0.218-0.545z"></path>
<path fill="#b0c4d9" d="M18.655 12.982l0.273-0.436h-1.2c-0.164 0-0.273 0.109-0.273 0.273s0.109 0.273 0.273 0.273h1.036c-0.055-0.055-0.055-0.109-0.109-0.109z"></path>
<path fill="#b0c4d9" d="M16.909 12h2.345l0.327-0.545h-2.673c-0.164 0-0.273 0.109-0.273 0.273s0.109 0.273 0.273 0.273z"></path>
<path fill="#d5e3ef" d="M2.727 6h18.545v4.364h-18.545v-4.364z"></path>
<path fill="#f04d4e" d="M2.182 1.636c0 0.301-0.244 0.545-0.545 0.545s-0.545-0.244-0.545-0.545c0-0.301 0.244-0.545 0.545-0.545s0.545 0.244 0.545 0.545z"></path>
<path fill="#ffcb5b" d="M4.364 1.636c0 0.301-0.244 0.545-0.545 0.545s-0.545-0.244-0.545-0.545c0-0.301 0.244-0.545 0.545-0.545s0.545 0.244 0.545 0.545z"></path>
<path fill="#3bb54a" d="M6.545 1.636c0 0.301-0.244 0.545-0.545 0.545s-0.545-0.244-0.545-0.545c0-0.301 0.244-0.545 0.545-0.545s0.545 0.244 0.545 0.545z"></path>
<path fill="#e2e7f0" d="M22.364 2.182h-14.182c-0.327 0-0.545-0.218-0.545-0.545v0c0-0.327 0.218-0.545 0.545-0.545h14.182c0.327 0 0.545 0.218 0.545 0.545v0c0 0.327-0.218 0.545-0.545 0.545z"></path>
<path fill="#b0c4d8" d="M4.091 4.364h3.273c0.164 0 0.273 0.109 0.273 0.273v0c0 0.164-0.109 0.273-0.273 0.273h-3.273c-0.164 0-0.273-0.109-0.273-0.273v0c0-0.164 0.109-0.273 0.273-0.273z"></path>
<path fill="#b0c4d8" d="M19.909 4.364h1.091c0.164 0 0.273 0.109 0.273 0.273v0c0 0.164-0.109 0.273-0.273 0.273h-1.091c-0.164 0-0.273-0.109-0.273-0.273v0c0-0.164 0.109-0.273 0.273-0.273z"></path>
<path fill="#b0c4d8" d="M17.727 4.364h1.091c0.164 0 0.273 0.109 0.273 0.273v0c0 0.164-0.109 0.273-0.273 0.273h-1.091c-0.164 0-0.273-0.109-0.273-0.273v0c0-0.164 0.109-0.273 0.273-0.273z"></path>
<path fill="#b0c4d8" d="M15.545 4.364h1.091c0.164 0 0.273 0.109 0.273 0.273v0c0 0.164-0.109 0.273-0.273 0.273h-1.091c-0.164 0-0.273-0.109-0.273-0.273v0c0-0.164 0.109-0.273 0.273-0.273z"></path>
<path fill="#b0c4d8" d="M3 4.364c-0.164 0-0.273 0.109-0.273 0.273v0c0 0.164 0.109 0.273 0.273 0.273s0.273-0.109 0.273-0.273v0c0-0.164-0.109-0.273-0.273-0.273zM3 4.527c0 0 0-0.055 0 0v0c0-0.055 0 0 0 0z"></path>
<path fill="#b0c4d9" d="M14.182 8.182h-2.182l-0.436 1.855c-0.382 0.109-0.709 0.218-1.036 0.327h5.182c-0.327-0.164-0.709-0.273-1.036-0.327v0l-0.491-1.855z"></path>
<path fill="#b0c4d9" d="M7.527 10.364h1.473l-0.927-0.545z"></path>
<path fill="#b0c4d9" d="M17.182 10.364h1.473l-0.545-0.545z"></path>
<path fill="#1470b8" d="M20.182 16.909v-2.182l-1.855-0.436c-0.164-0.655-0.436-1.309-0.764-1.855l0.982-1.636-1.527-1.527-1.636 0.982c-0.545-0.327-1.2-0.6-1.855-0.764v0l-0.436-1.855h-2.182l-0.436 1.855c-0.655 0.164-1.309 0.436-1.855 0.764l-1.636-0.982-1.527 1.527 0.982 1.636c-0.327 0.545-0.6 1.2-0.764 1.855l-1.855 0.436v2.182l1.855 0.436c0.164 0.655 0.436 1.309 0.764 1.855l-0.982 1.636 1.527 1.527 1.636-0.982c0.545 0.327 1.2 0.6 1.855 0.764l0.436 1.855h2.182l0.436-1.855c0.655-0.164 1.309-0.436 1.855-0.764l1.636 0.982 1.527-1.527-0.982-1.636c0.327-0.545 0.6-1.2 0.764-1.855l1.855-0.436zM12 15.873v0 0 0zM11.455 11.509v3.982l-3.491 2.018c-0.218-0.491-0.327-1.091-0.327-1.691 0-2.236 1.691-4.036 3.818-4.309zM12 20.182c-1.418 0-2.673-0.709-3.491-1.745l3.491-2.018 3.491 2.018c-0.818 1.091-2.073 1.745-3.491 1.745zM16.036 17.509l-3.491-2.018v-4.036c2.127 0.273 3.818 2.127 3.818 4.309 0 0.655-0.109 1.2-0.327 1.745z"></path>
<path fill="#3689c9" d="M12 20.182v0.545c2.727 0 4.909-2.182 4.909-4.909h-0.545c0 2.4-1.964 4.364-4.364 4.364z"></path>
<path fill="#0261a5" d="M12 11.455v-0.545c-2.727 0-4.909 2.182-4.909 4.909h0.545c0-2.4 1.964-4.364 4.364-4.364z"></path>
<path fill="#1470b8" d="M13.091 15.818c0 0.603-0.488 1.091-1.091 1.091s-1.091-0.488-1.091-1.091c0-0.603 0.488-1.091 1.091-1.091s1.091 0.488 1.091 1.091z"></path>
<path fill="#0261a5" d="M12.436 14.836c0.055 0.164 0.109 0.273 0.109 0.436 0 0.6-0.491 1.091-1.091 1.091-0.164 0-0.327-0.055-0.436-0.109 0.164 0.382 0.545 0.655 0.982 0.655 0.6 0 1.091-0.491 1.091-1.091 0-0.436-0.273-0.818-0.655-0.982z"></path>
<path fill="#0261a5" d="M8.782 18.709l0.055 0.055c-0.055-0.055-0.055-0.109-0.109-0.109 0 0.055 0 0.055 0.055 0.055z"></path>
<path fill="#0261a5" d="M9.164 19.145c0 0 0-0.055 0 0-0.164-0.164-0.273-0.218-0.382-0.327 0.164 0.109 0.273 0.218 0.382 0.327z"></path>
<path fill="#0261a5" d="M8.291 17.291l-0.327 0.164v0.055c0.109 0.218 0.218 0.436 0.327 0.6l0.055 0.055c0.055 0.055 0.109 0.164 0.164 0.218l0.164-0.055c-0.164-0.327-0.327-0.655-0.382-1.036z"></path>
<path fill="#0261a5" d="M11.455 11.509v0.655c0.327-0.109 0.709-0.164 1.091-0.164v-0.491c-0.164 0-0.382-0.055-0.545-0.055s-0.382 0-0.545 0.055v0z"></path>
<path fill="#0261a5" d="M8.509 18.436c0.055 0.109 0.109 0.164 0.218 0.218-0.055-0.055-0.164-0.164-0.218-0.218v0z"></path>
</svg>
